<svg version="1.1" viewBox="0.0 0.0 718.9343832020998 276.56692913385825" fill="none" stroke="none" stroke-linecap="square" stroke-miterlimit="10" xmlns:xlink="http://www.w3.org/1999/xlink" xmlns="http://www.w3.org/2000/svg"><clipPath id="p.0"><path d="m0 0l718.9344 0l0 276.56693l-718.9344 0l0 -276.56693z" clip-rule="nonzero"/></clipPath><g clip-path="url(#p.0)"><path fill="#000000" fill-opacity="0.0" d="m0 0l718.9344 0l0 276.56693l-718.9344 0z" fill-rule="evenodd"/><path fill="#000000" fill-opacity="0.0" d="m282.43326 205.59767l0 0c0 -4.9527893 4.0150146 -8.967834 8.967834 -8.967834l308.99344 0c2.378418 0 4.659424 0.9448242 6.3412476 2.6266174c1.6817627 1.6817932 2.626587 3.962799 2.626587 6.341217l0 14.568268c0 4.9528046 -4.0150146 8.967834 -8.967834 8.967834l-308.99344 0c-4.95282 0 -8.967834 -4.01503 -8.967834 -8.967834z" fill-rule="evenodd"/><path stroke="#000000" stroke-width="1.0" stroke-linejoin="round" stroke-linecap="butt" d="m282.43326 205.59767l0 0c0 -4.9527893 4.0150146 -8.967834 8.967834 -8.967834l308.99344 0c2.378418 0 4.659424 0.9448242 6.3412476 2.6266174c1.6817627 1.6817932 2.626587 3.962799 2.626587 6.341217l0 14.568268c0 4.9528046 -4.0150146 8.967834 -8.967834 8.967834l-308.99344 0c-4.95282 0 -8.967834 -4.01503 -8.967834 -8.967834z" fill-rule="evenodd"/><path fill="#000000" d="m440.41345 218.7418l0 -11.421875l1.328125 0l0 11.421875l-1.328125 0zm7.453125 -11.421875q2.21875 0 3.234375 0.859375q1.015625 0.859375 1.015625 2.46875q0 0.734375 -0.234375 1.390625q-0.234375 0.640625 -0.765625 1.140625q-0.53125 0.5 -1.40625 0.78125q-0.859375 0.28125 -2.109375 0.28125l-1.390625 0l0 4.5l-1.328125 0l0 -11.421875l2.984375 0zm-0.125 1.125l-1.53125 0l0 4.65625l1.25 0q1.09375 0 1.8125 -0.234375q0.734375 -0.234375 1.09375 -0.75q0.375 -0.53125 0.375 -1.40625q0 -1.140625 -0.734375 -1.703125q-0.71875 -0.5625 -2.265625 -0.5625z" fill-rule="nonzero"/><path fill="#000000" fill-opacity="0.0" d="m109.57218 191.87401l124.850395 0l0 38.771667l-124.850395 0z" fill-rule="evenodd"/><path fill="#000000" d="m129.07217 216.23401l-1.5312424 0l-6.234375 -9.59375l-0.0625 0q0.03125 0.375 0.0625 0.875q0.03125 0.484375 0.046875 1.03125q0.015625 0.546875 0.015625 1.125l0 6.5625l-1.234375 0l0 -11.421875l1.53125 0l6.203125 9.5625l0.046875 0q-0.015625 -0.28125 -0.046875 -0.78125q-0.015625 -0.5 -0.03125 -1.078125q-0.015625 -0.59375 -0.015625 -1.09375l0 -6.609375l1.2499924 0l0 11.421875zm6.21875 -8.71875q1.09375 0 1.875 0.484375q0.78125 0.484375 1.1875 1.359375q0.421875 0.859375 0.421875 2.03125l0 0.796875l-5.921875 0q0.03125 1.515625 0.75 2.3125q0.734375 0.78125 2.046875 0.78125q0.8125 0 1.4375 -0.140625q0.625 -0.15625 1.296875 -0.453125l0 1.140625q-0.640625 0.296875 -1.28125 0.421875q-0.640625 0.140625 -1.5 0.140625q-1.234375 0 -2.15625 -0.5q-0.921875 -0.515625 -1.4375 -1.484375q-0.5 -0.984375 -0.5 -2.390625q0 -1.390625 0.46875 -2.390625q0.46875 -1.015625 1.3125 -1.5625q0.84375 -0.546875 2.0 -0.546875zm-0.015625 1.0625q-1.046875 0 -1.671875 0.6875q-0.609375 0.671875 -0.71875 1.890625l4.53125 0q-0.015625 -0.765625 -0.25 -1.34375q-0.21875 -0.59375 -0.6875 -0.90625q-0.46875 -0.328125 -1.203125 -0.328125zm8.46875 6.75q0.3125 0 0.640625 -0.046875q0.34375 -0.0625 0.5625 -0.140625l0 1.0q-0.234375 0.109375 -0.640625 0.171875q-0.390625 0.078125 -0.78125 0.078125q-0.671875 0 -1.234375 -0.234375q-0.546875 -0.25 -0.890625 -0.8125q-0.328125 -0.578125 -0.328125 -1.578125l0 -5.078125l-1.21875 0l0 -0.640625l1.234375 -0.5l0.515625 -1.859375l0.78125 0l0 1.984375l2.5 0l0 1.015625l-2.5 0l0 5.03125q0 0.8125 0.359375 1.21875q0.375 0.390625 1.0 0.390625zm9.90625 0.890625l-1.53125 -4.984375q-0.09375 -0.328125 -0.1875 -0.625q-0.09375 -0.3125 -0.171875 -0.59375q-0.0625 -0.296875 -0.125 -0.53125q-0.0625 -0.25 -0.09375 -0.4375l-0.0625 0q-0.03125 0.1875 -0.09375 0.4375q-0.046875 0.234375 -0.125 0.53125q-0.0625 0.28125 -0.15625 0.609375q-0.078125 0.3125 -0.1875 0.625l-1.59375 4.96875l-1.46875 0l-2.359375 -8.5625l1.34375 0l1.234375 4.71875q0.125 0.46875 0.234375 0.9375q0.125 0.453125 0.203125 0.859375q0.078125 0.390625 0.125 0.6875l0.0625 0q0.046875 -0.1875 0.09375 -0.453125q0.0625 -0.28125 0.140625 -0.59375q0.078125 -0.3125 0.15625 -0.609375q0.09375 -0.3125 0.171875 -0.59375l1.578125 -4.953125l1.40625 0l1.515625 4.953125q0.125 0.375 0.234375 0.78125q0.109375 0.40625 0.203125 0.78125q0.09375 0.375 0.140625 0.671875l0.0625 0q0.03125 -0.265625 0.109375 -0.65625q0.09375 -0.390625 0.203125 -0.859375q0.109375 -0.46875 0.234375 -0.953125l1.25 -4.71875l1.328125 0l-2.375 8.5625l-1.5 0zm12.8046875 -4.28125q0 1.046875 -0.28125 1.875q-0.265625 0.828125 -0.78125 1.40625q-0.515625 0.5625 -1.25 0.875q-0.71875 0.296875 -1.640625 0.296875q-0.859375 0 -1.578125 -0.296875q-0.71875 -0.3125 -1.234375 -0.875q-0.515625 -0.578125 -0.8125 -1.40625q-0.28125 -0.828125 -0.28125 -1.875q0 -1.40625 0.46875 -2.390625q0.484375 -1.0 1.375 -1.515625q0.890625 -0.515625 2.109375 -0.515625q1.171875 0 2.046875 0.53125q0.890625 0.515625 1.375 1.5q0.484375 0.984375 0.484375 2.390625zm-6.515625 0q0 1.03125 0.265625 1.796875q0.28125 0.75 0.84375 1.171875q0.578125 0.40625 1.484375 0.40625q0.890625 0 1.453125 -0.40625q0.578125 -0.421875 0.84375 -1.171875q0.28125 -0.765625 0.28125 -1.796875q0 -1.03125 -0.28125 -1.765625q-0.265625 -0.75 -0.84375 -1.15625q-0.5625 -0.40625 -1.46875 -0.40625q-1.328125 0 -1.953125 0.890625q-0.625 0.875 -0.625 2.4375zm12.65625 -4.421875q0.25 0 0.53125 0.03125q0.28125 0.015625 0.5 0.0625l-0.15625 1.203125q-0.21875 -0.046875 -0.484375 -0.078125q-0.25 -0.03125 -0.46875 -0.03125q-0.515625 0 -0.984375 0.203125q-0.453125 0.203125 -0.796875 0.59375q-0.34375 0.390625 -0.546875 0.9375q-0.1875 0.53125 -0.1875 1.203125l0 4.59375l-1.296875 0l0 -8.5625l1.078125 0l0.140625 1.578125l0.046875 0q0.265625 -0.484375 0.640625 -0.875q0.375 -0.390625 0.875 -0.625q0.5 -0.234375 1.109375 -0.234375zm3.9296875 -3.4375l0 6.3125q0 0.3125 -0.03125 0.765625q-0.015625 0.4375 -0.03125 0.78125l0.0625 0q0.15625 -0.203125 0.46875 -0.59375q0.328125 -0.40625 0.546875 -0.640625l2.84375 -3.03125l1.515625 0l-3.4375 3.65625l3.6875 4.90625l-1.5625 0l-3.015625 -4.0625l-1.046875 0.953125l0 3.109375l-1.28125 0l0 -12.15625l1.28125 0z" fill-rule="nonzero"/><path fill="#000000" fill-opacity="0.0" d="m109.57218 188.7559l499.7795 0" fill-rule="evenodd"/><path stroke="#999999" stroke-width="1.0" stroke-linejoin="round" stroke-linecap="butt" stroke-dasharray="8.0,3.0" d="m109.57218 188.7559l499.7795 0" fill-rule="evenodd"/><path fill="#000000" fill-opacity="0.0" d="m609.3622 176.8819l23.24414 0l0 23.748032l-23.24414 0z" fill-rule="evenodd"/><path fill="#000000" fill-opacity="0.0" d="m86.32809 176.8819l23.244095 0l0 23.748032l-23.244095 0z" fill-rule="evenodd"/><path fill="#000000" fill-opacity="0.0" d="m282.43307 158.52951l0 0c0 -4.9527893 4.015045 -8.967834 8.967834 -8.967834l137.11945 0c2.378418 0 4.659424 0.9448242 6.341217 2.6266174c1.6817932 1.6817932 2.6266174 3.962799 2.6266174 6.341217l0 14.568268c0 4.9528046 -4.015045 8.967834 -8.967834 8.967834l-137.11945 0l0 0c-4.9527893 0 -8.967834 -4.01503 -8.967834 -8.967834z" fill-rule="evenodd"/><path stroke="#000000" stroke-width="1.0" stroke-linejoin="round" stroke-linecap="butt" d="m282.43307 158.52951l0 0c0 -4.9527893 4.015045 -8.967834 8.967834 -8.967834l137.11945 0c2.378418 0 4.659424 0.9448242 6.341217 2.6266174c1.6817932 1.6817932 2.6266174 3.962799 2.6266174 6.341217l0 14.568268c0 4.9528046 -4.015045 8.967834 -8.967834 8.967834l-137.11945 0l0 0c-4.9527893 0 -8.967834 -4.01503 -8.967834 -8.967834z" fill-rule="evenodd"/><path fill="#000000" d="m353.71454 160.25177l0 7.390625q0 1.203125 -0.484375 2.15625q-0.484375 0.9375 -1.46875 1.484375q-0.984375 0.546875 -2.46875 0.546875q-2.125 0 -3.234375 -1.140625q-1.09375 -1.15625 -1.09375 -3.078125l0 -7.359375l1.328125 0l0 7.390625q0 1.453125 0.765625 2.25q0.78125 0.78125 2.3125 0.78125q1.046875 0 1.703125 -0.375q0.671875 -0.375 1.0 -1.0625q0.328125 -0.6875 0.328125 -1.578125l0 -7.40625l1.3125 0zm12.1015625 5.59375q0 1.9375 -0.703125 3.234375q-0.703125 1.28125 -2.046875 1.9375q-1.328125 0.65625 -3.21875 0.65625l-3.109375 0l0 -11.421875l3.453125 0q1.734375 0 2.984375 0.640625q1.265625 0.625 1.953125 1.875q0.6875 1.25 0.6875 3.078125zm-1.40625 0.046875q0 -1.53125 -0.515625 -2.53125q-0.5 -1.0 -1.5 -1.484375q-0.984375 -0.5 -2.40625 -0.5l-1.921875 0l0 9.15625l1.625 0q2.359375 0 3.53125 -1.15625q1.1875 -1.171875 1.1875 -3.484375zm6.921875 -5.640625q2.21875 0 3.234375 0.859375q1.015625 0.859375 1.015625 2.46875q0 0.734375 -0.234375 1.390625q-0.234375 0.640625 -0.765625 1.140625q-0.53125 0.5 -1.40625 0.78125q-0.859375 0.28125 -2.109375 0.28125l-1.390625 0l0 4.5l-1.328125 0l0 -11.421875l2.984375 0zm-0.125 1.125l-1.53125 0l0 4.65625l1.25 0q1.09375 0 1.8125 -0.234375q0.734375 -0.234375 1.09375 -0.75q0.375 -0.53125 0.375 -1.40625q0 -1.140625 -0.734375 -1.703125q-0.71875 -0.5625 -2.265625 -0.5625z" fill-rule="nonzero"/><path fill="#000000" fill-opacity="0.0" d="m454.3071 110.96091l0 0c0 -5.815811 4.71463 -10.530464 10.530457 -10.530464l133.99417 0c2.7928467 0 5.4713135 1.1094589 7.446167 3.0843048c1.9748535 1.9748459 3.0842896 4.653305 3.0842896 7.4461594l0 60.576874c0 5.815811 -4.7145996 10.530457 -10.530457 10.530457l-133.99417 0l0 0c-5.8158264 0 -10.530457 -4.7146454 -10.530457 -10.530457z" fill-rule="evenodd"/><path stroke="#000000" stroke-width="1.0" stroke-linejoin="round" stroke-linecap="butt" d="m454.3071 110.96091l0 0c0 -5.815811 4.71463 -10.530464 10.530457 -10.530464l133.99417 0c2.7928467 0 5.4713135 1.1094589 7.446167 3.0843048c1.9748535 1.9748459 3.0842896 4.653305 3.0842896 7.4461594l0 60.576874c0 5.815811 -4.7145996 10.530457 -10.530457 10.530457l-133.99417 0l0 0c-5.8158264 0 -10.530457 -4.7146454 -10.530457 -10.530457z" fill-rule="evenodd"/><path fill="#000000" d="m522.65497 147.10934l-1.34375 0l0 -10.25l-3.59375 0l0 -1.171875l8.515625 0l0 1.171875l-3.578125 0l0 10.25zm10.1875 -10.421875q-0.953125 0 -1.703125 0.328125q-0.75 0.328125 -1.28125 0.9375q-0.53125 0.609375 -0.8125 1.484375q-0.28125 0.859375 -0.28125 1.953125q0 1.4375 0.453125 2.5q0.453125 1.046875 1.34375 1.625q0.890625 0.578125 2.234375 0.578125q0.765625 0 1.4375 -0.125q0.6875 -0.125 1.328125 -0.328125l0 1.15625q-0.625 0.234375 -1.3125 0.34375q-0.6875 0.125 -1.640625 0.125q-1.734375 0 -2.90625 -0.71875q-1.171875 -0.734375 -1.75 -2.046875q-0.578125 -1.328125 -0.578125 -3.125q0 -1.296875 0.359375 -2.359375q0.359375 -1.078125 1.0625 -1.859375q0.703125 -0.78125 1.71875 -1.203125q1.015625 -0.4375 2.34375 -0.4375q0.859375 0 1.65625 0.171875q0.8125 0.171875 1.46875 0.5l-0.53125 1.125q-0.546875 -0.25 -1.203125 -0.4375q-0.65625 -0.1875 -1.40625 -0.1875zm8.171875 -1.0q2.21875 0 3.234375 0.859375q1.015625 0.859375 1.015625 2.46875q0 0.734375 -0.234375 1.390625q-0.234375 0.640625 -0.765625 1.140625q-0.53125 0.5 -1.40625 0.78125q-0.859375 0.28125 -2.109375 0.28125l-1.390625 0l0 4.5l-1.328125 0l0 -11.421875l2.984375 0zm-0.125 1.125l-1.53125 0l0 4.65625l1.25 0q1.09375 0 1.8125 -0.234375q0.734375 -0.234375 1.09375 -0.75q0.375 -0.53125 0.375 -1.40625q0 -1.140625 -0.734375 -1.703125q-0.71875 -0.5625 -2.265625 -0.5625z" fill-rule="nonzero"/><path fill="#000000" fill-opacity="0.0" d="m282.43307 109.398285l0 0c0 -4.9528046 4.015045 -8.967842 8.967834 -8.967842l137.11945 0c2.378418 0 4.659424 0.9448242 6.341217 2.626625c1.6817932 1.6817932 2.6266174 3.962799 2.6266174 6.341217l0 14.56826c0 4.952797 -4.015045 8.967842 -8.967834 8.967842l-137.11945 0l0 0c-4.9527893 0 -8.967834 -4.015045 -8.967834 -8.967842z" fill-rule="evenodd"/><path stroke="#000000" stroke-width="1.0" stroke-linejoin="round" stroke-linecap="butt" d="m282.43307 109.398285l0 0c0 -4.9528046 4.015045 -8.967842 8.967834 -8.967842l137.11945 0c2.378418 0 4.659424 0.9448242 6.341217 2.626625c1.6817932 1.6817932 2.6266174 3.962799 2.6266174 6.341217l0 14.56826c0 4.952797 -4.015045 8.967842 -8.967834 8.967842l-137.11945 0l0 0c-4.9527893 0 -8.967834 -4.015045 -8.967834 -8.967842z" fill-rule="evenodd"/><path fill="#000000" d="m352.10126 116.80804q0 1.40625 -0.390625 2.546875q-0.375 1.140625 -1.125 1.9375q-0.75 0.78125 -1.875 1.140625l2.6875 2.828125l-1.90625 0l-2.203125 -2.578125q-0.109375 0 -0.21875 0q-0.09375 0.015625 -0.203125 0.015625q-1.328125 0 -2.3125 -0.421875q-0.984375 -0.421875 -1.640625 -1.203125q-0.65625 -0.78125 -0.984375 -1.859375q-0.3125 -1.09375 -0.3125 -2.421875q0 -1.75 0.578125 -3.0625q0.578125 -1.328125 1.75 -2.0625q1.171875 -0.734375 2.953125 -0.734375q1.6875 0 2.84375 0.734375q1.171875 0.71875 1.765625 2.046875q0.59375 1.3125 0.59375 3.09375zm-9.09375 0q0 1.453125 0.40625 2.515625q0.421875 1.0625 1.28125 1.640625q0.859375 0.578125 2.171875 0.578125q1.328125 0 2.171875 -0.578125q0.859375 -0.578125 1.265625 -1.640625q0.40625 -1.0625 0.40625 -2.515625q0 -2.203125 -0.9375 -3.453125q-0.921875 -1.25 -2.875 -1.25q-1.328125 0 -2.1875 0.578125q-0.859375 0.5625 -1.28125 1.625q-0.421875 1.046875 -0.421875 2.5zm20.273438 -5.6875l0 7.390625q0 1.203125 -0.484375 2.15625q-0.484375 0.9375 -1.46875 1.484375q-0.984375 0.546875 -2.46875 0.546875q-2.125 0 -3.234375 -1.140625q-1.09375 -1.15625 -1.09375 -3.078125l0 -7.359375l1.328125 0l0 7.390625q0 1.453125 0.765625 2.25q0.78125 0.78125 2.3125 0.78125q1.046875 0 1.703125 -0.375q0.671875 -0.375 1.0 -1.0625q0.328125 -0.6875 0.328125 -1.578125l0 -7.40625l1.3125 0zm3.0234375 11.421875l0 -11.421875l1.328125 0l0 11.421875l-1.328125 0zm9.359375 -10.421875q-0.953125 0 -1.703125 0.328125q-0.75 0.328125 -1.28125 0.9375q-0.53125 0.609375 -0.8125 1.484375q-0.28125 0.859375 -0.28125 1.953125q0 1.4375 0.453125 2.5q0.453125 1.046875 1.34375 1.625q0.890625 0.578125 2.234375 0.578125q0.765625 0 1.4375 -0.125q0.6875 -0.125 1.328125 -0.328125l0 1.15625q-0.625 0.234375 -1.3125 0.34375q-0.6875 0.125 -1.640625 0.125q-1.734375 0 -2.90625 -0.71875q-1.171875 -0.734375 -1.75 -2.046875q-0.578125 -1.328125 -0.578125 -3.125q0 -1.296875 0.359375 -2.359375q0.359375 -1.078125 1.0625 -1.859375q0.703125 -0.78125 1.71875 -1.203125q1.015625 -0.4375 2.34375 -0.4375q0.859375 0 1.65625 0.171875q0.8125 0.171875 1.46875 0.5l-0.53125 1.125q-0.546875 -0.25 -1.203125 -0.4375q-0.65625 -0.1875 -1.40625 -0.1875z" fill-rule="nonzero"/><path fill="#000000" fill-opacity="0.0" d="m282.43307 59.58988l0 0c0 -4.952797 4.015045 -8.967834 8.967834 -8.967834l308.99344 0c2.378418 0 4.659424 0.9448242 6.3412476 2.6266174c1.6817627 1.681797 2.626587 3.962799 2.626587 6.341217l0 14.568268c0 4.952797 -4.0150146 8.967834 -8.967834 8.967834l-308.99344 0c-4.9527893 0 -8.967834 -4.0150375 -8.967834 -8.967834z" fill-rule="evenodd"/><path stroke="#000000" stroke-width="1.0" stroke-linejoin="round" stroke-linecap="butt" d="m282.43307 59.58988l0 0c0 -4.952797 4.015045 -8.967834 8.967834 -8.967834l308.99344 0c2.378418 0 4.659424 0.9448242 6.3412476 2.6266174c1.6817627 1.681797 2.626587 3.962799 2.626587 6.341217l0 14.568268c0 4.952797 -4.0150146 8.967834 -8.967834 8.967834l-308.99344 0c-4.9527893 0 -8.967834 -4.0150375 -8.967834 -8.967834z" fill-rule="evenodd"/><path fill="#000000" d="m430.53046 76.57777q-1.6875 0 -2.609375 -0.625q-0.90625 -0.625 -0.90625 -1.765625q0 -0.796875 0.5 -1.375q0.515625 -0.578125 1.421875 -0.765625q-0.328125 -0.15625 -0.578125 -0.46875q-0.234375 -0.3125 -0.234375 -0.71875q0 -0.46875 0.265625 -0.8125q0.265625 -0.359375 0.796875 -0.6875q-0.671875 -0.28125 -1.09375 -0.921875q-0.40625 -0.65625 -0.40625 -1.53125q0 -0.921875 0.375 -1.5625q0.390625 -0.65625 1.109375 -1.0q0.734375 -0.34375 1.765625 -0.34375q0.21875 0 0.453125 0.015625q0.234375 0.015625 0.4375 0.0625q0.21875 0.03125 0.375 0.078125l2.9375 0l0 0.828125l-1.578125 0.203125q0.234375 0.296875 0.390625 0.734375q0.15625 0.421875 0.15625 0.953125q0 1.28125 -0.875 2.03125q-0.859375 0.75 -2.375 0.75q-0.359375 0 -0.734375 -0.0625q-0.390625 0.21875 -0.59375 0.484375q-0.1875 0.25 -0.1875 0.578125q0 0.25 0.140625 0.40625q0.15625 0.140625 0.4375 0.21875q0.296875 0.0625 0.703125 0.0625l1.515625 0q1.390625 0 2.140625 0.59375q0.75 0.578125 0.75 1.703125q0 1.421875 -1.15625 2.171875q-1.15625 0.765625 -3.34375 0.765625zm0.03125 -1.015625q1.0625 0 1.765625 -0.21875q0.703125 -0.203125 1.046875 -0.609375q0.34375 -0.40625 0.34375 -0.953125q0 -0.515625 -0.234375 -0.78125q-0.234375 -0.265625 -0.6875 -0.359375q-0.453125 -0.09375 -1.109375 -0.09375l-1.484375 0q-0.578125 0 -1.015625 0.1875q-0.421875 0.1875 -0.65625 0.53125q-0.21875 0.359375 -0.21875 0.875q0 0.703125 0.578125 1.0625q0.59375 0.359375 1.671875 0.359375zm0.34375 -6.84375q0.921875 0 1.390625 -0.46875q0.46875 -0.46875 0.46875 -1.375q0 -0.953125 -0.484375 -1.4375q-0.46875 -0.484375 -1.390625 -0.484375q-0.890625 0 -1.375 0.5q-0.484375 0.5 -0.484375 1.453125q0 0.875 0.484375 1.34375q0.484375 0.46875 1.390625 0.46875zm9.203125 -7.40625q1.40625 0 2.3125 0.34375q0.921875 0.34375 1.375 1.0625q0.453125 0.703125 0.453125 1.8125q0 0.90625 -0.328125 1.515625q-0.328125 0.59375 -0.859375 0.96875q-0.53125 0.375 -1.125 0.578125l3.125 5.140625l-1.546875 0l-2.796875 -4.765625l-2.375 0l0 4.765625l-1.328125 0l0 -11.421875l3.09375 0zm-0.078125 1.140625l-1.6875 0l0 4.390625l1.8125 0q1.40625 0 2.0625 -0.5625q0.65625 -0.578125 0.65625 -1.6875q0 -1.171875 -0.703125 -1.65625q-0.6875 -0.484375 -2.140625 -0.484375zm9.84375 -1.140625q2.21875 0 3.234375 0.859375q1.015625 0.859375 1.015625 2.46875q0 0.734375 -0.234375 1.390625q-0.234375 0.640625 -0.765625 1.140625q-0.53125 0.5 -1.40625 0.78125q-0.859375 0.28125 -2.109375 0.28125l-1.390625 0l0 4.5l-1.328125 0l0 -11.421875l2.984375 0zm-0.125 1.125l-1.53125 0l0 4.65625l1.25 0q1.09375 0 1.8125 -0.234375q0.734375 -0.234375 1.09375 -0.75q0.375 -0.53125 0.375 -1.40625q0 -1.140625 -0.734375 -1.703125q-0.71875 -0.5625 -2.265625 -0.5625zm11.65625 -0.125q-0.953125 0 -1.703125 0.328125q-0.75 0.328125 -1.28125 0.9375q-0.53125 0.609375 -0.8125 1.484375q-0.28125 0.859375 -0.28125 1.953125q0 1.4375 0.453125 2.5q0.453125 1.046875 1.34375 1.625q0.890625 0.578125 2.234375 0.578125q0.765625 0 1.4375 -0.125q0.6875 -0.125 1.328125 -0.328125l0 1.15625q-0.625 0.234375 -1.3125 0.34375q-0.6875 0.125 -1.640625 0.125q-1.734375 0 -2.90625 -0.71875q-1.171875 -0.734375 -1.75 -2.046875q-0.578125 -1.328125 -0.578125 -3.125q0 -1.296875 0.359375 -2.359375q0.359375 -1.078125 1.0625 -1.859375q0.703125 -0.78125 1.71875 -1.203125q1.015625 -0.4375 2.34375 -0.4375q0.859375 0 1.65625 0.171875q0.8125 0.171875 1.46875 0.5l-0.53125 1.125q-0.546875 -0.25 -1.203125 -0.4375q-0.65625 -0.1875 -1.40625 -0.1875z" fill-rule="nonzero"/><path fill="#000000" fill-opacity="0.0" d="m109.57218 146.42783l124.850395 0l0 38.771652l-124.850395 0z" fill-rule="evenodd"/><path fill="#000000" d="m123.65031 170.78783l-1.34375 0l0 -10.25l-3.59375 0l0 -1.171875l8.515625 0l0 1.171875l-3.578125 0l0 10.25zm8.999992 -8.71875q0.25 0 0.53125 0.03125q0.28125 0.015625 0.5 0.0625l-0.15625 1.203125q-0.21875 -0.046875 -0.484375 -0.078125q-0.25 -0.03125 -0.46875 -0.03125q-0.515625 0 -0.984375 0.203125q-0.453125 0.203125 -0.796875 0.59375q-0.34375 0.390625 -0.546875 0.9375q-0.1875 0.53125 -0.1875 1.203125l0 4.59375l-1.296875 0l0 -8.5625l1.078125 0l0.140625 1.578125l0.046875 0q0.265625 -0.484375 0.640625 -0.875q0.375 -0.390625 0.875 -0.625q0.5 -0.234375 1.109375 -0.234375zm5.8515625 0.015625q1.53125 0 2.265625 0.6875q0.75 0.6875 0.75 2.1875l0 5.828125l-0.953125 0l-0.25 -1.265625l-0.0625 0q-0.359375 0.46875 -0.75 0.78125q-0.390625 0.3125 -0.90625 0.484375q-0.5 0.15625 -1.25 0.15625q-0.78125 0 -1.390625 -0.265625q-0.59375 -0.28125 -0.953125 -0.828125q-0.34375 -0.5625 -0.34375 -1.421875q0 -1.28125 1.015625 -1.96875q1.015625 -0.6875 3.09375 -0.75l1.484375 -0.0625l0 -0.515625q0 -1.109375 -0.484375 -1.546875q-0.46875 -0.453125 -1.34375 -0.453125q-0.671875 0 -1.28125 0.203125q-0.609375 0.1875 -1.15625 0.453125l-0.390625 -0.984375q0.578125 -0.296875 1.328125 -0.5q0.75 -0.21875 1.578125 -0.21875zm1.734375 4.484375l-1.3125 0.046875q-1.59375 0.0625 -2.25 0.53125q-0.65625 0.453125 -0.65625 1.296875q0 0.734375 0.4375 1.09375q0.453125 0.34375 1.1875 0.34375q1.140625 0 1.859375 -0.625q0.734375 -0.640625 0.734375 -1.90625l0 -0.78125zm8.0 -4.5q1.53125 0 2.3125 0.75q0.78125 0.734375 0.78125 2.390625l0 5.578125l-1.28125 0l0 -5.5q0 -1.0625 -0.5 -1.59375q-0.484375 -0.53125 -1.484375 -0.53125q-1.421875 0 -2.0 0.8125q-0.578125 0.796875 -0.578125 2.328125l0 4.484375l-1.296875 0l0 -8.5625l1.046875 0l0.1875 1.234375l0.078125 0q0.265625 -0.453125 0.6875 -0.765625q0.421875 -0.3125 0.9375 -0.46875q0.53125 -0.15625 1.109375 -0.15625zm11.296875 6.375q0 0.8125 -0.40625 1.375q-0.40625 0.5625 -1.171875 0.84375q-0.765625 0.28125 -1.8125 0.28125q-0.90625 0 -1.5625 -0.140625q-0.65625 -0.140625 -1.140625 -0.40625l0 -1.1875q0.515625 0.25 1.234375 0.46875q0.734375 0.203125 1.5 0.203125q1.109375 0 1.609375 -0.359375q0.5 -0.359375 0.5 -0.96875q0 -0.359375 -0.203125 -0.625q-0.203125 -0.265625 -0.671875 -0.515625q-0.46875 -0.265625 -1.296875 -0.5625q-0.8125 -0.3125 -1.421875 -0.625q-0.59375 -0.3125 -0.921875 -0.75q-0.3125 -0.453125 -0.3125 -1.15625q0 -1.09375 0.875 -1.671875q0.875 -0.578125 2.3125 -0.578125q0.765625 0 1.4375 0.15625q0.6875 0.140625 1.265625 0.40625l-0.4375 1.03125q-0.53125 -0.21875 -1.140625 -0.375q-0.59375 -0.15625 -1.21875 -0.15625q-0.890625 0 -1.375 0.296875q-0.484375 0.296875 -0.484375 0.8125q0 0.390625 0.21875 0.65625q0.234375 0.25 0.71875 0.484375q0.5 0.21875 1.296875 0.53125q0.8125 0.296875 1.390625 0.609375q0.59375 0.3125 0.90625 0.765625q0.3125 0.453125 0.3125 1.15625zm6.109375 -6.375q1.609375 0 2.5625 1.109375q0.953125 1.09375 0.953125 3.296875q0 1.46875 -0.4375 2.46875q-0.4375 0.984375 -1.234375 1.5q-0.796875 0.5 -1.875 0.5q-0.671875 0 -1.1875 -0.171875q-0.515625 -0.1875 -0.890625 -0.484375q-0.359375 -0.3125 -0.609375 -0.671875l-0.09375 0q0.03125 0.296875 0.0625 0.734375q0.03125 0.421875 0.03125 0.75l0 3.515625l-1.296875 0l0 -12.390625l1.0625 0l0.171875 1.265625l0.0625 0q0.25 -0.390625 0.609375 -0.71875q0.359375 -0.328125 0.875 -0.515625q0.53125 -0.1875 1.234375 -0.1875zm-0.21875 1.09375q-0.890625 0 -1.4375 0.34375q-0.546875 0.34375 -0.796875 1.03125q-0.25 0.671875 -0.265625 1.703125l0 0.25q0 1.09375 0.234375 1.84375q0.25 0.75 0.796875 1.140625q0.546875 0.390625 1.484375 0.390625q0.796875 0 1.328125 -0.421875q0.53125 -0.4375 0.78125 -1.203125q0.265625 -0.78125 0.265625 -1.78125q0 -1.515625 -0.59375 -2.40625q-0.578125 -0.890625 -1.796875 -0.890625zm13.3671875 3.328125q0 1.046875 -0.28125 1.875q-0.265625 0.828125 -0.78125 1.40625q-0.515625 0.5625 -1.25 0.875q-0.71875 0.296875 -1.640625 0.296875q-0.859375 0 -1.578125 -0.296875q-0.71875 -0.3125 -1.234375 -0.875q-0.515625 -0.578125 -0.8125 -1.40625q-0.28125 -0.828125 -0.28125 -1.875q0 -1.40625 0.46875 -2.390625q0.484375 -1.0 1.375 -1.515625q0.890625 -0.515625 2.109375 -0.515625q1.171875 0 2.046875 0.53125q0.890625 0.515625 1.375 1.5q0.484375 0.984375 0.484375 2.390625zm-6.515625 0q0 1.03125 0.265625 1.796875q0.28125 0.75 0.84375 1.171875q0.578125 0.40625 1.484375 0.40625q0.890625 0 1.453125 -0.40625q0.578125 -0.421875 0.84375 -1.171875q0.28125 -0.765625 0.28125 -1.796875q0 -1.03125 -0.28125 -1.765625q-0.265625 -0.75 -0.84375 -1.15625q-0.5625 -0.40625 -1.46875 -0.40625q-1.328125 0 -1.953125 0.890625q-0.625 0.875 -0.625 2.4375zm12.65625 -4.421875q0.25 0 0.53125 0.03125q0.28125 0.015625 0.5 0.0625l-0.15625 1.203125q-0.21875 -0.046875 -0.484375 -0.078125q-0.25 -0.03125 -0.46875 -0.03125q-0.515625 0 -0.984375 0.203125q-0.453125 0.203125 -0.796875 0.59375q-0.34375 0.390625 -0.546875 0.9375q-0.1875 0.53125 -0.1875 1.203125l0 4.59375l-1.296875 0l0 -8.5625l1.078125 0l0.140625 1.578125l0.046875 0q0.265625 -0.484375 0.640625 -0.875q0.375 -0.390625 0.875 -0.625q0.5 -0.234375 1.109375 -0.234375zm5.4140625 7.8125q0.3125 0 0.640625 -0.046875q0.34375 -0.0625 0.5625 -0.140625l0 1.0q-0.234375 0.109375 -0.640625 0.171875q-0.390625 0.078125 -0.78125 0.078125q-0.671875 0 -1.234375 -0.234375q-0.546875 -0.25 -0.890625 -0.8125q-0.328125 -0.578125 -0.328125 -1.578125l0 -5.078125l-1.21875 0l0 -0.640625l1.234375 -0.5l0.515625 -1.859375l0.78125 0l0 1.984375l2.5 0l0 1.015625l-2.5 0l0 5.03125q0 0.8125 0.359375 1.21875q0.375 0.390625 1.0 0.390625z" fill-rule="nonzero"/><path fill="#000000" fill-opacity="0.0" d="m109.57218 45.92126l124.850395 0l0 38.771656l-124.850395 0z" fill-rule="evenodd"/><path fill="#000000" d="m127.30656 70.28126l-1.40625 -3.625l-4.578125 0l-1.40625 3.625l-1.34375 0l4.46875 -11.468746l1.203125 0l4.4374924 11.468746l-1.3749924 0zm-1.8125 -4.8125l-1.328125 -3.5937462q-0.046875 -0.140625 -0.15625 -0.453125q-0.109375 -0.328125 -0.21875 -0.671875q-0.109375 -0.34375 -0.171875 -0.5625q-0.078125 0.328125 -0.171875 0.640625q-0.09375 0.3125 -0.1875 0.59375q-0.078125 0.265625 -0.140625 0.453125l-1.359375 3.5937462l3.734375 0zm8.58593 -3.9062462q1.609375 0 2.5625 1.109375q0.953125 1.09375 0.953125 3.2968712q0 1.46875 -0.4375 2.46875q-0.4375 0.984375 -1.234375 1.5q-0.796875 0.5 -1.875 0.5q-0.671875 0 -1.1875 -0.171875q-0.515625 -0.1875 -0.890625 -0.484375q-0.359375 -0.3125 -0.609375 -0.671875l-0.09375 0q0.03125 0.296875 0.0625 0.734375q0.03125 0.421875 0.03125 0.75l0 3.515625l-1.296875 0l0 -12.390621l1.0625 0l0.171875 1.265625l0.0625 0q0.25 -0.390625 0.609375 -0.71875q0.359375 -0.328125 0.875 -0.515625q0.53125 -0.1875 1.234375 -0.1875zm-0.21875 1.09375q-0.890625 0 -1.4375 0.34375q-0.546875 0.34375 -0.796875 1.0312462q-0.25 0.671875 -0.265625 1.703125l0 0.25q0 1.09375 0.234375 1.84375q0.25 0.75 0.796875 1.140625q0.546875 0.390625 1.484375 0.390625q0.796875 0 1.328125 -0.421875q0.53125 -0.4375 0.78125 -1.203125q0.265625 -0.78125 0.265625 -1.78125q0 -1.515625 -0.59375 -2.4062462q-0.578125 -0.890625 -1.796875 -0.890625zm10.0078125 -1.09375q1.609375 0 2.5625 1.109375q0.953125 1.09375 0.953125 3.2968712q0 1.46875 -0.4375 2.46875q-0.4375 0.984375 -1.234375 1.5q-0.796875 0.5 -1.875 0.5q-0.671875 0 -1.1875 -0.171875q-0.515625 -0.1875 -0.890625 -0.484375q-0.359375 -0.3125 -0.609375 -0.671875l-0.09375 0q0.03125 0.296875 0.0625 0.734375q0.03125 0.421875 0.03125 0.75l0 3.515625l-1.296875 0l0 -12.390621l1.0625 0l0.171875 1.265625l0.0625 0q0.25 -0.390625 0.609375 -0.71875q0.359375 -0.328125 0.875 -0.515625q0.53125 -0.1875 1.234375 -0.1875zm-0.21875 1.09375q-0.890625 0 -1.4375 0.34375q-0.546875 0.34375 -0.796875 1.0312462q-0.25 0.671875 -0.265625 1.703125l0 0.25q0 1.09375 0.234375 1.84375q0.25 0.75 0.796875 1.140625q0.546875 0.390625 1.484375 0.390625q0.796875 0 1.328125 -0.421875q0.53125 -0.4375 0.78125 -1.203125q0.265625 -0.78125 0.265625 -1.78125q0 -1.515625 -0.59375 -2.4062462q-0.578125 -0.890625 -1.796875 -0.890625zm7.2890625 7.624996l-1.296875 0l0 -12.156246l1.296875 0l0 12.156246zm4.0390625 -8.562496l0 8.562496l-1.296875 0l0 -8.562496l1.296875 0zm-0.640625 -3.203125q0.328125 0 0.546875 0.203125q0.234375 0.203125 0.234375 0.640625q0 0.4375 -0.234375 0.65625q-0.21875 0.203125 -0.546875 0.203125q-0.328125 0 -0.5625 -0.203125q-0.21875 -0.21875 -0.21875 -0.65625q0 -0.4375 0.21875 -0.640625q0.234375 -0.203125 0.5625 -0.203125zm6.8046875 11.921871q-1.15625 0 -2.046875 -0.46875q-0.875 -0.484375 -1.375 -1.453125q-0.484375 -0.984375 -0.484375 -2.46875q0 -1.5625 0.515625 -2.5468712q0.53125 -0.984375 1.4375 -1.453125q0.921875 -0.484375 2.078125 -0.484375q0.640625 0 1.234375 0.125q0.609375 0.125 0.984375 0.328125l-0.390625 1.078125q-0.390625 -0.15625 -0.90625 -0.28125q-0.5 -0.125 -0.953125 -0.125q-0.890625 0 -1.484375 0.390625q-0.578125 0.375 -0.875 1.1249962q-0.296875 0.734375 -0.296875 1.828125q0 1.03125 0.28125 1.765625q0.296875 0.734375 0.859375 1.125q0.5625 0.390625 1.421875 0.390625q0.671875 0 1.21875 -0.140625q0.546875 -0.15625 1.0 -0.34375l0 1.15625q-0.4375 0.21875 -0.96875 0.328125q-0.515625 0.125 -1.25 0.125zm7.4453125 -8.859371q1.53125 0 2.265625 0.6875q0.75 0.6875 0.75 2.1874962l0 5.828125l-0.953125 0l-0.25 -1.265625l-0.0625 0q-0.359375 0.46875 -0.75 0.78125q-0.390625 0.3125 -0.90625 0.484375q-0.5 0.15625 -1.25 0.15625q-0.78125 0 -1.390625 -0.265625q-0.59375 -0.28125 -0.953125 -0.828125q-0.34375 -0.5625 -0.34375 -1.421875q0 -1.28125 1.015625 -1.96875q1.015625 -0.6875 3.09375 -0.75l1.484375 -0.0625l0 -0.515625q0 -1.1093712 -0.484375 -1.5468712q-0.46875 -0.453125 -1.34375 -0.453125q-0.671875 0 -1.28125 0.203125q-0.609375 0.1875 -1.15625 0.453125l-0.390625 -0.984375q0.578125 -0.296875 1.328125 -0.5q0.75 -0.21875 1.578125 -0.21875zm1.734375 4.484371l-1.3125 0.046875q-1.59375 0.0625 -2.25 0.53125q-0.65625 0.453125 -0.65625 1.296875q0 0.734375 0.4375 1.09375q0.453125 0.34375 1.1875 0.34375q1.140625 0 1.859375 -0.625q0.734375 -0.640625 0.734375 -1.90625l0 -0.78125zm6.71875 3.3125q0.3125 0 0.640625 -0.046875q0.34375 -0.0625 0.5625 -0.140625l0 1.0q-0.234375 0.109375 -0.640625 0.171875q-0.390625 0.078125 -0.78125 0.078125q-0.671875 0 -1.234375 -0.234375q-0.546875 -0.25 -0.890625 -0.8125q-0.328125 -0.578125 -0.328125 -1.578125l0 -5.078121l-1.21875 0l0 -0.640625l1.234375 -0.5l0.515625 -1.859375l0.78125 0l0 1.984375l2.5 0l0 1.015625l-2.5 0l0 5.031246q0 0.8125 0.359375 1.21875q0.375 0.390625 1.0 0.390625zm4.234375 -7.656246l0 8.562496l-1.296875 0l0 -8.562496l1.296875 0zm-0.640625 -3.203125q0.328125 0 0.546875 0.203125q0.234375 0.203125 0.234375 0.640625q0 0.4375 -0.234375 0.65625q-0.21875 0.203125 -0.546875 0.203125q-0.328125 0 -0.5625 -0.203125q-0.21875 -0.21875 -0.21875 -0.65625q0 -0.4375 0.21875 -0.640625q0.234375 -0.203125 0.5625 -0.203125zm10.7578125 7.468746q0 1.046875 -0.28125 1.875q-0.265625 0.828125 -0.78125 1.40625q-0.515625 0.5625 -1.25 0.875q-0.71875 0.296875 -1.640625 0.296875q-0.859375 0 -1.578125 -0.296875q-0.71875 -0.3125 -1.234375 -0.875q-0.515625 -0.578125 -0.8125 -1.40625q-0.28125 -0.828125 -0.28125 -1.875q0 -1.40625 0.46875 -2.3906212q0.484375 -1.0 1.375 -1.515625q0.890625 -0.515625 2.109375 -0.515625q1.171875 0 2.046875 0.53125q0.890625 0.515625 1.375 1.5q0.484375 0.9843712 0.484375 2.3906212zm-6.515625 0q0 1.03125 0.265625 1.796875q0.28125 0.75 0.84375 1.171875q0.578125 0.40625 1.484375 0.40625q0.890625 0 1.453125 -0.40625q0.578125 -0.421875 0.84375 -1.171875q0.28125 -0.765625 0.28125 -1.796875q0 -1.03125 -0.28125 -1.765625q-0.265625 -0.7499962 -0.84375 -1.1562462q-0.5625 -0.40625 -1.46875 -0.40625q-1.328125 0 -1.953125 0.890625q-0.625 0.8749962 -0.625 2.4374962zm12.8125 -4.421871q1.53125 0 2.3125 0.75q0.78125 0.734375 0.78125 2.3906212l0 5.578125l-1.28125 0l0 -5.5q0 -1.0624962 -0.5 -1.5937462q-0.484375 -0.53125 -1.484375 -0.53125q-1.421875 0 -2.0 0.8125q-0.578125 0.7968712 -0.578125 2.3281212l0 4.484375l-1.296875 0l0 -8.562496l1.046875 0l0.1875 1.234375l0.078125 0q0.265625 -0.453125 0.6875 -0.765625q0.421875 -0.3125 0.9375 -0.46875q0.53125 -0.15625 1.109375 -0.15625z" fill-rule="nonzero"/><path fill="#000000" fill-opacity="0.0" d="m609.3622 76.68241l23.24414 0l0 23.748032l-23.24414 0z" fill-rule="evenodd"/><path fill="#000000" fill-opacity="0.0" d="m86.32809 76.68241l23.244095 0l0 23.748032l-23.244095 0z" fill-rule="evenodd"/><path fill="#000000" fill-opacity="0.0" d="m109.57218 88.55643l499.7795 0" fill-rule="evenodd"/><path stroke="#999999" stroke-width="1.0" stroke-linejoin="round" stroke-linecap="butt" stroke-dasharray="8.0,3.0" d="m109.57218 88.55643l499.7795 0" fill-rule="evenodd"/></g></svg>