<svg version="1.1" viewBox="0.0 0.0 788.8766404199475 511.6062992125984" fill="none" stroke="none" stroke-linecap="square" stroke-miterlimit="10" xmlns:xlink="http://www.w3.org/1999/xlink" xmlns="http://www.w3.org/2000/svg"><clipPath id="p.0"><path d="m0 0l788.87665 0l0 511.6063l-788.87665 0l0 -511.6063z" clip-rule="nonzero"/></clipPath><g clip-path="url(#p.0)"><path fill="#000000" fill-opacity="0.0" d="m0 0l788.87665 0l0 511.6063l-788.87665 0z" fill-rule="evenodd"/><path fill="#000000" fill-opacity="0.0" d="m182.83464 77.86483l115.74803 0l0 42.015747l-115.74803 0z" fill-rule="evenodd"/><path fill="#000000" d="m200.51254 93.62858q-0.8125 0 -1.4375 0.3125q-0.609375 0.3125 -1.046875 0.90625q-0.421875 0.59375 -0.640625 1.4375q-0.21875 0.828125 -0.21875 1.875q0 1.421875 0.34375 2.421875q0.359375 0.984375 1.09375 1.515625q0.75 0.515625 1.90625 0.515625q0.8125 0 1.625 -0.171875q0.828125 -0.1875 1.78125 -0.53125l0 2.375q-0.890625 0.359375 -1.75 0.515625q-0.84375 0.171875 -1.921875 0.171875q-2.046875 0 -3.375 -0.84375q-1.328125 -0.859375 -1.96875 -2.390625q-0.640625 -1.546875 -0.640625 -3.59375q0 -1.515625 0.40625 -2.765625q0.421875 -1.265625 1.203125 -2.171875q0.796875 -0.921875 1.96875 -1.421875q1.171875 -0.515625 2.671875 -0.515625q1.0 0 2.0 0.25q1.0 0.25 1.90625 0.6875l-0.90625 2.296875q-0.75 -0.34375 -1.515625 -0.609375q-0.75 -0.265625 -1.484375 -0.265625zm15.278519 6.046875q0 1.28125 -0.34375 2.265625q-0.34375 0.96875 -1.0 1.65625q-0.640625 0.671875 -1.5625 1.03125q-0.921875 0.34375 -2.0625 0.34375q-1.078125 0 -1.984375 -0.34375q-0.890625 -0.359375 -1.546875 -1.03125q-0.65625 -0.6875 -1.015625 -1.65625q-0.359375 -0.984375 -0.359375 -2.265625q0 -1.703125 0.59375 -2.875q0.609375 -1.171875 1.71875 -1.78125q1.109375 -0.609375 2.640625 -0.609375q1.4375 0 2.546875 0.609375q1.109375 0.609375 1.734375 1.78125q0.640625 1.171875 0.640625 2.875zm-7.046875 0q0 1.0 0.21875 1.6875q0.21875 0.6875 0.671875 1.03125q0.46875 0.34375 1.21875 0.34375q0.734375 0 1.1875 -0.34375q0.46875 -0.34375 0.6875 -1.03125q0.21875 -0.6875 0.21875 -1.6875q0 -1.015625 -0.21875 -1.671875q-0.21875 -0.671875 -0.6875 -1.015625q-0.453125 -0.34375 -1.203125 -0.34375q-1.09375 0 -1.59375 0.765625q-0.5 0.75 -0.5 2.265625zm15.113342 -5.265625q1.640625 0 2.625 0.890625q1.0 0.890625 1.0 2.84375l0 6.640625l-2.78125 0l0 -5.953125q0 -1.09375 -0.40625 -1.640625q-0.390625 -0.5625 -1.234375 -0.5625q-1.265625 0 -1.734375 0.875q-0.46875 0.859375 -0.46875 2.484375l0 4.796875l-2.78125 0l0 -10.1875l2.125 0l0.375 1.3125l0.15625 0q0.328125 -0.53125 0.8125 -0.859375q0.484375 -0.328125 1.078125 -0.484375q0.609375 -0.15625 1.234375 -0.15625zm13.589508 7.34375q0 1.046875 -0.484375 1.765625q-0.484375 0.703125 -1.453125 1.078125q-0.96875 0.375 -2.40625 0.375q-1.0625 0 -1.828125 -0.140625q-0.765625 -0.140625 -1.53125 -0.453125l0 -2.296875q0.828125 0.375 1.78125 0.625q0.953125 0.234375 1.671875 0.234375q0.8125 0 1.15625 -0.234375q0.359375 -0.25 0.359375 -0.640625q0 -0.265625 -0.15625 -0.46875q-0.140625 -0.203125 -0.609375 -0.453125q-0.453125 -0.265625 -1.453125 -0.6875q-0.953125 -0.40625 -1.5625 -0.8125q-0.609375 -0.40625 -0.90625 -0.96875q-0.296875 -0.5625 -0.296875 -1.421875q0 -1.421875 1.09375 -2.125q1.09375 -0.71875 2.9375 -0.71875q0.953125 0 1.8125 0.1875q0.859375 0.1875 1.765625 0.609375l-0.84375 2.015625q-0.75 -0.328125 -1.421875 -0.53125q-0.671875 -0.21875 -1.359375 -0.21875q-0.609375 0 -0.921875 0.171875q-0.3125 0.15625 -0.3125 0.484375q0 0.25 0.15625 0.453125q0.171875 0.1875 0.625 0.421875q0.46875 0.21875 1.359375 0.59375q0.859375 0.34375 1.5 0.734375q0.640625 0.390625 0.984375 0.96875q0.34375 0.5625 0.34375 1.453125zm11.507843 -7.15625l0 10.1875l-2.125 0l-0.375 -1.296875l-0.140625 0q-0.328125 0.515625 -0.828125 0.84375q-0.484375 0.328125 -1.078125 0.484375q-0.59375 0.15625 -1.234375 0.15625q-1.09375 0 -1.90625 -0.390625q-0.796875 -0.390625 -1.25 -1.203125q-0.453125 -0.828125 -0.453125 -2.140625l0 -6.640625l2.78125 0l0 5.953125q0 1.09375 0.390625 1.65625q0.390625 0.546875 1.25 0.546875q0.84375 0 1.328125 -0.390625q0.484375 -0.390625 0.671875 -1.140625q0.203125 -0.75 0.203125 -1.828125l0 -4.796875l2.765625 0zm14.886368 -0.1875q1.734375 0 2.609375 0.890625q0.890625 0.890625 0.890625 2.84375l0 6.640625l-2.78125 0l0 -5.953125q0 -1.09375 -0.375 -1.640625q-0.375 -0.5625 -1.15625 -0.5625q-1.109375 0 -1.578125 0.796875q-0.453125 0.78125 -0.453125 2.25l0 5.109375l-2.78125 0l0 -5.953125q0 -0.71875 -0.171875 -1.203125q-0.15625 -0.5 -0.5 -0.75q-0.328125 -0.25 -0.859375 -0.25q-0.76560974 0 -1.2187347 0.390625q-0.4375 0.390625 -0.625 1.140625q-0.1875 0.75 -0.1875 1.828125l0 4.796875l-2.78125 0l0 -10.1875l2.125 0l0.375 1.3125l0.15625 0q0.3125 -0.53125 0.78125 -0.859375q0.46875 -0.328125 1.0312347 -0.484375q0.5625 -0.15625 1.140625 -0.15625q1.125 0 1.90625 0.375q0.78125 0.359375 1.203125 1.125l0.234375 0q0.46875 -0.796875 1.296875 -1.140625q0.828125 -0.359375 1.71875 -0.359375zm10.553589 0q1.40625 0 2.421875 0.546875q1.03125 0.53125 1.578125 1.5625q0.5625 1.03125 0.5625 2.515625l0 1.34375l-6.5625 0q0.046875 1.1875 0.703125 1.859375q0.65625 0.65625 1.828125 0.65625q0.984375 0 1.796875 -0.1875q0.8125 -0.203125 1.65625 -0.609375l0 2.15625q-0.75 0.375 -1.578125 0.546875q-0.828125 0.171875 -2.0 0.171875q-1.53125 0 -2.71875 -0.5625q-1.171875 -0.578125 -1.84375 -1.734375q-0.65625 -1.15625 -0.65625 -2.90625q0 -1.796875 0.59375 -2.984375q0.609375 -1.1875 1.6875 -1.78125q1.09375 -0.59375 2.53125 -0.59375zm0.015625 1.96875q-0.8125 0 -1.34375 0.53125q-0.53125 0.515625 -0.609375 1.625l3.890625 0q0 -0.625 -0.21875 -1.09375q-0.21875 -0.484375 -0.640625 -0.765625q-0.421875 -0.296875 -1.078125 -0.296875zm12.491241 -1.96875q0.203125 0 0.484375 0.03125q0.28125 0.015625 0.453125 0.046875l-0.203125 2.609375q-0.140625 -0.046875 -0.390625 -0.0625q-0.25 -0.03125 -0.4375 -0.03125q-0.53125 0 -1.046875 0.140625q-0.5 0.140625 -0.90625 0.453125q-0.390625 0.296875 -0.625 0.796875q-0.234375 0.484375 -0.234375 1.203125l0 5.1875l-2.78125 0l0 -10.1875l2.109375 0l0.40625 1.71875l0.140625 0q0.296875 -0.515625 0.75 -0.953125q0.453125 -0.4375 1.03125 -0.6875q0.578125 -0.265625 1.25 -0.265625z" fill-rule="nonzero"/><path fill="#000000" fill-opacity="0.0" d="m490.29135 77.86483l115.74802 0l0 42.015747l-115.74802 0z" fill-rule="evenodd"/><path fill="#000000" d="m514.43097 91.47233q2.578125 0 3.75 1.109375q1.1875 1.09375 1.1875 3.03125q0 0.875 -0.265625 1.671875q-0.265625 0.796875 -0.859375 1.421875q-0.59375 0.625 -1.59375 0.984375q-0.984375 0.359375 -2.4375 0.359375l-1.21875 0l0 4.734375l-2.8280945 0l0 -13.3125l4.2655945 0zm-0.15625 2.3125l-1.28125 0l0 3.953125l0.921875 0q0.796875 0 1.375 -0.203125q0.59375 -0.21875 0.90625 -0.65625q0.328125 -0.453125 0.328125 -1.15625q0 -0.984375 -0.546875 -1.453125q-0.546875 -0.484375 -1.703125 -0.484375zm13.074219 0.625q0.203125 0 0.484375 0.03125q0.28125 0.015625 0.453125 0.046875l-0.203125 2.609375q-0.140625 -0.046875 -0.390625 -0.0625q-0.25 -0.03125 -0.4375 -0.03125q-0.53125 0 -1.046875 0.140625q-0.5 0.140625 -0.90625 0.453125q-0.390625 0.296875 -0.625 0.796875q-0.234375 0.484375 -0.234375 1.203125l0 5.1875l-2.78125 0l0 -10.1875l2.109375 0l0.40625 1.71875l0.140625 0q0.296875 -0.515625 0.75 -0.953125q0.453125 -0.4375 1.03125 -0.6875q0.578125 -0.265625 1.25 -0.265625zm12.049927 5.265625q0 1.28125 -0.34375 2.265625q-0.34375 0.96875 -1.0 1.65625q-0.640625 0.671875 -1.5625 1.03125q-0.921875 0.34375 -2.0625 0.34375q-1.078125 0 -1.984375 -0.34375q-0.890625 -0.359375 -1.546875 -1.03125q-0.65625 -0.6875 -1.015625 -1.65625q-0.359375 -0.984375 -0.359375 -2.265625q0 -1.703125 0.59375 -2.875q0.609375 -1.171875 1.71875 -1.78125q1.109375 -0.609375 2.640625 -0.609375q1.4375 0 2.546875 0.609375q1.109375 0.609375 1.734375 1.78125q0.640625 1.171875 0.640625 2.875zm-7.046875 0q0 1.0 0.21875 1.6875q0.21875 0.6875 0.671875 1.03125q0.46875 0.34375 1.21875 0.34375q0.734375 0 1.1875 -0.34375q0.46875 -0.34375 0.6875 -1.03125q0.21875 -0.6875 0.21875 -1.6875q0 -1.015625 -0.21875 -1.671875q-0.21875 -0.671875 -0.6875 -1.015625q-0.453125 -0.34375 -1.203125 -0.34375q-1.09375 0 -1.59375 0.765625q-0.5 0.75 -0.5 2.265625zm11.753967 5.109375l-3.875 -10.1875l2.90625 0l1.96875 5.8125q0.15625 0.5 0.25 1.078125q0.109375 0.5625 0.140625 1.0l0.078125 0q0.015625 -0.484375 0.125 -1.03125q0.109375 -0.546875 0.28125 -1.046875l1.953125 -5.8125l2.90625 0l-3.875 10.1875l-2.859375 0zm10.971985 -10.1875l0 10.1875l-2.78125 0l0 -10.1875l2.78125 0zm-1.390625 -3.984375q0.625 0 1.0625 0.296875q0.453125 0.28125 0.453125 1.0625q0 0.765625 -0.453125 1.0625q-0.4375 0.296875 -1.0625 0.296875q-0.625 0 -1.0625 -0.296875q-0.4375 -0.296875 -0.4375 -1.0625q0 -0.78125 0.4375 -1.0625q0.4375 -0.296875 1.0625 -0.296875zm7.5371704 14.359375q-1.703125 0 -2.78125 -1.328125q-1.0625 -1.34375 -1.0625 -3.9375q0 -2.609375 1.078125 -3.953125q1.078125 -1.34375 2.828125 -1.34375q0.734375 0 1.28125 0.203125q0.5625 0.203125 0.96875 0.546875q0.40625 0.328125 0.6875 0.75l0.09375 0q-0.0625 -0.296875 -0.140625 -0.859375q-0.078125 -0.578125 -0.078125 -1.171875l0 -3.265625l2.796875 0l0 14.171875l-2.140625 0l-0.53125 -1.328125l-0.125 0q-0.25 0.421875 -0.65625 0.765625q-0.390625 0.34375 -0.9375 0.546875q-0.546875 0.203125 -1.28125 0.203125zm0.96875 -2.21875q1.140625 0 1.609375 -0.671875q0.46875 -0.6875 0.5 -2.046875l0 -0.3125q0 -1.484375 -0.46875 -2.265625q-0.453125 -0.78125 -1.6875 -0.78125q-0.921875 0 -1.4375 0.796875q-0.515625 0.78125 -0.515625 2.28125q0 1.484375 0.515625 2.25q0.53125 0.75 1.484375 0.75zm11.805908 -8.34375q1.40625 0 2.421875 0.546875q1.03125 0.53125 1.578125 1.5625q0.5625 1.03125 0.5625 2.515625l0 1.34375l-6.5625 0q0.046875 1.1875 0.703125 1.859375q0.65625 0.65625 1.828125 0.65625q0.984375 0 1.796875 -0.1875q0.8125 -0.203125 1.65625 -0.609375l0 2.15625q-0.75 0.375 -1.578125 0.546875q-0.828125 0.171875 -2.0 0.171875q-1.53125 0 -2.71875 -0.5625q-1.171875 -0.578125 -1.84375 -1.734375q-0.65625 -1.15625 -0.65625 -2.90625q0 -1.796875 0.59375 -2.984375q0.609375 -1.1875 1.6875 -1.78125q1.09375 -0.59375 2.53125 -0.59375zm0.015625 1.96875q-0.8125 0 -1.34375 0.53125q-0.53125 0.515625 -0.609375 1.625l3.890625 0q0 -0.625 -0.21875 -1.09375q-0.21875 -0.484375 -0.640625 -0.765625q-0.421875 -0.296875 -1.078125 -0.296875zm12.491211 -1.96875q0.203125 0 0.484375 0.03125q0.28125 0.015625 0.453125 0.046875l-0.203125 2.609375q-0.140625 -0.046875 -0.390625 -0.0625q-0.25 -0.03125 -0.4375 -0.03125q-0.53125 0 -1.046875 0.140625q-0.5 0.140625 -0.90625 0.453125q-0.390625 0.296875 -0.625 0.796875q-0.234375 0.484375 -0.234375 1.203125l0 5.1875l-2.78125 0l0 -10.1875l2.109375 0l0.40625 1.71875l0.140625 0q0.296875 -0.515625 0.75 -0.953125q0.453125 -0.4375 1.03125 -0.6875q0.578125 -0.265625 1.25 -0.265625z" fill-rule="nonzero"/><path fill="#000000" fill-opacity="0.0" d="m182.83464 391.71783l115.74803 0l0 42.015747l-115.74803 0z" fill-rule="evenodd"/><path fill="#000000" fill-opacity="0.0" d="m240.70866 119.88058l0 271.8425" fill-rule="evenodd"/><path stroke="#000000" stroke-width="1.0" stroke-linejoin="round" stroke-linecap="butt" stroke-dasharray="4.0,3.0" d="m240.70866 119.88058l0 271.8425" fill-rule="evenodd"/><path fill="#000000" fill-opacity="0.0" d="m490.29135 391.72308l115.74802 0l0 42.015747l-115.74802 0z" fill-rule="evenodd"/><path fill="#000000" fill-opacity="0.0" d="m548.16534 119.88058l0 271.8425" fill-rule="evenodd"/><path stroke="#000000" stroke-width="1.0" stroke-linejoin="round" stroke-linecap="butt" stroke-dasharray="4.0,3.0" d="m548.16534 119.88058l0 271.8425" fill-rule="evenodd"/><path fill="#d9d9d9" d="m223.27559 156.88857l0 0c0 -3.2093964 2.6017303 -5.811142 5.811142 -5.811142l23.243866 0l0 0c1.5411987 0 3.019287 0.61224365 4.1091003 1.7020416c1.0897827 1.0898132 1.7020264 2.5678864 1.7020264 4.1091003l0 30.393478c0 3.2093964 -2.6017303 5.8111267 -5.8111267 5.8111267l-23.243866 0c-3.2094116 0 -5.811142 -2.6017303 -5.811142 -5.8111267z" fill-rule="evenodd"/><path fill="#d9d9d9" d="m530.7323 156.88857l0 0c0 -3.2093964 2.6017456 -5.811142 5.811096 -5.811142l23.243896 0l0 0c1.5411987 0 3.019287 0.61224365 4.10907 1.7020416c1.0898438 1.0898132 1.7020874 2.5678864 1.7020874 4.1091003l0 30.393478c0 3.2093964 -2.6017456 5.8111267 -5.811157 5.8111267l-23.243896 0c-3.2093506 0 -5.811096 -2.6017303 -5.811096 -5.8111267z" fill-rule="evenodd"/><path fill="#000000" fill-opacity="0.0" d="m258.14172 172.0853l272.59845 0" fill-rule="evenodd"/><path stroke="#000000" stroke-width="1.0" stroke-linejoin="round" stroke-linecap="butt" d="m258.14172 172.0853l266.59845 0" fill-rule="evenodd"/><path fill="#000000" stroke="#000000" stroke-width="1.0" stroke-linecap="butt" d="m524.7402 173.73703l4.538086 -1.6517334l-4.538086 -1.6517334z" fill-rule="evenodd"/><path fill="#000000" fill-opacity="0.0" d="m299.8878 123.61286l189.10236 0l0 48.472435l-189.10236 0z" fill-rule="evenodd"/><path fill="#000000" d="m333.06592 136.40659l0 5.53125q0 0.921875 -0.375 1.625q-0.359375 0.703125 -1.109375 1.125q-0.734375 0.40625 -1.84375 0.40625q-1.578125 0 -2.421875 -0.859375q-0.828125 -0.875 -0.828125 -2.3125l0 -5.515625l1.015625 0l0 5.546875q0 1.09375 0.5625 1.6875q0.578125 0.578125 1.734375 0.578125q0.78125 0 1.28125 -0.28125q0.5 -0.28125 0.734375 -0.796875q0.25 -0.515625 0.25 -1.1875l0 -5.546875l1.0 0zm9.060547 4.203125q0 1.4375 -0.53125 2.40625q-0.515625 0.96875 -1.515625 1.46875q-1.0 0.484375 -2.421875 0.484375l-2.328125 0l0 -8.5625l2.578125 0q1.3125 0 2.25 0.484375q0.953125 0.46875 1.453125 1.40625q0.515625 0.921875 0.515625 2.3125zm-1.046875 0.03125q0 -1.15625 -0.390625 -1.90625q-0.375 -0.75 -1.125 -1.109375q-0.734375 -0.375 -1.796875 -0.375l-1.4375 0l0 6.859375l1.203125 0q1.78125 0 2.65625 -0.875q0.890625 -0.875 0.890625 -2.59375zm5.1914062 -4.234375q1.65625 0 2.421875 0.65625q0.765625 0.640625 0.765625 1.84375q0 0.546875 -0.1875 1.03125q-0.171875 0.484375 -0.578125 0.859375q-0.390625 0.375 -1.03125 0.59375q-0.640625 0.203125 -1.578125 0.203125l-1.046875 0l0 3.375l-1.0 0l0 -8.5625l2.234375 0zm-0.09375 0.84375l-1.140625 0l0 3.5l0.921875 0q0.828125 0 1.375 -0.171875q0.546875 -0.1875 0.8125 -0.578125q0.28125 -0.40625 0.28125 -1.0625q0 -0.84375 -0.546875 -1.265625q-0.53125 -0.421875 -1.703125 -0.421875zm15.0234375 1.171875q1.0625 0 1.59375 0.5625q0.546875 0.546875 0.546875 1.78125l0 4.203125l-0.96875 0l0 -4.15625q0 -0.78125 -0.34375 -1.171875q-0.328125 -0.390625 -0.984375 -0.390625q-0.9375 0 -1.359375 0.546875q-0.421875 0.53125 -0.421875 1.578125l0 3.59375l-0.96875 0l0 -4.15625q0 -0.53125 -0.15625 -0.875q-0.140625 -0.34375 -0.4375 -0.515625q-0.296875 -0.171875 -0.75 -0.171875q-0.625 0 -1.015625 0.265625q-0.390625 0.265625 -0.5625 0.78125q-0.171875 0.515625 -0.171875 1.265625l0 3.40625l-0.96875 0l0 -6.421875l0.78125 0l0.140625 0.90625l0.0625 0q0.1875 -0.328125 0.484375 -0.5625q0.296875 -0.234375 0.65625 -0.34375q0.359375 -0.125 0.765625 -0.125q0.734375 0 1.234375 0.28125q0.5 0.265625 0.71875 0.828125l0.046875 0q0.3125 -0.5625 0.859375 -0.828125q0.5625 -0.28125 1.21875 -0.28125zm9.4375 0.125l0 6.421875l-0.796875 0l-0.140625 -0.90625l-0.046875 0q-0.203125 0.34375 -0.53125 0.578125q-0.3125 0.21875 -0.703125 0.328125q-0.390625 0.125 -0.84375 0.125q-0.75 0 -1.265625 -0.25q-0.515625 -0.25 -0.78125 -0.765625q-0.265625 -0.515625 -0.265625 -1.328125l0 -4.203125l0.984375 0l0 4.140625q0 0.796875 0.359375 1.203125q0.375 0.390625 1.109375 0.390625q0.71875 0 1.140625 -0.265625q0.421875 -0.28125 0.609375 -0.796875q0.1875 -0.53125 0.1875 -1.296875l0 -3.375l0.984375 0zm3.03125 6.421875l-0.96875 0l0 -9.125l0.96875 0l0 9.125zm4.123047 -0.6875q0.25 0 0.5 -0.03125q0.25 -0.046875 0.40625 -0.109375l0 0.765625q-0.171875 0.078125 -0.46875 0.125q-0.296875 0.0625 -0.59375 0.0625q-0.5 0 -0.921875 -0.171875q-0.421875 -0.1875 -0.671875 -0.609375q-0.234375 -0.4375 -0.234375 -1.203125l0 -3.796875l-0.921875 0l0 -0.484375l0.921875 -0.375l0.390625 -1.390625l0.578125 0l0 1.484375l1.890625 0l0 0.765625l-1.890625 0l0 3.78125q0 0.59375 0.28125 0.890625q0.28125 0.296875 0.734375 0.296875zm3.1835938 -5.734375l0 6.421875l-0.96875 0l0 -6.421875l0.96875 0zm-0.46875 -2.40625q0.234375 0 0.40625 0.15625q0.171875 0.15625 0.171875 0.484375q0 0.328125 -0.171875 0.484375q-0.171875 0.15625 -0.40625 0.15625q-0.265625 0 -0.4375 -0.15625q-0.15625 -0.15625 -0.15625 -0.484375q0 -0.328125 0.15625 -0.484375q0.171875 -0.15625 0.4375 -0.15625zm5.091797 8.953125q-0.859375 0 -1.53125 -0.359375q-0.65625 -0.359375 -1.03125 -1.09375q-0.359375 -0.734375 -0.359375 -1.84375q0 -1.171875 0.390625 -1.90625q0.390625 -0.75 1.0625 -1.109375q0.6875 -0.359375 1.5625 -0.359375q0.484375 0 0.921875 0.109375q0.453125 0.09375 0.75 0.234375l-0.296875 0.8125q-0.296875 -0.109375 -0.6875 -0.203125q-0.375 -0.09375 -0.703125 -0.09375q-0.671875 0 -1.125 0.296875q-0.4375 0.28125 -0.65625 0.84375q-0.21875 0.546875 -0.21875 1.359375q0 0.78125 0.21875 1.328125q0.21875 0.546875 0.640625 0.84375q0.421875 0.28125 1.0625 0.28125q0.515625 0 0.921875 -0.09375q0.40625 -0.109375 0.734375 -0.265625l0 0.875q-0.3125 0.15625 -0.71875 0.25q-0.390625 0.09375 -0.9375 0.09375zm5.576172 -6.65625q1.15625 0 1.703125 0.515625q0.5625 0.515625 0.5625 1.65625l0 4.359375l-0.703125 0l-0.1875 -0.953125l-0.046875 0q-0.265625 0.359375 -0.5625 0.59375q-0.296875 0.234375 -0.6875 0.359375q-0.375 0.125 -0.9375 0.125q-0.578125 0 -1.03125 -0.203125q-0.453125 -0.21875 -0.71875 -0.625q-0.265625 -0.421875 -0.265625 -1.0625q0 -0.953125 0.765625 -1.46875q0.765625 -0.515625 2.328125 -0.5625l1.09375 -0.046875l0 -0.40625q0 -0.828125 -0.359375 -1.15625q-0.34375 -0.34375 -1.0 -0.34375q-0.5 0 -0.96875 0.15625q-0.453125 0.140625 -0.859375 0.34375l-0.296875 -0.734375q0.4375 -0.234375 1.0 -0.390625q0.5625 -0.15625 1.171875 -0.15625zm1.3125 3.359375l-0.984375 0.046875q-1.203125 0.046875 -1.703125 0.390625q-0.484375 0.34375 -0.484375 0.984375q0 0.546875 0.328125 0.8125q0.34375 0.265625 0.890625 0.265625q0.859375 0 1.40625 -0.46875q0.546875 -0.484375 0.546875 -1.4375l0 -0.59375zm7.1210938 1.40625q0 0.625 -0.3125 1.046875q-0.3125 0.40625 -0.890625 0.625q-0.5625 0.21875 -1.359375 0.21875q-0.671875 0 -1.171875 -0.109375q-0.484375 -0.109375 -0.84375 -0.296875l0 -0.90625q0.390625 0.203125 0.9375 0.359375q0.546875 0.15625 1.109375 0.15625q0.828125 0 1.203125 -0.265625q0.375 -0.28125 0.375 -0.734375q0 -0.265625 -0.15625 -0.46875q-0.140625 -0.203125 -0.5 -0.390625q-0.34375 -0.1875 -0.96875 -0.421875q-0.609375 -0.234375 -1.0625 -0.46875q-0.4375 -0.234375 -0.6875 -0.5625q-0.25 -0.328125 -0.25 -0.875q0 -0.8125 0.65625 -1.25q0.671875 -0.4375 1.734375 -0.4375q0.59375 0 1.09375 0.125q0.5 0.109375 0.953125 0.296875l-0.328125 0.78125q-0.40625 -0.171875 -0.859375 -0.28125q-0.453125 -0.125 -0.921875 -0.125q-0.671875 0 -1.03125 0.234375q-0.359375 0.21875 -0.359375 0.609375q0 0.296875 0.15625 0.5q0.171875 0.1875 0.546875 0.359375q0.375 0.15625 0.96875 0.390625q0.609375 0.21875 1.046875 0.46875q0.4375 0.234375 0.671875 0.578125q0.25 0.328125 0.25 0.84375zm3.625 1.078125q0.25 0 0.5 -0.03125q0.25 -0.046875 0.40625 -0.109375l0 0.765625q-0.171875 0.078125 -0.46875 0.125q-0.296875 0.0625 -0.59375 0.0625q-0.5 0 -0.921875 -0.171875q-0.421875 -0.1875 -0.671875 -0.609375q-0.234375 -0.4375 -0.234375 -1.203125l0 -3.796875l-0.921875 0l0 -0.484375l0.921875 -0.375l0.390625 -1.390625l0.578125 0l0 1.484375l1.890625 0l0 0.765625l-1.890625 0l0 3.78125q0 0.59375 0.28125 0.890625q0.28125 0.296875 0.734375 0.296875zm10.863281 -2.53125q0 0.78125 -0.203125 1.40625q-0.203125 0.625 -0.59375 1.0625q-0.390625 0.421875 -0.9375 0.65625q-0.546875 0.21875 -1.234375 0.21875q-0.640625 0 -1.1875 -0.21875q-0.53125 -0.234375 -0.921875 -0.65625q-0.390625 -0.4375 -0.609375 -1.0625q-0.203125 -0.625 -0.203125 -1.40625q0 -1.0625 0.359375 -1.796875q0.359375 -0.75 1.015625 -1.140625q0.671875 -0.390625 1.59375 -0.390625q0.875 0 1.53125 0.40625q0.65625 0.390625 1.015625 1.140625q0.375 0.734375 0.375 1.78125zm-4.890625 0q0 0.765625 0.203125 1.34375q0.21875 0.5625 0.640625 0.875q0.421875 0.3125 1.09375 0.3125q0.671875 0 1.09375 -0.3125q0.4375 -0.3125 0.640625 -0.875q0.21875 -0.578125 0.21875 -1.34375q0 -0.765625 -0.21875 -1.328125q-0.203125 -0.5625 -0.625 -0.859375q-0.421875 -0.3125 -1.109375 -0.3125q-1.0 0 -1.46875 0.671875q-0.46875 0.65625 -0.46875 1.828125zm9.4375 -2.4375l-1.609375 0l0 5.65625l-0.96875 0l0 -5.65625l-1.140625 0l0 -0.46875l1.140625 -0.328125l0 -0.421875q0 -0.8125 0.234375 -1.3125q0.25 -0.515625 0.703125 -0.75q0.453125 -0.25 1.109375 -0.25q0.375 0 0.671875 0.078125q0.3125 0.0625 0.546875 0.140625l-0.25 0.765625q-0.203125 -0.0625 -0.453125 -0.109375q-0.234375 -0.0625 -0.5 -0.0625q-0.5625 0 -0.828125 0.359375q-0.265625 0.359375 -0.265625 1.125l0 0.46875l1.609375 0l0 0.765625zm6.357422 4.96875q0.25 0 0.5 -0.03125q0.25 -0.046875 0.40625 -0.109375l0 0.765625q-0.171875 0.078125 -0.46875 0.125q-0.296875 0.0625 -0.59375 0.0625q-0.5 0 -0.921875 -0.171875q-0.421875 -0.1875 -0.671875 -0.609375q-0.234375 -0.4375 -0.234375 -1.203125l0 -3.796875l-0.921875 0l0 -0.484375l0.921875 -0.375l0.390625 -1.390625l0.578125 0l0 1.484375l1.890625 0l0 0.765625l-1.890625 0l0 3.78125q0 0.59375 0.28125 0.890625q0.28125 0.296875 0.734375 0.296875zm3.1835938 -8.4375l0 2.734375q0 0.234375 -0.015625 0.46875q-0.015625 0.234375 -0.03125 0.4375l0.0625 0q0.1875 -0.34375 0.5 -0.5625q0.3125 -0.234375 0.703125 -0.359375q0.390625 -0.125 0.828125 -0.125q0.78125 0 1.296875 0.25q0.515625 0.25 0.765625 0.765625q0.265625 0.515625 0.265625 1.328125l0 4.1875l-0.953125 0l0 -4.125q0 -0.796875 -0.375 -1.1875q-0.359375 -0.40625 -1.109375 -0.40625q-0.71875 0 -1.140625 0.28125q-0.421875 0.265625 -0.609375 0.796875q-0.1875 0.515625 -0.1875 1.28125l0 3.359375l-0.96875 0l0 -9.125l0.96875 0zm8.859375 2.578125q0.8125 0 1.390625 0.375q0.59375 0.359375 0.90625 1.015625q0.3125 0.65625 0.3125 1.515625l0 0.609375l-4.4375 0q0.015625 1.125 0.5625 1.71875q0.546875 0.59375 1.546875 0.59375q0.609375 0 1.078125 -0.109375q0.46875 -0.109375 0.96875 -0.328125l0 0.859375q-0.484375 0.21875 -0.96875 0.3125q-0.46875 0.109375 -1.125 0.109375q-0.921875 0 -1.609375 -0.375q-0.6875 -0.390625 -1.078125 -1.125q-0.375 -0.734375 -0.375 -1.796875q0 -1.03125 0.34375 -1.78125q0.34375 -0.765625 0.984375 -1.171875q0.640625 -0.421875 1.5 -0.421875zm-0.015625 0.796875q-0.78125 0 -1.25 0.515625q-0.453125 0.515625 -0.546875 1.421875l3.40625 0q0 -0.578125 -0.1875 -1.0q-0.171875 -0.4375 -0.53125 -0.6875q-0.34375 -0.25 -0.890625 -0.25zm9.683594 5.875q-1.21875 0 -1.9375 -0.828125q-0.703125 -0.84375 -0.703125 -2.484375q0 -1.65625 0.71875 -2.5q0.734375 -0.859375 1.9375 -0.859375q0.515625 0 0.890625 0.140625q0.375 0.140625 0.65625 0.375q0.28125 0.21875 0.46875 0.5l0.0625 0q-0.015625 -0.1875 -0.046875 -0.5q-0.015625 -0.3125 -0.015625 -0.515625l0 -2.578125l0.96875 0l0 9.125l-0.78125 0l-0.15625 -0.921875l-0.03125 0q-0.1875 0.296875 -0.46875 0.53125q-0.28125 0.234375 -0.671875 0.375q-0.375 0.140625 -0.890625 0.140625zm0.15625 -0.8125q1.03125 0 1.453125 -0.578125q0.421875 -0.59375 0.421875 -1.75l0 -0.171875q0 -1.234375 -0.40625 -1.890625q-0.40625 -0.65625 -1.46875 -0.65625q-0.90625 0 -1.359375 0.6875q-0.4375 0.6875 -0.4375 1.875q0 1.1875 0.4375 1.84375q0.453125 0.640625 1.359375 0.640625zm5.873047 -5.734375l0 6.421875l-0.96875 0l0 -6.421875l0.96875 0zm-0.46875 -2.40625q0.234375 0 0.40625 0.15625q0.171875 0.15625 0.171875 0.484375q0 0.328125 -0.171875 0.484375q-0.171875 0.15625 -0.40625 0.15625q-0.265625 0 -0.4375 -0.15625q-0.15625 -0.15625 -0.15625 -0.484375q0 -0.328125 0.15625 -0.484375q0.171875 -0.15625 0.4375 -0.15625zm4.919922 2.296875q1.15625 0 1.703125 0.515625q0.5625 0.515625 0.5625 1.65625l0 4.359375l-0.703125 0l-0.1875 -0.953125l-0.046875 0q-0.265625 0.359375 -0.5625 0.59375q-0.296875 0.234375 -0.6875 0.359375q-0.375 0.125 -0.9375 0.125q-0.578125 0 -1.03125 -0.203125q-0.453125 -0.21875 -0.71875 -0.625q-0.265625 -0.421875 -0.265625 -1.0625q0 -0.953125 0.765625 -1.46875q0.765625 -0.515625 2.328125 -0.5625l1.09375 -0.046875l0 -0.40625q0 -0.828125 -0.359375 -1.15625q-0.34375 -0.34375 -1.0 -0.34375q-0.5 0 -0.96875 0.15625q-0.453125 0.140625 -0.859375 0.34375l-0.296875 -0.734375q0.4375 -0.234375 1.0 -0.390625q0.5625 -0.15625 1.171875 -0.15625zm1.3125 3.359375l-0.984375 0.046875q-1.203125 0.046875 -1.703125 0.390625q-0.484375 0.34375 -0.484375 0.984375q0 0.546875 0.328125 0.8125q0.34375 0.265625 0.890625 0.265625q0.859375 0 1.40625 -0.46875q0.546875 -0.484375 0.546875 -1.4375l0 -0.59375zm3.9335938 3.171875l-0.96875 0l0 -9.125l0.96875 0l0 9.125z" fill-rule="nonzero"/><path fill="#000000" d="m375.64502 152.83783q1.15625 0 1.703125 0.515625q0.5625 0.515625 0.5625 1.65625l0 4.359375l-0.703125 0l-0.1875 -0.953125l-0.046875 0q-0.265625 0.359375 -0.5625 0.59375q-0.296875 0.234375 -0.6875 0.359375q-0.375 0.125 -0.9375 0.125q-0.578125 0 -1.03125 -0.203125q-0.453125 -0.21875 -0.71875 -0.625q-0.265625 -0.421875 -0.265625 -1.0625q0 -0.953125 0.765625 -1.46875q0.765625 -0.515625 2.328125 -0.5625l1.09375 -0.046875l0 -0.40625q0 -0.828125 -0.359375 -1.15625q-0.34375 -0.34375 -1.0 -0.34375q-0.5 0 -0.96875 0.15625q-0.453125 0.140625 -0.859375 0.34375l-0.296875 -0.734375q0.4375 -0.234375 1.0 -0.390625q0.5625 -0.15625 1.171875 -0.15625zm1.3125 3.359375l-0.984375 0.046875q-1.203125 0.046875 -1.703125 0.390625q-0.484375 0.34375 -0.484375 0.984375q0 0.546875 0.328125 0.8125q0.34375 0.265625 0.890625 0.265625q0.859375 0 1.40625 -0.46875q0.546875 -0.484375 0.546875 -1.4375l0 -0.59375zm5.2460938 3.296875q-1.21875 0 -1.9375 -0.828125q-0.703125 -0.84375 -0.703125 -2.484375q0 -1.65625 0.71875 -2.5q0.734375 -0.859375 1.9375 -0.859375q0.515625 0 0.890625 0.140625q0.375 0.140625 0.65625 0.375q0.28125 0.21875 0.46875 0.5l0.0625 0q-0.015625 -0.1875 -0.046875 -0.5q-0.015625 -0.3125 -0.015625 -0.515625l0 -2.578125l0.96875 0l0 9.125l-0.78125 0l-0.15625 -0.921875l-0.03125 0q-0.1875 0.296875 -0.46875 0.53125q-0.28125 0.234375 -0.671875 0.375q-0.375 0.140625 -0.890625 0.140625zm0.15625 -0.8125q1.03125 0 1.453125 -0.578125q0.421875 -0.59375 0.421875 -1.75l0 -0.171875q0 -1.234375 -0.40625 -1.890625q-0.40625 -0.65625 -1.46875 -0.65625q-0.90625 0 -1.359375 0.6875q-0.4375 0.6875 -0.4375 1.875q0 1.1875 0.4375 1.84375q0.453125 0.640625 1.359375 0.640625zm7.185547 0.8125q-1.21875 0 -1.9375 -0.828125q-0.703125 -0.84375 -0.703125 -2.484375q0 -1.65625 0.71875 -2.5q0.734375 -0.859375 1.9375 -0.859375q0.515625 0 0.890625 0.140625q0.375 0.140625 0.65625 0.375q0.28125 0.21875 0.46875 0.5l0.0625 0q-0.015625 -0.1875 -0.046875 -0.5q-0.015625 -0.3125 -0.015625 -0.515625l0 -2.578125l0.96875 0l0 9.125l-0.78125 0l-0.15625 -0.921875l-0.03125 0q-0.1875 0.296875 -0.46875 0.53125q-0.28125 0.234375 -0.671875 0.375q-0.375 0.140625 -0.890625 0.140625zm0.15625 -0.8125q1.03125 0 1.453125 -0.578125q0.421875 -0.59375 0.421875 -1.75l0 -0.171875q0 -1.234375 -0.40625 -1.890625q-0.40625 -0.65625 -1.46875 -0.65625q-0.90625 0 -1.359375 0.6875q-0.4375 0.6875 -0.4375 1.875q0 1.1875 0.4375 1.84375q0.453125 0.640625 1.359375 0.640625zm7.810547 -5.859375q0.203125 0 0.40625 0.03125q0.21875 0.015625 0.375 0.046875l-0.125 0.90625q-0.15625 -0.046875 -0.34375 -0.0625q-0.1875 -0.03125 -0.359375 -0.03125q-0.390625 0 -0.734375 0.15625q-0.34375 0.15625 -0.609375 0.453125q-0.25 0.28125 -0.40625 0.703125q-0.140625 0.40625 -0.140625 0.890625l0 3.453125l-0.96875 0l0 -6.421875l0.796875 0l0.109375 1.1875l0.046875 0q0.203125 -0.359375 0.484375 -0.65625q0.28125 -0.296875 0.640625 -0.46875q0.375 -0.1875 0.828125 -0.1875zm4.466797 0q0.8125 0 1.390625 0.375q0.59375 0.359375 0.90625 1.015625q0.3125 0.65625 0.3125 1.515625l0 0.609375l-4.4375 0q0.015625 1.125 0.5625 1.71875q0.546875 0.59375 1.546875 0.59375q0.609375 0 1.078125 -0.109375q0.46875 -0.109375 0.96875 -0.328125l0 0.859375q-0.484375 0.21875 -0.96875 0.3125q-0.46875 0.109375 -1.125 0.109375q-0.921875 0 -1.609375 -0.375q-0.6875 -0.390625 -1.078125 -1.125q-0.375 -0.734375 -0.375 -1.796875q0 -1.03125 0.34375 -1.78125q0.34375 -0.765625 0.984375 -1.171875q0.640625 -0.421875 1.5 -0.421875zm-0.015625 0.796875q-0.78125 0 -1.25 0.515625q-0.453125 0.515625 -0.546875 1.421875l3.40625 0q0 -0.578125 -0.1875 -1.0q-0.171875 -0.4375 -0.53125 -0.6875q-0.34375 -0.25 -0.890625 -0.25zm8.441406 3.984375q0 0.625 -0.3125 1.046875q-0.3125 0.40625 -0.890625 0.625q-0.5625 0.21875 -1.359375 0.21875q-0.671875 0 -1.171875 -0.109375q-0.484375 -0.109375 -0.84375 -0.296875l0 -0.90625q0.390625 0.203125 0.9375 0.359375q0.546875 0.15625 1.109375 0.15625q0.828125 0 1.203125 -0.265625q0.375 -0.28125 0.375 -0.734375q0 -0.265625 -0.15625 -0.46875q-0.140625 -0.203125 -0.5 -0.390625q-0.34375 -0.1875 -0.96875 -0.421875q-0.609375 -0.234375 -1.0625 -0.46875q-0.4375 -0.234375 -0.6875 -0.5625q-0.25 -0.328125 -0.25 -0.875q0 -0.8125 0.65625 -1.25q0.671875 -0.4375 1.734375 -0.4375q0.59375 0 1.09375 0.125q0.5 0.109375 0.953125 0.296875l-0.328125 0.78125q-0.40625 -0.171875 -0.859375 -0.28125q-0.453125 -0.125 -0.921875 -0.125q-0.671875 0 -1.03125 0.234375q-0.359375 0.21875 -0.359375 0.609375q0 0.296875 0.15625 0.5q0.171875 0.1875 0.546875 0.359375q0.375 0.15625 0.96875 0.390625q0.609375 0.21875 1.046875 0.46875q0.4375 0.234375 0.671875 0.578125q0.25 0.328125 0.25 0.84375zm5.71875 0q0 0.625 -0.3125 1.046875q-0.3125 0.40625 -0.890625 0.625q-0.5625 0.21875 -1.359375 0.21875q-0.671875 0 -1.171875 -0.109375q-0.484375 -0.109375 -0.84375 -0.296875l0 -0.90625q0.390625 0.203125 0.9375 0.359375q0.546875 0.15625 1.109375 0.15625q0.828125 0 1.203125 -0.265625q0.375 -0.28125 0.375 -0.734375q0 -0.265625 -0.15625 -0.46875q-0.140625 -0.203125 -0.5 -0.390625q-0.34375 -0.1875 -0.96875 -0.421875q-0.609375 -0.234375 -1.0625 -0.46875q-0.4375 -0.234375 -0.6875 -0.5625q-0.25 -0.328125 -0.25 -0.875q0 -0.8125 0.65625 -1.25q0.671875 -0.4375 1.734375 -0.4375q0.59375 0 1.09375 0.125q0.5 0.109375 0.953125 0.296875l-0.328125 0.78125q-0.40625 -0.171875 -0.859375 -0.28125q-0.453125 -0.125 -0.921875 -0.125q-0.671875 0 -1.03125 0.234375q-0.359375 0.21875 -0.359375 0.609375q0 0.296875 0.15625 0.5q0.171875 0.1875 0.546875 0.359375q0.375 0.15625 0.96875 0.390625q0.609375 0.21875 1.046875 0.46875q0.4375 0.234375 0.671875 0.578125q0.25 0.328125 0.25 0.84375z" fill-rule="nonzero"/><path fill="#d9d9d9" d="m530.7323 230.10117l0 0c0 -3.2093964 2.6017456 -5.811142 5.811096 -5.811142l23.243896 0l0 0c1.5411987 0 3.019287 0.61224365 4.10907 1.7020416c1.0898438 1.089798 1.7020874 2.5678864 1.7020874 4.1091003l0 30.393463c0 3.2094116 -2.6017456 5.811157 -5.811157 5.811157l-23.243896 0c-3.2093506 0 -5.811096 -2.6017456 -5.811096 -5.811157z" fill-rule="evenodd"/><path fill="#d9d9d9" d="m223.27559 303.31244l0 0c0 -3.209381 2.6017303 -5.8111267 5.811142 -5.8111267l23.243866 0l0 0c1.5411987 0 3.019287 0.61224365 4.1091003 1.7020569c1.0897827 1.0897827 1.7020264 2.567871 1.7020264 4.10907l0 30.393494c0 3.209381 -2.6017303 5.8111267 -5.8111267 5.8111267l-23.243866 0c-3.2094116 0 -5.811142 -2.6017456 -5.811142 -5.8111267z" fill-rule="evenodd"/><path fill="#d9d9d9" d="m530.7323 303.31375l0 0c0 -3.209381 2.6017456 -5.8111267 5.811096 -5.8111267l23.243896 0l0 0c1.5411987 0 3.019287 0.61224365 4.10907 1.7020569c1.0898438 1.0897827 1.7020874 2.567871 1.7020874 4.10907l0 30.393494c0 3.209381 -2.6017456 5.8111267 -5.811157 5.8111267l-23.243896 0c-3.2093506 0 -5.811096 -2.6017456 -5.811096 -5.8111267z" fill-rule="evenodd"/><path fill="#000000" fill-opacity="0.0" d="m530.7323 318.5105l-272.59845 0" fill-rule="evenodd"/><path stroke="#000000" stroke-width="1.0" stroke-linejoin="round" stroke-linecap="butt" d="m524.7323 318.5105l-266.59845 0" fill-rule="evenodd"/><path fill="#000000" stroke="#000000" stroke-width="1.0" stroke-linecap="butt" d="m524.7323 320.16223l4.538086 -1.6517334l-4.538086 -1.6517334z" fill-rule="evenodd"/><path fill="#000000" fill-opacity="0.0" d="m330.3819 284.59055l145.5433 0l0 33.921265l-145.5433 0z" fill-rule="evenodd"/><path fill="#000000" d="m358.6135 298.0587q-0.703125 0 -1.265625 0.25q-0.5625 0.234375 -0.96875 0.703125q-0.390625 0.453125 -0.609375 1.109375q-0.203125 0.640625 -0.203125 1.453125q0 1.078125 0.328125 1.875q0.34375 0.796875 1.015625 1.234375q0.671875 0.4375 1.6875 0.4375q0.5625 0 1.0625 -0.09375q0.515625 -0.109375 1.0 -0.25l0 0.859375q-0.46875 0.1875 -0.984375 0.265625q-0.515625 0.09375 -1.21875 0.09375q-1.3125 0 -2.1875 -0.546875q-0.875 -0.546875 -1.3125 -1.53125q-0.4375 -1.0 -0.4375 -2.34375q0 -0.96875 0.265625 -1.765625q0.28125 -0.8125 0.796875 -1.390625q0.53125 -0.59375 1.296875 -0.90625q0.765625 -0.328125 1.75 -0.328125q0.65625 0 1.25 0.125q0.609375 0.125 1.09375 0.375l-0.390625 0.84375q-0.421875 -0.1875 -0.90625 -0.328125q-0.484375 -0.140625 -1.0625 -0.140625zm9.292969 4.59375q0 0.78125 -0.203125 1.40625q-0.203125 0.625 -0.59375 1.0625q-0.390625 0.421875 -0.9375 0.65625q-0.546875 0.21875 -1.234375 0.21875q-0.640625 0 -1.1875 -0.21875q-0.53125 -0.234375 -0.921875 -0.65625q-0.390625 -0.4375 -0.609375 -1.0625q-0.203125 -0.625 -0.203125 -1.40625q0 -1.0625 0.359375 -1.796875q0.359375 -0.75 1.015625 -1.140625q0.671875 -0.390625 1.59375 -0.390625q0.875 0 1.53125 0.40625q0.65625 0.390625 1.015625 1.140625q0.375 0.734375 0.375 1.78125zm-4.890625 0q0 0.765625 0.203125 1.34375q0.21875 0.5625 0.640625 0.875q0.421875 0.3125 1.09375 0.3125q0.671875 0 1.09375 -0.3125q0.4375 -0.3125 0.640625 -0.875q0.21875 -0.578125 0.21875 -1.34375q0 -0.765625 -0.21875 -1.328125q-0.203125 -0.5625 -0.625 -0.859375q-0.421875 -0.3125 -1.109375 -0.3125q-1.0 0 -1.46875 0.671875q-0.46875 0.65625 -0.46875 1.828125zm9.609375 -3.328125q1.140625 0 1.71875 0.5625q0.59375 0.5625 0.59375 1.796875l0 4.1875l-0.953125 0l0 -4.125q0 -0.796875 -0.375 -1.1875q-0.359375 -0.40625 -1.109375 -0.40625q-1.078125 0 -1.515625 0.609375q-0.421875 0.59375 -0.421875 1.75l0 3.359375l-0.96875 0l0 -6.421875l0.78125 0l0.140625 0.921875l0.0625 0q0.203125 -0.34375 0.515625 -0.5625q0.3125 -0.234375 0.703125 -0.359375q0.40625 -0.125 0.828125 -0.125zm7.359375 0q1.140625 0 1.71875 0.5625q0.59375 0.5625 0.59375 1.796875l0 4.1875l-0.953125 0l0 -4.125q0 -0.796875 -0.375 -1.1875q-0.359375 -0.40625 -1.109375 -0.40625q-1.078125 0 -1.515625 0.609375q-0.421875 0.59375 -0.421875 1.75l0 3.359375l-0.96875 0l0 -6.421875l0.78125 0l0.140625 0.921875l0.0625 0q0.203125 -0.34375 0.515625 -0.5625q0.3125 -0.234375 0.703125 -0.359375q0.40625 -0.125 0.828125 -0.125zm6.796875 0q0.8125 0 1.390625 0.375q0.59375 0.359375 0.90625 1.015625q0.3125 0.65625 0.3125 1.515625l0 0.609375l-4.4375 0q0.015625 1.125 0.5625 1.71875q0.546875 0.59375 1.546875 0.59375q0.609375 0 1.078125 -0.109375q0.46875 -0.109375 0.96875 -0.328125l0 0.859375q-0.484375 0.21875 -0.96875 0.3125q-0.46875 0.109375 -1.125 0.109375q-0.921875 0 -1.609375 -0.375q-0.6875 -0.390625 -1.078125 -1.125q-0.375 -0.734375 -0.375 -1.796875q0 -1.03125 0.34375 -1.78125q0.34375 -0.765625 0.984375 -1.171875q0.640625 -0.421875 1.5 -0.421875zm-0.015625 0.796875q-0.78125 0 -1.25 0.515625q-0.453125 0.515625 -0.546875 1.421875l3.40625 0q0 -0.578125 -0.1875 -1.0q-0.171875 -0.4375 -0.53125 -0.6875q-0.34375 -0.25 -0.890625 -0.25zm6.8476562 5.875q-0.859375 0 -1.53125 -0.359375q-0.65625 -0.359375 -1.03125 -1.09375q-0.359375 -0.734375 -0.359375 -1.84375q0 -1.171875 0.390625 -1.90625q0.390625 -0.75 1.0625 -1.109375q0.6875 -0.359375 1.5625 -0.359375q0.484375 0 0.921875 0.109375q0.453125 0.09375 0.75 0.234375l-0.296875 0.8125q-0.296875 -0.109375 -0.6875 -0.203125q-0.375 -0.09375 -0.703125 -0.09375q-0.671875 0 -1.125 0.296875q-0.4375 0.28125 -0.65625 0.84375q-0.21875 0.546875 -0.21875 1.359375q0 0.78125 0.21875 1.328125q0.21875 0.546875 0.640625 0.84375q0.421875 0.28125 1.0625 0.28125q0.515625 0 0.921875 -0.09375q0.40625 -0.109375 0.734375 -0.265625l0 0.875q-0.3125 0.15625 -0.71875 0.25q-0.390625 0.09375 -0.9375 0.09375zm5.248047 -0.8125q0.25 0 0.5 -0.03125q0.25 -0.046875 0.40625 -0.109375l0 0.765625q-0.171875 0.078125 -0.46875 0.125q-0.296875 0.0625 -0.59375 0.0625q-0.5 0 -0.921875 -0.171875q-0.421875 -0.1875 -0.671875 -0.609375q-0.234375 -0.4375 -0.234375 -1.203125l0 -3.796875l-0.921875 0l0 -0.484375l0.921875 -0.375l0.390625 -1.390625l0.578125 0l0 1.484375l1.890625 0l0 0.765625l-1.890625 0l0 3.78125q0 0.59375 0.28125 0.890625q0.28125 0.296875 0.734375 0.296875zm10.863281 -2.53125q0 0.78125 -0.203125 1.40625q-0.203125 0.625 -0.59375 1.0625q-0.390625 0.421875 -0.9375 0.65625q-0.546875 0.21875 -1.234375 0.21875q-0.640625 0 -1.1875 -0.21875q-0.53125 -0.234375 -0.921875 -0.65625q-0.390625 -0.4375 -0.609375 -1.0625q-0.203125 -0.625 -0.203125 -1.40625q0 -1.0625 0.359375 -1.796875q0.359375 -0.75 1.015625 -1.140625q0.671875 -0.390625 1.59375 -0.390625q0.875 0 1.53125 0.40625q0.65625 0.390625 1.015625 1.140625q0.375 0.734375 0.375 1.78125zm-4.890625 0q0 0.765625 0.203125 1.34375q0.21875 0.5625 0.640625 0.875q0.421875 0.3125 1.09375 0.3125q0.671875 0 1.09375 -0.3125q0.4375 -0.3125 0.640625 -0.875q0.21875 -0.578125 0.21875 -1.34375q0 -0.765625 -0.21875 -1.328125q-0.203125 -0.5625 -0.625 -0.859375q-0.421875 -0.3125 -1.109375 -0.3125q-1.0 0 -1.46875 0.671875q-0.46875 0.65625 -0.46875 1.828125zm7.984375 3.21875l-2.4375 -6.421875l1.046875 0l1.40625 3.890625q0.15625 0.390625 0.296875 0.875q0.15625 0.484375 0.21875 0.765625l0.03125 0q0.078125 -0.28125 0.234375 -0.765625q0.171875 -0.484375 0.3125 -0.875l1.40625 -3.890625l1.046875 0l-2.453125 6.421875l-1.109375 0zm7.0566406 -6.546875q0.8125 0 1.390625 0.375q0.59375 0.359375 0.90625 1.015625q0.3125 0.65625 0.3125 1.515625l0 0.609375l-4.4375 0q0.015625 1.125 0.5625 1.71875q0.546875 0.59375 1.546875 0.59375q0.609375 0 1.078125 -0.109375q0.46875 -0.109375 0.96875 -0.328125l0 0.859375q-0.484375 0.21875 -0.96875 0.3125q-0.46875 0.109375 -1.125 0.109375q-0.921875 0 -1.609375 -0.375q-0.6875 -0.390625 -1.078125 -1.125q-0.375 -0.734375 -0.375 -1.796875q0 -1.03125 0.34375 -1.78125q0.34375 -0.765625 0.984375 -1.171875q0.640625 -0.421875 1.5 -0.421875zm-0.015625 0.796875q-0.78125 0 -1.25 0.515625q-0.453125 0.515625 -0.546875 1.421875l3.40625 0q0 -0.578125 -0.1875 -1.0q-0.171875 -0.4375 -0.53125 -0.6875q-0.34375 -0.25 -0.890625 -0.25zm7.1914062 -0.796875q0.203125 0 0.40625 0.03125q0.21875 0.015625 0.375 0.046875l-0.125 0.90625q-0.15625 -0.046875 -0.34375 -0.0625q-0.1875 -0.03125 -0.359375 -0.03125q-0.390625 0 -0.734375 0.15625q-0.34375 0.15625 -0.609375 0.453125q-0.25 0.28125 -0.40625 0.703125q-0.140625 0.40625 -0.140625 0.890625l0 3.453125l-0.96875 0l0 -6.421875l0.796875 0l0.109375 1.1875l0.046875 0q0.203125 -0.359375 0.484375 -0.65625q0.28125 -0.296875 0.640625 -0.46875q0.375 -0.1875 0.828125 -0.1875zm7.8808594 6.546875l-1.0 0l0 -7.6875l-2.6875 0l0 -0.875l6.375 0l0 0.875l-2.6875 0l0 7.6875zm7.640625 -7.8125q-0.703125 0 -1.265625 0.25q-0.5625 0.234375 -0.96875 0.703125q-0.390625 0.453125 -0.609375 1.109375q-0.203125 0.640625 -0.203125 1.453125q0 1.078125 0.328125 1.875q0.34375 0.796875 1.015625 1.234375q0.671875 0.4375 1.6875 0.4375q0.5625 0 1.0625 -0.09375q0.515625 -0.109375 1.0 -0.25l0 0.859375q-0.46875 0.1875 -0.984375 0.265625q-0.515625 0.09375 -1.21875 0.09375q-1.3125 0 -2.1875 -0.546875q-0.875 -0.546875 -1.3125 -1.53125q-0.4375 -1.0 -0.4375 -2.34375q0 -0.96875 0.265625 -1.765625q0.28125 -0.8125 0.796875 -1.390625q0.53125 -0.59375 1.296875 -0.90625q0.765625 -0.328125 1.75 -0.328125q0.65625 0 1.25 0.125q0.609375 0.125 1.09375 0.375l-0.390625 0.84375q-0.421875 -0.1875 -0.90625 -0.328125q-0.484375 -0.140625 -1.0625 -0.140625zm6.1367188 -0.75q1.65625 0 2.421875 0.65625q0.765625 0.640625 0.765625 1.84375q0 0.546875 -0.1875 1.03125q-0.171875 0.484375 -0.578125 0.859375q-0.390625 0.375 -1.03125 0.59375q-0.640625 0.203125 -1.578125 0.203125l-1.046875 0l0 3.375l-1.0 0l0 -8.5625l2.234375 0zm-0.09375 0.84375l-1.140625 0l0 3.5l0.921875 0q0.828125 0 1.375 -0.171875q0.546875 -0.1875 0.8125 -0.578125q0.28125 -0.40625 0.28125 -1.0625q0 -0.84375 -0.546875 -1.265625q-0.53125 -0.421875 -1.703125 -0.421875z" fill-rule="nonzero"/><path fill="#000000" fill-opacity="0.0" d="m656.74805 588.32544l115.747986 0l0 42.015747l-115.747986 0z" fill-rule="evenodd"/><path fill="#d9d9d9" d="m223.27559 230.09985l0 0c0 -3.2093964 2.6017303 -5.811142 5.811142 -5.811142l23.243866 0l0 0c1.5411987 0 3.019287 0.61224365 4.1091003 1.7020416c1.0897827 1.089798 1.7020264 2.5678864 1.7020264 4.1091003l0 30.393463c0 3.2094116 -2.6017303 5.811157 -5.8111267 5.811157l-23.243866 0c-3.2094116 0 -5.811142 -2.6017456 -5.811142 -5.811157z" fill-rule="evenodd"/><path fill="#000000" fill-opacity="0.0" d="m530.7323 245.2979l-272.59845 0" fill-rule="evenodd"/><path stroke="#000000" stroke-width="1.0" stroke-linejoin="round" stroke-linecap="butt" d="m530.7323 245.2979l-266.59845 0" fill-rule="evenodd"/><path fill="#000000" stroke="#000000" stroke-width="1.0" stroke-linecap="butt" d="m264.13385 243.64616l-4.538086 1.6517334l4.538086 1.6517334z" fill-rule="evenodd"/><path fill="#000000" fill-opacity="0.0" d="m308.603 211.37665l189.10239 0l0 33.92125l-189.10239 0z" fill-rule="evenodd"/><path fill="#000000" d="m345.49792 230.37602q0 0.765625 -0.375 1.296875q-0.375 0.53125 -1.0625 0.828125q-0.671875 0.28125 -1.59375 0.28125q-0.484375 0 -0.921875 -0.046875q-0.421875 -0.046875 -0.796875 -0.140625q-0.359375 -0.09375 -0.640625 -0.21875l0 -0.953125q0.453125 0.171875 1.078125 0.328125q0.640625 0.15625 1.328125 0.15625q0.640625 0 1.078125 -0.171875q0.453125 -0.171875 0.6875 -0.484375q0.234375 -0.328125 0.234375 -0.796875q0 -0.4375 -0.203125 -0.734375q-0.1875 -0.296875 -0.640625 -0.53125q-0.4375 -0.25 -1.21875 -0.515625q-0.546875 -0.203125 -0.96875 -0.421875q-0.40625 -0.234375 -0.6875 -0.53125q-0.28125 -0.296875 -0.421875 -0.671875q-0.140625 -0.390625 -0.140625 -0.890625q0 -0.6875 0.34375 -1.171875q0.34375 -0.5 0.953125 -0.75q0.625 -0.265625 1.4375 -0.265625q0.6875 0 1.265625 0.125q0.578125 0.125 1.0625 0.34375l-0.3125 0.859375q-0.453125 -0.1875 -0.984375 -0.3125q-0.515625 -0.140625 -1.0625 -0.140625q-0.546875 0 -0.921875 0.171875q-0.375 0.15625 -0.578125 0.453125q-0.203125 0.28125 -0.203125 0.6875q0 0.453125 0.1875 0.75q0.1875 0.296875 0.609375 0.53125q0.421875 0.234375 1.109375 0.484375q0.765625 0.28125 1.28125 0.59375q0.53125 0.296875 0.796875 0.75q0.28125 0.4375 0.28125 1.109375zm4.080078 -4.265625q0.8125 0 1.390625 0.375q0.59375 0.359375 0.90625 1.015625q0.3125 0.65625 0.3125 1.515625l0 0.609375l-4.4375 0q0.015625 1.125 0.5625 1.71875q0.546875 0.59375 1.546875 0.59375q0.609375 0 1.078125 -0.109375q0.46875 -0.109375 0.96875 -0.328125l0 0.859375q-0.484375 0.21875 -0.96875 0.3125q-0.46875 0.109375 -1.125 0.109375q-0.921875 0 -1.609375 -0.375q-0.6875 -0.390625 -1.078125 -1.125q-0.375 -0.734375 -0.375 -1.796875q0 -1.03125 0.34375 -1.78125q0.34375 -0.765625 0.984375 -1.171875q0.640625 -0.421875 1.5 -0.421875zm-0.015625 0.796875q-0.78125 0 -1.25 0.515625q-0.453125 0.515625 -0.546875 1.421875l3.40625 0q0 -0.578125 -0.1875 -1.0q-0.171875 -0.4375 -0.53125 -0.6875q-0.34375 -0.25 -0.890625 -0.25zm7.3164062 -0.796875q1.140625 0 1.71875 0.5625q0.59375 0.5625 0.59375 1.796875l0 4.1875l-0.953125 0l0 -4.125q0 -0.796875 -0.375 -1.1875q-0.359375 -0.40625 -1.109375 -0.40625q-1.078125 0 -1.515625 0.609375q-0.421875 0.59375 -0.421875 1.75l0 3.359375l-0.96875 0l0 -6.421875l0.78125 0l0.140625 0.921875l0.0625 0q0.203125 -0.34375 0.515625 -0.5625q0.3125 -0.234375 0.703125 -0.359375q0.40625 -0.125 0.828125 -0.125zm6.609375 6.671875q-1.21875 0 -1.9375 -0.828125q-0.703125 -0.84375 -0.703125 -2.484375q0 -1.65625 0.71875 -2.5q0.734375 -0.859375 1.9375 -0.859375q0.515625 0 0.890625 0.140625q0.375 0.140625 0.65625 0.375q0.28125 0.21875 0.46875 0.5l0.0625 0q-0.015625 -0.1875 -0.046875 -0.5q-0.015625 -0.3125 -0.015625 -0.515625l0 -2.578125l0.96875 0l0 9.125l-0.78125 0l-0.15625 -0.921875l-0.03125 0q-0.1875 0.296875 -0.46875 0.53125q-0.28125 0.234375 -0.671875 0.375q-0.375 0.140625 -0.890625 0.140625zm0.15625 -0.8125q1.03125 0 1.453125 -0.578125q0.421875 -0.59375 0.421875 -1.75l0 -0.171875q0 -1.234375 -0.40625 -1.890625q-0.40625 -0.65625 -1.46875 -0.65625q-0.90625 0 -1.359375 0.6875q-0.4375 0.6875 -0.4375 1.875q0 1.1875 0.4375 1.84375q0.453125 0.640625 1.359375 0.640625zm10.787109 0.6875l-1.0 0l0 -7.6875l-2.6875 0l0 -0.875l6.375 0l0 0.875l-2.6875 0l0 7.6875zm7.640625 -7.8125q-0.703125 0 -1.265625 0.25q-0.5625 0.234375 -0.96875 0.703125q-0.390625 0.453125 -0.609375 1.109375q-0.203125 0.640625 -0.203125 1.453125q0 1.078125 0.328125 1.875q0.34375 0.796875 1.015625 1.234375q0.671875 0.4375 1.6875 0.4375q0.5625 0 1.0625 -0.09375q0.515625 -0.109375 1.0 -0.25l0 0.859375q-0.46875 0.1875 -0.984375 0.265625q-0.515625 0.09375 -1.21875 0.09375q-1.3125 0 -2.1875 -0.546875q-0.875 -0.546875 -1.3125 -1.53125q-0.4375 -1.0 -0.4375 -2.34375q0 -0.96875 0.265625 -1.765625q0.28125 -0.8125 0.796875 -1.390625q0.53125 -0.59375 1.296875 -0.90625q0.765625 -0.328125 1.75 -0.328125q0.65625 0 1.25 0.125q0.609375 0.125 1.09375 0.375l-0.390625 0.84375q-0.421875 -0.1875 -0.90625 -0.328125q-0.484375 -0.140625 -1.0625 -0.140625zm6.1367188 -0.75q1.65625 0 2.421875 0.65625q0.765625 0.640625 0.765625 1.84375q0 0.546875 -0.1875 1.03125q-0.171875 0.484375 -0.578125 0.859375q-0.390625 0.375 -1.03125 0.59375q-0.640625 0.203125 -1.578125 0.203125l-1.046875 0l0 3.375l-1.0 0l0 -8.5625l2.234375 0zm-0.09375 0.84375l-1.140625 0l0 3.5l0.921875 0q0.828125 0 1.375 -0.171875q0.546875 -0.1875 0.8125 -0.578125q0.28125 -0.40625 0.28125 -1.0625q0 -0.84375 -0.546875 -1.265625q-0.53125 -0.421875 -1.703125 -0.421875zm11.0703125 1.171875q1.203125 0 1.90625 0.828125q0.71875 0.828125 0.71875 2.484375q0 1.09375 -0.328125 1.84375q-0.328125 0.75 -0.921875 1.140625q-0.59375 0.375 -1.40625 0.375q-0.5 0 -0.890625 -0.140625q-0.390625 -0.140625 -0.671875 -0.359375q-0.265625 -0.234375 -0.453125 -0.5l-0.0625 0q0.015625 0.21875 0.03125 0.546875q0.03125 0.328125 0.03125 0.5625l0 2.640625l-0.96875 0l0 -9.296875l0.796875 0l0.125 0.953125l0.046875 0q0.1875 -0.296875 0.453125 -0.53125q0.28125 -0.25 0.671875 -0.390625q0.390625 -0.15625 0.921875 -0.15625zm-0.171875 0.828125q-0.671875 0 -1.078125 0.265625q-0.40625 0.25 -0.59375 0.765625q-0.1875 0.515625 -0.203125 1.28125l0 0.1875q0 0.8125 0.171875 1.375q0.1875 0.5625 0.59375 0.859375q0.421875 0.296875 1.125 0.296875q0.59375 0 0.984375 -0.328125q0.40625 -0.328125 0.59375 -0.890625q0.203125 -0.578125 0.203125 -1.328125q0 -1.140625 -0.453125 -1.8125q-0.4375 -0.671875 -1.34375 -0.671875zm10.029297 2.5q0 0.78125 -0.203125 1.40625q-0.203125 0.625 -0.59375 1.0625q-0.390625 0.421875 -0.9375 0.65625q-0.546875 0.21875 -1.234375 0.21875q-0.640625 0 -1.1875 -0.21875q-0.53125 -0.234375 -0.921875 -0.65625q-0.390625 -0.4375 -0.609375 -1.0625q-0.203125 -0.625 -0.203125 -1.40625q0 -1.0625 0.359375 -1.796875q0.359375 -0.75 1.015625 -1.140625q0.671875 -0.390625 1.59375 -0.390625q0.875 0 1.53125 0.40625q0.65625 0.390625 1.015625 1.140625q0.375 0.734375 0.375 1.78125zm-4.890625 0q0 0.765625 0.203125 1.34375q0.21875 0.5625 0.640625 0.875q0.421875 0.3125 1.09375 0.3125q0.671875 0 1.09375 -0.3125q0.4375 -0.3125 0.640625 -0.875q0.21875 -0.578125 0.21875 -1.34375q0 -0.765625 -0.21875 -1.328125q-0.203125 -0.5625 -0.625 -0.859375q-0.421875 -0.3125 -1.109375 -0.3125q-1.0 0 -1.46875 0.671875q-0.46875 0.65625 -0.46875 1.828125zm9.484375 -3.328125q0.203125 0 0.40625 0.03125q0.21875 0.015625 0.375 0.046875l-0.125 0.90625q-0.15625 -0.046875 -0.34375 -0.0625q-0.1875 -0.03125 -0.359375 -0.03125q-0.390625 0 -0.734375 0.15625q-0.34375 0.15625 -0.609375 0.453125q-0.25 0.28125 -0.40625 0.703125q-0.140625 0.40625 -0.140625 0.890625l0 3.453125l-0.96875 0l0 -6.421875l0.796875 0l0.109375 1.1875l0.046875 0q0.203125 -0.359375 0.484375 -0.65625q0.28125 -0.296875 0.640625 -0.46875q0.375 -0.1875 0.828125 -0.1875zm4.060547 5.859375q0.25 0 0.5 -0.03125q0.25 -0.046875 0.40625 -0.109375l0 0.765625q-0.171875 0.078125 -0.46875 0.125q-0.296875 0.0625 -0.59375 0.0625q-0.5 0 -0.921875 -0.171875q-0.421875 -0.1875 -0.671875 -0.609375q-0.234375 -0.4375 -0.234375 -1.203125l0 -3.796875l-0.921875 0l0 -0.484375l0.921875 -0.375l0.390625 -1.390625l0.578125 0l0 1.484375l1.890625 0l0 0.765625l-1.890625 0l0 3.78125q0 0.59375 0.28125 0.890625q0.28125 0.296875 0.734375 0.296875zm8.363281 -5.859375q1.140625 0 1.71875 0.5625q0.59375 0.5625 0.59375 1.796875l0 4.1875l-0.953125 0l0 -4.125q0 -0.796875 -0.375 -1.1875q-0.359375 -0.40625 -1.109375 -0.40625q-1.078125 0 -1.515625 0.609375q-0.421875 0.59375 -0.421875 1.75l0 3.359375l-0.96875 0l0 -6.421875l0.78125 0l0.140625 0.921875l0.0625 0q0.203125 -0.34375 0.515625 -0.5625q0.3125 -0.234375 0.703125 -0.359375q0.40625 -0.125 0.828125 -0.125zm9.625 0.125l0 6.421875l-0.796875 0l-0.140625 -0.90625l-0.046875 0q-0.203125 0.34375 -0.53125 0.578125q-0.3125 0.21875 -0.703125 0.328125q-0.390625 0.125 -0.84375 0.125q-0.75 0 -1.265625 -0.25q-0.515625 -0.25 -0.78125 -0.765625q-0.265625 -0.515625 -0.265625 -1.328125l0 -4.203125l0.984375 0l0 4.140625q0 0.796875 0.359375 1.203125q0.375 0.390625 1.109375 0.390625q0.71875 0 1.140625 -0.265625q0.421875 -0.28125 0.609375 -0.796875q0.1875 -0.53125 0.1875 -1.296875l0 -3.375l0.984375 0zm9.03125 -0.125q1.0625 0 1.59375 0.5625q0.546875 0.546875 0.546875 1.78125l0 4.203125l-0.96875 0l0 -4.15625q0 -0.78125 -0.34375 -1.171875q-0.328125 -0.390625 -0.984375 -0.390625q-0.9375 0 -1.359375 0.546875q-0.421875 0.53125 -0.421875 1.578125l0 3.59375l-0.96875 0l0 -4.15625q0 -0.53125 -0.15625 -0.875q-0.140625 -0.34375 -0.4375 -0.515625q-0.296875 -0.171875 -0.75 -0.171875q-0.625 0 -1.015625 0.265625q-0.390625 0.265625 -0.5625 0.78125q-0.171875 0.515625 -0.171875 1.265625l0 3.40625l-0.96875 0l0 -6.421875l0.78125 0l0.140625 0.90625l0.0625 0q0.1875 -0.328125 0.484375 -0.5625q0.296875 -0.234375 0.65625 -0.34375q0.359375 -0.125 0.765625 -0.125q0.734375 0 1.234375 0.28125q0.5 0.265625 0.71875 0.828125l0.046875 0q0.3125 -0.5625 0.859375 -0.828125q0.5625 -0.28125 1.21875 -0.28125zm5.109375 -2.578125l0 2.28125q0 0.390625 -0.03125 0.765625q-0.015625 0.375 -0.015625 0.578125l0.046875 0q0.265625 -0.4375 0.765625 -0.734375q0.5 -0.296875 1.265625 -0.296875q1.203125 0 1.921875 0.84375q0.71875 0.828125 0.71875 2.46875q0 1.078125 -0.328125 1.828125q-0.328125 0.75 -0.921875 1.140625q-0.59375 0.375 -1.40625 0.375q-0.765625 0 -1.265625 -0.28125q-0.484375 -0.296875 -0.75 -0.703125l-0.078125 0l-0.1875 0.859375l-0.703125 0l0 -9.125l0.96875 0zm1.875 3.40625q-0.703125 0 -1.109375 0.28125q-0.40625 0.265625 -0.59375 0.8125q-0.171875 0.546875 -0.171875 1.390625l0 0.046875q0 1.21875 0.40625 1.859375q0.40625 0.640625 1.46875 0.640625q0.890625 0 1.34375 -0.65625q0.453125 -0.65625 0.453125 -1.875q0 -1.25 -0.453125 -1.875q-0.4375 -0.625 -1.34375 -0.625zm6.966797 -0.828125q0.8125 0 1.390625 0.375q0.59375 0.359375 0.90625 1.015625q0.3125 0.65625 0.3125 1.515625l0 0.609375l-4.4375 0q0.015625 1.125 0.5625 1.71875q0.546875 0.59375 1.546875 0.59375q0.609375 0 1.078125 -0.109375q0.46875 -0.109375 0.96875 -0.328125l0 0.859375q-0.484375 0.21875 -0.96875 0.3125q-0.46875 0.109375 -1.125 0.109375q-0.921875 0 -1.609375 -0.375q-0.6875 -0.390625 -1.078125 -1.125q-0.375 -0.734375 -0.375 -1.796875q0 -1.03125 0.34375 -1.78125q0.34375 -0.765625 0.984375 -1.171875q0.640625 -0.421875 1.5 -0.421875zm-0.015625 0.796875q-0.78125 0 -1.25 0.515625q-0.453125 0.515625 -0.546875 1.421875l3.40625 0q0 -0.578125 -0.1875 -1.0q-0.171875 -0.4375 -0.53125 -0.6875q-0.34375 -0.25 -0.890625 -0.25zm7.1914062 -0.796875q0.203125 0 0.40625 0.03125q0.21875 0.015625 0.375 0.046875l-0.125 0.90625q-0.15625 -0.046875 -0.34375 -0.0625q-0.1875 -0.03125 -0.359375 -0.03125q-0.390625 0 -0.734375 0.15625q-0.34375 0.15625 -0.609375 0.453125q-0.25 0.28125 -0.40625 0.703125q-0.140625 0.40625 -0.140625 0.890625l0 3.453125l-0.96875 0l0 -6.421875l0.796875 0l0.109375 1.1875l0.046875 0q0.203125 -0.359375 0.484375 -0.65625q0.28125 -0.296875 0.640625 -0.46875q0.375 -0.1875 0.828125 -0.1875z" fill-rule="nonzero"/><path fill="#000000" d="m69.35696 209.48294l0 0c0 -6.1084747 4.9518967 -11.060364 11.060364 -11.060364l68.879265 0l0 0l34.259842 0l11.779526 0c2.9333954 0 5.746643 1.1652832 7.820862 3.239502c2.0742188 2.0742188 3.2395172 4.8874664 3.2395172 7.820862l0 27.650925l13.899902 10.516861l-13.899902 6.0736847l0 0c0 6.1084747 -4.9519043 11.060379 -11.060379 11.060379l-11.779526 0l-34.259842 0l0 0l-68.879265 0c-6.108467 0 -11.060364 -4.9519043 -11.060364 -11.060379l0 0l0 -16.590546l0 0z" fill-rule="evenodd"/><path fill="#ffffff" d="m85.8933 208.90617q-0.640625 0 -1.140625 0.21875q-0.5 0.21875 -0.859375 0.625q-0.34375 0.40625 -0.53125 0.984375q-0.1875 0.578125 -0.1875 1.296875q0 0.96875 0.296875 1.671875q0.3125 0.703125 0.90625 1.09375q0.59375 0.375 1.484375 0.375q0.515625 0 0.953125 -0.078125q0.453125 -0.09375 0.890625 -0.21875l0 0.765625q-0.421875 0.15625 -0.890625 0.234375q-0.453125 0.078125 -1.078125 0.078125q-1.15625 0 -1.9375 -0.484375q-0.78125 -0.484375 -1.171875 -1.359375q-0.375 -0.890625 -0.375 -2.078125q0 -0.859375 0.234375 -1.578125q0.25 -0.71875 0.703125 -1.234375q0.46875 -0.53125 1.140625 -0.8125q0.6875 -0.28125 1.5625 -0.28125q0.578125 0 1.109375 0.125q0.546875 0.109375 0.984375 0.3125l-0.359375 0.75q-0.359375 -0.15625 -0.796875 -0.28125q-0.4375 -0.125 -0.9375 -0.125zm8.243439 4.078125q0 0.703125 -0.1875 1.25q-0.171875 0.546875 -0.515625 0.9375q-0.34375 0.375 -0.84375 0.578125q-0.484375 0.203125 -1.09375 0.203125q-0.5625 0 -1.046875 -0.203125q-0.46875 -0.203125 -0.828125 -0.578125q-0.34375 -0.390625 -0.53125 -0.9375q-0.1875 -0.546875 -0.1875 -1.25q0 -0.9375 0.3125 -1.59375q0.328125 -0.65625 0.90625 -1.0q0.59375 -0.359375 1.40625 -0.359375q0.78125 0 1.359375 0.359375q0.59375 0.34375 0.921875 1.0q0.328125 0.65625 0.328125 1.59375zm-4.34375 0q0 0.6875 0.1875 1.1875q0.1875 0.5 0.5625 0.78125q0.375 0.28125 0.96875 0.28125q0.59375 0 0.96875 -0.28125q0.390625 -0.28125 0.578125 -0.78125q0.1875 -0.5 0.1875 -1.1875q0 -0.6875 -0.1875 -1.171875q-0.1875 -0.5 -0.5625 -0.765625q-0.375 -0.28125 -0.984375 -0.28125q-0.890625 0 -1.3125 0.59375q-0.40625 0.578125 -0.40625 1.625zm12.0354 -2.953125q0.9375 0 1.40625 0.5q0.484375 0.484375 0.484375 1.578125l0 3.734375l-0.859375 0l0 -3.6875q0 -0.703125 -0.296875 -1.046875q-0.296875 -0.34375 -0.875 -0.34375q-0.828125 0 -1.203125 0.484375q-0.375 0.46875 -0.375 1.40625l0 3.1875l-0.859375 0l0 -3.6875q0 -0.46875 -0.140625 -0.765625q-0.125 -0.3125 -0.390625 -0.46875q-0.265625 -0.15625 -0.671875 -0.15625q-0.5625 0 -0.90625 0.234375q-0.34375 0.234375 -0.5 0.703125q-0.140625 0.453125 -0.140625 1.125l0 3.015625l-0.875 0l0 -5.703125l0.703125 0l0.125 0.8125l0.046875 0q0.171875 -0.296875 0.4375 -0.5q0.265625 -0.203125 0.578125 -0.3125q0.328125 -0.109375 0.6875 -0.109375q0.65625 0 1.09375 0.25q0.4375 0.234375 0.640625 0.734375l0.046875 0q0.28125 -0.5 0.765625 -0.734375q0.484375 -0.25 1.078125 -0.25zm4.5372314 -2.28125l0 2.015625q0 0.359375 -0.03125 0.6875q-0.015625 0.328125 -0.015625 0.5l0.046875 0q0.234375 -0.375 0.671875 -0.640625q0.4375 -0.265625 1.125 -0.265625q1.078125 0 1.703125 0.75q0.640625 0.734375 0.640625 2.1875q0 0.96875 -0.296875 1.625q-0.28125 0.65625 -0.8125 1.0q-0.53125 0.34375 -1.25 0.34375q-0.6875 0 -1.125 -0.25q-0.421875 -0.265625 -0.65625 -0.625l-0.0625 0l-0.1875 0.765625l-0.625 0l0 -8.09375l0.875 0zm1.65625 3.015625q-0.625 0 -0.984375 0.25q-0.359375 0.234375 -0.515625 0.71875q-0.15625 0.484375 -0.15625 1.234375l0 0.046875q0 1.078125 0.359375 1.65625q0.359375 0.5625 1.296875 0.5625q0.796875 0 1.1875 -0.578125q0.40625 -0.59375 0.40625 -1.671875q0 -1.109375 -0.390625 -1.65625q-0.390625 -0.5625 -1.203125 -0.5625zm4.8634186 -0.625l0 5.703125l-0.875 0l0 -5.703125l0.875 0zm-0.421875 -2.140625q0.203125 0 0.359375 0.140625q0.15625 0.140625 0.15625 0.4375q0 0.28125 -0.15625 0.421875q-0.15625 0.140625 -0.359375 0.140625q-0.234375 0 -0.390625 -0.140625q-0.140625 -0.140625 -0.140625 -0.421875q0 -0.296875 0.140625 -0.4375q0.15625 -0.140625 0.390625 -0.140625zm4.9400787 2.03125q1.015625 0 1.53125 0.5q0.53125 0.5 0.53125 1.59375l0 3.71875l-0.859375 0l0 -3.65625q0 -0.71875 -0.328125 -1.0625q-0.328125 -0.359375 -1.0 -0.359375q-0.9375 0 -1.328125 0.546875q-0.375 0.53125 -0.375 1.546875l0 2.984375l-0.875 0l0 -5.703125l0.703125 0l0.125 0.828125l0.046875 0q0.1875 -0.3125 0.46875 -0.515625q0.28125 -0.203125 0.625 -0.3125q0.34375 -0.109375 0.734375 -0.109375zm6.0352783 0q0.71875 0 1.234375 0.328125q0.53125 0.328125 0.796875 0.90625q0.28125 0.578125 0.28125 1.359375l0 0.53125l-3.9375 0q0.015625 1.0 0.5 1.53125q0.484375 0.515625 1.359375 0.515625q0.546875 0 0.953125 -0.09375q0.421875 -0.09375 0.875 -0.296875l0 0.765625q-0.4375 0.1875 -0.859375 0.28125q-0.421875 0.09375 -1.0 0.09375q-0.8125 0 -1.4375 -0.328125q-0.609375 -0.34375 -0.953125 -1.0q-0.328125 -0.65625 -0.328125 -1.59375q0 -0.921875 0.3125 -1.59375q0.3125 -0.671875 0.875 -1.03125q0.5625 -0.375 1.328125 -0.375zm-0.015625 0.71875q-0.6875 0 -1.109375 0.453125q-0.40625 0.453125 -0.484375 1.265625l3.015625 0q0 -0.515625 -0.15625 -0.90625q-0.15625 -0.390625 -0.46875 -0.59375q-0.3125 -0.21875 -0.796875 -0.21875zm9.251854 -0.71875q1.0625 0 1.6875 0.734375q0.640625 0.734375 0.640625 2.21875q0 0.96875 -0.296875 1.625q-0.28125 0.65625 -0.8125 1.0q-0.53125 0.34375 -1.25 0.34375q-0.453125 0 -0.796875 -0.125q-0.328125 -0.125 -0.578125 -0.328125q-0.25 -0.203125 -0.40625 -0.4375l-0.0625 0q0.015625 0.203125 0.03125 0.5q0.03125 0.28125 0.03125 0.484375l0 2.34375l-0.875 0l0 -8.25l0.71875 0l0.109375 0.84375l0.046875 0q0.171875 -0.265625 0.40625 -0.46875q0.234375 -0.21875 0.578125 -0.34375q0.34375 -0.140625 0.828125 -0.140625zm-0.15625 0.734375q-0.59375 0 -0.953125 0.234375q-0.359375 0.21875 -0.53125 0.6875q-0.15625 0.453125 -0.171875 1.140625l0 0.15625q0 0.71875 0.15625 1.21875q0.15625 0.5 0.515625 0.765625q0.375 0.265625 1.0 0.265625q0.53125 0 0.875 -0.28125q0.359375 -0.296875 0.53125 -0.8125q0.171875 -0.515625 0.171875 -1.171875q0 -1.015625 -0.390625 -1.609375q-0.390625 -0.59375 -1.203125 -0.59375zm8.910294 2.21875q0 0.703125 -0.1875 1.25q-0.171875 0.546875 -0.515625 0.9375q-0.34375 0.375 -0.84375 0.578125q-0.484375 0.203125 -1.09375 0.203125q-0.5625 0 -1.046875 -0.203125q-0.46875 -0.203125 -0.828125 -0.578125q-0.34375 -0.390625 -0.53125 -0.9375q-0.1875 -0.546875 -0.1875 -1.25q0 -0.9375 0.3125 -1.59375q0.328125 -0.65625 0.90625 -1.0q0.59375 -0.359375 1.40625 -0.359375q0.78125 0 1.359375 0.359375q0.59375 0.34375 0.921875 1.0q0.328125 0.65625 0.328125 1.59375zm-4.34375 0q0 0.6875 0.1875 1.1875q0.1875 0.5 0.5625 0.78125q0.375 0.28125 0.96875 0.28125q0.59375 0 0.96875 -0.28125q0.390625 -0.28125 0.578125 -0.78125q0.1875 -0.5 0.1875 -1.1875q0 -0.6875 -0.1875 -1.171875q-0.1875 -0.5 -0.5625 -0.765625q-0.375 -0.28125 -0.984375 -0.28125q-0.890625 0 -1.3125 0.59375q-0.40625 0.578125 -0.40625 1.625zm8.426025 -2.953125q0.171875 0 0.359375 0.03125q0.1875 0.015625 0.328125 0.046875l-0.109375 0.796875q-0.140625 -0.03125 -0.3125 -0.046875q-0.171875 -0.03125 -0.3125 -0.03125q-0.34375 0 -0.65625 0.140625q-0.296875 0.140625 -0.53125 0.40625q-0.21875 0.25 -0.359375 0.609375q-0.125 0.359375 -0.125 0.796875l0 3.0625l-0.875 0l0 -5.703125l0.71875 0l0.09375 1.046875l0.046875 0q0.171875 -0.3125 0.421875 -0.578125q0.25 -0.265625 0.578125 -0.421875q0.328125 -0.15625 0.734375 -0.15625zm3.6051178 5.203125q0.21875 0 0.4375 -0.03125q0.21875 -0.03125 0.359375 -0.09375l0 0.671875q-0.140625 0.078125 -0.421875 0.125q-0.265625 0.046875 -0.515625 0.046875q-0.453125 0 -0.828125 -0.15625q-0.359375 -0.171875 -0.578125 -0.546875q-0.21875 -0.375 -0.21875 -1.046875l0 -3.390625l-0.8125 0l0 -0.421875l0.8125 -0.328125l0.34375 -1.25l0.515625 0l0 1.328125l1.671875 0l0 0.671875l-1.671875 0l0 3.359375q0 0.53125 0.25 0.796875q0.25 0.265625 0.65625 0.265625zm7.425873 -5.203125q1.015625 0 1.53125 0.5q0.53125 0.5 0.53125 1.59375l0 3.71875l-0.859375 0l0 -3.65625q0 -0.71875 -0.328125 -1.0625q-0.328125 -0.359375 -1.0 -0.359375q-0.9375 0 -1.328125 0.546875q-0.375 0.53125 -0.375 1.546875l0 2.984375l-0.875 0l0 -5.703125l0.703125 0l0.125 0.828125l0.046875 0q0.1875 -0.3125 0.46875 -0.515625q0.28125 -0.203125 0.625 -0.3125q0.34375 -0.109375 0.734375 -0.109375zm8.550903 0.109375l0 5.703125l-0.71875 0l-0.125 -0.796875l-0.046875 0q-0.171875 0.296875 -0.453125 0.5q-0.28125 0.203125 -0.640625 0.296875q-0.34375 0.109375 -0.734375 0.109375q-0.671875 0 -1.140625 -0.21875q-0.453125 -0.21875 -0.6875 -0.671875q-0.234375 -0.46875 -0.234375 -1.1875l0 -3.734375l0.875 0l0 3.671875q0 0.71875 0.328125 1.078125q0.328125 0.34375 0.984375 0.34375q0.625 0 1.0 -0.234375q0.390625 -0.25 0.546875 -0.71875q0.171875 -0.46875 0.171875 -1.140625l0 -3.0l0.875 0zm8.019653 -0.109375q0.9375 0 1.40625 0.5q0.484375 0.484375 0.484375 1.578125l0 3.734375l-0.859375 0l0 -3.6875q0 -0.703125 -0.296875 -1.046875q-0.296875 -0.34375 -0.875 -0.34375q-0.828125 0 -1.203125 0.484375q-0.375 0.46875 -0.375 1.40625l0 3.1875l-0.859375 0l0 -3.6875q0 -0.46875 -0.140625 -0.765625q-0.125 -0.3125 -0.390625 -0.46875q-0.265625 -0.15625 -0.671875 -0.15625q-0.5625 0 -0.90625 0.234375q-0.34375 0.234375 -0.5 0.703125q-0.140625 0.453125 -0.140625 1.125l0 3.015625l-0.875 0l0 -5.703125l0.703125 0l0.125 0.8125l0.046875 0q0.171875 -0.296875 0.4375 -0.5q0.265625 -0.203125 0.578125 -0.3125q0.328125 -0.109375 0.6875 -0.109375q0.65625 0 1.09375 0.25q0.4375 0.234375 0.640625 0.734375l0.046875 0q0.28125 -0.5 0.765625 -0.734375q0.484375 -0.25 1.078125 -0.25zm4.5372314 -2.28125l0 2.015625q0 0.359375 -0.03125 0.6875q-0.015625 0.328125 -0.015625 0.5l0.046875 0q0.234375 -0.375 0.671875 -0.640625q0.4375 -0.265625 1.125 -0.265625q1.078125 0 1.703125 0.75q0.640625 0.734375 0.640625 2.1875q0 0.96875 -0.296875 1.625q-0.28125 0.65625 -0.8125 1.0q-0.53125 0.34375 -1.25 0.34375q-0.6875 0 -1.125 -0.25q-0.421875 -0.265625 -0.65625 -0.625l-0.0625 0l-0.1875 0.765625l-0.625 0l0 -8.09375l0.875 0zm1.65625 3.015625q-0.625 0 -0.984375 0.25q-0.359375 0.234375 -0.515625 0.71875q-0.15625 0.484375 -0.15625 1.234375l0 0.046875q0 1.078125 0.359375 1.65625q0.359375 0.5625 1.296875 0.5625q0.796875 0 1.1875 -0.578125q0.40625 -0.59375 0.40625 -1.671875q0 -1.109375 -0.390625 -1.65625q-0.390625 -0.5625 -1.203125 -0.5625zm6.1915436 -0.734375q0.71875 0 1.234375 0.328125q0.53125 0.328125 0.796875 0.90625q0.28125 0.578125 0.28125 1.359375l0 0.53125l-3.9375 0q0.015625 1.0 0.5 1.53125q0.484375 0.515625 1.359375 0.515625q0.546875 0 0.953125 -0.09375q0.421875 -0.09375 0.875 -0.296875l0 0.765625q-0.4375 0.1875 -0.859375 0.28125q-0.421875 0.09375 -1.0 0.09375q-0.8125 0 -1.4375 -0.328125q-0.609375 -0.34375 -0.953125 -1.0q-0.328125 -0.65625 -0.328125 -1.59375q0 -0.921875 0.3125 -1.59375q0.3125 -0.671875 0.875 -1.03125q0.5625 -0.375 1.328125 -0.375zm-0.015625 0.71875q-0.6875 0 -1.109375 0.453125q-0.40625 0.453125 -0.484375 1.265625l3.015625 0q0 -0.515625 -0.15625 -0.90625q-0.15625 -0.390625 -0.46875 -0.59375q-0.3125 -0.21875 -0.796875 -0.21875zm6.389984 -0.71875q0.171875 0 0.359375 0.03125q0.1875 0.015625 0.328125 0.046875l-0.109375 0.796875q-0.140625 -0.03125 -0.3125 -0.046875q-0.171875 -0.03125 -0.3125 -0.03125q-0.34375 0 -0.65625 0.140625q-0.296875 0.140625 -0.53125 0.40625q-0.21875 0.25 -0.359375 0.609375q-0.125 0.359375 -0.125 0.796875l0 3.0625l-0.875 0l0 -5.703125l0.71875 0l0.09375 1.046875l0.046875 0q0.171875 -0.3125 0.421875 -0.578125q0.25 -0.265625 0.578125 -0.421875q0.328125 -0.15625 0.734375 -0.15625z" fill-rule="nonzero"/><path fill="#ffffff" d="m87.1433 228.82805l-1.015625 -3.3125q-0.0625 -0.21875 -0.125 -0.421875q-0.0625 -0.203125 -0.109375 -0.390625q-0.046875 -0.1875 -0.09375 -0.34375q-0.03125 -0.171875 -0.0625 -0.296875l-0.03125 0q-0.015625 0.125 -0.0625 0.296875q-0.03125 0.15625 -0.078125 0.34375q-0.046875 0.1875 -0.109375 0.40625q-0.0625 0.203125 -0.125 0.421875l-1.0625 3.296875l-0.96875 0l-1.578125 -5.703125l0.890625 0l0.828125 3.15625q0.078125 0.3125 0.15625 0.625q0.078125 0.296875 0.125 0.5625q0.0625 0.265625 0.09375 0.46875l0.03125 0q0.03125 -0.140625 0.0625 -0.3125q0.046875 -0.1875 0.09375 -0.390625q0.0625 -0.203125 0.109375 -0.40625q0.0625 -0.21875 0.125 -0.390625l1.046875 -3.3125l0.921875 0l1.015625 3.296875q0.078125 0.25 0.15625 0.53125q0.078125 0.265625 0.140625 0.515625q0.0625 0.25 0.09375 0.453125l0.03125 0q0.03125 -0.171875 0.078125 -0.4375q0.0625 -0.265625 0.140625 -0.578125q0.078125 -0.3125 0.15625 -0.625l0.828125 -3.15625l0.875 0l-1.5625 5.703125l-1.015625 0zm4.491928 -5.6875l0 5.703125l-0.875 0l0 -5.703125l0.875 0zm-0.421875 -2.140625q0.203125 0 0.359375 0.140625q0.15625 0.140625 0.15625 0.4375q0 0.28125 -0.15625 0.421875q-0.15625 0.140625 -0.359375 0.140625q-0.234375 0 -0.390625 -0.140625q-0.140625 -0.140625 -0.140625 -0.421875q0 -0.296875 0.140625 -0.4375q0.15625 -0.140625 0.390625 -0.140625zm4.0807037 7.234375q0.21875 0 0.4375 -0.03125q0.21875 -0.03125 0.359375 -0.09375l0 0.671875q-0.140625 0.078125 -0.421875 0.125q-0.265625 0.046875 -0.515625 0.046875q-0.453125 0 -0.828125 -0.15625q-0.359375 -0.171875 -0.578125 -0.546875q-0.21875 -0.375 -0.21875 -1.046875l0 -3.390625l-0.8125 0l0 -0.421875l0.8125 -0.328125l0.34375 -1.25l0.515625 0l0 1.328125l1.671875 0l0 0.671875l-1.671875 0l0 3.359375q0 0.53125 0.25 0.796875q0.25 0.265625 0.65625 0.265625zm2.8296204 -7.484375l0 2.421875q0 0.203125 -0.015625 0.421875q-0.015625 0.203125 -0.03125 0.375l0.046875 0q0.1875 -0.296875 0.453125 -0.5q0.28125 -0.203125 0.625 -0.3125q0.34375 -0.109375 0.734375 -0.109375q0.6875 0 1.140625 0.21875q0.46875 0.21875 0.703125 0.6875q0.234375 0.453125 0.234375 1.171875l0 3.71875l-0.859375 0l0 -3.65625q0 -0.71875 -0.328125 -1.0625q-0.328125 -0.359375 -1.0 -0.359375q-0.625 0 -1.0 0.25q-0.375 0.234375 -0.546875 0.703125q-0.15625 0.46875 -0.15625 1.140625l0 2.984375l-0.875 0l0 -8.09375l0.875 0zm11.022156 2.28125q0.171875 0 0.359375 0.03125q0.1875 0.015625 0.328125 0.046875l-0.109375 0.796875q-0.140625 -0.03125 -0.3125 -0.046875q-0.171875 -0.03125 -0.3125 -0.03125q-0.34375 0 -0.65625 0.140625q-0.296875 0.140625 -0.53125 0.40625q-0.21875 0.25 -0.359375 0.609375q-0.125 0.359375 -0.125 0.796875l0 3.0625l-0.875 0l0 -5.703125l0.71875 0l0.09375 1.046875l0.046875 0q0.171875 -0.3125 0.421875 -0.578125q0.25 -0.265625 0.578125 -0.421875q0.328125 -0.15625 0.734375 -0.15625zm3.9644928 0q0.71875 0 1.234375 0.328125q0.53125 0.328125 0.796875 0.90625q0.28125 0.578125 0.28125 1.359375l0 0.53125l-3.9375 0q0.015625 1.0 0.5 1.53125q0.484375 0.515625 1.359375 0.515625q0.546875 0 0.953125 -0.09375q0.421875 -0.09375 0.875 -0.296875l0 0.765625q-0.4375 0.1875 -0.859375 0.28125q-0.421875 0.09375 -1.0 0.09375q-0.8125 0 -1.4375 -0.328125q-0.609375 -0.34375 -0.953125 -1.0q-0.328125 -0.65625 -0.328125 -1.59375q0 -0.921875 0.3125 -1.59375q0.3125 -0.671875 0.875 -1.03125q0.5625 -0.375 1.328125 -0.375zm-0.015625 0.71875q-0.6875 0 -1.109375 0.453125q-0.40625 0.453125 -0.484375 1.265625l3.015625 0q0 -0.515625 -0.15625 -0.90625q-0.15625 -0.390625 -0.46875 -0.59375q-0.3125 -0.21875 -0.796875 -0.21875zm7.483734 3.53125q0 0.546875 -0.28125 0.921875q-0.265625 0.375 -0.78125 0.5625q-0.5 0.1875 -1.1875 0.1875q-0.609375 0 -1.046875 -0.09375q-0.4375 -0.09375 -0.765625 -0.265625l0 -0.796875q0.359375 0.171875 0.84375 0.3125q0.484375 0.140625 0.984375 0.140625q0.734375 0 1.0625 -0.234375q0.34375 -0.25 0.34375 -0.65625q0 -0.234375 -0.140625 -0.40625q-0.125 -0.1875 -0.4375 -0.359375q-0.3125 -0.171875 -0.859375 -0.375q-0.546875 -0.203125 -0.953125 -0.40625q-0.390625 -0.203125 -0.609375 -0.5q-0.21875 -0.296875 -0.21875 -0.78125q0 -0.71875 0.578125 -1.109375q0.59375 -0.390625 1.546875 -0.390625q0.515625 0 0.953125 0.109375q0.453125 0.09375 0.84375 0.265625l-0.28125 0.703125q-0.359375 -0.15625 -0.765625 -0.25q-0.390625 -0.109375 -0.8125 -0.109375q-0.59375 0 -0.921875 0.203125q-0.3125 0.1875 -0.3125 0.53125q0 0.265625 0.140625 0.4375q0.15625 0.171875 0.484375 0.328125q0.328125 0.140625 0.859375 0.34375q0.53125 0.203125 0.921875 0.421875q0.390625 0.203125 0.59375 0.5q0.21875 0.296875 0.21875 0.765625zm4.078369 -4.25q1.0625 0 1.6875 0.734375q0.640625 0.734375 0.640625 2.21875q0 0.96875 -0.296875 1.625q-0.28125 0.65625 -0.8125 1.0q-0.53125 0.34375 -1.25 0.34375q-0.453125 0 -0.796875 -0.125q-0.328125 -0.125 -0.578125 -0.328125q-0.25 -0.203125 -0.40625 -0.4375l-0.0625 0q0.015625 0.203125 0.03125 0.5q0.03125 0.28125 0.03125 0.484375l0 2.34375l-0.875 0l0 -8.25l0.71875 0l0.109375 0.84375l0.046875 0q0.171875 -0.265625 0.40625 -0.46875q0.234375 -0.21875 0.578125 -0.34375q0.34375 -0.140625 0.828125 -0.140625zm-0.15625 0.734375q-0.59375 0 -0.953125 0.234375q-0.359375 0.21875 -0.53125 0.6875q-0.15625 0.453125 -0.171875 1.140625l0 0.15625q0 0.71875 0.15625 1.21875q0.15625 0.5 0.515625 0.765625q0.375 0.265625 1.0 0.265625q0.53125 0 0.875 -0.28125q0.359375 -0.296875 0.53125 -0.8125q0.171875 -0.515625 0.171875 -1.171875q0 -1.015625 -0.390625 -1.609375q-0.390625 -0.59375 -1.203125 -0.59375zm8.910286 2.21875q0 0.703125 -0.1875 1.25q-0.171875 0.546875 -0.515625 0.9375q-0.34375 0.375 -0.84375 0.578125q-0.484375 0.203125 -1.09375 0.203125q-0.5625 0 -1.046875 -0.203125q-0.46875 -0.203125 -0.828125 -0.578125q-0.34375 -0.390625 -0.53125 -0.9375q-0.1875 -0.546875 -0.1875 -1.25q0 -0.9375 0.3125 -1.59375q0.328125 -0.65625 0.90625 -1.0q0.59375 -0.359375 1.40625 -0.359375q0.78125 0 1.359375 0.359375q0.59375 0.34375 0.921875 1.0q0.328125 0.65625 0.328125 1.59375zm-4.34375 0q0 0.6875 0.1875 1.1875q0.1875 0.5 0.5625 0.78125q0.375 0.28125 0.96875 0.28125q0.59375 0 0.96875 -0.28125q0.390625 -0.28125 0.578125 -0.78125q0.1875 -0.5 0.1875 -1.1875q0 -0.6875 -0.1875 -1.171875q-0.1875 -0.5 -0.5625 -0.765625q-0.375 -0.28125 -0.984375 -0.28125q-0.890625 0 -1.3125 0.59375q-0.40625 0.578125 -0.40625 1.625zm8.5354 -2.953125q1.015625 0 1.53125 0.5q0.53125 0.5 0.53125 1.59375l0 3.71875l-0.859375 0l0 -3.65625q0 -0.71875 -0.328125 -1.0625q-0.328125 -0.359375 -1.0 -0.359375q-0.9375 0 -1.328125 0.546875q-0.375 0.53125 -0.375 1.546875l0 2.984375l-0.875 0l0 -5.703125l0.703125 0l0.125 0.828125l0.046875 0q0.1875 -0.3125 0.46875 -0.515625q0.28125 -0.203125 0.625 -0.3125q0.34375 -0.109375 0.734375 -0.109375zm7.5196533 4.25q0 0.546875 -0.28125 0.921875q-0.265625 0.375 -0.78125 0.5625q-0.5 0.1875 -1.1875 0.1875q-0.609375 0 -1.046875 -0.09375q-0.4375 -0.09375 -0.765625 -0.265625l0 -0.796875q0.359375 0.171875 0.84375 0.3125q0.484375 0.140625 0.984375 0.140625q0.734375 0 1.0625 -0.234375q0.34375 -0.25 0.34375 -0.65625q0 -0.234375 -0.140625 -0.40625q-0.125 -0.1875 -0.4375 -0.359375q-0.3125 -0.171875 -0.859375 -0.375q-0.546875 -0.203125 -0.953125 -0.40625q-0.390625 -0.203125 -0.609375 -0.5q-0.21875 -0.296875 -0.21875 -0.78125q0 -0.71875 0.578125 -1.109375q0.59375 -0.390625 1.546875 -0.390625q0.515625 0 0.953125 0.109375q0.453125 0.09375 0.84375 0.265625l-0.28125 0.703125q-0.359375 -0.15625 -0.765625 -0.25q-0.390625 -0.109375 -0.8125 -0.109375q-0.59375 0 -0.921875 0.203125q-0.3125 0.1875 -0.3125 0.53125q0 0.265625 0.140625 0.4375q0.15625 0.171875 0.484375 0.328125q0.328125 0.140625 0.859375 0.34375q0.53125 0.203125 0.921875 0.421875q0.390625 0.203125 0.59375 0.5q0.21875 0.296875 0.21875 0.765625zm3.5939941 -4.25q0.71875 0 1.234375 0.328125q0.53125 0.328125 0.796875 0.90625q0.28125 0.578125 0.28125 1.359375l0 0.53125l-3.9375 0q0.015625 1.0 0.5 1.53125q0.484375 0.515625 1.359375 0.515625q0.546875 0 0.953125 -0.09375q0.421875 -0.09375 0.875 -0.296875l0 0.765625q-0.4375 0.1875 -0.859375 0.28125q-0.421875 0.09375 -1.0 0.09375q-0.8125 0 -1.4375 -0.328125q-0.609375 -0.34375 -0.953125 -1.0q-0.328125 -0.65625 -0.328125 -1.59375q0 -0.921875 0.3125 -1.59375q0.3125 -0.671875 0.875 -1.03125q0.5625 -0.375 1.328125 -0.375zm-0.015625 0.71875q-0.6875 0 -1.109375 0.453125q-0.40625 0.453125 -0.484375 1.265625l3.015625 0q0 -0.515625 -0.15625 -0.90625q-0.15625 -0.390625 -0.46875 -0.59375q-0.3125 -0.21875 -0.796875 -0.21875zm8.704987 -0.703125q1.015625 0 1.5 0.46875q0.5 0.453125 0.5 1.453125l0 3.875l-0.625 0l-0.171875 -0.84375l-0.03125 0q-0.25 0.3125 -0.515625 0.53125q-0.25 0.203125 -0.59375 0.3125q-0.34375 0.109375 -0.828125 0.109375q-0.515625 0 -0.921875 -0.1875q-0.40625 -0.1875 -0.640625 -0.546875q-0.234375 -0.375 -0.234375 -0.9375q0 -0.859375 0.671875 -1.3125q0.6875 -0.453125 2.0625 -0.5l0.984375 -0.046875l0 -0.34375q0 -0.734375 -0.3125 -1.03125q-0.3125 -0.296875 -0.890625 -0.296875q-0.453125 0 -0.859375 0.125q-0.40625 0.125 -0.765625 0.3125l-0.265625 -0.65625q0.390625 -0.203125 0.890625 -0.34375q0.5 -0.140625 1.046875 -0.140625zm1.15625 2.984375l-0.875 0.046875q-1.0625 0.03125 -1.5 0.34375q-0.4375 0.296875 -0.4375 0.859375q0 0.5 0.296875 0.734375q0.296875 0.234375 0.78125 0.234375q0.765625 0 1.25 -0.421875q0.484375 -0.421875 0.484375 -1.265625l0 -0.53125zm4.65567 2.921875q-1.078125 0 -1.71875 -0.734375q-0.625 -0.75 -0.625 -2.203125q0 -1.46875 0.640625 -2.21875q0.65625 -0.765625 1.71875 -0.765625q0.453125 0 0.78125 0.125q0.34375 0.125 0.59375 0.328125q0.25 0.1875 0.40625 0.453125l0.0625 0q-0.015625 -0.171875 -0.046875 -0.453125q-0.015625 -0.28125 -0.015625 -0.453125l0 -2.28125l0.875 0l0 8.09375l-0.703125 0l-0.125 -0.8125l-0.046875 0q-0.15625 0.25 -0.40625 0.46875q-0.25 0.203125 -0.59375 0.328125q-0.328125 0.125 -0.796875 0.125zm0.140625 -0.71875q0.90625 0 1.28125 -0.515625q0.390625 -0.53125 0.390625 -1.546875l0 -0.15625q0 -1.09375 -0.359375 -1.671875q-0.359375 -0.59375 -1.3125 -0.59375q-0.796875 0 -1.203125 0.625q-0.390625 0.609375 -0.390625 1.65625q0 1.046875 0.390625 1.625q0.40625 0.578125 1.203125 0.578125zm6.3790436 0.71875q-1.078125 0 -1.71875 -0.734375q-0.625 -0.75 -0.625 -2.203125q0 -1.46875 0.640625 -2.21875q0.65625 -0.765625 1.71875 -0.765625q0.453125 0 0.78125 0.125q0.34375 0.125 0.59375 0.328125q0.25 0.1875 0.40625 0.453125l0.0625 0q-0.015625 -0.171875 -0.046875 -0.453125q-0.015625 -0.28125 -0.015625 -0.453125l0 -2.28125l0.875 0l0 8.09375l-0.703125 0l-0.125 -0.8125l-0.046875 0q-0.15625 0.25 -0.40625 0.46875q-0.25 0.203125 -0.59375 0.328125q-0.328125 0.125 -0.796875 0.125zm0.140625 -0.71875q0.90625 0 1.28125 -0.515625q0.390625 -0.53125 0.390625 -1.546875l0 -0.15625q0 -1.09375 -0.359375 -1.671875q-0.359375 -0.59375 -1.3125 -0.59375q-0.796875 0 -1.203125 0.625q-0.390625 0.609375 -0.390625 1.65625q0 1.046875 0.390625 1.625q0.40625 0.578125 1.203125 0.578125zm6.9415436 -5.203125q0.171875 0 0.359375 0.03125q0.1875 0.015625 0.328125 0.046875l-0.109375 0.796875q-0.140625 -0.03125 -0.3125 -0.046875q-0.171875 -0.03125 -0.3125 -0.03125q-0.34375 0 -0.65625 0.140625q-0.296875 0.140625 -0.53125 0.40625q-0.21875 0.25 -0.359375 0.609375q-0.125 0.359375 -0.125 0.796875l0 3.0625l-0.875 0l0 -5.703125l0.71875 0l0.09375 1.046875l0.046875 0q0.171875 -0.3125 0.421875 -0.578125q0.25 -0.265625 0.578125 -0.421875q0.328125 -0.15625 0.734375 -0.15625zm3.9644928 0q0.71875 0 1.234375 0.328125q0.53125 0.328125 0.796875 0.90625q0.28125 0.578125 0.28125 1.359375l0 0.53125l-3.9375 0q0.015625 1.0 0.5 1.53125q0.484375 0.515625 1.359375 0.515625q0.546875 0 0.953125 -0.09375q0.421875 -0.09375 0.875 -0.296875l0 0.765625q-0.4375 0.1875 -0.859375 0.28125q-0.421875 0.09375 -1.0 0.09375q-0.8125 0 -1.4375 -0.328125q-0.609375 -0.34375 -0.953125 -1.0q-0.328125 -0.65625 -0.328125 -1.59375q0 -0.921875 0.3125 -1.59375q0.3125 -0.671875 0.875 -1.03125q0.5625 -0.375 1.328125 -0.375zm-0.015625 0.71875q-0.6875 0 -1.109375 0.453125q-0.40625 0.453125 -0.484375 1.265625l3.015625 0q0 -0.515625 -0.15625 -0.90625q-0.15625 -0.390625 -0.46875 -0.59375q-0.3125 -0.21875 -0.796875 -0.21875zm7.483734 3.53125q0 0.546875 -0.28125 0.921875q-0.265625 0.375 -0.78125 0.5625q-0.5 0.1875 -1.1875 0.1875q-0.609375 0 -1.046875 -0.09375q-0.4375 -0.09375 -0.765625 -0.265625l0 -0.796875q0.359375 0.171875 0.84375 0.3125q0.484375 0.140625 0.984375 0.140625q0.734375 0 1.0625 -0.234375q0.34375 -0.25 0.34375 -0.65625q0 -0.234375 -0.140625 -0.40625q-0.125 -0.1875 -0.4375 -0.359375q-0.3125 -0.171875 -0.859375 -0.375q-0.546875 -0.203125 -0.953125 -0.40625q-0.390625 -0.203125 -0.609375 -0.5q-0.21875 -0.296875 -0.21875 -0.78125q0 -0.71875 0.578125 -1.109375q0.59375 -0.390625 1.546875 -0.390625q0.515625 0 0.953125 0.109375q0.453125 0.09375 0.84375 0.265625l-0.28125 0.703125q-0.359375 -0.15625 -0.765625 -0.25q-0.390625 -0.109375 -0.8125 -0.109375q-0.59375 0 -0.921875 0.203125q-0.3125 0.1875 -0.3125 0.53125q0 0.265625 0.140625 0.4375q0.15625 0.171875 0.484375 0.328125q0.328125 0.140625 0.859375 0.34375q0.53125 0.203125 0.921875 0.421875q0.390625 0.203125 0.59375 0.5q0.21875 0.296875 0.21875 0.765625zm5.078369 0q0 0.546875 -0.28125 0.921875q-0.265625 0.375 -0.78125 0.5625q-0.5 0.1875 -1.1875 0.1875q-0.609375 0 -1.046875 -0.09375q-0.4375 -0.09375 -0.765625 -0.265625l0 -0.796875q0.359375 0.171875 0.84375 0.3125q0.484375 0.140625 0.984375 0.140625q0.734375 0 1.0625 -0.234375q0.34375 -0.25 0.34375 -0.65625q0 -0.234375 -0.140625 -0.40625q-0.125 -0.1875 -0.4375 -0.359375q-0.3125 -0.171875 -0.859375 -0.375q-0.546875 -0.203125 -0.953125 -0.40625q-0.390625 -0.203125 -0.609375 -0.5q-0.21875 -0.296875 -0.21875 -0.78125q0 -0.71875 0.578125 -1.109375q0.59375 -0.390625 1.546875 -0.390625q0.515625 0 0.953125 0.109375q0.453125 0.09375 0.84375 0.265625l-0.28125 0.703125q-0.359375 -0.15625 -0.765625 -0.25q-0.390625 -0.109375 -0.8125 -0.109375q-0.59375 0 -0.921875 0.203125q-0.3125 0.1875 -0.3125 0.53125q0 0.265625 0.140625 0.4375q0.15625 0.171875 0.484375 0.328125q0.328125 0.140625 0.859375 0.34375q0.53125 0.203125 0.921875 0.421875q0.390625 0.203125 0.59375 0.5q0.21875 0.296875 0.21875 0.765625z" fill-rule="nonzero"/><path fill="#ffffff" d="m84.34643 241.2343q0.21875 0 0.4375 -0.03125q0.21875 -0.03125 0.359375 -0.09375l0 0.671875q-0.140625 0.078125 -0.421875 0.125q-0.265625 0.046875 -0.515625 0.046875q-0.453125 0 -0.828125 -0.15625q-0.359375 -0.171875 -0.578125 -0.546875q-0.21875 -0.375 -0.21875 -1.046875l0 -3.390625l-0.8125 0l0 -0.421875l0.8125 -0.328125l0.34375 -1.25l0.515625 0l0 1.328125l1.671875 0l0 0.671875l-1.671875 0l0 3.359375q0 0.53125 0.25 0.796875q0.25 0.265625 0.65625 0.265625zm6.8764954 -2.25q0 0.703125 -0.1875 1.25q-0.171875 0.546875 -0.515625 0.9375q-0.34375 0.375 -0.84375 0.578125q-0.484375 0.203125 -1.09375 0.203125q-0.5625 0 -1.046875 -0.203125q-0.46875 -0.203125 -0.828125 -0.578125q-0.34375 -0.390625 -0.53125 -0.9375q-0.1875 -0.546875 -0.1875 -1.25q0 -0.9375 0.3125 -1.59375q0.328125 -0.65625 0.90625 -1.0q0.59375 -0.359375 1.40625 -0.359375q0.78125 0 1.359375 0.359375q0.59375 0.34375 0.921875 1.0q0.328125 0.65625 0.328125 1.59375zm-4.34375 0q0 0.6875 0.1875 1.1875q0.1875 0.5 0.5625 0.78125q0.375 0.28125 0.96875 0.28125q0.59375 0 0.96875 -0.28125q0.390625 -0.28125 0.578125 -0.78125q0.1875 -0.5 0.1875 -1.1875q0 -0.6875 -0.1875 -1.171875q-0.1875 -0.5 -0.5625 -0.765625q-0.375 -0.28125 -0.984375 -0.28125q-0.890625 0 -1.3125 0.59375q-0.40625 0.578125 -0.40625 1.625zm10.194153 5.421875q-1.125 0 -1.734375 -0.421875q-0.609375 -0.421875 -0.609375 -1.171875q0 -0.53125 0.34375 -0.921875q0.34375 -0.375 0.953125 -0.5q-0.234375 -0.109375 -0.390625 -0.3125q-0.15625 -0.203125 -0.15625 -0.484375q0 -0.3125 0.171875 -0.546875q0.171875 -0.234375 0.53125 -0.453125q-0.4375 -0.1875 -0.71875 -0.609375q-0.28125 -0.4375 -0.28125 -1.015625q0 -0.609375 0.25 -1.046875q0.265625 -0.4375 0.75 -0.65625q0.484375 -0.234375 1.15625 -0.234375q0.15625 0 0.3125 0.015625q0.15625 0 0.296875 0.03125q0.140625 0.015625 0.234375 0.046875l1.96875 0l0 0.5625l-1.0625 0.125q0.15625 0.203125 0.265625 0.5q0.109375 0.28125 0.109375 0.625q0 0.859375 -0.578125 1.359375q-0.578125 0.5 -1.59375 0.5q-0.234375 0 -0.484375 -0.046875q-0.25 0.140625 -0.390625 0.3125q-0.125 0.171875 -0.125 0.40625q0 0.15625 0.09375 0.265625q0.109375 0.09375 0.296875 0.140625q0.1875 0.046875 0.46875 0.046875l1.0 0q0.921875 0 1.421875 0.390625q0.5 0.390625 0.5 1.140625q0 0.9375 -0.78125 1.4375q-0.765625 0.515625 -2.21875 0.515625zm0.03125 -0.671875q0.703125 0 1.171875 -0.15625q0.46875 -0.140625 0.6875 -0.40625q0.234375 -0.265625 0.234375 -0.640625q0 -0.34375 -0.15625 -0.515625q-0.15625 -0.171875 -0.453125 -0.234375q-0.296875 -0.0625 -0.734375 -0.0625l-0.984375 0q-0.390625 0 -0.6875 0.125q-0.28125 0.125 -0.4375 0.359375q-0.140625 0.234375 -0.140625 0.578125q0 0.46875 0.390625 0.703125q0.390625 0.25 1.109375 0.25zm0.21875 -4.5625q0.625 0 0.9375 -0.3125q0.3125 -0.3125 0.3125 -0.90625q0 -0.640625 -0.328125 -0.953125q-0.3125 -0.328125 -0.9375 -0.328125q-0.578125 0 -0.90625 0.328125q-0.3125 0.328125 -0.3125 0.96875q0 0.578125 0.3125 0.890625q0.328125 0.3125 0.921875 0.3125zm6.1453857 -3.140625q0.71875 0 1.234375 0.328125q0.53125 0.328125 0.796875 0.90625q0.28125 0.578125 0.28125 1.359375l0 0.53125l-3.9375 0q0.015625 1.0 0.5 1.53125q0.484375 0.515625 1.359375 0.515625q0.546875 0 0.953125 -0.09375q0.421875 -0.09375 0.875 -0.296875l0 0.765625q-0.4375 0.1875 -0.859375 0.28125q-0.421875 0.09375 -1.0 0.09375q-0.8125 0 -1.4375 -0.328125q-0.609375 -0.34375 -0.953125 -1.0q-0.328125 -0.65625 -0.328125 -1.59375q0 -0.921875 0.3125 -1.59375q0.3125 -0.671875 0.875 -1.03125q0.5625 -0.375 1.328125 -0.375zm-0.015625 0.71875q-0.6875 0 -1.109375 0.453125q-0.40625 0.453125 -0.484375 1.265625l3.015625 0q0 -0.515625 -0.15625 -0.90625q-0.15625 -0.390625 -0.46875 -0.59375q-0.3125 -0.21875 -0.796875 -0.21875zm5.639984 4.484375q0.21875 0 0.4375 -0.03125q0.21875 -0.03125 0.359375 -0.09375l0 0.671875q-0.140625 0.078125 -0.421875 0.125q-0.265625 0.046875 -0.515625 0.046875q-0.453125 0 -0.828125 -0.15625q-0.359375 -0.171875 -0.578125 -0.546875q-0.21875 -0.375 -0.21875 -1.046875l0 -3.390625l-0.8125 0l0 -0.421875l0.8125 -0.328125l0.34375 -1.25l0.515625 0l0 1.328125l1.671875 0l0 0.671875l-1.671875 0l0 3.359375q0 0.53125 0.25 0.796875q0.25 0.265625 0.65625 0.265625zm6.566498 0q0.21875 0 0.4375 -0.03125q0.21875 -0.03125 0.359375 -0.09375l0 0.671875q-0.140625 0.078125 -0.421875 0.125q-0.265625 0.046875 -0.515625 0.046875q-0.453125 0 -0.828125 -0.15625q-0.359375 -0.171875 -0.578125 -0.546875q-0.21875 -0.375 -0.21875 -1.046875l0 -3.390625l-0.8125 0l0 -0.421875l0.8125 -0.328125l0.34375 -1.25l0.515625 0l0 1.328125l1.671875 0l0 0.671875l-1.671875 0l0 3.359375q0 0.53125 0.25 0.796875q0.25 0.265625 0.65625 0.265625zm2.8296204 -7.484375l0 2.421875q0 0.203125 -0.015625 0.421875q-0.015625 0.203125 -0.03125 0.375l0.046875 0q0.1875 -0.296875 0.453125 -0.5q0.28125 -0.203125 0.625 -0.3125q0.34375 -0.109375 0.734375 -0.109375q0.6875 0 1.140625 0.21875q0.46875 0.21875 0.703125 0.6875q0.234375 0.453125 0.234375 1.171875l0 3.71875l-0.859375 0l0 -3.65625q0 -0.71875 -0.328125 -1.0625q-0.328125 -0.359375 -1.0 -0.359375q-0.625 0 -1.0 0.25q-0.375 0.234375 -0.546875 0.703125q-0.15625 0.46875 -0.15625 1.140625l0 2.984375l-0.875 0l0 -8.09375l0.875 0zm7.8634033 2.28125q0.71875 0 1.234375 0.328125q0.5312424 0.328125 0.7968674 0.90625q0.28125 0.578125 0.28125 1.359375l0 0.53125l-3.9374924 0q0.015625 1.0 0.5 1.53125q0.484375 0.515625 1.359375 0.515625q0.546875 0 0.953125 -0.09375q0.421875 -0.09375 0.8749924 -0.296875l0 0.765625q-0.43749237 0.1875 -0.8593674 0.28125q-0.421875 0.09375 -1.0 0.09375q-0.8125 0 -1.4375 -0.328125q-0.609375 -0.34375 -0.953125 -1.0q-0.328125 -0.65625 -0.328125 -1.59375q0 -0.921875 0.3125 -1.59375q0.3125 -0.671875 0.875 -1.03125q0.5625 -0.375 1.328125 -0.375zm-0.015625 0.71875q-0.6875 0 -1.109375 0.453125q-0.40625 0.453125 -0.484375 1.265625l3.015625 0q0 -0.515625 -0.15625 -0.90625q-0.15625 -0.390625 -0.46875 -0.59375q-0.3125 -0.21875 -0.796875 -0.21875zm8.845604 5.203125q-0.765625 0 -1.359375 -0.3125q-0.578125 -0.328125 -0.90625 -0.96875q-0.328125 -0.65625 -0.328125 -1.640625q0 -1.046875 0.34375 -1.703125q0.34375 -0.65625 0.953125 -0.96875q0.609375 -0.328125 1.390625 -0.328125q0.421875 0 0.8125 0.09375q0.40625 0.078125 0.65625 0.21875l-0.25 0.71875q-0.265625 -0.109375 -0.609375 -0.1875q-0.34375 -0.078125 -0.640625 -0.078125q-0.578125 0 -0.984375 0.25q-0.390625 0.25 -0.59375 0.75q-0.1875 0.5 -0.1875 1.21875q0 0.6875 0.1875 1.1875q0.203125 0.484375 0.578125 0.75q0.375 0.25 0.9375 0.25q0.453125 0 0.8125 -0.09375q0.375 -0.109375 0.671875 -0.234375l0 0.765625q-0.296875 0.15625 -0.65625 0.234375q-0.34375 0.078125 -0.828125 0.078125zm7.7450104 -2.96875q0 0.703125 -0.1875 1.25q-0.171875 0.546875 -0.515625 0.9375q-0.34375 0.375 -0.84375 0.578125q-0.484375 0.203125 -1.09375 0.203125q-0.5625 0 -1.046875 -0.203125q-0.46875 -0.203125 -0.828125 -0.578125q-0.34375 -0.390625 -0.53125 -0.9375q-0.1875 -0.546875 -0.1875 -1.25q0 -0.9375 0.3125 -1.59375q0.328125 -0.65625 0.90625 -1.0q0.59375 -0.359375 1.40625 -0.359375q0.78125 0 1.359375 0.359375q0.59375 0.34375 0.921875 1.0q0.328125 0.65625 0.328125 1.59375zm-4.34375 0q0 0.6875 0.1875 1.1875q0.1875 0.5 0.5625 0.78125q0.375 0.28125 0.96875 0.28125q0.59375 0 0.96875 -0.28125q0.390625 -0.28125 0.578125 -0.78125q0.1875 -0.5 0.1875 -1.1875q0 -0.6875 -0.1875 -1.171875q-0.1875 -0.5 -0.5625 -0.765625q-0.375 -0.28125 -0.984375 -0.28125q-0.890625 0 -1.3125 0.59375q-0.40625 0.578125 -0.40625 1.625zm8.5354 -2.953125q1.015625 0 1.53125 0.5q0.53125 0.5 0.53125 1.59375l0 3.71875l-0.859375 0l0 -3.65625q0 -0.71875 -0.328125 -1.0625q-0.328125 -0.359375 -1.0 -0.359375q-0.9375 0 -1.328125 0.546875q-0.375 0.53125 -0.375 1.546875l0 2.984375l-0.875 0l0 -5.703125l0.703125 0l0.125 0.828125l0.046875 0q0.1875 -0.3125 0.46875 -0.515625q0.28125 -0.203125 0.625 -0.3125q0.34375 -0.109375 0.734375 -0.109375zm6.5352783 0q1.015625 0 1.53125 0.5q0.53125 0.5 0.53125 1.59375l0 3.71875l-0.859375 0l0 -3.65625q0 -0.71875 -0.328125 -1.0625q-0.328125 -0.359375 -1.0 -0.359375q-0.9375 0 -1.328125 0.546875q-0.375 0.53125 -0.375 1.546875l0 2.984375l-0.875 0l0 -5.703125l0.703125 0l0.125 0.828125l0.046875 0q0.1875 -0.3125 0.46875 -0.515625q0.28125 -0.203125 0.625 -0.3125q0.34375 -0.109375 0.734375 -0.109375zm6.0352783 0q0.71875 0 1.234375 0.328125q0.53125 0.328125 0.796875 0.90625q0.28125 0.578125 0.28125 1.359375l0 0.53125l-3.9375 0q0.015625 1.0 0.5 1.53125q0.484375 0.515625 1.359375 0.515625q0.546875 0 0.953125 -0.09375q0.421875 -0.09375 0.875 -0.296875l0 0.765625q-0.4375 0.1875 -0.859375 0.28125q-0.421875 0.09375 -1.0 0.09375q-0.8125 0 -1.4375 -0.328125q-0.609375 -0.34375 -0.953125 -1.0q-0.328125 -0.65625 -0.328125 -1.59375q0 -0.921875 0.3125 -1.59375q0.3125 -0.671875 0.875 -1.03125q0.5625 -0.375 1.328125 -0.375zm-0.015625 0.71875q-0.6875 0 -1.109375 0.453125q-0.40625 0.453125 -0.484375 1.265625l3.015625 0q0 -0.515625 -0.15625 -0.90625q-0.15625 -0.390625 -0.46875 -0.59375q-0.3125 -0.21875 -0.796875 -0.21875zm6.077484 5.203125q-0.765625 0 -1.359375 -0.3125q-0.578125 -0.328125 -0.90625 -0.96875q-0.328125 -0.65625 -0.328125 -1.640625q0 -1.046875 0.34375 -1.703125q0.34375 -0.65625 0.953125 -0.96875q0.609375 -0.328125 1.390625 -0.328125q0.421875 0 0.8125 0.09375q0.40625 0.078125 0.65625 0.21875l-0.25 0.71875q-0.265625 -0.109375 -0.609375 -0.1875q-0.34375 -0.078125 -0.640625 -0.078125q-0.578125 0 -0.984375 0.25q-0.390625 0.25 -0.59375 0.75q-0.1875 0.5 -0.1875 1.21875q0 0.6875 0.1875 1.1875q0.203125 0.484375 0.578125 0.75q0.375 0.25 0.9375 0.25q0.453125 0 0.8125 -0.09375q0.375 -0.109375 0.671875 -0.234375l0 0.765625q-0.296875 0.15625 -0.65625 0.234375q-0.34375 0.078125 -0.828125 0.078125zm4.6668854 -0.71875q0.21875 0 0.4375 -0.03125q0.21875 -0.03125 0.359375 -0.09375l0 0.671875q-0.140625 0.078125 -0.421875 0.125q-0.265625 0.046875 -0.515625 0.046875q-0.453125 0 -0.828125 -0.15625q-0.359375 -0.171875 -0.578125 -0.546875q-0.21875 -0.375 -0.21875 -1.046875l0 -3.390625l-0.8125 0l0 -0.421875l0.8125 -0.328125l0.34375 -1.25l0.515625 0l0 1.328125l1.671875 0l0 0.671875l-1.671875 0l0 3.359375q0 0.53125 0.25 0.796875q0.25 0.265625 0.65625 0.265625zm2.8296204 -5.09375l0 5.703125l-0.875 0l0 -5.703125l0.875 0zm-0.421875 -2.140625q0.203125 0 0.359375 0.140625q0.15625 0.140625 0.15625 0.4375q0 0.28125 -0.15625 0.421875q-0.15625 0.140625 -0.359375 0.140625q-0.234375 0 -0.390625 -0.140625q-0.140625 -0.140625 -0.140625 -0.421875q0 -0.296875 0.140625 -0.4375q0.15625 -0.140625 0.390625 -0.140625zm7.1588287 4.984375q0 0.703125 -0.1875 1.25q-0.171875 0.546875 -0.515625 0.9375q-0.34375 0.375 -0.84375 0.578125q-0.484375 0.203125 -1.09375 0.203125q-0.5625 0 -1.046875 -0.203125q-0.46875 -0.203125 -0.828125 -0.578125q-0.34375 -0.390625 -0.53125 -0.9375q-0.1875 -0.546875 -0.1875 -1.25q0 -0.9375 0.3125 -1.59375q0.328125 -0.65625 0.90625 -1.0q0.59375 -0.359375 1.40625 -0.359375q0.78125 0 1.359375 0.359375q0.59375 0.34375 0.921875 1.0q0.328125 0.65625 0.328125 1.59375zm-4.34375 0q0 0.6875 0.1875 1.1875q0.1875 0.5 0.5625 0.78125q0.375 0.28125 0.96875 0.28125q0.59375 0 0.96875 -0.28125q0.390625 -0.28125 0.578125 -0.78125q0.1875 -0.5 0.1875 -1.1875q0 -0.6875 -0.1875 -1.171875q-0.1875 -0.5 -0.5625 -0.765625q-0.375 -0.28125 -0.984375 -0.28125q-0.890625 0 -1.3125 0.59375q-0.40625 0.578125 -0.40625 1.625zm8.5354 -2.953125q1.015625 0 1.53125 0.5q0.53125 0.5 0.53125 1.59375l0 3.71875l-0.859375 0l0 -3.65625q0 -0.71875 -0.328125 -1.0625q-0.328125 -0.359375 -1.0 -0.359375q-0.9375 0 -1.328125 0.546875q-0.375 0.53125 -0.375 1.546875l0 2.984375l-0.875 0l0 -5.703125l0.703125 0l0.125 0.828125l0.046875 0q0.1875 -0.3125 0.46875 -0.515625q0.28125 -0.203125 0.625 -0.3125q0.34375 -0.109375 0.734375 -0.109375z" fill-rule="nonzero"/><path fill="#ffffff" d="m84.6433 249.0468q1.015625 0 1.5 0.46875q0.5 0.453125 0.5 1.453125l0 3.875l-0.625 0l-0.171875 -0.84375l-0.03125 0q-0.25 0.3125 -0.515625 0.53125q-0.25 0.203125 -0.59375 0.3125q-0.34375 0.109375 -0.828125 0.109375q-0.515625 0 -0.921875 -0.1875q-0.40625 -0.1875 -0.640625 -0.546875q-0.234375 -0.375 -0.234375 -0.9375q0 -0.859375 0.671875 -1.3125q0.6875 -0.453125 2.0625 -0.5l0.984375 -0.046875l0 -0.34375q0 -0.734375 -0.3125 -1.03125q-0.3125 -0.296875 -0.890625 -0.296875q-0.453125 0 -0.859375 0.125q-0.40625 0.125 -0.765625 0.3125l-0.265625 -0.65625q0.390625 -0.203125 0.890625 -0.34375q0.5 -0.140625 1.046875 -0.140625zm1.15625 2.984375l-0.875 0.046875q-1.0625 0.03125 -1.5 0.34375q-0.4375 0.296875 -0.4375 0.859375q0 0.5 0.296875 0.734375q0.296875 0.234375 0.78125 0.234375q0.765625 0 1.25 -0.421875q0.484375 -0.421875 0.484375 -1.265625l0 -0.53125zm4.65567 2.921875q-1.078125 0 -1.71875 -0.734375q-0.625 -0.75 -0.625 -2.203125q0 -1.46875 0.640625 -2.21875q0.65625 -0.765625 1.71875 -0.765625q0.453125 0 0.78125 0.125q0.34375 0.125 0.59375 0.328125q0.25 0.1875 0.40625 0.453125l0.0625 0q-0.015625 -0.171875 -0.046875 -0.453125q-0.015625 -0.28125 -0.015625 -0.453125l0 -2.28125l0.875 0l0 8.09375l-0.703125 0l-0.125 -0.8125l-0.046875 0q-0.15625 0.25 -0.40625 0.46875q-0.25 0.203125 -0.59375 0.328125q-0.328125 0.125 -0.796875 0.125zm0.140625 -0.71875q0.90625 0 1.28125 -0.515625q0.390625 -0.53125 0.390625 -1.546875l0 -0.15625q0 -1.09375 -0.359375 -1.671875q-0.359375 -0.59375 -1.3125 -0.59375q-0.796875 0 -1.203125 0.625q-0.390625 0.609375 -0.390625 1.65625q0 1.046875 0.390625 1.625q0.40625 0.578125 1.203125 0.578125zm6.3790436 0.71875q-1.078125 0 -1.71875 -0.734375q-0.625 -0.75 -0.625 -2.203125q0 -1.46875 0.640625 -2.21875q0.65625 -0.765625 1.71875 -0.765625q0.453125 0 0.78125 0.125q0.34375 0.125 0.59375 0.328125q0.25 0.1875 0.40625 0.453125l0.0625 0q-0.015625 -0.171875 -0.046875 -0.453125q-0.015625 -0.28125 -0.015625 -0.453125l0 -2.28125l0.875 0l0 8.09375l-0.703125 0l-0.125 -0.8125l-0.046875 0q-0.15625 0.25 -0.40625 0.46875q-0.25 0.203125 -0.59375 0.328125q-0.328125 0.125 -0.796875 0.125zm0.140625 -0.71875q0.90625 0 1.28125 -0.515625q0.390625 -0.53125 0.390625 -1.546875l0 -0.15625q0 -1.09375 -0.359375 -1.671875q-0.359375 -0.59375 -1.3125 -0.59375q-0.796875 0 -1.203125 0.625q-0.390625 0.609375 -0.390625 1.65625q0 1.046875 0.390625 1.625q0.40625 0.578125 1.203125 0.578125zm6.9415436 -5.203125q0.171875 0 0.359375 0.03125q0.1875 0.015625 0.328125 0.046875l-0.109375 0.796875q-0.140625 -0.03125 -0.3125 -0.046875q-0.171875 -0.03125 -0.3125 -0.03125q-0.34375 0 -0.65625 0.140625q-0.296875 0.140625 -0.53125 0.40625q-0.21875 0.25 -0.359375 0.609375q-0.125 0.359375 -0.125 0.796875l0 3.0625l-0.875 0l0 -5.703125l0.71875 0l0.09375 1.046875l0.046875 0q0.171875 -0.3125 0.421875 -0.578125q0.25 -0.265625 0.578125 -0.421875q0.328125 -0.15625 0.734375 -0.15625zm3.9644928 0q0.71875 0 1.234375 0.328125q0.53125 0.328125 0.796875 0.90625q0.28125 0.578125 0.28125 1.359375l0 0.53125l-3.9375 0q0.015625 1.0 0.5 1.53125q0.484375 0.515625 1.359375 0.515625q0.546875 0 0.953125 -0.09375q0.421875 -0.09375 0.875 -0.296875l0 0.765625q-0.4375 0.1875 -0.859375 0.28125q-0.421875 0.09375 -1.0 0.09375q-0.8125 0 -1.4375 -0.328125q-0.609375 -0.34375 -0.953125 -1.0q-0.328125 -0.65625 -0.328125 -1.59375q0 -0.921875 0.3125 -1.59375q0.3125 -0.671875 0.875 -1.03125q0.5625 -0.375 1.328125 -0.375zm-0.015625 0.71875q-0.6875 0 -1.109375 0.453125q-0.40625 0.453125 -0.484375 1.265625l3.015625 0q0 -0.515625 -0.15625 -0.90625q-0.15625 -0.390625 -0.46875 -0.59375q-0.3125 -0.21875 -0.796875 -0.21875zm7.483734 3.53125q0 0.546875 -0.28125 0.921875q-0.265625 0.375 -0.78125 0.5625q-0.5 0.1875 -1.1875 0.1875q-0.609375 0 -1.046875 -0.09375q-0.4375 -0.09375 -0.765625 -0.265625l0 -0.796875q0.359375 0.171875 0.84375 0.3125q0.484375 0.140625 0.984375 0.140625q0.734375 0 1.0625 -0.234375q0.34375 -0.25 0.34375 -0.65625q0 -0.234375 -0.140625 -0.40625q-0.125 -0.1875 -0.4375 -0.359375q-0.3125 -0.171875 -0.859375 -0.375q-0.546875 -0.203125 -0.953125 -0.40625q-0.390625 -0.203125 -0.609375 -0.5q-0.21875 -0.296875 -0.21875 -0.78125q0 -0.71875 0.578125 -1.109375q0.59375 -0.390625 1.546875 -0.390625q0.515625 0 0.953125 0.109375q0.453125 0.09375 0.84375 0.265625l-0.28125 0.703125q-0.359375 -0.15625 -0.765625 -0.25q-0.390625 -0.109375 -0.8125 -0.109375q-0.59375 0 -0.921875 0.203125q-0.3125 0.1875 -0.3125 0.53125q0 0.265625 0.140625 0.4375q0.15625 0.171875 0.484375 0.328125q0.328125 0.140625 0.859375 0.34375q0.53125 0.203125 0.921875 0.421875q0.390625 0.203125 0.59375 0.5q0.21875 0.296875 0.21875 0.765625zm5.078369 0q0 0.546875 -0.28125 0.921875q-0.265625 0.375 -0.78125 0.5625q-0.5 0.1875 -1.1875 0.1875q-0.609375 0 -1.046875 -0.09375q-0.4375 -0.09375 -0.765625 -0.265625l0 -0.796875q0.359375 0.171875 0.84375 0.3125q0.484375 0.140625 0.984375 0.140625q0.734375 0 1.0625 -0.234375q0.34375 -0.25 0.34375 -0.65625q0 -0.234375 -0.140625 -0.40625q-0.125 -0.1875 -0.4375 -0.359375q-0.3125 -0.171875 -0.859375 -0.375q-0.546875 -0.203125 -0.953125 -0.40625q-0.390625 -0.203125 -0.609375 -0.5q-0.21875 -0.296875 -0.21875 -0.78125q0 -0.71875 0.578125 -1.109375q0.59375 -0.390625 1.546875 -0.390625q0.515625 0 0.953125 0.109375q0.453125 0.09375 0.84375 0.265625l-0.28125 0.703125q-0.359375 -0.15625 -0.765625 -0.25q-0.390625 -0.109375 -0.8125 -0.109375q-0.59375 0 -0.921875 0.203125q-0.3125 0.1875 -0.3125 0.53125q0 0.265625 0.140625 0.4375q0.15625 0.171875 0.484375 0.328125q0.328125 0.140625 0.859375 0.34375q0.53125 0.203125 0.921875 0.421875q0.390625 0.203125 0.59375 0.5q0.21875 0.296875 0.21875 0.765625zm1.2658691 1.015625q0 -0.359375 0.171875 -0.515625q0.1875 -0.15625 0.4375 -0.15625q0.265625 0 0.4375 0.15625q0.1875 0.15625 0.1875 0.515625q0 0.359375 -0.1875 0.53125q-0.171875 0.15625 -0.4375 0.15625q-0.25 0 -0.4375 -0.15625q-0.171875 -0.171875 -0.171875 -0.53125z" fill-rule="nonzero"/></g></svg>