<svg version="1.1" viewBox="0.0 0.0 756.6771653543307 555.4330708661417" fill="none" stroke="none" stroke-linecap="square" stroke-miterlimit="10" xmlns:xlink="http://www.w3.org/1999/xlink" xmlns="http://www.w3.org/2000/svg"><clipPath id="p.0"><path d="m0 0l756.6772 0l0 555.43304l-756.6772 0l0 -555.43304z" clip-rule="nonzero"/></clipPath><g clip-path="url(#p.0)"><path fill="#000000" fill-opacity="0.0" d="m0 0l756.6772 0l0 555.43304l-756.6772 0z" fill-rule="evenodd"/><path fill="#000000" fill-opacity="0.0" d="m474.1929 112.014824l0 0c0 -10.654526 8.637207 -19.291725 19.291748 -19.291725l77.16458 0l0 0c5.116455 0 10.023376 2.0325165 13.641296 5.6504135c3.61792 3.617897 5.6503906 8.524826 5.6503906 13.641312l0 297.47952c0 10.654541 -8.637146 19.291748 -19.291687 19.291748l-77.16458 0c-10.654541 0 -19.291748 -8.637207 -19.291748 -19.291748z" fill-rule="evenodd"/><path stroke="#ff0000" stroke-width="1.0" stroke-linejoin="round" stroke-linecap="butt" stroke-dasharray="8.0,3.0,1.0,3.0" d="m474.1929 112.014824l0 0c0 -10.654526 8.637207 -19.291725 19.291748 -19.291725l77.16458 0l0 0c5.116455 0 10.023376 2.0325165 13.641296 5.6504135c3.61792 3.617897 5.6503906 8.524826 5.6503906 13.641312l0 297.47952c0 10.654541 -8.637146 19.291748 -19.291687 19.291748l-77.16458 0c-10.654541 0 -19.291748 -8.637207 -19.291748 -19.291748z" fill-rule="evenodd"/><path fill="#000000" fill-opacity="0.0" d="m166.73622 96.70604l115.74803 0l0 42.015747l-115.74803 0z" fill-rule="evenodd"/><path fill="#000000" d="m201.67519 110.31354q2.578125 0 3.75 1.109375q1.1875 1.09375 1.1875 3.03125q0 0.875 -0.265625 1.671875q-0.265625 0.796875 -0.859375 1.421875q-0.59375 0.625 -1.59375 0.984375q-0.984375 0.359375 -2.4375 0.359375l-1.21875 0l0 4.734375l-2.828125 0l0 -13.3125l4.265625 0zm-0.15625 2.3125l-1.28125 0l0 3.953125l0.921875 0q0.796875 0 1.375 -0.203125q0.59375 -0.21875 0.90625 -0.65625q0.328125 -0.453125 0.328125 -1.15625q0 -0.984375 -0.546875 -1.453125q-0.546875 -0.484375 -1.703125 -0.484375zm11.589813 0.625q1.40625 0 2.421875 0.546875q1.03125 0.53125 1.578125 1.5625q0.5625 1.03125 0.5625 2.515625l0 1.34375l-6.5625 0q0.046875 1.1875 0.703125 1.859375q0.65625 0.65625 1.828125 0.65625q0.984375 0 1.796875 -0.1875q0.8125 -0.203125 1.65625 -0.609375l0 2.15625q-0.75 0.375 -1.578125 0.546875q-0.828125 0.171875 -2.0 0.171875q-1.53125 0 -2.71875 -0.5625q-1.171875 -0.578125 -1.84375 -1.734375q-0.65625 -1.15625 -0.65625 -2.90625q0 -1.796875 0.59375 -2.984375q0.609375 -1.1875 1.6875 -1.78125q1.09375 -0.59375 2.53125 -0.59375zm0.015625 1.96875q-0.8125 0 -1.34375 0.53125q-0.53125 0.515625 -0.609375 1.625l3.890625 0q0 -0.625 -0.21875 -1.09375q-0.21875 -0.484375 -0.640625 -0.765625q-0.421875 -0.296875 -1.078125 -0.296875zm11.006866 -1.96875q1.40625 0 2.421875 0.546875q1.03125 0.53125 1.578125 1.5625q0.5625 1.03125 0.5625 2.515625l0 1.34375l-6.5625 0q0.046875 1.1875 0.703125 1.859375q0.65625 0.65625 1.828125 0.65625q0.984375 0 1.796875 -0.1875q0.8125 -0.203125 1.65625 -0.609375l0 2.15625q-0.75 0.375 -1.578125 0.546875q-0.828125 0.171875 -2.0 0.171875q-1.53125 0 -2.71875 -0.5625q-1.171875 -0.578125 -1.84375 -1.734375q-0.65625 -1.15625 -0.65625 -2.90625q0 -1.796875 0.59375 -2.984375q0.609375 -1.1875 1.6875 -1.78125q1.09375 -0.59375 2.53125 -0.59375zm0.015625 1.96875q-0.8125 0 -1.34375 0.53125q-0.53125 0.515625 -0.609375 1.625l3.890625 0q0 -0.625 -0.21875 -1.09375q-0.21875 -0.484375 -0.640625 -0.765625q-0.421875 -0.296875 -1.078125 -0.296875zm12.491241 -1.96875q0.203125 0 0.484375 0.03125q0.28125 0.015625 0.453125 0.046875l-0.203125 2.609375q-0.140625 -0.046875 -0.390625 -0.0625q-0.25 -0.03125 -0.4375 -0.03125q-0.53125 0 -1.046875 0.140625q-0.5 0.140625 -0.90625 0.453125q-0.390625 0.296875 -0.625 0.796875q-0.234375 0.484375 -0.234375 1.203125l0 5.1875l-2.78125 0l0 -10.1875l2.109375 0l0.40625 1.71875l0.140625 0q0.296875 -0.515625 0.75 -0.953125q0.453125 -0.4375 1.03125 -0.6875q0.578125 -0.265625 1.25 -0.265625zm13.880585 10.375l-2.8125 0l0 -7.703125q0 -0.328125 0 -0.796875q0.015625 -0.46875 0.03125 -0.953125q0.03125 -0.5 0.046875 -0.90625q-0.109375 0.125 -0.421875 0.40625q-0.296875 0.28125 -0.5625 0.515625l-1.53125 1.234375l-1.34375 -1.703125l4.28125 -3.40625l2.3125 0l0 13.3125z" fill-rule="nonzero"/><path fill="#000000" fill-opacity="0.0" d="m474.1929 96.70604l115.74802 0l0 42.015747l-115.74802 0z" fill-rule="evenodd"/><path fill="#000000" d="m509.13187 110.31354q2.578125 0 3.7500305 1.109375q1.1875 1.09375 1.1875 3.03125q0 0.875 -0.265625 1.671875q-0.265625 0.796875 -0.859375 1.421875q-0.59375 0.625 -1.5937805 0.984375q-0.984375 0.359375 -2.4375 0.359375l-1.21875 0l0 4.734375l-2.828125 0l0 -13.3125l4.265625 0zm-0.15625 2.3125l-1.28125 0l0 3.953125l0.921875 0q0.796875 0 1.375 -0.203125q0.59375 -0.21875 0.90625 -0.65625q0.328125 -0.453125 0.328125 -1.15625q0 -0.984375 -0.546875 -1.453125q-0.546875 -0.484375 -1.703125 -0.484375zm11.589813 0.625q1.40625 0 2.421875 0.546875q1.03125 0.53125 1.578125 1.5625q0.5625 1.03125 0.5625 2.515625l0 1.34375l-6.5625 0q0.046875 1.1875 0.703125 1.859375q0.65625 0.65625 1.828125 0.65625q0.984375 0 1.796875 -0.1875q0.8125 -0.203125 1.65625 -0.609375l0 2.15625q-0.75 0.375 -1.578125 0.546875q-0.828125 0.171875 -2.0 0.171875q-1.53125 0 -2.71875 -0.5625q-1.171875 -0.578125 -1.84375 -1.734375q-0.65625 -1.15625 -0.65625 -2.90625q0 -1.796875 0.59375 -2.984375q0.609375 -1.1875 1.6875 -1.78125q1.09375 -0.59375 2.53125 -0.59375zm0.015625 1.96875q-0.8125 0 -1.34375 0.53125q-0.53125 0.515625 -0.609375 1.625l3.890625 0q0 -0.625 -0.21875 -1.09375q-0.21875 -0.484375 -0.640625 -0.765625q-0.421875 -0.296875 -1.078125 -0.296875zm11.006897 -1.96875q1.40625 0 2.421875 0.546875q1.03125 0.53125 1.578125 1.5625q0.5625 1.03125 0.5625 2.515625l0 1.34375l-6.5625 0q0.046875 1.1875 0.703125 1.859375q0.65625 0.65625 1.828125 0.65625q0.984375 0 1.796875 -0.1875q0.8125 -0.203125 1.65625 -0.609375l0 2.15625q-0.75 0.375 -1.578125 0.546875q-0.828125 0.171875 -2.0 0.171875q-1.53125 0 -2.71875 -0.5625q-1.171875 -0.578125 -1.84375 -1.734375q-0.65625 -1.15625 -0.65625 -2.90625q0 -1.796875 0.59375 -2.984375q0.609375 -1.1875 1.6875 -1.78125q1.09375 -0.59375 2.53125 -0.59375zm0.015625 1.96875q-0.8125 0 -1.34375 0.53125q-0.53125 0.515625 -0.609375 1.625l3.890625 0q0 -0.625 -0.21875 -1.09375q-0.21875 -0.484375 -0.640625 -0.765625q-0.421875 -0.296875 -1.078125 -0.296875zm12.491211 -1.96875q0.203125 0 0.484375 0.03125q0.28125 0.015625 0.453125 0.046875l-0.203125 2.609375q-0.140625 -0.046875 -0.390625 -0.0625q-0.25 -0.03125 -0.4375 -0.03125q-0.53125 0 -1.046875 0.140625q-0.5 0.140625 -0.90625 0.453125q-0.390625 0.296875 -0.625 0.796875q-0.234375 0.484375 -0.234375 1.203125l0 5.1875l-2.78125 0l0 -10.1875l2.109375 0l0.40625 1.71875l0.140625 0q0.296875 -0.515625 0.75 -0.953125q0.453125 -0.4375 1.03125 -0.6875q0.578125 -0.265625 1.25 -0.265625zm16.23999 10.375l-9.3125 0l0 -1.953125l3.34375 -3.390625q1.0 -1.03125 1.609375 -1.71875q0.625 -0.703125 0.90625 -1.28125q0.28125 -0.578125 0.28125 -1.234375q0 -0.78125 -0.453125 -1.171875q-0.4375 -0.40625 -1.171875 -0.40625q-0.78125 0 -1.515625 0.359375q-0.71875 0.34375 -1.515625 1.0l-1.53125 -1.8125q0.578125 -0.484375 1.21875 -0.921875q0.640625 -0.4375 1.484375 -0.703125q0.859375 -0.28125 2.0625 -0.28125q1.3125 0 2.25 0.484375q0.9375 0.46875 1.453125 1.28125q0.515625 0.8125 0.515625 1.84375q0 1.109375 -0.4375 2.015625q-0.4375 0.90625 -1.28125 1.8125q-0.828125 0.890625 -2.0 1.96875l-1.71875 1.609375l0 0.125l5.8125 0l0 2.375z" fill-rule="nonzero"/><path fill="#000000" fill-opacity="0.0" d="m166.73622 410.55905l115.74803 0l0 42.015747l-115.74803 0z" fill-rule="evenodd"/><path fill="#000000" fill-opacity="0.0" d="m224.61023 138.72179l0 271.84253" fill-rule="evenodd"/><path stroke="#000000" stroke-width="1.0" stroke-linejoin="round" stroke-linecap="butt" stroke-dasharray="4.0,3.0" d="m224.61023 138.72179l0 271.84253" fill-rule="evenodd"/><path fill="#000000" fill-opacity="0.0" d="m474.1929 412.55643l115.74802 0l0 42.015747l-115.74802 0z" fill-rule="evenodd"/><path fill="#000000" fill-opacity="0.0" d="m532.06696 138.72179l0 273.82678" fill-rule="evenodd"/><path stroke="#000000" stroke-width="1.0" stroke-linejoin="round" stroke-linecap="butt" stroke-dasharray="4.0,3.0" d="m532.06696 138.72179l0 273.82678" fill-rule="evenodd"/><path fill="#d9d9d9" d="m207.17717 175.72978l0 0c0 -3.2094116 2.6017303 -5.811142 5.811142 -5.811142l23.24385 0l0 0c1.541214 0 3.0193024 0.61224365 4.1091003 1.7020416c1.089798 1.089798 1.7020416 2.5678864 1.7020416 4.1091003l0 30.393463c0 3.2093964 -2.6017303 5.811142 -5.811142 5.811142l-23.24385 0c-3.2094116 0 -5.811142 -2.6017456 -5.811142 -5.811142z" fill-rule="evenodd"/><path fill="#d9d9d9" d="m514.63385 175.72978l0 0c0 -3.2094116 2.6017456 -5.811142 5.811157 -5.811142l23.243835 0l0 0c1.5411987 0 3.019287 0.61224365 4.109131 1.7020416c1.0897827 1.089798 1.7020264 2.5678864 1.7020264 4.1091003l0 30.393463c0 3.2093964 -2.6017456 5.811142 -5.811157 5.811142l-23.243835 0c-3.2094116 0 -5.811157 -2.6017456 -5.811157 -5.811142z" fill-rule="evenodd"/><path fill="#000000" fill-opacity="0.0" d="m242.0433 190.92651l228.09448 0.8503876" fill-rule="evenodd"/><path stroke="#000000" stroke-width="1.0" stroke-linejoin="round" stroke-linecap="butt" stroke-dasharray="8.0,3.0" d="m242.0433 190.92651l222.09454 0.8280182" fill-rule="evenodd"/><path fill="#000000" stroke="#000000" stroke-width="1.0" stroke-linecap="butt" d="m464.13168 193.40625l4.54422 -1.6347961l-4.5319214 -1.6686401z" fill-rule="evenodd"/><path fill="#000000" fill-opacity="0.0" d="m280.67053 157.00525l195.33856 0l0 33.921265l-195.33856 0z" fill-rule="evenodd"/><path fill="#000000" d="m342.28806 178.28587l-1.0 0l0 -8.5625l4.765625 0l0 0.875l-3.765625 0l0 3.140625l3.546875 0l0 0.875l-3.546875 0l0 3.671875zm6.0214844 -6.421875l0 6.421875l-0.96875 0l0 -6.421875l0.96875 0zm-0.46875 -2.40625q0.234375 0 0.40625 0.15625q0.171875 0.15625 0.171875 0.484375q0 0.328125 -0.171875 0.484375q-0.171875 0.15625 -0.40625 0.15625q-0.265625 0 -0.4375 -0.15625q-0.15625 -0.15625 -0.15625 -0.484375q0 -0.328125 0.15625 -0.484375q0.171875 -0.15625 0.4375 -0.15625zm5.435547 2.28125q0.203125 0 0.40625 0.03125q0.21875 0.015625 0.375 0.046875l-0.125 0.90625q-0.15625 -0.046875 -0.34375 -0.0625q-0.1875 -0.03125 -0.359375 -0.03125q-0.390625 0 -0.734375 0.15625q-0.34375 0.15625 -0.609375 0.453125q-0.25 0.28125 -0.40625 0.703125q-0.140625 0.40625 -0.140625 0.890625l0 3.453125l-0.96875 0l0 -6.421875l0.796875 0l0.109375 1.1875l0.046875 0q0.203125 -0.359375 0.484375 -0.65625q0.28125 -0.296875 0.640625 -0.46875q0.375 -0.1875 0.828125 -0.1875zm6.154297 4.78125q0 0.625 -0.3125 1.046875q-0.3125 0.40625 -0.890625 0.625q-0.5625 0.21875 -1.359375 0.21875q-0.671875 0 -1.171875 -0.109375q-0.484375 -0.109375 -0.84375 -0.296875l0 -0.90625q0.390625 0.203125 0.9375 0.359375q0.546875 0.15625 1.109375 0.15625q0.828125 0 1.203125 -0.265625q0.375 -0.28125 0.375 -0.734375q0 -0.265625 -0.15625 -0.46875q-0.140625 -0.203125 -0.5 -0.390625q-0.34375 -0.1875 -0.96875 -0.421875q-0.609375 -0.234375 -1.0625 -0.46875q-0.4375 -0.234375 -0.6875 -0.5625q-0.25 -0.328125 -0.25 -0.875q0 -0.8125 0.65625 -1.25q0.671875 -0.4375 1.734375 -0.4375q0.59375 0 1.09375 0.125q0.5 0.109375 0.953125 0.296875l-0.328125 0.78125q-0.40625 -0.171875 -0.859375 -0.28125q-0.453125 -0.125 -0.921875 -0.125q-0.671875 0 -1.03125 0.234375q-0.359375 0.21875 -0.359375 0.609375q0 0.296875 0.15625 0.5q0.171875 0.1875 0.546875 0.359375q0.375 0.15625 0.96875 0.390625q0.609375 0.21875 1.046875 0.46875q0.4375 0.234375 0.671875 0.578125q0.25 0.328125 0.25 0.84375zm3.625 1.078125q0.25 0 0.5 -0.03125q0.25 -0.046875 0.40625 -0.109375l0 0.765625q-0.171875 0.078125 -0.46875 0.125q-0.296875 0.0625 -0.59375 0.0625q-0.5 0 -0.921875 -0.171875q-0.421875 -0.1875 -0.671875 -0.609375q-0.234375 -0.4375 -0.234375 -1.203125l0 -3.796875l-0.921875 0l0 -0.484375l0.921875 -0.375l0.390625 -1.390625l0.578125 0l0 1.484375l1.890625 0l0 0.765625l-1.890625 0l0 3.78125q0 0.59375 0.28125 0.890625q0.28125 0.296875 0.734375 0.296875zm12.300781 -5.859375q1.0625 0 1.59375 0.5625q0.546875 0.546875 0.546875 1.78125l0 4.203125l-0.96875 0l0 -4.15625q0 -0.78125 -0.34375 -1.171875q-0.328125 -0.390625 -0.984375 -0.390625q-0.9375 0 -1.359375 0.546875q-0.421875 0.53125 -0.421875 1.578125l0 3.59375l-0.96875 0l0 -4.15625q0 -0.53125 -0.15625 -0.875q-0.140625 -0.34375 -0.4375 -0.515625q-0.296875 -0.171875 -0.75 -0.171875q-0.625 0 -1.015625 0.265625q-0.390625 0.265625 -0.5625 0.78125q-0.171875 0.515625 -0.171875 1.265625l0 3.40625l-0.96875 0l0 -6.421875l0.78125 0l0.140625 0.90625l0.0625 0q0.1875 -0.328125 0.484375 -0.5625q0.296875 -0.234375 0.65625 -0.34375q0.359375 -0.125 0.765625 -0.125q0.734375 0 1.234375 0.28125q0.5 0.265625 0.71875 0.828125l0.046875 0q0.3125 -0.5625 0.859375 -0.828125q0.5625 -0.28125 1.21875 -0.28125zm6.609375 0q0.8125 0 1.390625 0.375q0.59375 0.359375 0.90625 1.015625q0.3125 0.65625 0.3125 1.515625l0 0.609375l-4.4375 0q0.015625 1.125 0.5625 1.71875q0.546875 0.59375 1.546875 0.59375q0.609375 0 1.078125 -0.109375q0.46875 -0.109375 0.96875 -0.328125l0 0.859375q-0.484375 0.21875 -0.96875 0.3125q-0.46875 0.109375 -1.125 0.109375q-0.921875 0 -1.609375 -0.375q-0.6875 -0.390625 -1.078125 -1.125q-0.375 -0.734375 -0.375 -1.796875q0 -1.03125 0.34375 -1.78125q0.34375 -0.765625 0.984375 -1.171875q0.640625 -0.421875 1.5 -0.421875zm-0.015625 0.796875q-0.78125 0 -1.25 0.515625q-0.453125 0.515625 -0.546875 1.421875l3.40625 0q0 -0.578125 -0.1875 -1.0q-0.171875 -0.4375 -0.53125 -0.6875q-0.34375 -0.25 -0.890625 -0.25zm8.441406 3.984375q0 0.625 -0.3125 1.046875q-0.3125 0.40625 -0.890625 0.625q-0.5625 0.21875 -1.359375 0.21875q-0.671875 0 -1.171875 -0.109375q-0.484375 -0.109375 -0.84375 -0.296875l0 -0.90625q0.390625 0.203125 0.9375 0.359375q0.546875 0.15625 1.109375 0.15625q0.828125 0 1.203125 -0.265625q0.375 -0.28125 0.375 -0.734375q0 -0.265625 -0.15625 -0.46875q-0.140625 -0.203125 -0.5 -0.390625q-0.34375 -0.1875 -0.96875 -0.421875q-0.609375 -0.234375 -1.0625 -0.46875q-0.4375 -0.234375 -0.6875 -0.5625q-0.25 -0.328125 -0.25 -0.875q0 -0.8125 0.65625 -1.25q0.671875 -0.4375 1.734375 -0.4375q0.59375 0 1.09375 0.125q0.5 0.109375 0.953125 0.296875l-0.328125 0.78125q-0.40625 -0.171875 -0.859375 -0.28125q-0.453125 -0.125 -0.921875 -0.125q-0.671875 0 -1.03125 0.234375q-0.359375 0.21875 -0.359375 0.609375q0 0.296875 0.15625 0.5q0.171875 0.1875 0.546875 0.359375q0.375 0.15625 0.96875 0.390625q0.609375 0.21875 1.046875 0.46875q0.4375 0.234375 0.671875 0.578125q0.25 0.328125 0.25 0.84375zm5.71875 0q0 0.625 -0.3125 1.046875q-0.3125 0.40625 -0.890625 0.625q-0.5625 0.21875 -1.359375 0.21875q-0.671875 0 -1.171875 -0.109375q-0.484375 -0.109375 -0.84375 -0.296875l0 -0.90625q0.390625 0.203125 0.9375 0.359375q0.546875 0.15625 1.109375 0.15625q0.828125 0 1.203125 -0.265625q0.375 -0.28125 0.375 -0.734375q0 -0.265625 -0.15625 -0.46875q-0.140625 -0.203125 -0.5 -0.390625q-0.34375 -0.1875 -0.96875 -0.421875q-0.609375 -0.234375 -1.0625 -0.46875q-0.4375 -0.234375 -0.6875 -0.5625q-0.25 -0.328125 -0.25 -0.875q0 -0.8125 0.65625 -1.25q0.671875 -0.4375 1.734375 -0.4375q0.59375 0 1.09375 0.125q0.5 0.109375 0.953125 0.296875l-0.328125 0.78125q-0.40625 -0.171875 -0.859375 -0.28125q-0.453125 -0.125 -0.921875 -0.125q-0.671875 0 -1.03125 0.234375q-0.359375 0.21875 -0.359375 0.609375q0 0.296875 0.15625 0.5q0.171875 0.1875 0.546875 0.359375q0.375 0.15625 0.96875 0.390625q0.609375 0.21875 1.046875 0.46875q0.4375 0.234375 0.671875 0.578125q0.25 0.328125 0.25 0.84375zm3.953125 -4.765625q1.15625 0 1.703125 0.515625q0.5625 0.515625 0.5625 1.65625l0 4.359375l-0.703125 0l-0.1875 -0.953125l-0.046875 0q-0.265625 0.359375 -0.5625 0.59375q-0.296875 0.234375 -0.6875 0.359375q-0.375 0.125 -0.9375 0.125q-0.578125 0 -1.03125 -0.203125q-0.453125 -0.21875 -0.71875 -0.625q-0.265625 -0.421875 -0.265625 -1.0625q0 -0.953125 0.765625 -1.46875q0.765625 -0.515625 2.328125 -0.5625l1.09375 -0.046875l0 -0.40625q0 -0.828125 -0.359375 -1.15625q-0.34375 -0.34375 -1.0 -0.34375q-0.5 0 -0.96875 0.15625q-0.453125 0.140625 -0.859375 0.34375l-0.296875 -0.734375q0.4375 -0.234375 1.0 -0.390625q0.5625 -0.15625 1.171875 -0.15625zm1.3125 3.359375l-0.984375 0.046875q-1.203125 0.046875 -1.703125 0.390625q-0.484375 0.34375 -0.484375 0.984375q0 0.546875 0.328125 0.8125q0.34375 0.265625 0.890625 0.265625q0.859375 0 1.40625 -0.46875q0.546875 -0.484375 0.546875 -1.4375l0 -0.59375zm4.7460938 6.0625q-1.265625 0 -1.953125 -0.484375q-0.671875 -0.46875 -0.671875 -1.3125q0 -0.609375 0.375 -1.046875q0.390625 -0.421875 1.0625 -0.5625q-0.25 -0.109375 -0.4375 -0.34375q-0.171875 -0.234375 -0.171875 -0.546875q0 -0.34375 0.1875 -0.609375q0.203125 -0.265625 0.609375 -0.515625q-0.5 -0.203125 -0.8125 -0.6875q-0.3125 -0.5 -0.3125 -1.140625q0 -0.703125 0.28125 -1.1875q0.296875 -0.484375 0.828125 -0.734375q0.546875 -0.265625 1.328125 -0.265625q0.171875 0 0.34375 0.015625q0.171875 0.015625 0.328125 0.046875q0.15625 0.015625 0.28125 0.046875l2.203125 0l0 0.625l-1.1875 0.15625q0.171875 0.21875 0.28125 0.546875q0.125 0.328125 0.125 0.71875q0 0.953125 -0.65625 1.53125q-0.640625 0.5625 -1.78125 0.5625q-0.265625 0 -0.546875 -0.046875q-0.28125 0.15625 -0.4375 0.34375q-0.15625 0.1875 -0.15625 0.453125q0 0.1875 0.109375 0.296875q0.125 0.109375 0.34375 0.15625q0.21875 0.046875 0.515625 0.046875l1.140625 0q1.046875 0 1.59375 0.4375q0.5625 0.4375 0.5625 1.296875q0 1.0625 -0.875 1.625q-0.859375 0.578125 -2.5 0.578125zm0.03125 -0.765625q0.796875 0 1.3125 -0.171875q0.53125 -0.15625 0.796875 -0.453125q0.265625 -0.296875 0.265625 -0.71875q0 -0.390625 -0.1875 -0.59375q-0.171875 -0.1875 -0.515625 -0.25q-0.328125 -0.078125 -0.828125 -0.078125l-1.109375 0q-0.4375 0 -0.765625 0.140625q-0.3125 0.140625 -0.484375 0.390625q-0.171875 0.265625 -0.171875 0.671875q0 0.515625 0.4375 0.78125q0.4375 0.28125 1.25 0.28125zm0.25 -5.140625q0.703125 0 1.046875 -0.34375q0.359375 -0.359375 0.359375 -1.03125q0 -0.71875 -0.359375 -1.078125q-0.359375 -0.359375 -1.046875 -0.359375q-0.671875 0 -1.03125 0.375q-0.359375 0.359375 -0.359375 1.078125q0 0.65625 0.359375 1.015625q0.359375 0.34375 1.03125 0.34375zm6.921875 -3.53125q0.8125 0 1.390625 0.375q0.59375 0.359375 0.90625 1.015625q0.3125 0.65625 0.3125 1.515625l0 0.609375l-4.4375 0q0.015625 1.125 0.5625 1.71875q0.546875 0.59375 1.546875 0.59375q0.609375 0 1.078125 -0.109375q0.46875 -0.109375 0.96875 -0.328125l0 0.859375q-0.484375 0.21875 -0.96875 0.3125q-0.46875 0.109375 -1.125 0.109375q-0.921875 0 -1.609375 -0.375q-0.6875 -0.390625 -1.078125 -1.125q-0.375 -0.734375 -0.375 -1.796875q0 -1.03125 0.34375 -1.78125q0.34375 -0.765625 0.984375 -1.171875q0.640625 -0.421875 1.5 -0.421875zm-0.015625 0.796875q-0.78125 0 -1.25 0.515625q-0.453125 0.515625 -0.546875 1.421875l3.40625 0q0 -0.578125 -0.1875 -1.0q-0.171875 -0.4375 -0.53125 -0.6875q-0.34375 -0.25 -0.890625 -0.25z" fill-rule="nonzero"/><path fill="#d9d9d9" d="m514.63385 248.94237l0 0c0 -3.2093964 2.6017456 -5.8111267 5.811157 -5.8111267l23.243835 0l0 0c1.5411987 0 3.019287 0.61224365 4.109131 1.7020416c1.0897827 1.089798 1.7020264 2.5678864 1.7020264 4.109085l0 30.393478c0 3.2094116 -2.6017456 5.8111267 -5.811157 5.8111267l-23.243835 0c-3.2094116 0 -5.811157 -2.601715 -5.811157 -5.8111267z" fill-rule="evenodd"/><path fill="#d9d9d9" d="m207.17717 248.94237l0 0c0 -3.2093964 2.6017303 -5.8111267 5.811142 -5.8111267l23.24385 0l0 0c1.541214 0 3.0193024 0.61224365 4.1091003 1.7020416c1.089798 1.089798 1.7020416 2.5678864 1.7020416 4.109085l0 30.393478c0 3.2094116 -2.6017303 5.8111267 -5.811142 5.8111267l-23.24385 0c-3.2094116 0 -5.811142 -2.601715 -5.811142 -5.8111267z" fill-rule="evenodd"/><path fill="#000000" fill-opacity="0.0" d="m242.0433 264.1391l272.59842 0" fill-rule="evenodd"/><path stroke="#000000" stroke-width="1.0" stroke-linejoin="round" stroke-linecap="butt" d="m248.0433 264.1391l266.59842 0" fill-rule="evenodd"/><path fill="#000000" stroke="#000000" stroke-width="1.0" stroke-linecap="butt" d="m248.0433 262.48737l-4.538101 1.6517334l4.538101 1.6517334z" fill-rule="evenodd"/><path fill="#d9d9d9" d="m207.17717 322.15366l0 0c0 -3.2094116 2.6017303 -5.8111267 5.811142 -5.8111267l23.24385 0l0 0c1.541214 0 3.0193024 0.61224365 4.1091003 1.7020264c1.089798 1.0898132 1.7020416 2.5679016 1.7020416 4.1091003l0 30.393463c0 3.2094116 -2.6017303 5.811157 -5.811142 5.811157l-23.24385 0c-3.2094116 0 -5.811142 -2.6017456 -5.811142 -5.811157z" fill-rule="evenodd"/><path fill="#d9d9d9" d="m514.63385 322.15497l0 0c0 -3.2094116 2.6017456 -5.8111267 5.811157 -5.8111267l23.243835 0l0 0c1.5411987 0 3.019287 0.61224365 4.109131 1.7020264c1.0897827 1.0898132 1.7020264 2.5679016 1.7020264 4.1091003l0 30.393463c0 3.2094116 -2.6017456 5.811157 -5.811157 5.811157l-23.243835 0c-3.2094116 0 -5.811157 -2.6017456 -5.811157 -5.811157z" fill-rule="evenodd"/><path fill="#000000" fill-opacity="0.0" d="m280.66922 230.21785l195.33856 0l0 33.92125l-195.33856 0z" fill-rule="evenodd"/><path fill="#000000" d="m344.16663 249.21722q0 0.765625 -0.375 1.296875q-0.375 0.53125 -1.0625 0.828125q-0.671875 0.28125 -1.59375 0.28125q-0.484375 0 -0.921875 -0.046875q-0.421875 -0.046875 -0.796875 -0.140625q-0.359375 -0.09375 -0.640625 -0.21875l0 -0.953125q0.453125 0.171875 1.078125 0.328125q0.640625 0.15625 1.328125 0.15625q0.640625 0 1.078125 -0.171875q0.453125 -0.171875 0.6875 -0.484375q0.234375 -0.328125 0.234375 -0.796875q0 -0.4375 -0.203125 -0.734375q-0.1875 -0.296875 -0.640625 -0.53125q-0.4375 -0.25 -1.21875 -0.515625q-0.546875 -0.203125 -0.96875 -0.421875q-0.40625 -0.234375 -0.6875 -0.53125q-0.28125 -0.296875 -0.421875 -0.671875q-0.140625 -0.390625 -0.140625 -0.890625q0 -0.6875 0.34375 -1.171875q0.34375 -0.5 0.953125 -0.75q0.625 -0.265625 1.4375 -0.265625q0.6875 0 1.265625 0.125q0.578125 0.125 1.0625 0.34375l-0.3125 0.859375q-0.453125 -0.1875 -0.984375 -0.3125q-0.515625 -0.140625 -1.0625 -0.140625q-0.546875 0 -0.921875 0.171875q-0.375 0.15625 -0.578125 0.453125q-0.203125 0.28125 -0.203125 0.6875q0 0.453125 0.1875 0.75q0.1875 0.296875 0.609375 0.53125q0.421875 0.234375 1.109375 0.484375q0.765625 0.28125 1.28125 0.59375q0.53125 0.296875 0.796875 0.75q0.28125 0.4375 0.28125 1.109375zm4.080078 -4.265625q0.8125 0 1.390625 0.375q0.59375 0.359375 0.90625 1.015625q0.3125 0.65625 0.3125 1.515625l0 0.609375l-4.4375 0q0.015625 1.125 0.5625 1.71875q0.546875 0.59375 1.546875 0.59375q0.609375 0 1.078125 -0.109375q0.46875 -0.109375 0.96875 -0.328125l0 0.859375q-0.484375 0.21875 -0.96875 0.3125q-0.46875 0.109375 -1.125 0.109375q-0.921875 0 -1.609375 -0.375q-0.6875 -0.390625 -1.078125 -1.125q-0.375 -0.734375 -0.375 -1.796875q0 -1.03125 0.34375 -1.78125q0.34375 -0.765625 0.984375 -1.171875q0.640625 -0.421875 1.5 -0.421875zm-0.015625 0.796875q-0.78125 0 -1.25 0.515625q-0.453125 0.515625 -0.546875 1.421875l3.40625 0q0 -0.578125 -0.1875 -1.0q-0.171875 -0.4375 -0.53125 -0.6875q-0.34375 -0.25 -0.890625 -0.25zm7.3164062 -0.796875q1.140625 0 1.71875 0.5625q0.59375 0.5625 0.59375 1.796875l0 4.1875l-0.953125 0l0 -4.125q0 -0.796875 -0.375 -1.1875q-0.359375 -0.40625 -1.109375 -0.40625q-1.078125 0 -1.515625 0.609375q-0.421875 0.59375 -0.421875 1.75l0 3.359375l-0.96875 0l0 -6.421875l0.78125 0l0.140625 0.921875l0.0625 0q0.203125 -0.34375 0.515625 -0.5625q0.3125 -0.234375 0.703125 -0.359375q0.40625 -0.125 0.828125 -0.125zm6.609375 6.671875q-1.21875 0 -1.9375 -0.828125q-0.703125 -0.84375 -0.703125 -2.484375q0 -1.65625 0.71875 -2.5q0.734375 -0.859375 1.9375 -0.859375q0.515625 0 0.890625 0.140625q0.375 0.140625 0.65625 0.375q0.28125 0.21875 0.46875 0.5l0.0625 0q-0.015625 -0.1875 -0.046875 -0.5q-0.015625 -0.3125 -0.015625 -0.515625l0 -2.578125l0.96875 0l0 9.125l-0.78125 0l-0.15625 -0.921875l-0.03125 0q-0.1875 0.296875 -0.46875 0.53125q-0.28125 0.234375 -0.671875 0.375q-0.375 0.140625 -0.890625 0.140625zm0.15625 -0.8125q1.03125 0 1.453125 -0.578125q0.421875 -0.59375 0.421875 -1.75l0 -0.171875q0 -1.234375 -0.40625 -1.890625q-0.40625 -0.65625 -1.46875 -0.65625q-0.90625 0 -1.359375 0.6875q-0.4375 0.6875 -0.4375 1.875q0 1.1875 0.4375 1.84375q0.453125 0.640625 1.359375 0.640625zm14.990234 -5.859375q1.0625 0 1.59375 0.5625q0.546875 0.546875 0.546875 1.78125l0 4.203125l-0.96875 0l0 -4.15625q0 -0.78125 -0.34375 -1.171875q-0.328125 -0.390625 -0.984375 -0.390625q-0.9375 0 -1.359375 0.546875q-0.421875 0.53125 -0.421875 1.578125l0 3.59375l-0.96875 0l0 -4.15625q0 -0.53125 -0.15625 -0.875q-0.140625 -0.34375 -0.4375 -0.515625q-0.296875 -0.171875 -0.75 -0.171875q-0.625 0 -1.015625 0.265625q-0.390625 0.265625 -0.5625 0.78125q-0.171875 0.515625 -0.171875 1.265625l0 3.40625l-0.96875 0l0 -6.421875l0.78125 0l0.140625 0.90625l0.0625 0q0.1875 -0.328125 0.484375 -0.5625q0.296875 -0.234375 0.65625 -0.34375q0.359375 -0.125 0.765625 -0.125q0.734375 0 1.234375 0.28125q0.5 0.265625 0.71875 0.828125l0.046875 0q0.3125 -0.5625 0.859375 -0.828125q0.5625 -0.28125 1.21875 -0.28125zm6.609375 0q0.8125 0 1.390625 0.375q0.59375 0.359375 0.90625 1.015625q0.3125 0.65625 0.3125 1.515625l0 0.609375l-4.4375 0q0.015625 1.125 0.5625 1.71875q0.546875 0.59375 1.546875 0.59375q0.609375 0 1.078125 -0.109375q0.46875 -0.109375 0.96875 -0.328125l0 0.859375q-0.484375 0.21875 -0.96875 0.3125q-0.46875 0.109375 -1.125 0.109375q-0.921875 0 -1.609375 -0.375q-0.6875 -0.390625 -1.078125 -1.125q-0.375 -0.734375 -0.375 -1.796875q0 -1.03125 0.34375 -1.78125q0.34375 -0.765625 0.984375 -1.171875q0.640625 -0.421875 1.5 -0.421875zm-0.015625 0.796875q-0.78125 0 -1.25 0.515625q-0.453125 0.515625 -0.546875 1.421875l3.40625 0q0 -0.578125 -0.1875 -1.0q-0.171875 -0.4375 -0.53125 -0.6875q-0.34375 -0.25 -0.890625 -0.25zm8.441406 3.984375q0 0.625 -0.3125 1.046875q-0.3125 0.40625 -0.890625 0.625q-0.5625 0.21875 -1.359375 0.21875q-0.671875 0 -1.171875 -0.109375q-0.484375 -0.109375 -0.84375 -0.296875l0 -0.90625q0.390625 0.203125 0.9375 0.359375q0.546875 0.15625 1.109375 0.15625q0.828125 0 1.203125 -0.265625q0.375 -0.28125 0.375 -0.734375q0 -0.265625 -0.15625 -0.46875q-0.140625 -0.203125 -0.5 -0.390625q-0.34375 -0.1875 -0.96875 -0.421875q-0.609375 -0.234375 -1.0625 -0.46875q-0.4375 -0.234375 -0.6875 -0.5625q-0.25 -0.328125 -0.25 -0.875q0 -0.8125 0.65625 -1.25q0.671875 -0.4375 1.734375 -0.4375q0.59375 0 1.09375 0.125q0.5 0.109375 0.953125 0.296875l-0.328125 0.78125q-0.40625 -0.171875 -0.859375 -0.28125q-0.453125 -0.125 -0.921875 -0.125q-0.671875 0 -1.03125 0.234375q-0.359375 0.21875 -0.359375 0.609375q0 0.296875 0.15625 0.5q0.171875 0.1875 0.546875 0.359375q0.375 0.15625 0.96875 0.390625q0.609375 0.21875 1.046875 0.46875q0.4375 0.234375 0.671875 0.578125q0.25 0.328125 0.25 0.84375zm5.71875 0q0 0.625 -0.3125 1.046875q-0.3125 0.40625 -0.890625 0.625q-0.5625 0.21875 -1.359375 0.21875q-0.671875 0 -1.171875 -0.109375q-0.484375 -0.109375 -0.84375 -0.296875l0 -0.90625q0.390625 0.203125 0.9375 0.359375q0.546875 0.15625 1.109375 0.15625q0.828125 0 1.203125 -0.265625q0.375 -0.28125 0.375 -0.734375q0 -0.265625 -0.15625 -0.46875q-0.140625 -0.203125 -0.5 -0.390625q-0.34375 -0.1875 -0.96875 -0.421875q-0.609375 -0.234375 -1.0625 -0.46875q-0.4375 -0.234375 -0.6875 -0.5625q-0.25 -0.328125 -0.25 -0.875q0 -0.8125 0.65625 -1.25q0.671875 -0.4375 1.734375 -0.4375q0.59375 0 1.09375 0.125q0.5 0.109375 0.953125 0.296875l-0.328125 0.78125q-0.40625 -0.171875 -0.859375 -0.28125q-0.453125 -0.125 -0.921875 -0.125q-0.671875 0 -1.03125 0.234375q-0.359375 0.21875 -0.359375 0.609375q0 0.296875 0.15625 0.5q0.171875 0.1875 0.546875 0.359375q0.375 0.15625 0.96875 0.390625q0.609375 0.21875 1.046875 0.46875q0.4375 0.234375 0.671875 0.578125q0.25 0.328125 0.25 0.84375zm3.953125 -4.765625q1.15625 0 1.703125 0.515625q0.5625 0.515625 0.5625 1.65625l0 4.359375l-0.703125 0l-0.1875 -0.953125l-0.046875 0q-0.265625 0.359375 -0.5625 0.59375q-0.296875 0.234375 -0.6875 0.359375q-0.375 0.125 -0.9375 0.125q-0.578125 0 -1.03125 -0.203125q-0.453125 -0.21875 -0.71875 -0.625q-0.265625 -0.421875 -0.265625 -1.0625q0 -0.953125 0.765625 -1.46875q0.765625 -0.515625 2.328125 -0.5625l1.09375 -0.046875l0 -0.40625q0 -0.828125 -0.359375 -1.15625q-0.34375 -0.34375 -1.0 -0.34375q-0.5 0 -0.96875 0.15625q-0.453125 0.140625 -0.859375 0.34375l-0.296875 -0.734375q0.4375 -0.234375 1.0 -0.390625q0.5625 -0.15625 1.171875 -0.15625zm1.3125 3.359375l-0.984375 0.046875q-1.203125 0.046875 -1.703125 0.390625q-0.484375 0.34375 -0.484375 0.984375q0 0.546875 0.328125 0.8125q0.34375 0.265625 0.890625 0.265625q0.859375 0 1.40625 -0.46875q0.546875 -0.484375 0.546875 -1.4375l0 -0.59375zm4.7460938 6.0625q-1.265625 0 -1.953125 -0.484375q-0.671875 -0.46875 -0.671875 -1.3125q0 -0.609375 0.375 -1.046875q0.390625 -0.421875 1.0625 -0.5625q-0.25 -0.109375 -0.4375 -0.34375q-0.171875 -0.234375 -0.171875 -0.546875q0 -0.34375 0.1875 -0.609375q0.203125 -0.265625 0.609375 -0.515625q-0.5 -0.203125 -0.8125 -0.6875q-0.3125 -0.5 -0.3125 -1.140625q0 -0.703125 0.28125 -1.1875q0.296875 -0.484375 0.828125 -0.734375q0.546875 -0.265625 1.328125 -0.265625q0.171875 0 0.34375 0.015625q0.171875 0.015625 0.328125 0.046875q0.15625 0.015625 0.28125 0.046875l2.203125 0l0 0.625l-1.1875 0.15625q0.171875 0.21875 0.28125 0.546875q0.125 0.328125 0.125 0.71875q0 0.953125 -0.65625 1.53125q-0.640625 0.5625 -1.78125 0.5625q-0.265625 0 -0.546875 -0.046875q-0.28125 0.15625 -0.4375 0.34375q-0.15625 0.1875 -0.15625 0.453125q0 0.1875 0.109375 0.296875q0.125 0.109375 0.34375 0.15625q0.21875 0.046875 0.515625 0.046875l1.140625 0q1.046875 0 1.59375 0.4375q0.5625 0.4375 0.5625 1.296875q0 1.0625 -0.875 1.625q-0.859375 0.578125 -2.5 0.578125zm0.03125 -0.765625q0.796875 0 1.3125 -0.171875q0.53125 -0.15625 0.796875 -0.453125q0.265625 -0.296875 0.265625 -0.71875q0 -0.390625 -0.1875 -0.59375q-0.171875 -0.1875 -0.515625 -0.25q-0.328125 -0.078125 -0.828125 -0.078125l-1.109375 0q-0.4375 0 -0.765625 0.140625q-0.3125 0.140625 -0.484375 0.390625q-0.171875 0.265625 -0.171875 0.671875q0 0.515625 0.4375 0.78125q0.4375 0.28125 1.25 0.28125zm0.25 -5.140625q0.703125 0 1.046875 -0.34375q0.359375 -0.359375 0.359375 -1.03125q0 -0.71875 -0.359375 -1.078125q-0.359375 -0.359375 -1.046875 -0.359375q-0.671875 0 -1.03125 0.375q-0.359375 0.359375 -0.359375 1.078125q0 0.65625 0.359375 1.015625q0.359375 0.34375 1.03125 0.34375zm6.921875 -3.53125q0.8125 0 1.390625 0.375q0.59375 0.359375 0.90625 1.015625q0.3125 0.65625 0.3125 1.515625l0 0.609375l-4.4375 0q0.015625 1.125 0.5625 1.71875q0.546875 0.59375 1.546875 0.59375q0.609375 0 1.078125 -0.109375q0.46875 -0.109375 0.96875 -0.328125l0 0.859375q-0.484375 0.21875 -0.96875 0.3125q-0.46875 0.109375 -1.125 0.109375q-0.921875 0 -1.609375 -0.375q-0.6875 -0.390625 -1.078125 -1.125q-0.375 -0.734375 -0.375 -1.796875q0 -1.03125 0.34375 -1.78125q0.34375 -0.765625 0.984375 -1.171875q0.640625 -0.421875 1.5 -0.421875zm-0.015625 0.796875q-0.78125 0 -1.25 0.515625q-0.453125 0.515625 -0.546875 1.421875l3.40625 0q0 -0.578125 -0.1875 -1.0q-0.171875 -0.4375 -0.53125 -0.6875q-0.34375 -0.25 -0.890625 -0.25z" fill-rule="nonzero"/><path fill="#000000" fill-opacity="0.0" d="m477.0748 428.7861l109.98422 0l0 33.921234l-109.98422 0z" fill-rule="evenodd"/><path fill="#ff0000" d="m512.79346 450.0667l-0.9999695 0l0 -8.5625l4.7655945 0l0 0.875l-3.765625 0l0 3.140625l3.546875 0l0 0.875l-3.546875 0l0 3.671875zm6.0214844 -6.421875l0 6.421875l-0.96875 0l0 -6.421875l0.96875 0zm-0.46875 -2.40625q0.234375 0 0.40625 0.15625q0.171875 0.15625 0.171875 0.484375q0 0.328125 -0.171875 0.484375q-0.171875 0.15625 -0.40625 0.15625q-0.265625 0 -0.4375 -0.15625q-0.15625 -0.15625 -0.15625 -0.484375q0 -0.328125 0.15625 -0.484375q0.171875 -0.15625 0.4375 -0.15625zm5.435547 2.28125q0.203125 0 0.40625 0.03125q0.21875 0.015625 0.375 0.046875l-0.125 0.90625q-0.15625 -0.046875 -0.34375 -0.0625q-0.1875 -0.03125 -0.359375 -0.03125q-0.390625 0 -0.734375 0.15625q-0.34375 0.15625 -0.609375 0.453125q-0.25 0.28125 -0.40625 0.703125q-0.140625 0.40625 -0.140625 0.890625l0 3.453125l-0.96875 0l0 -6.421875l0.796875 0l0.109375 1.1875l0.046875 0q0.203125 -0.359375 0.484375 -0.65625q0.28125 -0.296875 0.640625 -0.46875q0.375 -0.1875 0.828125 -0.1875zm4.466797 0q0.8125 0 1.390625 0.375q0.59375 0.359375 0.90625 1.015625q0.3125 0.65625 0.3125 1.515625l0 0.609375l-4.4375 0q0.015625 1.125 0.5625 1.71875q0.546875 0.59375 1.546875 0.59375q0.609375 0 1.078125 -0.109375q0.46875 -0.109375 0.96875 -0.328125l0 0.859375q-0.484375 0.21875 -0.96875 0.3125q-0.46875 0.109375 -1.125 0.109375q-0.921875 0 -1.609375 -0.375q-0.6875 -0.390625 -1.078125 -1.125q-0.375 -0.734375 -0.375 -1.796875q0 -1.03125 0.34375 -1.78125q0.34375 -0.765625 0.984375 -1.171875q0.640625 -0.421875 1.5 -0.421875zm-0.015625 0.796875q-0.78125 0 -1.25 0.515625q-0.453125 0.515625 -0.546875 1.421875l3.40625 0q0 -0.578125 -0.1875 -1.0q-0.171875 -0.4375 -0.53125 -0.6875q-0.34375 -0.25 -0.890625 -0.25zm9.503906 5.734375l-1.140625 -3.734375q-0.078125 -0.234375 -0.140625 -0.46875q-0.0625 -0.234375 -0.125 -0.4375q-0.0625 -0.21875 -0.109375 -0.40625q-0.03125 -0.1875 -0.0625 -0.328125l-0.046875 0q-0.015625 0.140625 -0.0625 0.328125q-0.03125 0.1875 -0.09375 0.40625q-0.0625 0.203125 -0.125 0.453125q-0.0625 0.234375 -0.140625 0.46875l-1.203125 3.71875l-1.09375 0l-1.765625 -6.421875l1.015625 0l0.921875 3.546875q0.09375 0.359375 0.171875 0.703125q0.09375 0.328125 0.15625 0.640625q0.0625 0.296875 0.078125 0.515625l0.046875 0q0.046875 -0.140625 0.078125 -0.34375q0.046875 -0.203125 0.09375 -0.4375q0.0625 -0.234375 0.125 -0.46875q0.078125 -0.234375 0.140625 -0.4375l1.1875 -3.71875l1.046875 0l1.140625 3.71875q0.078125 0.28125 0.15625 0.59375q0.09375 0.296875 0.15625 0.578125q0.078125 0.28125 0.109375 0.515625l0.046875 0q0.03125 -0.203125 0.09375 -0.5q0.0625 -0.296875 0.140625 -0.640625q0.09375 -0.359375 0.1875 -0.71875l0.9375 -3.546875l0.984375 0l-1.765625 6.421875l-1.140625 0zm6.470703 -6.515625q1.15625 0 1.703125 0.515625q0.5625 0.515625 0.5625 1.65625l0 4.359375l-0.703125 0l-0.1875 -0.953125l-0.046875 0q-0.265625 0.359375 -0.5625 0.59375q-0.296875 0.234375 -0.6875 0.359375q-0.375 0.125 -0.9375 0.125q-0.578125 0 -1.03125 -0.203125q-0.453125 -0.21875 -0.71875 -0.625q-0.265625 -0.421875 -0.265625 -1.0625q0 -0.953125 0.765625 -1.46875q0.765625 -0.515625 2.328125 -0.5625l1.09375 -0.046875l0 -0.40625q0 -0.828125 -0.359375 -1.15625q-0.34375 -0.34375 -1.0 -0.34375q-0.5 0 -0.96875 0.15625q-0.453125 0.140625 -0.859375 0.34375l-0.296875 -0.734375q0.4375 -0.234375 1.0 -0.390625q0.5625 -0.15625 1.171875 -0.15625zm1.3125 3.359375l-0.984375 0.046875q-1.203125 0.046875 -1.703125 0.390625q-0.484375 0.34375 -0.484375 0.984375q0 0.546875 0.328125 0.8125q0.34375 0.265625 0.890625 0.265625q0.859375 0 1.40625 -0.46875q0.546875 -0.484375 0.546875 -1.4375l0 -0.59375zm3.9335938 3.171875l-0.96875 0l0 -9.125l0.96875 0l0 9.125zm3.0292969 0l-0.96875 0l0 -9.125l0.96875 0l0 9.125z" fill-rule="nonzero"/><path fill="#000000" fill-opacity="0.0" d="m242.0433 337.3504l272.59842 0" fill-rule="evenodd"/><path stroke="#000000" stroke-width="1.0" stroke-linejoin="round" stroke-linecap="butt" d="m242.0433 337.3504l266.59842 0" fill-rule="evenodd"/><path fill="#000000" stroke="#000000" stroke-width="1.0" stroke-linecap="butt" d="m508.64172 339.00214l4.538086 -1.6517334l-4.538086 -1.6517334z" fill-rule="evenodd"/><path fill="#000000" fill-opacity="0.0" d="m289.38574 303.42783l195.3386 0l0 33.921265l-195.3386 0z" fill-rule="evenodd"/><path fill="#000000" d="m346.39975 322.4272q0 0.765625 -0.375 1.296875q-0.375 0.53125 -1.0625 0.828125q-0.671875 0.28125 -1.59375 0.28125q-0.484375 0 -0.921875 -0.046875q-0.421875 -0.046875 -0.796875 -0.140625q-0.359375 -0.09375 -0.640625 -0.21875l0 -0.953125q0.453125 0.171875 1.078125 0.328125q0.640625 0.15625 1.328125 0.15625q0.640625 0 1.078125 -0.171875q0.453125 -0.171875 0.6875 -0.484375q0.234375 -0.328125 0.234375 -0.796875q0 -0.4375 -0.203125 -0.734375q-0.1875 -0.296875 -0.640625 -0.53125q-0.4375 -0.25 -1.21875 -0.515625q-0.546875 -0.203125 -0.96875 -0.421875q-0.40625 -0.234375 -0.6875 -0.53125q-0.28125 -0.296875 -0.421875 -0.671875q-0.140625 -0.390625 -0.140625 -0.890625q0 -0.6875 0.34375 -1.171875q0.34375 -0.5 0.953125 -0.75q0.625 -0.265625 1.4375 -0.265625q0.6875 0 1.265625 0.125q0.578125 0.125 1.0625 0.34375l-0.3125 0.859375q-0.453125 -0.1875 -0.984375 -0.3125q-0.515625 -0.140625 -1.0625 -0.140625q-0.546875 0 -0.921875 0.171875q-0.375 0.15625 -0.578125 0.453125q-0.203125 0.28125 -0.203125 0.6875q0 0.453125 0.1875 0.75q0.1875 0.296875 0.609375 0.53125q0.421875 0.234375 1.109375 0.484375q0.765625 0.28125 1.28125 0.59375q0.53125 0.296875 0.796875 0.75q0.28125 0.4375 0.28125 1.109375zm4.080078 -4.265625q0.8125 0 1.390625 0.375q0.59375 0.359375 0.90625 1.015625q0.3125 0.65625 0.3125 1.515625l0 0.609375l-4.4375 0q0.015625 1.125 0.5625 1.71875q0.546875 0.59375 1.546875 0.59375q0.609375 0 1.078125 -0.109375q0.46875 -0.109375 0.96875 -0.328125l0 0.859375q-0.484375 0.21875 -0.96875 0.3125q-0.46875 0.109375 -1.125 0.109375q-0.921875 0 -1.609375 -0.375q-0.6875 -0.390625 -1.078125 -1.125q-0.375 -0.734375 -0.375 -1.796875q0 -1.03125 0.34375 -1.78125q0.34375 -0.765625 0.984375 -1.171875q0.640625 -0.421875 1.5 -0.421875zm-0.015625 0.796875q-0.78125 0 -1.25 0.515625q-0.453125 0.515625 -0.546875 1.421875l3.40625 0q0 -0.578125 -0.1875 -1.0q-0.171875 -0.4375 -0.53125 -0.6875q-0.34375 -0.25 -0.890625 -0.25zm6.8476562 5.875q-0.859375 0 -1.53125 -0.359375q-0.65625 -0.359375 -1.03125 -1.09375q-0.359375 -0.734375 -0.359375 -1.84375q0 -1.171875 0.390625 -1.90625q0.390625 -0.75 1.0625 -1.109375q0.6875 -0.359375 1.5625 -0.359375q0.484375 0 0.921875 0.109375q0.453125 0.09375 0.75 0.234375l-0.296875 0.8125q-0.296875 -0.109375 -0.6875 -0.203125q-0.375 -0.09375 -0.703125 -0.09375q-0.671875 0 -1.125 0.296875q-0.4375 0.28125 -0.65625 0.84375q-0.21875 0.546875 -0.21875 1.359375q0 0.78125 0.21875 1.328125q0.21875 0.546875 0.640625 0.84375q0.421875 0.28125 1.0625 0.28125q0.515625 0 0.921875 -0.09375q0.40625 -0.109375 0.734375 -0.265625l0 0.875q-0.3125 0.15625 -0.71875 0.25q-0.390625 0.09375 -0.9375 0.09375zm8.716797 -3.34375q0 0.78125 -0.203125 1.40625q-0.203125 0.625 -0.59375 1.0625q-0.390625 0.421875 -0.9375 0.65625q-0.546875 0.21875 -1.234375 0.21875q-0.640625 0 -1.1875 -0.21875q-0.53125 -0.234375 -0.921875 -0.65625q-0.390625 -0.4375 -0.609375 -1.0625q-0.203125 -0.625 -0.203125 -1.40625q0 -1.0625 0.359375 -1.796875q0.359375 -0.75 1.015625 -1.140625q0.671875 -0.390625 1.59375 -0.390625q0.875 0 1.53125 0.40625q0.65625 0.390625 1.015625 1.140625q0.375 0.734375 0.375 1.78125zm-4.890625 0q0 0.765625 0.203125 1.34375q0.21875 0.5625 0.640625 0.875q0.421875 0.3125 1.09375 0.3125q0.671875 0 1.09375 -0.3125q0.4375 -0.3125 0.640625 -0.875q0.21875 -0.578125 0.21875 -1.34375q0 -0.765625 -0.21875 -1.328125q-0.203125 -0.5625 -0.625 -0.859375q-0.421875 -0.3125 -1.109375 -0.3125q-1.0 0 -1.46875 0.671875q-0.46875 0.65625 -0.46875 1.828125zm9.609375 -3.328125q1.140625 0 1.71875 0.5625q0.59375 0.5625 0.59375 1.796875l0 4.1875l-0.953125 0l0 -4.125q0 -0.796875 -0.375 -1.1875q-0.359375 -0.40625 -1.109375 -0.40625q-1.078125 0 -1.515625 0.609375q-0.421875 0.59375 -0.421875 1.75l0 3.359375l-0.96875 0l0 -6.421875l0.78125 0l0.140625 0.921875l0.0625 0q0.203125 -0.34375 0.515625 -0.5625q0.3125 -0.234375 0.703125 -0.359375q0.40625 -0.125 0.828125 -0.125zm6.609375 6.671875q-1.21875 0 -1.9375 -0.828125q-0.703125 -0.84375 -0.703125 -2.484375q0 -1.65625 0.71875 -2.5q0.734375 -0.859375 1.9375 -0.859375q0.515625 0 0.890625 0.140625q0.375 0.140625 0.65625 0.375q0.28125 0.21875 0.46875 0.5l0.0625 0q-0.015625 -0.1875 -0.046875 -0.5q-0.015625 -0.3125 -0.015625 -0.515625l0 -2.578125l0.96875 0l0 9.125l-0.78125 0l-0.15625 -0.921875l-0.03125 0q-0.1875 0.296875 -0.46875 0.53125q-0.28125 0.234375 -0.671875 0.375q-0.375 0.140625 -0.890625 0.140625zm0.15625 -0.8125q1.03125 0 1.453125 -0.578125q0.421875 -0.59375 0.421875 -1.75l0 -0.171875q0 -1.234375 -0.40625 -1.890625q-0.40625 -0.65625 -1.46875 -0.65625q-0.90625 0 -1.359375 0.6875q-0.4375 0.6875 -0.4375 1.875q0 1.1875 0.4375 1.84375q0.453125 0.640625 1.359375 0.640625zm14.990234 -5.859375q1.0625 0 1.59375 0.5625q0.546875 0.546875 0.546875 1.78125l0 4.203125l-0.96875 0l0 -4.15625q0 -0.78125 -0.34375 -1.171875q-0.328125 -0.390625 -0.984375 -0.390625q-0.9375 0 -1.359375 0.546875q-0.421875 0.53125 -0.421875 1.578125l0 3.59375l-0.96875 0l0 -4.15625q0 -0.53125 -0.15625 -0.875q-0.140625 -0.34375 -0.4375 -0.515625q-0.296875 -0.171875 -0.75 -0.171875q-0.625 0 -1.015625 0.265625q-0.390625 0.265625 -0.5625 0.78125q-0.171875 0.515625 -0.171875 1.265625l0 3.40625l-0.96875 0l0 -6.421875l0.78125 0l0.140625 0.90625l0.0625 0q0.1875 -0.328125 0.484375 -0.5625q0.296875 -0.234375 0.65625 -0.34375q0.359375 -0.125 0.765625 -0.125q0.734375 0 1.234375 0.28125q0.5 0.265625 0.71875 0.828125l0.046875 0q0.3125 -0.5625 0.859375 -0.828125q0.5625 -0.28125 1.21875 -0.28125zm6.609375 0q0.8125 0 1.390625 0.375q0.59375 0.359375 0.90625 1.015625q0.3125 0.65625 0.3125 1.515625l0 0.609375l-4.4375 0q0.015625 1.125 0.5625 1.71875q0.546875 0.59375 1.546875 0.59375q0.609375 0 1.078125 -0.109375q0.46875 -0.109375 0.96875 -0.328125l0 0.859375q-0.484375 0.21875 -0.96875 0.3125q-0.46875 0.109375 -1.125 0.109375q-0.921875 0 -1.609375 -0.375q-0.6875 -0.390625 -1.078125 -1.125q-0.375 -0.734375 -0.375 -1.796875q0 -1.03125 0.34375 -1.78125q0.34375 -0.765625 0.984375 -1.171875q0.640625 -0.421875 1.5 -0.421875zm-0.015625 0.796875q-0.78125 0 -1.25 0.515625q-0.453125 0.515625 -0.546875 1.421875l3.40625 0q0 -0.578125 -0.1875 -1.0q-0.171875 -0.4375 -0.53125 -0.6875q-0.34375 -0.25 -0.890625 -0.25zm8.441406 3.984375q0 0.625 -0.3125 1.046875q-0.3125 0.40625 -0.890625 0.625q-0.5625 0.21875 -1.359375 0.21875q-0.671875 0 -1.171875 -0.109375q-0.484375 -0.109375 -0.84375 -0.296875l0 -0.90625q0.390625 0.203125 0.9375 0.359375q0.546875 0.15625 1.109375 0.15625q0.828125 0 1.203125 -0.265625q0.375 -0.28125 0.375 -0.734375q0 -0.265625 -0.15625 -0.46875q-0.140625 -0.203125 -0.5 -0.390625q-0.34375 -0.1875 -0.96875 -0.421875q-0.609375 -0.234375 -1.0625 -0.46875q-0.4375 -0.234375 -0.6875 -0.5625q-0.25 -0.328125 -0.25 -0.875q0 -0.8125 0.65625 -1.25q0.671875 -0.4375 1.734375 -0.4375q0.59375 0 1.09375 0.125q0.5 0.109375 0.953125 0.296875l-0.328125 0.78125q-0.40625 -0.171875 -0.859375 -0.28125q-0.453125 -0.125 -0.921875 -0.125q-0.671875 0 -1.03125 0.234375q-0.359375 0.21875 -0.359375 0.609375q0 0.296875 0.15625 0.5q0.171875 0.1875 0.546875 0.359375q0.375 0.15625 0.96875 0.390625q0.609375 0.21875 1.046875 0.46875q0.4375 0.234375 0.671875 0.578125q0.25 0.328125 0.25 0.84375zm5.71875 0q0 0.625 -0.3125 1.046875q-0.3125 0.40625 -0.890625 0.625q-0.5625 0.21875 -1.359375 0.21875q-0.671875 0 -1.171875 -0.109375q-0.484375 -0.109375 -0.84375 -0.296875l0 -0.90625q0.390625 0.203125 0.9375 0.359375q0.546875 0.15625 1.109375 0.15625q0.828125 0 1.203125 -0.265625q0.375 -0.28125 0.375 -0.734375q0 -0.265625 -0.15625 -0.46875q-0.140625 -0.203125 -0.5 -0.390625q-0.34375 -0.1875 -0.96875 -0.421875q-0.609375 -0.234375 -1.0625 -0.46875q-0.4375 -0.234375 -0.6875 -0.5625q-0.25 -0.328125 -0.25 -0.875q0 -0.8125 0.65625 -1.25q0.671875 -0.4375 1.734375 -0.4375q0.59375 0 1.09375 0.125q0.5 0.109375 0.953125 0.296875l-0.328125 0.78125q-0.40625 -0.171875 -0.859375 -0.28125q-0.453125 -0.125 -0.921875 -0.125q-0.671875 0 -1.03125 0.234375q-0.359375 0.21875 -0.359375 0.609375q0 0.296875 0.15625 0.5q0.171875 0.1875 0.546875 0.359375q0.375 0.15625 0.96875 0.390625q0.609375 0.21875 1.046875 0.46875q0.4375 0.234375 0.671875 0.578125q0.25 0.328125 0.25 0.84375zm3.953125 -4.765625q1.15625 0 1.703125 0.515625q0.5625 0.515625 0.5625 1.65625l0 4.359375l-0.703125 0l-0.1875 -0.953125l-0.046875 0q-0.265625 0.359375 -0.5625 0.59375q-0.296875 0.234375 -0.6875 0.359375q-0.375 0.125 -0.9375 0.125q-0.578125 0 -1.03125 -0.203125q-0.453125 -0.21875 -0.71875 -0.625q-0.265625 -0.421875 -0.265625 -1.0625q0 -0.953125 0.765625 -1.46875q0.765625 -0.515625 2.328125 -0.5625l1.09375 -0.046875l0 -0.40625q0 -0.828125 -0.359375 -1.15625q-0.34375 -0.34375 -1.0 -0.34375q-0.5 0 -0.96875 0.15625q-0.453125 0.140625 -0.859375 0.34375l-0.296875 -0.734375q0.4375 -0.234375 1.0 -0.390625q0.5625 -0.15625 1.171875 -0.15625zm1.3125 3.359375l-0.984375 0.046875q-1.203125 0.046875 -1.703125 0.390625q-0.484375 0.34375 -0.484375 0.984375q0 0.546875 0.328125 0.8125q0.34375 0.265625 0.890625 0.265625q0.859375 0 1.40625 -0.46875q0.546875 -0.484375 0.546875 -1.4375l0 -0.59375zm4.7460938 6.0625q-1.265625 0 -1.953125 -0.484375q-0.671875 -0.46875 -0.671875 -1.3125q0 -0.609375 0.375 -1.046875q0.390625 -0.421875 1.0625 -0.5625q-0.25 -0.109375 -0.4375 -0.34375q-0.171875 -0.234375 -0.171875 -0.546875q0 -0.34375 0.1875 -0.609375q0.203125 -0.265625 0.609375 -0.515625q-0.5 -0.203125 -0.8125 -0.6875q-0.3125 -0.5 -0.3125 -1.140625q0 -0.703125 0.28125 -1.1875q0.296875 -0.484375 0.828125 -0.734375q0.546875 -0.265625 1.328125 -0.265625q0.171875 0 0.34375 0.015625q0.171875 0.015625 0.328125 0.046875q0.15625 0.015625 0.28125 0.046875l2.203125 0l0 0.625l-1.1875 0.15625q0.171875 0.21875 0.28125 0.546875q0.125 0.328125 0.125 0.71875q0 0.953125 -0.65625 1.53125q-0.640625 0.5625 -1.78125 0.5625q-0.265625 0 -0.546875 -0.046875q-0.28125 0.15625 -0.4375 0.34375q-0.15625 0.1875 -0.15625 0.453125q0 0.1875 0.109375 0.296875q0.125 0.109375 0.34375 0.15625q0.21875 0.046875 0.515625 0.046875l1.140625 0q1.046875 0 1.59375 0.4375q0.5625 0.4375 0.5625 1.296875q0 1.0625 -0.875 1.625q-0.859375 0.578125 -2.5 0.578125zm0.03125 -0.765625q0.796875 0 1.3125 -0.171875q0.53125 -0.15625 0.796875 -0.453125q0.265625 -0.296875 0.265625 -0.71875q0 -0.390625 -0.1875 -0.59375q-0.171875 -0.1875 -0.515625 -0.25q-0.328125 -0.078125 -0.828125 -0.078125l-1.109375 0q-0.4375 0 -0.765625 0.140625q-0.3125 0.140625 -0.484375 0.390625q-0.171875 0.265625 -0.171875 0.671875q0 0.515625 0.4375 0.78125q0.4375 0.28125 1.25 0.28125zm0.25 -5.140625q0.703125 0 1.046875 -0.34375q0.359375 -0.359375 0.359375 -1.03125q0 -0.71875 -0.359375 -1.078125q-0.359375 -0.359375 -1.046875 -0.359375q-0.671875 0 -1.03125 0.375q-0.359375 0.359375 -0.359375 1.078125q0 0.65625 0.359375 1.015625q0.359375 0.34375 1.03125 0.34375zm6.921875 -3.53125q0.8125 0 1.390625 0.375q0.59375 0.359375 0.90625 1.015625q0.3125 0.65625 0.3125 1.515625l0 0.609375l-4.4375 0q0.015625 1.125 0.5625 1.71875q0.546875 0.59375 1.546875 0.59375q0.609375 0 1.078125 -0.109375q0.46875 -0.109375 0.96875 -0.328125l0 0.859375q-0.484375 0.21875 -0.96875 0.3125q-0.46875 0.109375 -1.125 0.109375q-0.921875 0 -1.609375 -0.375q-0.6875 -0.390625 -1.078125 -1.125q-0.375 -0.734375 -0.375 -1.796875q0 -1.03125 0.34375 -1.78125q0.34375 -0.765625 0.984375 -1.171875q0.640625 -0.421875 1.5 -0.421875zm-0.015625 0.796875q-0.78125 0 -1.25 0.515625q-0.453125 0.515625 -0.546875 1.421875l3.40625 0q0 -0.578125 -0.1875 -1.0q-0.171875 -0.4375 -0.53125 -0.6875q-0.34375 -0.25 -0.890625 -0.25z" fill-rule="nonzero"/></g></svg>