<svg version="1.1" viewBox="0.0 0.0 895.0419947506562 637.7191601049868" fill="none" stroke="none" stroke-linecap="square" stroke-miterlimit="10" xmlns:xlink="http://www.w3.org/1999/xlink" xmlns="http://www.w3.org/2000/svg"><clipPath id="p.0"><path d="m0 0l895.042 0l0 637.7192l-895.042 0l0 -637.7192z" clip-rule="nonzero"/></clipPath><g clip-path="url(#p.0)"><path fill="#000000" fill-opacity="0.0" d="m0 0l895.042 0l0 637.7192l-895.042 0z" fill-rule="evenodd"/><path fill="#000000" fill-opacity="0.0" d="m714.6221 82.456696l0 505.85825" fill-rule="evenodd"/><path stroke="#000000" stroke-width="1.0" stroke-linejoin="round" stroke-linecap="butt" stroke-dasharray="4.0,3.0" d="m714.6221 82.456696l0 505.85825" fill-rule="evenodd"/><path fill="#000000" fill-opacity="0.0" d="m41.834644 40.440945l115.74803 0l0 42.01575l-115.74803 0z" fill-rule="evenodd"/><path fill="#000000" d="m59.51254 56.204693q-0.8125 0 -1.4375 0.3125q-0.609375 0.3125 -1.046875 0.90625q-0.421875 0.59375 -0.640625 1.4375q-0.21875 0.828125 -0.21875 1.875q0 1.421875 0.34375 2.421875q0.359375 0.9843788 1.09375 1.5156288q0.75 0.515625 1.90625 0.515625q0.8125 0 1.625 -0.171875q0.828125 -0.1875 1.78125 -0.53125l0 2.375q-0.890625 0.359375 -1.75 0.515625q-0.84375 0.171875 -1.921875 0.171875q-2.046875 0 -3.375 -0.84375q-1.328125 -0.859375 -1.96875 -2.390625q-0.640625 -1.5468788 -0.640625 -3.5937538q0 -1.515625 0.40625 -2.765625q0.421875 -1.265625 1.203125 -2.171875q0.796875 -0.921875 1.96875 -1.421875q1.171875 -0.515625 2.671875 -0.515625q1.0 0 2.0 0.25q1.0 0.25 1.90625 0.6875l-0.90625 2.296875q-0.75 -0.34375 -1.515625 -0.609375q-0.75 -0.265625 -1.484375 -0.265625zm15.2785225 6.046875q0 1.28125 -0.34375 2.2656288q-0.34375 0.96875 -1.0 1.65625q-0.640625 0.671875 -1.5625 1.03125q-0.921875 0.34375 -2.0625 0.34375q-1.078125 0 -1.984375 -0.34375q-0.890625 -0.359375 -1.546875 -1.03125q-0.65625 -0.6875 -1.015625 -1.65625q-0.359375 -0.9843788 -0.359375 -2.2656288q0 -1.703125 0.59375 -2.875q0.609375 -1.171875 1.71875 -1.78125q1.109375 -0.609375 2.640625 -0.609375q1.4375 0 2.546875 0.609375q1.109375 0.609375 1.734375 1.78125q0.640625 1.171875 0.640625 2.875zm-7.046875 0q0 1.0 0.21875 1.6875q0.21875 0.6875038 0.671875 1.0312538q0.46875 0.34375 1.21875 0.34375q0.734375 0 1.1875 -0.34375q0.46875 -0.34375 0.6875 -1.0312538q0.21875 -0.6875 0.21875 -1.6875q0 -1.015625 -0.21875 -1.671875q-0.21875 -0.671875 -0.6875 -1.015625q-0.453125 -0.34375 -1.203125 -0.34375q-1.09375 0 -1.59375 0.765625q-0.5 0.75 -0.5 2.265625zm15.113342 -5.265625q1.640625 0 2.625 0.890625q1.0 0.890625 1.0 2.84375l0 6.640629l-2.78125 0l0 -5.953129q0 -1.09375 -0.40625 -1.640625q-0.390625 -0.5625 -1.234375 -0.5625q-1.265625 0 -1.734375 0.875q-0.46875 0.859375 -0.46875 2.484375l0 4.796879l-2.78125 0l0 -10.187504l2.125 0l0.375 1.3125l0.15625 0q0.328125 -0.53125 0.8125 -0.859375q0.484375 -0.328125 1.078125 -0.484375q0.609375 -0.15625 1.234375 -0.15625zm13.589508 7.343754q0 1.046875 -0.484375 1.765625q-0.484375 0.703125 -1.453125 1.078125q-0.96875 0.375 -2.40625 0.375q-1.0625 0 -1.828125 -0.140625q-0.765625 -0.140625 -1.53125 -0.453125l0 -2.296875q0.828125 0.375 1.78125 0.625q0.953125 0.234375 1.671875 0.234375q0.8125 0 1.15625 -0.234375q0.359375 -0.25 0.359375 -0.640625q0 -0.265625 -0.15625 -0.46875q-0.140625 -0.20312881 -0.609375 -0.4531288q-0.453125 -0.265625 -1.453125 -0.6875q-0.953125 -0.40625 -1.5625 -0.8125q-0.609375 -0.40625 -0.90625 -0.96875q-0.296875 -0.5625 -0.296875 -1.421875q0 -1.421875 1.09375 -2.125q1.09375 -0.71875 2.9375 -0.71875q0.953125 0 1.8125 0.1875q0.859375 0.1875 1.765625 0.609375l-0.84375 2.015625q-0.75 -0.328125 -1.421875 -0.53125q-0.671875 -0.21875 -1.359375 -0.21875q-0.609375 0 -0.921875 0.171875q-0.3125 0.15625 -0.3125 0.484375q0 0.25 0.15625 0.453125q0.171875 0.1875 0.625 0.421875q0.46875 0.21875 1.359375 0.59375q0.859375 0.34375 1.5 0.734375q0.640625 0.390625 0.984375 0.96875q0.34375 0.5625 0.34375 1.4531288zm11.507843 -7.156254l0 10.187504l-2.125 0l-0.375 -1.296875l-0.140625 0q-0.328125 0.515625 -0.828125 0.84375q-0.484375 0.328125 -1.078125 0.484375q-0.59375 0.15625 -1.234375 0.15625q-1.09375 0 -1.90625 -0.390625q-0.796875 -0.390625 -1.25 -1.203125q-0.453125 -0.828125 -0.453125 -2.1406288l0 -6.640625l2.78125 0l0 5.953125q0 1.0937538 0.390625 1.6562538q0.390625 0.546875 1.25 0.546875q0.84375 0 1.328125 -0.390625q0.484375 -0.390625 0.671875 -1.1406288q0.203125 -0.75 0.203125 -1.828125l0 -4.796875l2.765625 0zm14.886383 -0.1875q1.734375 0 2.609375 0.890625q0.890625 0.890625 0.890625 2.84375l0 6.640629l-2.78125 0l0 -5.953129q0 -1.09375 -0.375 -1.640625q-0.375 -0.5625 -1.15625 -0.5625q-1.109375 0 -1.578125 0.796875q-0.453125 0.78125 -0.453125 2.25l0 5.109379l-2.78125 0l0 -5.953129q0 -0.71875 -0.171875 -1.203125q-0.15625 -0.5 -0.5 -0.75q-0.328125 -0.25 -0.859375 -0.25q-0.765625 0 -1.21875 0.390625q-0.4375 0.390625 -0.625 1.140625q-0.1875 0.75 -0.1875 1.828125l0 4.796879l-2.78125 0l0 -10.187504l2.125 0l0.375 1.3125l0.15625 0q0.3125 -0.53125 0.78125 -0.859375q0.46875 -0.328125 1.03125 -0.484375q0.5625 -0.15625 1.140625 -0.15625q1.125 0 1.90625 0.375q0.78125 0.359375 1.203125 1.125l0.234375 0q0.46875 -0.796875 1.296875 -1.140625q0.828125 -0.359375 1.71875 -0.359375zm10.553574 0q1.40625 0 2.421875 0.546875q1.03125 0.53125 1.578125 1.5625q0.5625 1.03125 0.5625 2.515625l0 1.34375l-6.5625 0q0.046875 1.1875038 0.703125 1.8593788q0.65625 0.65625 1.828125 0.65625q0.984375 0 1.796875 -0.1875q0.8125 -0.203125 1.65625 -0.609375l0 2.15625q-0.75 0.375 -1.578125 0.546875q-0.828125 0.171875 -2.0 0.171875q-1.53125 0 -2.71875 -0.5625q-1.171875 -0.578125 -1.84375 -1.734375q-0.65625 -1.15625 -0.65625 -2.9062538q0 -1.796875 0.59375 -2.984375q0.609375 -1.1875 1.6875 -1.78125q1.09375 -0.59375 2.53125 -0.59375zm0.015625 1.96875q-0.8125 0 -1.34375 0.53125q-0.53125 0.515625 -0.609375 1.625l3.890625 0q0 -0.625 -0.21875 -1.09375q-0.21875 -0.484375 -0.640625 -0.765625q-0.421875 -0.296875 -1.078125 -0.296875zm12.491241 -1.96875q0.203125 0 0.484375 0.03125q0.28125 0.015625 0.453125 0.046875l-0.203125 2.609375q-0.140625 -0.046875 -0.390625 -0.0625q-0.25 -0.03125 -0.4375 -0.03125q-0.53125 0 -1.046875 0.140625q-0.5 0.140625 -0.90625 0.453125q-0.390625 0.296875 -0.625 0.796875q-0.234375 0.484375 -0.234375 1.203125l0 5.187504l-2.78125 0l0 -10.187504l2.109375 0l0.40625 1.71875l0.140625 0q0.296875 -0.515625 0.75 -0.953125q0.453125 -0.4375 1.03125 -0.6875q0.578125 -0.265625 1.25 -0.265625z" fill-rule="nonzero"/><path fill="#000000" fill-opacity="0.0" d="m349.29135 40.440945l115.74802 0l0 42.01575l-115.74802 0z" fill-rule="evenodd"/><path fill="#000000" d="m377.02686 54.048443l4.15625 0q2.65625 0 4.015625 0.75q1.375 0.734375 1.375 2.609375q0 0.765625 -0.25 1.375q-0.234375 0.609375 -0.703125 1.0q-0.453125 0.390625 -1.09375 0.515625l0 0.078125q0.65625 0.140625 1.1875 0.484375q0.546875 0.328125 0.859375 0.96875q0.328125 0.625 0.328125 1.671875q0 1.2031288 -0.59375 2.0781288q-0.59375 0.859375 -1.6875 1.328125q-1.09375 0.453125 -2.609375 0.453125l-4.984375 0l0 -13.312504zm2.828125 5.265625l1.640625 0q1.234375 0 1.703125 -0.375q0.46875 -0.390625 0.46875 -1.15625q0 -0.765625 -0.5625 -1.09375q-0.546875 -0.328125 -1.765625 -0.328125l-1.484375 0l0 2.953125zm0 2.25l0 3.4687538l1.84375 0q1.265625 0 1.765625 -0.484375q0.515625 -0.5 0.515625 -1.3281288q0 -0.5 -0.21875 -0.875q-0.21875 -0.375 -0.734375 -0.578125q-0.515625 -0.203125 -1.421875 -0.203125l-1.75 0zm15.175293 -4.578125q0.203125 0 0.484375 0.03125q0.28125 0.015625 0.453125 0.046875l-0.203125 2.609375q-0.140625 -0.046875 -0.390625 -0.0625q-0.25 -0.03125 -0.4375 -0.03125q-0.53125 0 -1.046875 0.140625q-0.5 0.140625 -0.90625 0.453125q-0.390625 0.296875 -0.625 0.796875q-0.234375 0.484375 -0.234375 1.203125l0 5.187504l-2.78125 0l0 -10.187504l2.109375 0l0.40625 1.71875l0.140625 0q0.296875 -0.515625 0.75 -0.953125q0.453125 -0.4375 1.03125 -0.6875q0.578125 -0.265625 1.25 -0.265625zm12.049957 5.265625q0 1.28125 -0.34375 2.2656288q-0.34375 0.96875 -1.0 1.65625q-0.640625 0.671875 -1.5625 1.03125q-0.921875 0.34375 -2.0625 0.34375q-1.078125 0 -1.984375 -0.34375q-0.890625 -0.359375 -1.546875 -1.03125q-0.65625 -0.6875 -1.015625 -1.65625q-0.359375 -0.9843788 -0.359375 -2.2656288q0 -1.703125 0.59375 -2.875q0.609375 -1.171875 1.71875 -1.78125q1.109375 -0.609375 2.640625 -0.609375q1.4375 0 2.546875 0.609375q1.109375 0.609375 1.734375 1.78125q0.640625 1.171875 0.640625 2.875zm-7.046875 0q0 1.0 0.21875 1.6875q0.21875 0.6875038 0.671875 1.0312538q0.46875 0.34375 1.21875 0.34375q0.734375 0 1.1875 -0.34375q0.46875 -0.34375 0.6875 -1.0312538q0.21875 -0.6875 0.21875 -1.6875q0 -1.015625 -0.21875 -1.671875q-0.21875 -0.671875 -0.6875 -1.015625q-0.453125 -0.34375 -1.203125 -0.34375q-1.09375 0 -1.59375 0.765625q-0.5 0.75 -0.5 2.265625zm12.113342 -9.0625l0 6.34375q0 0.5625 -0.046875 1.140625q-0.046875 0.578125 -0.09375 1.15625l0.03125 0q0.28125 -0.40625 0.578125 -0.796875q0.296875 -0.390625 0.640625 -0.765625l2.84375 -3.09375l3.140625 0l-4.046875 4.421875l4.28125 5.765629l-3.203125 0l-2.9375 -4.125004l-1.1875 0.9531288l0 3.171875l-2.78125 0l0 -14.171879l2.78125 0zm12.990936 3.796875q1.40625 0 2.421875 0.546875q1.03125 0.53125 1.578125 1.5625q0.5625 1.03125 0.5625 2.515625l0 1.34375l-6.5625 0q0.046875 1.1875038 0.703125 1.8593788q0.65625 0.65625 1.828125 0.65625q0.984375 0 1.796875 -0.1875q0.8125 -0.203125 1.65625 -0.609375l0 2.15625q-0.75 0.375 -1.578125 0.546875q-0.828125 0.171875 -2.0 0.171875q-1.53125 0 -2.71875 -0.5625q-1.171875 -0.578125 -1.84375 -1.734375q-0.65625 -1.15625 -0.65625 -2.9062538q0 -1.796875 0.59375 -2.984375q0.609375 -1.1875 1.6875 -1.78125q1.09375 -0.59375 2.53125 -0.59375zm0.015625 1.96875q-0.8125 0 -1.34375 0.53125q-0.53125 0.515625 -0.609375 1.625l3.890625 0q0 -0.625 -0.21875 -1.09375q-0.21875 -0.484375 -0.640625 -0.765625q-0.421875 -0.296875 -1.078125 -0.296875zm12.491241 -1.96875q0.203125 0 0.484375 0.03125q0.28125 0.015625 0.453125 0.046875l-0.203125 2.609375q-0.140625 -0.046875 -0.390625 -0.0625q-0.25 -0.03125 -0.4375 -0.03125q-0.53125 0 -1.046875 0.140625q-0.5 0.140625 -0.90625 0.453125q-0.390625 0.296875 -0.625 0.796875q-0.234375 0.484375 -0.234375 1.203125l0 5.187504l-2.78125 0l0 -10.187504l2.109375 0l0.40625 1.71875l0.140625 0q0.296875 -0.515625 0.75 -0.953125q0.453125 -0.4375 1.03125 -0.6875q0.578125 -0.265625 1.25 -0.265625z" fill-rule="nonzero"/><path fill="#000000" fill-opacity="0.0" d="m41.834644 588.32544l115.74803 0l0 42.015747l-115.74803 0z" fill-rule="evenodd"/><path fill="#000000" fill-opacity="0.0" d="m99.708664 82.456696l0 505.85825" fill-rule="evenodd"/><path stroke="#000000" stroke-width="1.0" stroke-linejoin="round" stroke-linecap="butt" stroke-dasharray="4.0,3.0" d="m99.708664 82.456696l0 505.85825" fill-rule="evenodd"/><path fill="#000000" fill-opacity="0.0" d="m349.29135 588.32544l115.74802 0l0 42.015747l-115.74802 0z" fill-rule="evenodd"/><path fill="#000000" fill-opacity="0.0" d="m407.16534 82.456696l0 505.85825" fill-rule="evenodd"/><path stroke="#000000" stroke-width="1.0" stroke-linejoin="round" stroke-linecap="butt" stroke-dasharray="4.0,3.0" d="m407.16534 82.456696l0 505.85825" fill-rule="evenodd"/><path fill="#d9d9d9" d="m82.27559 119.46468l0 0c0 -3.209404 2.601738 -5.811142 5.811142 -5.811142l23.243858 0l0 0c1.541214 0 3.0193024 0.61224365 4.1091003 1.7020416c1.089798 1.0898056 1.7020416 2.5678864 1.7020416 4.1091003l0 30.39347c0 3.2093964 -2.601738 5.811142 -5.811142 5.811142l-23.243858 0c-3.209404 0 -5.811142 -2.6017456 -5.811142 -5.811142z" fill-rule="evenodd"/><path fill="#d9d9d9" d="m389.73227 119.46468l0 0c0 -3.209404 2.6017456 -5.811142 5.811157 -5.811142l23.243866 0l0 0c1.5411987 0 3.019287 0.61224365 4.1091003 1.7020416c1.0897827 1.0898056 1.7020264 2.5678864 1.7020264 4.1091003l0 30.39347c0 3.2093964 -2.601715 5.811142 -5.8111267 5.811142l-23.243866 0c-3.2094116 0 -5.811157 -2.6017456 -5.811157 -5.811142z" fill-rule="evenodd"/><path fill="#000000" fill-opacity="0.0" d="m117.14173 134.66142l272.59842 0" fill-rule="evenodd"/><path stroke="#000000" stroke-width="1.0" stroke-linejoin="round" stroke-linecap="butt" d="m117.14173 134.66142l266.59842 0" fill-rule="evenodd"/><path fill="#000000" stroke="#000000" stroke-width="1.0" stroke-linecap="butt" d="m383.74014 136.31316l4.5381165 -1.6517334l-4.5381165 -1.6517334z" fill-rule="evenodd"/><path fill="#000000" fill-opacity="0.0" d="m158.88647 100.74016l189.10236 0l0 33.921265l-189.10236 0z" fill-rule="evenodd"/><path fill="#000000" d="m189.8693 119.73953q0 0.765625 -0.375 1.296875q-0.375 0.53125 -1.0625 0.828125q-0.671875 0.28125 -1.59375 0.28125q-0.484375 0 -0.921875 -0.046875q-0.421875 -0.046875 -0.796875 -0.140625q-0.359375 -0.09375 -0.640625 -0.21875l0 -0.953125q0.453125 0.171875 1.078125 0.328125q0.640625 0.15625 1.328125 0.15625q0.640625 0 1.078125 -0.171875q0.453125 -0.171875 0.6875 -0.484375q0.234375 -0.328125 0.234375 -0.796875q0 -0.4375 -0.203125 -0.734375q-0.1875 -0.296875 -0.640625 -0.53125q-0.4375 -0.25 -1.21875 -0.515625q-0.546875 -0.203125 -0.96875 -0.421875q-0.40625 -0.234375 -0.6875 -0.53125q-0.28125 -0.296875 -0.421875 -0.671875q-0.140625 -0.390625 -0.140625 -0.890625q0 -0.6875 0.34375 -1.171875q0.34375 -0.5 0.953125 -0.75q0.625 -0.265625 1.4375 -0.265625q0.6875 0 1.265625 0.125q0.578125 0.125 1.0625 0.34375l-0.3125 0.859375q-0.453125 -0.1875 -0.984375 -0.3125q-0.515625 -0.140625 -1.0625 -0.140625q-0.546875 0 -0.921875 0.171875q-0.375 0.15625 -0.578125 0.453125q-0.203125 0.28125 -0.203125 0.6875q0 0.453125 0.1875 0.75q0.1875 0.296875 0.609375 0.53125q0.421875 0.234375 1.109375 0.484375q0.765625 0.28125 1.28125 0.59375q0.53125 0.296875 0.796875 0.75q0.28125 0.4375 0.28125 1.109375zm6.908203 -4.140625l0 6.421875l-0.796875 0l-0.140625 -0.90625l-0.046875 0q-0.203125 0.34375 -0.53125 0.578125q-0.3125 0.21875 -0.703125 0.328125q-0.390625 0.125 -0.84375 0.125q-0.75 0 -1.265625 -0.25q-0.515625 -0.25 -0.78125 -0.765625q-0.265625 -0.515625 -0.265625 -1.328125l0 -4.203125l0.984375 0l0 4.140625q0 0.796875 0.359375 1.203125q0.375 0.390625 1.109375 0.390625q0.71875 0 1.140625 -0.265625q0.421875 -0.28125 0.609375 -0.796875q0.1875 -0.53125 0.1875 -1.296875l0 -3.375l0.984375 0zm3.03125 -2.703125l0 2.28125q0 0.390625 -0.03125 0.765625q-0.015625 0.375 -0.015625 0.578125l0.046875 0q0.265625 -0.4375 0.765625 -0.734375q0.5 -0.296875 1.265625 -0.296875q1.203125 0 1.921875 0.84375q0.71875 0.828125 0.71875 2.46875q0 1.078125 -0.328125 1.828125q-0.328125 0.75 -0.921875 1.140625q-0.59375 0.375 -1.40625 0.375q-0.765625 0 -1.265625 -0.28125q-0.484375 -0.296875 -0.75 -0.703125l-0.078125 0l-0.1875 0.859375l-0.703125 0l0 -9.125l0.96875 0zm1.875 3.40625q-0.703125 0 -1.109375 0.28125q-0.40625 0.265625 -0.59375 0.8125q-0.171875 0.546875 -0.171875 1.390625l0 0.046875q0 1.21875 0.40625 1.859375q0.40625 0.640625 1.46875 0.640625q0.890625 0 1.34375 -0.65625q0.453125 -0.65625 0.453125 -1.875q0 -1.25 -0.453125 -1.875q-0.4375 -0.625 -1.34375 -0.625zm8.654297 3.953125q0 0.625 -0.3125 1.046875q-0.3125 0.40625 -0.890625 0.625q-0.5625 0.21875 -1.359375 0.21875q-0.671875 0 -1.171875 -0.109375q-0.484375 -0.109375 -0.84375 -0.296875l0 -0.90625q0.390625 0.203125 0.9375 0.359375q0.546875 0.15625 1.109375 0.15625q0.828125 0 1.203125 -0.265625q0.375 -0.28125 0.375 -0.734375q0 -0.265625 -0.15625 -0.46875q-0.140625 -0.203125 -0.5 -0.390625q-0.34375 -0.1875 -0.96875 -0.421875q-0.609375 -0.234375 -1.0625 -0.46875q-0.4375 -0.234375 -0.6875 -0.5625q-0.25 -0.328125 -0.25 -0.875q0 -0.8125 0.65625 -1.25q0.671875 -0.4375 1.734375 -0.4375q0.59375 0 1.09375 0.125q0.5 0.109375 0.953125 0.296875l-0.328125 0.78125q-0.40625 -0.171875 -0.859375 -0.28125q-0.453125 -0.125 -0.921875 -0.125q-0.671875 0 -1.03125 0.234375q-0.359375 0.21875 -0.359375 0.609375q0 0.296875 0.15625 0.5q0.171875 0.1875 0.546875 0.359375q0.375 0.15625 0.96875 0.390625q0.609375 0.21875 1.046875 0.46875q0.4375 0.234375 0.671875 0.578125q0.25 0.328125 0.25 0.84375zm4.125 1.890625q-0.859375 0 -1.53125 -0.359375q-0.65625 -0.359375 -1.03125 -1.09375q-0.359375 -0.734375 -0.359375 -1.84375q0 -1.171875 0.390625 -1.90625q0.390625 -0.75 1.0625 -1.109375q0.6875 -0.359375 1.5625 -0.359375q0.484375 0 0.921875 0.109375q0.453125 0.09375 0.75 0.234375l-0.296875 0.8125q-0.296875 -0.109375 -0.6875 -0.203125q-0.375 -0.09375 -0.703125 -0.09375q-0.671875 0 -1.125 0.296875q-0.4375 0.28125 -0.65625 0.84375q-0.21875 0.546875 -0.21875 1.359375q0 0.78125 0.21875 1.328125q0.21875 0.546875 0.640625 0.84375q0.421875 0.28125 1.0625 0.28125q0.515625 0 0.921875 -0.09375q0.40625 -0.109375 0.734375 -0.265625l0 0.875q-0.3125 0.15625 -0.71875 0.25q-0.390625 0.09375 -0.9375 0.09375zm6.091797 -6.671875q0.203125 0 0.40625 0.03125q0.21875 0.015625 0.375 0.046875l-0.125 0.90625q-0.15625 -0.046875 -0.34375 -0.0625q-0.1875 -0.03125 -0.359375 -0.03125q-0.390625 0 -0.734375 0.15625q-0.34375 0.15625 -0.609375 0.453125q-0.25 0.28125 -0.40625 0.703125q-0.140625 0.40625 -0.140625 0.890625l0 3.453125l-0.96875 0l0 -6.421875l0.796875 0l0.109375 1.1875l0.046875 0q0.203125 -0.359375 0.484375 -0.65625q0.28125 -0.296875 0.640625 -0.46875q0.375 -0.1875 0.828125 -0.1875zm2.9667969 0.125l0 6.421875l-0.96875 0l0 -6.421875l0.96875 0zm-0.46875 -2.40625q0.234375 0 0.40625 0.15625q0.171875 0.15625 0.171875 0.484375q0 0.328125 -0.171875 0.484375q-0.171875 0.15625 -0.40625 0.15625q-0.265625 0 -0.4375 -0.15625q-0.15625 -0.15625 -0.15625 -0.484375q0 -0.328125 0.15625 -0.484375q0.171875 -0.15625 0.4375 -0.15625zm3.4980469 -0.296875l0 2.28125q0 0.390625 -0.03125 0.765625q-0.015625 0.375 -0.015625 0.578125l0.046875 0q0.265625 -0.4375 0.765625 -0.734375q0.5 -0.296875 1.265625 -0.296875q1.203125 0 1.921875 0.84375q0.71875 0.828125 0.71875 2.46875q0 1.078125 -0.328125 1.828125q-0.328125 0.75 -0.921875 1.140625q-0.59375 0.375 -1.40625 0.375q-0.765625 0 -1.265625 -0.28125q-0.484375 -0.296875 -0.75 -0.703125l-0.078125 0l-0.1875 0.859375l-0.703125 0l0 -9.125l0.96875 0zm1.875 3.40625q-0.703125 0 -1.109375 0.28125q-0.40625 0.265625 -0.59375 0.8125q-0.171875 0.546875 -0.171875 1.390625l0 0.046875q0 1.21875 0.40625 1.859375q0.40625 0.640625 1.46875 0.640625q0.890625 0 1.34375 -0.65625q0.453125 -0.65625 0.453125 -1.875q0 -1.25 -0.453125 -1.875q-0.4375 -0.625 -1.34375 -0.625zm6.966797 -0.828125q0.8125 0 1.390625 0.375q0.59375 0.359375 0.90625 1.015625q0.3125 0.65625 0.3125 1.515625l0 0.609375l-4.4375 0q0.015625 1.125 0.5625 1.71875q0.546875 0.59375 1.546875 0.59375q0.609375 0 1.078125 -0.109375q0.46875 -0.109375 0.96875 -0.328125l0 0.859375q-0.484375 0.21875 -0.96875 0.3125q-0.46875 0.109375 -1.125 0.109375q-0.921875 0 -1.609375 -0.375q-0.6875 -0.390625 -1.078125 -1.125q-0.375 -0.734375 -0.375 -1.796875q0 -1.03125 0.34375 -1.78125q0.34375 -0.765625 0.984375 -1.171875q0.640625 -0.421875 1.5 -0.421875zm-0.015625 0.796875q-0.78125 0 -1.25 0.515625q-0.453125 0.515625 -0.546875 1.421875l3.40625 0q0 -0.578125 -0.1875 -1.0q-0.171875 -0.4375 -0.53125 -0.6875q-0.34375 -0.25 -0.890625 -0.25zm9.464844 5.0625q0.25 0 0.5 -0.03125q0.25 -0.046875 0.40625 -0.109375l0 0.765625q-0.171875 0.078125 -0.46875 0.125q-0.296875 0.0625 -0.59375 0.0625q-0.5 0 -0.921875 -0.171875q-0.421875 -0.1875 -0.671875 -0.609375q-0.234375 -0.4375 -0.234375 -1.203125l0 -3.796875l-0.921875 0l0 -0.484375l0.921875 -0.375l0.390625 -1.390625l0.578125 0l0 1.484375l1.890625 0l0 0.765625l-1.890625 0l0 3.78125q0 0.59375 0.28125 0.890625q0.28125 0.296875 0.734375 0.296875zm7.7460938 -2.53125q0 0.78125 -0.203125 1.40625q-0.203125 0.625 -0.59375 1.0625q-0.390625 0.421875 -0.9375 0.65625q-0.546875 0.21875 -1.234375 0.21875q-0.640625 0 -1.1875 -0.21875q-0.53125 -0.234375 -0.921875 -0.65625q-0.390625 -0.4375 -0.609375 -1.0625q-0.203125 -0.625 -0.203125 -1.40625q0 -1.0625 0.359375 -1.796875q0.359375 -0.75 1.015625 -1.140625q0.671875 -0.390625 1.59375 -0.390625q0.875 0 1.53125 0.40625q0.65625 0.390625 1.015625 1.140625q0.375 0.734375 0.375 1.78125zm-4.890625 0q0 0.765625 0.203125 1.34375q0.21875 0.5625 0.640625 0.875q0.421875 0.3125 1.09375 0.3125q0.671875 0 1.09375 -0.3125q0.4375 -0.3125 0.640625 -0.875q0.21875 -0.578125 0.21875 -1.34375q0 -0.765625 -0.21875 -1.328125q-0.203125 -0.5625 -0.625 -0.859375q-0.421875 -0.3125 -1.109375 -0.3125q-1.0 0 -1.46875 0.671875q-0.46875 0.65625 -0.46875 1.828125zm12.7109375 -3.328125q1.203125 0 1.90625 0.828125q0.71875 0.828125 0.71875 2.484375q0 1.09375 -0.328125 1.84375q-0.328125 0.75 -0.921875 1.140625q-0.59375 0.375 -1.40625 0.375q-0.5 0 -0.890625 -0.140625q-0.390625 -0.140625 -0.671875 -0.359375q-0.265625 -0.234375 -0.453125 -0.5l-0.0625 0q0.015625 0.21875 0.03125 0.546875q0.03125 0.328125 0.03125 0.5625l0 2.640625l-0.96875 0l0 -9.296875l0.796875 0l0.125 0.953125l0.046875 0q0.1875 -0.296875 0.453125 -0.53125q0.28125 -0.25 0.671875 -0.390625q0.390625 -0.15625 0.921875 -0.15625zm-0.171875 0.828125q-0.671875 0 -1.078125 0.265625q-0.40625 0.25 -0.59375 0.765625q-0.1875 0.515625 -0.203125 1.28125l0 0.1875q0 0.8125 0.171875 1.375q0.1875 0.5625 0.59375 0.859375q0.421875 0.296875 1.125 0.296875q0.59375 0 0.984375 -0.328125q0.40625 -0.328125 0.59375 -0.890625q0.203125 -0.578125 0.203125 -1.328125q0 -1.140625 -0.453125 -1.8125q-0.4375 -0.671875 -1.34375 -0.671875zm7.404297 -0.828125q0.203125 0 0.40625 0.03125q0.21875 0.015625 0.375 0.046875l-0.125 0.90625q-0.15625 -0.046875 -0.34375 -0.0625q-0.1875 -0.03125 -0.359375 -0.03125q-0.390625 0 -0.734375 0.15625q-0.34375 0.15625 -0.609375 0.453125q-0.25 0.28125 -0.40625 0.703125q-0.140625 0.40625 -0.140625 0.890625l0 3.453125l-0.96875 0l0 -6.421875l0.796875 0l0.109375 1.1875l0.046875 0q0.203125 -0.359375 0.484375 -0.65625q0.28125 -0.296875 0.640625 -0.46875q0.375 -0.1875 0.828125 -0.1875zm7.529297 3.328125q0 0.78125 -0.203125 1.40625q-0.203125 0.625 -0.59375 1.0625q-0.390625 0.421875 -0.9375 0.65625q-0.546875 0.21875 -1.234375 0.21875q-0.640625 0 -1.1875 -0.21875q-0.53125 -0.234375 -0.921875 -0.65625q-0.390625 -0.4375 -0.609375 -1.0625q-0.203125 -0.625 -0.203125 -1.40625q0 -1.0625 0.359375 -1.796875q0.359375 -0.75 1.015625 -1.140625q0.671875 -0.390625 1.59375 -0.390625q0.875 0 1.53125 0.40625q0.65625 0.390625 1.015625 1.140625q0.375 0.734375 0.375 1.78125zm-4.890625 0q0 0.765625 0.203125 1.34375q0.21875 0.5625 0.640625 0.875q0.421875 0.3125 1.09375 0.3125q0.671875 0 1.09375 -0.3125q0.4375 -0.3125 0.640625 -0.875q0.21875 -0.578125 0.21875 -1.34375q0 -0.765625 -0.21875 -1.328125q-0.203125 -0.5625 -0.625 -0.859375q-0.421875 -0.3125 -1.109375 -0.3125q-1.0 0 -1.46875 0.671875q-0.46875 0.65625 -0.46875 1.828125zm7.984375 3.21875l-2.4375 -6.421875l1.046875 0l1.40625 3.890625q0.15625 0.390625 0.296875 0.875q0.15625 0.484375 0.21875 0.765625l0.03125 0q0.078125 -0.28125 0.234375 -0.765625q0.171875 -0.484375 0.3125 -0.875l1.40625 -3.890625l1.046875 0l-2.453125 6.421875l-1.109375 0zm5.5566406 -6.421875l0 6.421875l-0.96875 0l0 -6.421875l0.96875 0zm-0.46875 -2.40625q0.234375 0 0.40625 0.15625q0.171875 0.15625 0.171875 0.484375q0 0.328125 -0.171875 0.484375q-0.171875 0.15625 -0.40625 0.15625q-0.265625 0 -0.4375 -0.15625q-0.15625 -0.15625 -0.15625 -0.484375q0 -0.328125 0.15625 -0.484375q0.171875 -0.15625 0.4375 -0.15625zm4.810547 8.953125q-1.21875 0 -1.9375 -0.828125q-0.703125 -0.84375 -0.703125 -2.484375q0 -1.65625 0.71875 -2.5q0.734375 -0.859375 1.9375 -0.859375q0.515625 0 0.890625 0.140625q0.375 0.140625 0.65625 0.375q0.28125 0.21875 0.46875 0.5l0.0625 0q-0.015625 -0.1875 -0.046875 -0.5q-0.015625 -0.3125 -0.015625 -0.515625l0 -2.578125l0.96875 0l0 9.125l-0.78125 0l-0.15625 -0.921875l-0.03125 0q-0.1875 0.296875 -0.46875 0.53125q-0.28125 0.234375 -0.671875 0.375q-0.375 0.140625 -0.890625 0.140625zm0.15625 -0.8125q1.03125 0 1.453125 -0.578125q0.421875 -0.59375 0.421875 -1.75l0 -0.171875q0 -1.234375 -0.40625 -1.890625q-0.40625 -0.65625 -1.46875 -0.65625q-0.90625 0 -1.359375 0.6875q-0.4375 0.6875 -0.4375 1.875q0 1.1875 0.4375 1.84375q0.453125 0.640625 1.359375 0.640625zm7.373047 -5.859375q0.8125 0 1.390625 0.375q0.59375 0.359375 0.90625 1.015625q0.3125 0.65625 0.3125 1.515625l0 0.609375l-4.4375 0q0.015625 1.125 0.5625 1.71875q0.546875 0.59375 1.546875 0.59375q0.609375 0 1.078125 -0.109375q0.46875 -0.109375 0.96875 -0.328125l0 0.859375q-0.484375 0.21875 -0.96875 0.3125q-0.46875 0.109375 -1.125 0.109375q-0.921875 0 -1.609375 -0.375q-0.6875 -0.390625 -1.078125 -1.125q-0.375 -0.734375 -0.375 -1.796875q0 -1.03125 0.34375 -1.78125q0.34375 -0.765625 0.984375 -1.171875q0.640625 -0.421875 1.5 -0.421875zm-0.015625 0.796875q-0.78125 0 -1.25 0.515625q-0.453125 0.515625 -0.546875 1.421875l3.40625 0q0 -0.578125 -0.1875 -1.0q-0.171875 -0.4375 -0.53125 -0.6875q-0.34375 -0.25 -0.890625 -0.25zm7.1914062 -0.796875q0.203125 0 0.40625 0.03125q0.21875 0.015625 0.375 0.046875l-0.125 0.90625q-0.15625 -0.046875 -0.34375 -0.0625q-0.1875 -0.03125 -0.359375 -0.03125q-0.390625 0 -0.734375 0.15625q-0.34375 0.15625 -0.609375 0.453125q-0.25 0.28125 -0.40625 0.703125q-0.140625 0.40625 -0.140625 0.890625l0 3.453125l-0.96875 0l0 -6.421875l0.796875 0l0.109375 1.1875l0.046875 0q0.203125 -0.359375 0.484375 -0.65625q0.28125 -0.296875 0.640625 -0.46875q0.375 -0.1875 0.828125 -0.1875zm6.0839844 6.546875l-0.96875 0l0 -9.125l0.96875 0l0 9.125zm3.0292969 -6.421875l0 6.421875l-0.96875 0l0 -6.421875l0.96875 0zm-0.46875 -2.40625q0.234375 0 0.40625 0.15625q0.171875 0.15625 0.171875 0.484375q0 0.328125 -0.171875 0.484375q-0.171875 0.15625 -0.40625 0.15625q-0.265625 0 -0.4375 -0.15625q-0.15625 -0.15625 -0.15625 -0.484375q0 -0.328125 0.15625 -0.484375q0.171875 -0.15625 0.4375 -0.15625zm6.685547 7.0625q0 0.625 -0.3125 1.046875q-0.3125 0.40625 -0.890625 0.625q-0.5625 0.21875 -1.359375 0.21875q-0.671875 0 -1.171875 -0.109375q-0.484375 -0.109375 -0.84375 -0.296875l0 -0.90625q0.390625 0.203125 0.9375 0.359375q0.546875 0.15625 1.109375 0.15625q0.828125 0 1.203125 -0.265625q0.375 -0.28125 0.375 -0.734375q0 -0.265625 -0.15625 -0.46875q-0.140625 -0.203125 -0.5 -0.390625q-0.34375 -0.1875 -0.96875 -0.421875q-0.609375 -0.234375 -1.0625 -0.46875q-0.4375 -0.234375 -0.6875 -0.5625q-0.25 -0.328125 -0.25 -0.875q0 -0.8125 0.65625 -1.25q0.671875 -0.4375 1.734375 -0.4375q0.59375 0 1.09375 0.125q0.5 0.109375 0.953125 0.296875l-0.328125 0.78125q-0.40625 -0.171875 -0.859375 -0.28125q-0.453125 -0.125 -0.921875 -0.125q-0.671875 0 -1.03125 0.234375q-0.359375 0.21875 -0.359375 0.609375q0 0.296875 0.15625 0.5q0.171875 0.1875 0.546875 0.359375q0.375 0.15625 0.96875 0.390625q0.609375 0.21875 1.046875 0.46875q0.4375 0.234375 0.671875 0.578125q0.25 0.328125 0.25 0.84375zm3.625 1.078125q0.25 0 0.5 -0.03125q0.25 -0.046875 0.40625 -0.109375l0 0.765625q-0.171875 0.078125 -0.46875 0.125q-0.296875 0.0625 -0.59375 0.0625q-0.5 0 -0.921875 -0.171875q-0.421875 -0.1875 -0.671875 -0.609375q-0.234375 -0.4375 -0.234375 -1.203125l0 -3.796875l-0.921875 0l0 -0.484375l0.921875 -0.375l0.390625 -1.390625l0.578125 0l0 1.484375l1.890625 0l0 0.765625l-1.890625 0l0 3.78125q0 0.59375 0.28125 0.890625q0.28125 0.296875 0.734375 0.296875z" fill-rule="nonzero"/><path fill="#d9d9d9" d="m389.73227 192.67728l0 0c0 -3.2093964 2.6017456 -5.811142 5.811157 -5.811142l23.243866 0l0 0c1.5411987 0 3.019287 0.61224365 4.1091003 1.7020569c1.0897827 1.089798 1.7020264 2.5678864 1.7020264 4.109085l0 30.393478c0 3.2093964 -2.601715 5.811142 -5.8111267 5.811142l-23.243866 0c-3.2094116 0 -5.811157 -2.6017456 -5.811157 -5.811142z" fill-rule="evenodd"/><path fill="#000000" fill-opacity="0.0" d="m424.59842 207.87401l272.59842 0" fill-rule="evenodd"/><path stroke="#000000" stroke-width="1.0" stroke-linejoin="round" stroke-linecap="butt" d="m430.59842 207.87401l266.59842 0" fill-rule="evenodd"/><path fill="#000000" stroke="#000000" stroke-width="1.0" stroke-linecap="butt" d="m430.59842 206.22229l-4.538086 1.6517181l4.538086 1.6517334z" fill-rule="evenodd"/><path fill="#000000" fill-opacity="0.0" d="m507.19946 159.40158l124.81891 0l0 48.472427l-124.81891 0z" fill-rule="evenodd"/><path fill="#000000" d="m536.88824 172.1953q1.0625 0 1.75 0.265625q0.6875 0.25 1.015625 0.78125q0.34375 0.53125 0.34375 1.359375q0 0.6875 -0.25 1.140625q-0.234375 0.453125 -0.640625 0.734375q-0.390625 0.28125 -0.84375 0.4375l2.34375 3.84375l-1.15625 0l-2.09375 -3.578125l-1.78125 0l0 3.578125l-1.0 0l0 -8.5625l2.3125 0zm-0.0625 0.859375l-1.25 0l0 3.28125l1.359375 0q1.046875 0 1.53125 -0.421875q0.5 -0.4375 0.5 -1.265625q0 -0.875 -0.53125 -1.234375q-0.515625 -0.359375 -1.609375 -0.359375zm7.484375 1.15625q0.8125 0 1.390625 0.375q0.59375 0.359375 0.90625 1.015625q0.3125 0.65625 0.3125 1.515625l0 0.609375l-4.4375 0q0.015625 1.125 0.5625 1.71875q0.546875 0.59375 1.546875 0.59375q0.609375 0 1.078125 -0.109375q0.46875 -0.109375 0.96875 -0.328125l0 0.859375q-0.484375 0.21875 -0.96875 0.3125q-0.46875 0.109375 -1.125 0.109375q-0.921875 0 -1.609375 -0.375q-0.6875 -0.390625 -1.078125 -1.125q-0.375 -0.734375 -0.375 -1.796875q0 -1.03125 0.34375 -1.78125q0.34375 -0.765625 0.984375 -1.171875q0.640625 -0.421875 1.5 -0.421875zm-0.015625 0.796875q-0.78125 0 -1.25 0.515625q-0.453125 0.515625 -0.546875 1.421875l3.40625 0q0 -0.578125 -0.1875 -1.0q-0.171875 -0.4375 -0.53125 -0.6875q-0.34375 -0.25 -0.890625 -0.25zm6.0664062 8.640625q-1.265625 0 -1.953125 -0.484375q-0.671875 -0.46875 -0.671875 -1.3125q0 -0.609375 0.375 -1.046875q0.390625 -0.421875 1.0625 -0.5625q-0.25 -0.109375 -0.4375 -0.34375q-0.171875 -0.234375 -0.171875 -0.546875q0 -0.34375 0.1875 -0.609375q0.203125 -0.265625 0.609375 -0.515625q-0.5 -0.203125 -0.8125 -0.6875q-0.3125 -0.5 -0.3125 -1.140625q0 -0.703125 0.28125 -1.1875q0.296875 -0.484375 0.828125 -0.734375q0.546875 -0.265625 1.328125 -0.265625q0.171875 0 0.34375 0.015625q0.171875 0.015625 0.328125 0.046875q0.15625 0.015625 0.28125 0.046875l2.203125 0l0 0.625l-1.1875 0.15625q0.171875 0.21875 0.28125 0.546875q0.125 0.328125 0.125 0.71875q0 0.953125 -0.65625 1.53125q-0.640625 0.5625 -1.78125 0.5625q-0.265625 0 -0.546875 -0.046875q-0.28125 0.15625 -0.4375 0.34375q-0.15625 0.1875 -0.15625 0.453125q0 0.1875 0.109375 0.296875q0.125 0.109375 0.34375 0.15625q0.21875 0.046875 0.515625 0.046875l1.140625 0q1.046875 0 1.59375 0.4375q0.5625 0.4375 0.5625 1.296875q0 1.0625 -0.875 1.625q-0.859375 0.578125 -2.5 0.578125zm0.03125 -0.765625q0.796875 0 1.3125 -0.171875q0.53125 -0.15625 0.796875 -0.453125q0.265625 -0.296875 0.265625 -0.71875q0 -0.390625 -0.1875 -0.59375q-0.171875 -0.1875 -0.515625 -0.25q-0.328125 -0.078125 -0.828125 -0.078125l-1.109375 0q-0.4375 0 -0.765625 0.140625q-0.3125 0.140625 -0.484375 0.390625q-0.171875 0.265625 -0.171875 0.671875q0 0.515625 0.4375 0.78125q0.4375 0.28125 1.25 0.28125zm0.25 -5.140625q0.703125 0 1.046875 -0.34375q0.359375 -0.359375 0.359375 -1.03125q0 -0.71875 -0.359375 -1.078125q-0.359375 -0.359375 -1.046875 -0.359375q-0.671875 0 -1.03125 0.375q-0.359375 0.359375 -0.359375 1.078125q0 0.65625 0.359375 1.015625q0.359375 0.34375 1.03125 0.34375zm5.421875 -3.40625l0 6.421875l-0.96875 0l0 -6.421875l0.96875 0zm-0.46875 -2.40625q0.234375 0 0.40625 0.15625q0.171875 0.15625 0.171875 0.484375q0 0.328125 -0.171875 0.484375q-0.171875 0.15625 -0.40625 0.15625q-0.265625 0 -0.4375 -0.15625q-0.15625 -0.15625 -0.15625 -0.484375q0 -0.328125 0.15625 -0.484375q0.171875 -0.15625 0.4375 -0.15625zm6.685547 7.0625q0 0.625 -0.3125 1.046875q-0.3125 0.40625 -0.890625 0.625q-0.5625 0.21875 -1.359375 0.21875q-0.671875 0 -1.171875 -0.109375q-0.484375 -0.109375 -0.84375 -0.296875l0 -0.90625q0.390625 0.203125 0.9375 0.359375q0.546875 0.15625 1.109375 0.15625q0.828125 0 1.203125 -0.265625q0.375 -0.28125 0.375 -0.734375q0 -0.265625 -0.15625 -0.46875q-0.140625 -0.203125 -0.5 -0.390625q-0.34375 -0.1875 -0.96875 -0.421875q-0.609375 -0.234375 -1.0625 -0.46875q-0.4375 -0.234375 -0.6875 -0.5625q-0.25 -0.328125 -0.25 -0.875q0 -0.8125 0.65625 -1.25q0.671875 -0.4375 1.734375 -0.4375q0.59375 0 1.09375 0.125q0.5 0.109375 0.953125 0.296875l-0.328125 0.78125q-0.40625 -0.171875 -0.859375 -0.28125q-0.453125 -0.125 -0.921875 -0.125q-0.671875 0 -1.03125 0.234375q-0.359375 0.21875 -0.359375 0.609375q0 0.296875 0.15625 0.5q0.171875 0.1875 0.546875 0.359375q0.375 0.15625 0.96875 0.390625q0.609375 0.21875 1.046875 0.46875q0.4375 0.234375 0.671875 0.578125q0.25 0.328125 0.25 0.84375zm3.625 1.078125q0.25 0 0.5 -0.03125q0.25 -0.046875 0.40625 -0.109375l0 0.765625q-0.171875 0.078125 -0.46875 0.125q-0.296875 0.0625 -0.59375 0.0625q-0.5 0 -0.921875 -0.171875q-0.421875 -0.1875 -0.671875 -0.609375q-0.234375 -0.4375 -0.234375 -1.203125l0 -3.796875l-0.921875 0l0 -0.484375l0.921875 -0.375l0.390625 -1.390625l0.578125 0l0 1.484375l1.890625 0l0 0.765625l-1.890625 0l0 3.78125q0 0.59375 0.28125 0.890625q0.28125 0.296875 0.734375 0.296875zm4.6835938 -5.859375q0.8125 0 1.390625 0.375q0.59375 0.359375 0.90625 1.015625q0.3125 0.65625 0.3125 1.515625l0 0.609375l-4.4375 0q0.015625 1.125 0.5625 1.71875q0.546875 0.59375 1.546875 0.59375q0.609375 0 1.078125 -0.109375q0.46875 -0.109375 0.96875 -0.328125l0 0.859375q-0.484375 0.21875 -0.96875 0.3125q-0.46875 0.109375 -1.125 0.109375q-0.921875 0 -1.609375 -0.375q-0.6875 -0.390625 -1.078125 -1.125q-0.375 -0.734375 -0.375 -1.796875q0 -1.03125 0.34375 -1.78125q0.34375 -0.765625 0.984375 -1.171875q0.640625 -0.421875 1.5 -0.421875zm-0.015625 0.796875q-0.78125 0 -1.25 0.515625q-0.453125 0.515625 -0.546875 1.421875l3.40625 0q0 -0.578125 -0.1875 -1.0q-0.171875 -0.4375 -0.53125 -0.6875q-0.34375 -0.25 -0.890625 -0.25zm7.1914062 -0.796875q0.203125 0 0.40625 0.03125q0.21875 0.015625 0.375 0.046875l-0.125 0.90625q-0.15625 -0.046875 -0.34375 -0.0625q-0.1875 -0.03125 -0.359375 -0.03125q-0.390625 0 -0.734375 0.15625q-0.34375 0.15625 -0.609375 0.453125q-0.25 0.28125 -0.40625 0.703125q-0.140625 0.40625 -0.140625 0.890625l0 3.453125l-0.96875 0l0 -6.421875l0.796875 0l0.109375 1.1875l0.046875 0q0.203125 -0.359375 0.484375 -0.65625q0.28125 -0.296875 0.640625 -0.46875q0.375 -0.1875 0.828125 -0.1875zm10.333984 6.53125l-1.140625 -3.734375q-0.078125 -0.234375 -0.140625 -0.46875q-0.0625 -0.234375 -0.125 -0.4375q-0.0625 -0.21875 -0.109375 -0.40625q-0.03125 -0.1875 -0.0625 -0.328125l-0.046875 0q-0.015625 0.140625 -0.0625 0.328125q-0.03125 0.1875 -0.09375 0.40625q-0.0625 0.203125 -0.125 0.453125q-0.0625 0.234375 -0.140625 0.46875l-1.203125 3.71875l-1.09375 0l-1.765625 -6.421875l1.015625 0l0.921875 3.546875q0.09375 0.359375 0.171875 0.703125q0.09375 0.328125 0.15625 0.640625q0.0625 0.296875 0.078125 0.515625l0.046875 0q0.046875 -0.140625 0.078125 -0.34375q0.046875 -0.203125 0.09375 -0.4375q0.0625 -0.234375 0.125 -0.46875q0.078125 -0.234375 0.140625 -0.4375l1.1875 -3.71875l1.046875 0l1.140625 3.71875q0.078125 0.28125 0.15625 0.59375q0.09375 0.296875 0.15625 0.578125q0.078125 0.28125 0.109375 0.515625l0.046875 0q0.03125 -0.203125 0.09375 -0.5q0.0625 -0.296875 0.140625 -0.640625q0.09375 -0.359375 0.1875 -0.71875l0.9375 -3.546875l0.984375 0l-1.765625 6.421875l-1.140625 0zm5.048828 -6.40625l0 6.421875l-0.96875 0l0 -6.421875l0.96875 0zm-0.46875 -2.40625q0.234375 0 0.40625 0.15625q0.171875 0.15625 0.171875 0.484375q0 0.328125 -0.171875 0.484375q-0.171875 0.15625 -0.40625 0.15625q-0.265625 0 -0.4375 -0.15625q-0.15625 -0.15625 -0.15625 -0.484375q0 -0.328125 0.15625 -0.484375q0.171875 -0.15625 0.4375 -0.15625zm4.591797 8.140625q0.25 0 0.5 -0.03125q0.25 -0.046875 0.40625 -0.109375l0 0.765625q-0.171875 0.078125 -0.46875 0.125q-0.296875 0.0625 -0.59375 0.0625q-0.5 0 -0.921875 -0.171875q-0.421875 -0.1875 -0.671875 -0.609375q-0.234375 -0.4375 -0.234375 -1.203125l0 -3.796875l-0.921875 0l0 -0.484375l0.921875 -0.375l0.390625 -1.390625l0.578125 0l0 1.484375l1.890625 0l0 0.765625l-1.890625 0l0 3.78125q0 0.59375 0.28125 0.890625q0.28125 0.296875 0.734375 0.296875zm3.1835938 -8.4375l0 2.734375q0 0.234375 -0.015625 0.46875q-0.015625 0.234375 -0.03125 0.4375l0.0625 0q0.1875 -0.34375 0.5 -0.5625q0.3125 -0.234375 0.703125 -0.359375q0.390625 -0.125 0.828125 -0.125q0.78125 0 1.296875 0.25q0.515625 0.25 0.765625 0.765625q0.265625 0.515625 0.265625 1.328125l0 4.1875l-0.953125 0l0 -4.125q0 -0.796875 -0.375 -1.1875q-0.359375 -0.40625 -1.109375 -0.40625q-0.71875 0 -1.140625 0.28125q-0.421875 0.265625 -0.609375 0.796875q-0.1875 0.515625 -0.1875 1.28125l0 3.359375l-0.96875 0l0 -9.125l0.96875 0z" fill-rule="nonzero"/><path fill="#000000" d="m542.8033 188.61092q1.203125 0 1.90625 0.828125q0.71875 0.828125 0.71875 2.484375q0 1.09375 -0.328125 1.84375q-0.328125 0.75 -0.921875 1.140625q-0.59375 0.375 -1.40625 0.375q-0.5 0 -0.890625 -0.140625q-0.390625 -0.140625 -0.671875 -0.359375q-0.265625 -0.234375 -0.453125 -0.5l-0.0625 0q0.015625 0.21875 0.03125 0.546875q0.03125 0.328125 0.03125 0.5625l0 2.640625l-0.96875 0l0 -9.296875l0.796875 0l0.125 0.953125l0.046875 0q0.1875 -0.296875 0.453125 -0.53125q0.28125 -0.25 0.671875 -0.390625q0.390625 -0.15625 0.921875 -0.15625zm-0.171875 0.828125q-0.671875 0 -1.078125 0.265625q-0.40625 0.25 -0.59375 0.765625q-0.1875 0.515625 -0.203125 1.28125l0 0.1875q0 0.8125 0.171875 1.375q0.1875 0.5625 0.59375 0.859375q0.421875 0.296875 1.125 0.296875q0.59375 0 0.984375 -0.328125q0.40625 -0.328125 0.59375 -0.890625q0.203125 -0.578125 0.203125 -1.328125q0 -1.140625 -0.453125 -1.8125q-0.4375 -0.671875 -1.34375 -0.671875zm7.404297 -0.828125q0.203125 0 0.40625 0.03125q0.21875 0.015625 0.375 0.046875l-0.125 0.90625q-0.15625 -0.046875 -0.34375 -0.0625q-0.1875 -0.03125 -0.359375 -0.03125q-0.390625 0 -0.734375 0.15625q-0.34375 0.15625 -0.609375 0.453125q-0.25 0.28125 -0.40625 0.703125q-0.140625 0.40625 -0.140625 0.890625l0 3.453125l-0.96875 0l0 -6.421875l0.796875 0l0.109375 1.1875l0.046875 0q0.203125 -0.359375 0.484375 -0.65625q0.28125 -0.296875 0.640625 -0.46875q0.375 -0.1875 0.828125 -0.1875zm7.529297 3.328125q0 0.78125 -0.203125 1.40625q-0.203125 0.625 -0.59375 1.0625q-0.390625 0.421875 -0.9375 0.65625q-0.546875 0.21875 -1.234375 0.21875q-0.640625 0 -1.1875 -0.21875q-0.53125 -0.234375 -0.921875 -0.65625q-0.390625 -0.4375 -0.609375 -1.0625q-0.203125 -0.625 -0.203125 -1.40625q0 -1.0625 0.359375 -1.796875q0.359375 -0.75 1.015625 -1.140625q0.671875 -0.390625 1.59375 -0.390625q0.875 0 1.53125 0.40625q0.65625 0.390625 1.015625 1.140625q0.375 0.734375 0.375 1.78125zm-4.890625 0q0 0.765625 0.203125 1.34375q0.21875 0.5625 0.640625 0.875q0.421875 0.3125 1.09375 0.3125q0.671875 0 1.09375 -0.3125q0.4375 -0.3125 0.640625 -0.875q0.21875 -0.578125 0.21875 -1.34375q0 -0.765625 -0.21875 -1.328125q-0.203125 -0.5625 -0.625 -0.859375q-0.421875 -0.3125 -1.109375 -0.3125q-1.0 0 -1.46875 0.671875q-0.46875 0.65625 -0.46875 1.828125zm7.984375 3.21875l-2.4375 -6.421875l1.046875 0l1.40625 3.890625q0.15625 0.390625 0.296875 0.875q0.15625 0.484375 0.21875 0.765625l0.03125 0q0.078125 -0.28125 0.234375 -0.765625q0.171875 -0.484375 0.3125 -0.875l1.40625 -3.890625l1.046875 0l-2.453125 6.421875l-1.109375 0zm5.5566406 -6.421875l0 6.421875l-0.96875 0l0 -6.421875l0.96875 0zm-0.46875 -2.40625q0.234375 0 0.40625 0.15625q0.171875 0.15625 0.171875 0.484375q0 0.328125 -0.171875 0.484375q-0.171875 0.15625 -0.40625 0.15625q-0.265625 0 -0.4375 -0.15625q-0.15625 -0.15625 -0.15625 -0.484375q0 -0.328125 0.15625 -0.484375q0.171875 -0.15625 0.4375 -0.15625zm4.810547 8.953125q-1.21875 0 -1.9375 -0.828125q-0.703125 -0.84375 -0.703125 -2.484375q0 -1.65625 0.71875 -2.5q0.734375 -0.859375 1.9375 -0.859375q0.515625 0 0.890625 0.140625q0.375 0.140625 0.65625 0.375q0.28125 0.21875 0.46875 0.5l0.0625 0q-0.015625 -0.1875 -0.046875 -0.5q-0.015625 -0.3125 -0.015625 -0.515625l0 -2.578125l0.96875 0l0 9.125l-0.78125 0l-0.15625 -0.921875l-0.03125 0q-0.1875 0.296875 -0.46875 0.53125q-0.28125 0.234375 -0.671875 0.375q-0.375 0.140625 -0.890625 0.140625zm0.15625 -0.8125q1.03125 0 1.453125 -0.578125q0.421875 -0.59375 0.421875 -1.75l0 -0.171875q0 -1.234375 -0.40625 -1.890625q-0.40625 -0.65625 -1.46875 -0.65625q-0.90625 0 -1.359375 0.6875q-0.4375 0.6875 -0.4375 1.875q0 1.1875 0.4375 1.84375q0.453125 0.640625 1.359375 0.640625zm7.373047 -5.859375q0.8125 0 1.390625 0.375q0.59375 0.359375 0.90625 1.015625q0.3125 0.65625 0.3125 1.515625l0 0.609375l-4.4375 0q0.015625 1.125 0.5625 1.71875q0.546875 0.59375 1.546875 0.59375q0.609375 0 1.078125 -0.109375q0.46875 -0.109375 0.96875 -0.328125l0 0.859375q-0.484375 0.21875 -0.96875 0.3125q-0.46875 0.109375 -1.125 0.109375q-0.921875 0 -1.609375 -0.375q-0.6875 -0.390625 -1.078125 -1.125q-0.375 -0.734375 -0.375 -1.796875q0 -1.03125 0.34375 -1.78125q0.34375 -0.765625 0.984375 -1.171875q0.640625 -0.421875 1.5 -0.421875zm-0.015625 0.796875q-0.78125 0 -1.25 0.515625q-0.453125 0.515625 -0.546875 1.421875l3.40625 0q0 -0.578125 -0.1875 -1.0q-0.171875 -0.4375 -0.53125 -0.6875q-0.34375 -0.25 -0.890625 -0.25zm7.1914062 -0.796875q0.203125 0 0.40625 0.03125q0.21875 0.015625 0.375 0.046875l-0.125 0.90625q-0.15625 -0.046875 -0.34375 -0.0625q-0.1875 -0.03125 -0.359375 -0.03125q-0.390625 0 -0.734375 0.15625q-0.34375 0.15625 -0.609375 0.453125q-0.25 0.28125 -0.40625 0.703125q-0.140625 0.40625 -0.140625 0.890625l0 3.453125l-0.96875 0l0 -6.421875l0.796875 0l0.109375 1.1875l0.046875 0q0.203125 -0.359375 0.484375 -0.65625q0.28125 -0.296875 0.640625 -0.46875q0.375 -0.1875 0.828125 -0.1875zm1.4511719 3.75l0 -0.859375l2.90625 0l0 0.859375l-2.90625 0zm5.376953 -3.625l0 6.421875l-0.96875 0l0 -6.421875l0.96875 0zm-0.46875 -2.40625q0.234375 0 0.40625 0.15625q0.171875 0.15625 0.171875 0.484375q0 0.328125 -0.171875 0.484375q-0.171875 0.15625 -0.40625 0.15625q-0.265625 0 -0.4375 -0.15625q-0.15625 -0.15625 -0.15625 -0.484375q0 -0.328125 0.15625 -0.484375q0.171875 -0.15625 0.4375 -0.15625zm4.810547 8.953125q-1.21875 0 -1.9375 -0.828125q-0.703125 -0.84375 -0.703125 -2.484375q0 -1.65625 0.71875 -2.5q0.734375 -0.859375 1.9375 -0.859375q0.515625 0 0.890625 0.140625q0.375 0.140625 0.65625 0.375q0.28125 0.21875 0.46875 0.5l0.0625 0q-0.015625 -0.1875 -0.046875 -0.5q-0.015625 -0.3125 -0.015625 -0.515625l0 -2.578125l0.96875 0l0 9.125l-0.78125 0l-0.15625 -0.921875l-0.03125 0q-0.1875 0.296875 -0.46875 0.53125q-0.28125 0.234375 -0.671875 0.375q-0.375 0.140625 -0.890625 0.140625zm0.15625 -0.8125q1.03125 0 1.453125 -0.578125q0.421875 -0.59375 0.421875 -1.75l0 -0.171875q0 -1.234375 -0.40625 -1.890625q-0.40625 -0.65625 -1.46875 -0.65625q-0.90625 0 -1.359375 0.6875q-0.4375 0.6875 -0.4375 1.875q0 1.1875 0.4375 1.84375q0.453125 0.640625 1.359375 0.640625z" fill-rule="nonzero"/><path fill="#d9d9d9" d="m82.27559 265.88858l0 0c0 -3.2094116 2.601738 -5.811157 5.811142 -5.811157l23.243858 0l0 0c1.541214 0 3.0193024 0.61224365 4.1091003 1.7020569c1.089798 1.0897827 1.7020416 2.567871 1.7020416 4.1091003l0 30.393463c0 3.2094116 -2.601738 5.8111267 -5.811142 5.8111267l-23.243858 0c-3.209404 0 -5.811142 -2.601715 -5.811142 -5.8111267z" fill-rule="evenodd"/><path fill="#d9d9d9" d="m389.73227 265.8899l0 0c0 -3.2094116 2.6017456 -5.811157 5.811157 -5.811157l23.243866 0l0 0c1.5411987 0 3.019287 0.61224365 4.1091003 1.7020569c1.0897827 1.0897827 1.7020264 2.567871 1.7020264 4.1091003l0 30.393463c0 3.2094116 -2.601715 5.8111267 -5.8111267 5.8111267l-23.243866 0c-3.2094116 0 -5.811157 -2.601715 -5.811157 -5.8111267z" fill-rule="evenodd"/><path fill="#000000" fill-opacity="0.0" d="m389.73227 281.0866l-272.59842 0" fill-rule="evenodd"/><path stroke="#000000" stroke-width="1.0" stroke-linejoin="round" stroke-linecap="butt" d="m389.73227 281.0866l-266.59842 0" fill-rule="evenodd"/><path fill="#000000" stroke="#000000" stroke-width="1.0" stroke-linecap="butt" d="m123.13386 279.43488l-4.5380936 1.6517334l4.5380936 1.6517334z" fill-rule="evenodd"/><path fill="#000000" fill-opacity="0.0" d="m191.02756 247.16536l124.81891 0l0 33.92125l-124.81891 0z" fill-rule="evenodd"/><path fill="#000000" d="m210.54639 266.16473q0 0.765625 -0.375 1.296875q-0.375 0.53125 -1.0625 0.828125q-0.671875 0.28125 -1.59375 0.28125q-0.484375 0 -0.921875 -0.046875q-0.421875 -0.046875 -0.796875 -0.140625q-0.359375 -0.09375 -0.640625 -0.21875l0 -0.953125q0.453125 0.171875 1.078125 0.328125q0.640625 0.15625 1.328125 0.15625q0.640625 0 1.078125 -0.171875q0.453125 -0.171875 0.6875 -0.484375q0.234375 -0.328125 0.234375 -0.796875q0 -0.4375 -0.203125 -0.734375q-0.1875 -0.296875 -0.640625 -0.53125q-0.4375 -0.25 -1.21875 -0.515625q-0.546875 -0.203125 -0.96875 -0.421875q-0.40625 -0.234375 -0.6875 -0.53125q-0.28125 -0.296875 -0.421875 -0.671875q-0.140625 -0.390625 -0.140625 -0.890625q0 -0.6875 0.34375 -1.171875q0.34375 -0.5 0.953125 -0.75q0.625 -0.265625 1.4375 -0.265625q0.6875 0 1.265625 0.125q0.578125 0.125 1.0625 0.34375l-0.3125 0.859375q-0.453125 -0.1875 -0.984375 -0.3125q-0.515625 -0.140625 -1.0625 -0.140625q-0.546875 0 -0.921875 0.171875q-0.375 0.15625 -0.578125 0.453125q-0.203125 0.28125 -0.203125 0.6875q0 0.453125 0.1875 0.75q0.1875 0.296875 0.609375 0.53125q0.421875 0.234375 1.109375 0.484375q0.765625 0.28125 1.28125 0.59375q0.53125 0.296875 0.796875 0.75q0.28125 0.4375 0.28125 1.109375zm4.080078 -4.265625q0.8125 0 1.390625 0.375q0.59375 0.359375 0.90625 1.015625q0.3125 0.65625 0.3125 1.515625l0 0.609375l-4.4375 0q0.015625 1.125 0.5625 1.71875q0.546875 0.59375 1.546875 0.59375q0.609375 0 1.078125 -0.109375q0.46875 -0.109375 0.96875 -0.328125l0 0.859375q-0.484375 0.21875 -0.96875 0.3125q-0.46875 0.109375 -1.125 0.109375q-0.921875 0 -1.609375 -0.375q-0.6875 -0.390625 -1.078125 -1.125q-0.375 -0.734375 -0.375 -1.796875q0 -1.03125 0.34375 -1.78125q0.34375 -0.765625 0.984375 -1.171875q0.640625 -0.421875 1.5 -0.421875zm-0.015625 0.796875q-0.78125 0 -1.25 0.515625q-0.453125 0.515625 -0.546875 1.421875l3.40625 0q0 -0.578125 -0.1875 -1.0q-0.171875 -0.4375 -0.53125 -0.6875q-0.34375 -0.25 -0.890625 -0.25zm7.3164062 -0.796875q1.140625 0 1.71875 0.5625q0.59375 0.5625 0.59375 1.796875l0 4.1875l-0.953125 0l0 -4.125q0 -0.796875 -0.375 -1.1875q-0.359375 -0.40625 -1.109375 -0.40625q-1.078125 0 -1.515625 0.609375q-0.421875 0.59375 -0.421875 1.75l0 3.359375l-0.96875 0l0 -6.421875l0.78125 0l0.140625 0.921875l0.0625 0q0.203125 -0.34375 0.515625 -0.5625q0.3125 -0.234375 0.703125 -0.359375q0.40625 -0.125 0.828125 -0.125zm6.609375 6.671875q-1.21875 0 -1.9375 -0.828125q-0.703125 -0.84375 -0.703125 -2.484375q0 -1.65625 0.71875 -2.5q0.734375 -0.859375 1.9375 -0.859375q0.515625 0 0.890625 0.140625q0.375 0.140625 0.65625 0.375q0.28125 0.21875 0.46875 0.5l0.0625 0q-0.015625 -0.1875 -0.046875 -0.5q-0.015625 -0.3125 -0.015625 -0.515625l0 -2.578125l0.96875 0l0 9.125l-0.78125 0l-0.15625 -0.921875l-0.03125 0q-0.1875 0.296875 -0.46875 0.53125q-0.28125 0.234375 -0.671875 0.375q-0.375 0.140625 -0.890625 0.140625zm0.15625 -0.8125q1.03125 0 1.453125 -0.578125q0.421875 -0.59375 0.421875 -1.75l0 -0.171875q0 -1.234375 -0.40625 -1.890625q-0.40625 -0.65625 -1.46875 -0.65625q-0.90625 0 -1.359375 0.6875q-0.4375 0.6875 -0.4375 1.875q0 1.1875 0.4375 1.84375q0.453125 0.640625 1.359375 0.640625zm11.037109 -5.859375q1.203125 0 1.90625 0.828125q0.71875 0.828125 0.71875 2.484375q0 1.09375 -0.328125 1.84375q-0.328125 0.75 -0.921875 1.140625q-0.59375 0.375 -1.40625 0.375q-0.5 0 -0.890625 -0.140625q-0.390625 -0.140625 -0.671875 -0.359375q-0.265625 -0.234375 -0.453125 -0.5l-0.0625 0q0.015625 0.21875 0.03125 0.546875q0.03125 0.328125 0.03125 0.5625l0 2.640625l-0.96875 0l0 -9.296875l0.796875 0l0.125 0.953125l0.046875 0q0.1875 -0.296875 0.453125 -0.53125q0.28125 -0.25 0.671875 -0.390625q0.390625 -0.15625 0.921875 -0.15625zm-0.171875 0.828125q-0.671875 0 -1.078125 0.265625q-0.40625 0.25 -0.59375 0.765625q-0.1875 0.515625 -0.203125 1.28125l0 0.1875q0 0.8125 0.171875 1.375q0.1875 0.5625 0.59375 0.859375q0.421875 0.296875 1.125 0.296875q0.59375 0 0.984375 -0.328125q0.40625 -0.328125 0.59375 -0.890625q0.203125 -0.578125 0.203125 -1.328125q0 -1.140625 -0.453125 -1.8125q-0.4375 -0.671875 -1.34375 -0.671875zm7.404297 -0.828125q0.203125 0 0.40625 0.03125q0.21875 0.015625 0.375 0.046875l-0.125 0.90625q-0.15625 -0.046875 -0.34375 -0.0625q-0.1875 -0.03125 -0.359375 -0.03125q-0.390625 0 -0.734375 0.15625q-0.34375 0.15625 -0.609375 0.453125q-0.25 0.28125 -0.40625 0.703125q-0.140625 0.40625 -0.140625 0.890625l0 3.453125l-0.96875 0l0 -6.421875l0.796875 0l0.109375 1.1875l0.046875 0q0.203125 -0.359375 0.484375 -0.65625q0.28125 -0.296875 0.640625 -0.46875q0.375 -0.1875 0.828125 -0.1875zm7.529297 3.328125q0 0.78125 -0.203125 1.40625q-0.203125 0.625 -0.59375 1.0625q-0.390625 0.421875 -0.9375 0.65625q-0.546875 0.21875 -1.234375 0.21875q-0.640625 0 -1.1875 -0.21875q-0.53125 -0.234375 -0.921875 -0.65625q-0.390625 -0.4375 -0.609375 -1.0625q-0.203125 -0.625 -0.203125 -1.40625q0 -1.0625 0.359375 -1.796875q0.359375 -0.75 1.015625 -1.140625q0.671875 -0.390625 1.59375 -0.390625q0.875 0 1.53125 0.40625q0.65625 0.390625 1.015625 1.140625q0.375 0.734375 0.375 1.78125zm-4.890625 0q0 0.765625 0.203125 1.34375q0.21875 0.5625 0.640625 0.875q0.421875 0.3125 1.09375 0.3125q0.671875 0 1.09375 -0.3125q0.4375 -0.3125 0.640625 -0.875q0.21875 -0.578125 0.21875 -1.34375q0 -0.765625 -0.21875 -1.328125q-0.203125 -0.5625 -0.625 -0.859375q-0.421875 -0.3125 -1.109375 -0.3125q-1.0 0 -1.46875 0.671875q-0.46875 0.65625 -0.46875 1.828125zm7.984375 3.21875l-2.4375 -6.421875l1.046875 0l1.40625 3.890625q0.15625 0.390625 0.296875 0.875q0.15625 0.484375 0.21875 0.765625l0.03125 0q0.078125 -0.28125 0.234375 -0.765625q0.171875 -0.484375 0.3125 -0.875l1.40625 -3.890625l1.046875 0l-2.453125 6.421875l-1.109375 0zm5.5566406 -6.421875l0 6.421875l-0.96875 0l0 -6.421875l0.96875 0zm-0.46875 -2.40625q0.234375 0 0.40625 0.15625q0.171875 0.15625 0.171875 0.484375q0 0.328125 -0.171875 0.484375q-0.171875 0.15625 -0.40625 0.15625q-0.265625 0 -0.4375 -0.15625q-0.15625 -0.15625 -0.15625 -0.484375q0 -0.328125 0.15625 -0.484375q0.171875 -0.15625 0.4375 -0.15625zm4.810547 8.953125q-1.21875 0 -1.9375 -0.828125q-0.703125 -0.84375 -0.703125 -2.484375q0 -1.65625 0.71875 -2.5q0.734375 -0.859375 1.9375 -0.859375q0.515625 0 0.890625 0.140625q0.375 0.140625 0.65625 0.375q0.28125 0.21875 0.46875 0.5l0.0625 0q-0.015625 -0.1875 -0.046875 -0.5q-0.015625 -0.3125 -0.015625 -0.515625l0 -2.578125l0.96875 0l0 9.125l-0.78125 0l-0.15625 -0.921875l-0.03125 0q-0.1875 0.296875 -0.46875 0.53125q-0.28125 0.234375 -0.671875 0.375q-0.375 0.140625 -0.890625 0.140625zm0.15625 -0.8125q1.03125 0 1.453125 -0.578125q0.421875 -0.59375 0.421875 -1.75l0 -0.171875q0 -1.234375 -0.40625 -1.890625q-0.40625 -0.65625 -1.46875 -0.65625q-0.90625 0 -1.359375 0.6875q-0.4375 0.6875 -0.4375 1.875q0 1.1875 0.4375 1.84375q0.453125 0.640625 1.359375 0.640625zm7.373047 -5.859375q0.8125 0 1.390625 0.375q0.59375 0.359375 0.90625 1.015625q0.3125 0.65625 0.3125 1.515625l0 0.609375l-4.4375 0q0.015625 1.125 0.5625 1.71875q0.546875 0.59375 1.546875 0.59375q0.609375 0 1.078125 -0.109375q0.46875 -0.109375 0.96875 -0.328125l0 0.859375q-0.484375 0.21875 -0.96875 0.3125q-0.46875 0.109375 -1.125 0.109375q-0.921875 0 -1.609375 -0.375q-0.6875 -0.390625 -1.078125 -1.125q-0.375 -0.734375 -0.375 -1.796875q0 -1.03125 0.34375 -1.78125q0.34375 -0.765625 0.984375 -1.171875q0.640625 -0.421875 1.5 -0.421875zm-0.015625 0.796875q-0.78125 0 -1.25 0.515625q-0.453125 0.515625 -0.546875 1.421875l3.40625 0q0 -0.578125 -0.1875 -1.0q-0.171875 -0.4375 -0.53125 -0.6875q-0.34375 -0.25 -0.890625 -0.25zm7.1914062 -0.796875q0.203125 0 0.40625 0.03125q0.21875 0.015625 0.375 0.046875l-0.125 0.90625q-0.15625 -0.046875 -0.34375 -0.0625q-0.1875 -0.03125 -0.359375 -0.03125q-0.390625 0 -0.734375 0.15625q-0.34375 0.15625 -0.609375 0.453125q-0.25 0.28125 -0.40625 0.703125q-0.140625 0.40625 -0.140625 0.890625l0 3.453125l-0.96875 0l0 -6.421875l0.796875 0l0.109375 1.1875l0.046875 0q0.203125 -0.359375 0.484375 -0.65625q0.28125 -0.296875 0.640625 -0.46875q0.375 -0.1875 0.828125 -0.1875zm6.0839844 6.546875l-0.96875 0l0 -9.125l0.96875 0l0 9.125zm3.0292969 -6.421875l0 6.421875l-0.96875 0l0 -6.421875l0.96875 0zm-0.46875 -2.40625q0.234375 0 0.40625 0.15625q0.171875 0.15625 0.171875 0.484375q0 0.328125 -0.171875 0.484375q-0.171875 0.15625 -0.40625 0.15625q-0.265625 0 -0.4375 -0.15625q-0.15625 -0.15625 -0.15625 -0.484375q0 -0.328125 0.15625 -0.484375q0.171875 -0.15625 0.4375 -0.15625zm6.685547 7.0625q0 0.625 -0.3125 1.046875q-0.3125 0.40625 -0.890625 0.625q-0.5625 0.21875 -1.359375 0.21875q-0.671875 0 -1.171875 -0.109375q-0.484375 -0.109375 -0.84375 -0.296875l0 -0.90625q0.390625 0.203125 0.9375 0.359375q0.546875 0.15625 1.109375 0.15625q0.828125 0 1.203125 -0.265625q0.375 -0.28125 0.375 -0.734375q0 -0.265625 -0.15625 -0.46875q-0.140625 -0.203125 -0.5 -0.390625q-0.34375 -0.1875 -0.96875 -0.421875q-0.609375 -0.234375 -1.0625 -0.46875q-0.4375 -0.234375 -0.6875 -0.5625q-0.25 -0.328125 -0.25 -0.875q0 -0.8125 0.65625 -1.25q0.671875 -0.4375 1.734375 -0.4375q0.59375 0 1.09375 0.125q0.5 0.109375 0.953125 0.296875l-0.328125 0.78125q-0.40625 -0.171875 -0.859375 -0.28125q-0.453125 -0.125 -0.921875 -0.125q-0.671875 0 -1.03125 0.234375q-0.359375 0.21875 -0.359375 0.609375q0 0.296875 0.15625 0.5q0.171875 0.1875 0.546875 0.359375q0.375 0.15625 0.96875 0.390625q0.609375 0.21875 1.046875 0.46875q0.4375 0.234375 0.671875 0.578125q0.25 0.328125 0.25 0.84375zm3.625 1.078125q0.25 0 0.5 -0.03125q0.25 -0.046875 0.40625 -0.109375l0 0.765625q-0.171875 0.078125 -0.46875 0.125q-0.296875 0.0625 -0.59375 0.0625q-0.5 0 -0.921875 -0.171875q-0.421875 -0.1875 -0.671875 -0.609375q-0.234375 -0.4375 -0.234375 -1.203125l0 -3.796875l-0.921875 0l0 -0.484375l0.921875 -0.375l0.390625 -1.390625l0.578125 0l0 1.484375l1.890625 0l0 0.765625l-1.890625 0l0 3.78125q0 0.59375 0.28125 0.890625q0.28125 0.296875 0.734375 0.296875z" fill-rule="nonzero"/><path fill="#000000" fill-opacity="0.0" d="m656.74805 40.440945l115.747986 0l0 42.01575l-115.747986 0z" fill-rule="evenodd"/><path fill="#000000" d="m680.8877 54.048443q2.578125 0 3.75 1.109375q1.1875 1.09375 1.1875 3.03125q0 0.875 -0.265625 1.671875q-0.265625 0.796875 -0.859375 1.421875q-0.59375 0.625 -1.59375 0.984375q-0.984375 0.359375 -2.4375 0.359375l-1.21875 0l0 4.734379l-2.828125 0l0 -13.312504l4.265625 0zm-0.15625 2.3125l-1.28125 0l0 3.953125l0.921875 0q0.796875 0 1.375 -0.203125q0.59375 -0.21875 0.90625 -0.65625q0.328125 -0.453125 0.328125 -1.15625q0 -0.984375 -0.546875 -1.453125q-0.546875 -0.484375 -1.703125 -0.484375zm13.074158 0.625q0.203125 0 0.484375 0.03125q0.28125 0.015625 0.453125 0.046875l-0.203125 2.609375q-0.140625 -0.046875 -0.390625 -0.0625q-0.25 -0.03125 -0.4375 -0.03125q-0.53125 0 -1.046875 0.140625q-0.5 0.140625 -0.90625 0.453125q-0.390625 0.296875 -0.625 0.796875q-0.234375 0.484375 -0.234375 1.203125l0 5.187504l-2.78125 0l0 -10.187504l2.109375 0l0.40625 1.71875l0.140625 0q0.296875 -0.515625 0.75 -0.953125q0.453125 -0.4375 1.03125 -0.6875q0.578125 -0.265625 1.25 -0.265625zm12.049988 5.265625q0 1.28125 -0.34375 2.2656288q-0.34375 0.96875 -1.0 1.65625q-0.640625 0.671875 -1.5625 1.03125q-0.921875 0.34375 -2.0625 0.34375q-1.078125 0 -1.984375 -0.34375q-0.890625 -0.359375 -1.546875 -1.03125q-0.65625 -0.6875 -1.015625 -1.65625q-0.359375 -0.9843788 -0.359375 -2.2656288q0 -1.703125 0.59375 -2.875q0.609375 -1.171875 1.71875 -1.78125q1.109375 -0.609375 2.640625 -0.609375q1.4375 0 2.546875 0.609375q1.109375 0.609375 1.734375 1.78125q0.640625 1.171875 0.640625 2.875zm-7.046875 0q0 1.0 0.21875 1.6875q0.21875 0.6875038 0.671875 1.0312538q0.46875 0.34375 1.21875 0.34375q0.734375 0 1.1875 -0.34375q0.46875 -0.34375 0.6875 -1.0312538q0.21875 -0.6875 0.21875 -1.6875q0 -1.015625 -0.21875 -1.671875q-0.21875 -0.671875 -0.6875 -1.015625q-0.453125 -0.34375 -1.203125 -0.34375q-1.09375 0 -1.59375 0.765625q-0.5 0.75 -0.5 2.265625zm11.753967 5.109379l-3.875 -10.187504l2.90625 0l1.96875 5.8125q0.15625 0.5 0.25 1.0781288q0.109375 0.5625 0.140625 1.0l0.078125 0q0.015625 -0.484375 0.125 -1.03125q0.109375 -0.5468788 0.28125 -1.0468788l1.953125 -5.8125l2.90625 0l-3.875 10.187504l-2.859375 0zm10.971924 -10.187504l0 10.187504l-2.78125 0l0 -10.187504l2.78125 0zm-1.390625 -3.984375q0.625 0 1.0625 0.296875q0.453125 0.28125 0.453125 1.0625q0 0.765625 -0.453125 1.0625q-0.4375 0.296875 -1.0625 0.296875q-0.625 0 -1.0625 -0.296875q-0.4375 -0.296875 -0.4375 -1.0625q0 -0.78125 0.4375 -1.0625q0.4375 -0.296875 1.0625 -0.296875zm7.5371704 14.359379q-1.703125 0 -2.78125 -1.328125q-1.0625 -1.34375 -1.0625 -3.9375038q0 -2.609375 1.078125 -3.953125q1.078125 -1.34375 2.828125 -1.34375q0.734375 0 1.28125 0.203125q0.5625 0.203125 0.96875 0.546875q0.40625 0.328125 0.6875 0.75l0.09375 0q-0.0625 -0.296875 -0.140625 -0.859375q-0.078125 -0.578125 -0.078125 -1.171875l0 -3.265625l2.796875 0l0 14.171879l-2.140625 0l-0.53125 -1.328125l-0.125 0q-0.25 0.421875 -0.65625 0.765625q-0.390625 0.34375 -0.9375 0.546875q-0.546875 0.203125 -1.28125 0.203125zm0.96875 -2.21875q1.140625 0 1.609375 -0.671875q0.46875 -0.6875038 0.5 -2.0468788l0 -0.3125q0 -1.484375 -0.46875 -2.265625q-0.453125 -0.78125 -1.6875 -0.78125q-0.921875 0 -1.4375 0.796875q-0.515625 0.78125 -0.515625 2.28125q0 1.484375 0.515625 2.2500038q0.53125 0.75 1.484375 0.75zm11.805908 -8.343754q1.40625 0 2.421875 0.546875q1.03125 0.53125 1.578125 1.5625q0.5625 1.03125 0.5625 2.515625l0 1.34375l-6.5625 0q0.046875 1.1875038 0.703125 1.8593788q0.65625 0.65625 1.828125 0.65625q0.984375 0 1.796875 -0.1875q0.8125 -0.203125 1.65625 -0.609375l0 2.15625q-0.75 0.375 -1.578125 0.546875q-0.828125 0.171875 -2.0 0.171875q-1.53125 0 -2.71875 -0.5625q-1.171875 -0.578125 -1.84375 -1.734375q-0.65625 -1.15625 -0.65625 -2.9062538q0 -1.796875 0.59375 -2.984375q0.609375 -1.1875 1.6875 -1.78125q1.09375 -0.59375 2.53125 -0.59375zm0.015625 1.96875q-0.8125 0 -1.34375 0.53125q-0.53125 0.515625 -0.609375 1.625l3.890625 0q0 -0.625 -0.21875 -1.09375q-0.21875 -0.484375 -0.640625 -0.765625q-0.421875 -0.296875 -1.078125 -0.296875zm12.491272 -1.96875q0.203125 0 0.484375 0.03125q0.28125 0.015625 0.453125 0.046875l-0.203125 2.609375q-0.140625 -0.046875 -0.390625 -0.0625q-0.25 -0.03125 -0.4375 -0.03125q-0.53125 0 -1.046875 0.140625q-0.5 0.140625 -0.90625 0.453125q-0.390625 0.296875 -0.625 0.796875q-0.234375 0.484375 -0.234375 1.203125l0 5.187504l-2.78125 0l0 -10.187504l2.109375 0l0.40625 1.71875l0.140625 0q0.296875 -0.515625 0.75 -0.953125q0.453125 -0.4375 1.03125 -0.6875q0.578125 -0.265625 1.25 -0.265625z" fill-rule="nonzero"/><path fill="#000000" fill-opacity="0.0" d="m656.74805 588.32544l115.747986 0l0 42.015747l-115.747986 0z" fill-rule="evenodd"/><path fill="#d9d9d9" d="m697.18896 192.67728l0 0c0 -3.2093964 2.6017456 -5.811142 5.811157 -5.811142l23.243835 0l0 0c1.5412598 0 3.019287 0.61224365 4.109131 1.7020569c1.0897827 1.089798 1.7020264 2.5678864 1.7020264 4.109085l0 30.393478c0 3.2093964 -2.6017456 5.811142 -5.811157 5.811142l-23.243835 0c-3.2094116 0 -5.811157 -2.6017456 -5.811157 -5.811142z" fill-rule="evenodd"/><path fill="#d9d9d9" d="m82.27559 346.29538l0 0c0 -3.209381 2.601738 -5.8111267 5.811142 -5.8111267l23.243858 0l0 0c1.541214 0 3.0193024 0.61224365 4.1091003 1.7020569c1.089798 1.0897827 1.7020416 2.567871 1.7020416 4.10907l0 30.393494c0 3.209381 -2.601738 5.8111267 -5.811142 5.8111267l-23.243858 0c-3.209404 0 -5.811142 -2.6017456 -5.811142 -5.8111267z" fill-rule="evenodd"/><path fill="#d9d9d9" d="m697.18896 346.29538l0 0c0 -3.209381 2.6017456 -5.8111267 5.811157 -5.8111267l23.243835 0l0 0c1.5412598 0 3.019287 0.61224365 4.109131 1.7020569c1.0897827 1.0897827 1.7020264 2.567871 1.7020264 4.10907l0 30.393494c0 3.209381 -2.6017456 5.8111267 -5.811157 5.8111267l-23.243835 0c-3.2094116 0 -5.811157 -2.6017456 -5.811157 -5.8111267z" fill-rule="evenodd"/><path fill="#000000" fill-opacity="0.0" d="m117.14173 361.49213l580.063 0" fill-rule="evenodd"/><path stroke="#000000" stroke-width="1.0" stroke-linejoin="round" stroke-linecap="butt" d="m117.14173 361.49213l574.063 0" fill-rule="evenodd"/><path fill="#000000" stroke="#000000" stroke-width="1.0" stroke-linecap="butt" d="m691.2047 363.14386l4.538086 -1.6517334l-4.538086 -1.6517334z" fill-rule="evenodd"/><path fill="#000000" fill-opacity="0.0" d="m167.60236 327.57217l189.10236 0l0 33.921265l-189.10236 0z" fill-rule="evenodd"/><path fill="#000000" d="m188.12814 348.8528l-4.765625 0l0 -8.5625l4.765625 0l0 0.875l-3.765625 0l0 2.765625l3.546875 0l0 0.875l-3.546875 0l0 3.171875l3.765625 0l0 0.875zm5.9179688 -1.765625q0 0.625 -0.3125 1.046875q-0.3125 0.40625 -0.890625 0.625q-0.5625 0.21875 -1.359375 0.21875q-0.671875 0 -1.171875 -0.109375q-0.484375 -0.109375 -0.84375 -0.296875l0 -0.90625q0.390625 0.203125 0.9375 0.359375q0.546875 0.15625 1.109375 0.15625q0.828125 0 1.203125 -0.265625q0.375 -0.28125 0.375 -0.734375q0 -0.265625 -0.15625 -0.46875q-0.140625 -0.203125 -0.5 -0.390625q-0.34375 -0.1875 -0.96875 -0.421875q-0.609375 -0.234375 -1.0625 -0.46875q-0.4375 -0.234375 -0.6875 -0.5625q-0.25 -0.328125 -0.25 -0.875q0 -0.8125 0.65625 -1.25q0.671875 -0.4375 1.734375 -0.4375q0.59375 0 1.09375 0.125q0.5 0.109375 0.953125 0.296875l-0.328125 0.78125q-0.40625 -0.171875 -0.859375 -0.28125q-0.453125 -0.125 -0.921875 -0.125q-0.671875 0 -1.03125 0.234375q-0.359375 0.21875 -0.359375 0.609375q0 0.296875 0.15625 0.5q0.171875 0.1875 0.546875 0.359375q0.375 0.15625 0.96875 0.390625q0.609375 0.21875 1.046875 0.46875q0.4375 0.234375 0.671875 0.578125q0.25 0.328125 0.25 0.84375zm3.625 1.078125q0.25 0 0.5 -0.03125q0.25 -0.046875 0.40625 -0.109375l0 0.765625q-0.171875 0.078125 -0.46875 0.125q-0.296875 0.0625 -0.59375 0.0625q-0.5 0 -0.921875 -0.171875q-0.421875 -0.1875 -0.671875 -0.609375q-0.234375 -0.4375 -0.234375 -1.203125l0 -3.796875l-0.921875 0l0 -0.484375l0.921875 -0.375l0.390625 -1.390625l0.578125 0l0 1.484375l1.890625 0l0 0.765625l-1.890625 0l0 3.78125q0 0.59375 0.28125 0.890625q0.28125 0.296875 0.734375 0.296875zm4.6054688 -5.84375q1.15625 0 1.703125 0.515625q0.5625 0.515625 0.5625 1.65625l0 4.359375l-0.703125 0l-0.1875 -0.953125l-0.046875 0q-0.265625 0.359375 -0.5625 0.59375q-0.296875 0.234375 -0.6875 0.359375q-0.375 0.125 -0.9375 0.125q-0.578125 0 -1.03125 -0.203125q-0.453125 -0.21875 -0.71875 -0.625q-0.265625 -0.421875 -0.265625 -1.0625q0 -0.953125 0.765625 -1.46875q0.765625 -0.515625 2.328125 -0.5625l1.09375 -0.046875l0 -0.40625q0 -0.828125 -0.359375 -1.15625q-0.34375 -0.34375 -1.0 -0.34375q-0.5 0 -0.96875 0.15625q-0.453125 0.140625 -0.859375 0.34375l-0.296875 -0.734375q0.4375 -0.234375 1.0 -0.390625q0.5625 -0.15625 1.171875 -0.15625zm1.3125 3.359375l-0.984375 0.046875q-1.203125 0.046875 -1.703125 0.390625q-0.484375 0.34375 -0.484375 0.984375q0 0.546875 0.328125 0.8125q0.34375 0.265625 0.890625 0.265625q0.859375 0 1.40625 -0.46875q0.546875 -0.484375 0.546875 -1.4375l0 -0.59375zm3.9335938 -5.953125l0 2.28125q0 0.390625 -0.03125 0.765625q-0.015625 0.375 -0.015625 0.578125l0.046875 0q0.265625 -0.4375 0.765625 -0.734375q0.5 -0.296875 1.265625 -0.296875q1.203125 0 1.921875 0.84375q0.71875 0.828125 0.71875 2.46875q0 1.078125 -0.328125 1.828125q-0.328125 0.75 -0.921875 1.140625q-0.59375 0.375 -1.40625 0.375q-0.765625 0 -1.265625 -0.28125q-0.484375 -0.296875 -0.75 -0.703125l-0.078125 0l-0.1875 0.859375l-0.703125 0l0 -9.125l0.96875 0zm1.875 3.40625q-0.703125 0 -1.109375 0.28125q-0.40625 0.265625 -0.59375 0.8125q-0.171875 0.546875 -0.171875 1.390625l0 0.046875q0 1.21875 0.40625 1.859375q0.40625 0.640625 1.46875 0.640625q0.890625 0 1.34375 -0.65625q0.453125 -0.65625 0.453125 -1.875q0 -1.25 -0.453125 -1.875q-0.4375 -0.625 -1.34375 -0.625zm5.466797 5.71875l-0.96875 0l0 -9.125l0.96875 0l0 9.125zm3.0292969 -6.421875l0 6.421875l-0.96875 0l0 -6.421875l0.96875 0zm-0.46875 -2.40625q0.234375 0 0.40625 0.15625q0.171875 0.15625 0.171875 0.484375q0 0.328125 -0.171875 0.484375q-0.171875 0.15625 -0.40625 0.15625q-0.265625 0 -0.4375 -0.15625q-0.15625 -0.15625 -0.15625 -0.484375q0 -0.328125 0.15625 -0.484375q0.171875 -0.15625 0.4375 -0.15625zm6.685547 7.0625q0 0.625 -0.3125 1.046875q-0.3125 0.40625 -0.890625 0.625q-0.5625 0.21875 -1.359375 0.21875q-0.671875 0 -1.171875 -0.109375q-0.484375 -0.109375 -0.84375 -0.296875l0 -0.90625q0.390625 0.203125 0.9375 0.359375q0.546875 0.15625 1.109375 0.15625q0.828125 0 1.203125 -0.265625q0.375 -0.28125 0.375 -0.734375q0 -0.265625 -0.15625 -0.46875q-0.140625 -0.203125 -0.5 -0.390625q-0.34375 -0.1875 -0.96875 -0.421875q-0.609375 -0.234375 -1.0625 -0.46875q-0.4375 -0.234375 -0.6875 -0.5625q-0.25 -0.328125 -0.25 -0.875q0 -0.8125 0.65625 -1.25q0.671875 -0.4375 1.734375 -0.4375q0.59375 0 1.09375 0.125q0.5 0.109375 0.953125 0.296875l-0.328125 0.78125q-0.40625 -0.171875 -0.859375 -0.28125q-0.453125 -0.125 -0.921875 -0.125q-0.671875 0 -1.03125 0.234375q-0.359375 0.21875 -0.359375 0.609375q0 0.296875 0.15625 0.5q0.171875 0.1875 0.546875 0.359375q0.375 0.15625 0.96875 0.390625q0.609375 0.21875 1.046875 0.46875q0.4375 0.234375 0.671875 0.578125q0.25 0.328125 0.25 0.84375zm2.53125 -7.359375l0 2.734375q0 0.234375 -0.015625 0.46875q-0.015625 0.234375 -0.03125 0.4375l0.0625 0q0.1875 -0.34375 0.5 -0.5625q0.3125 -0.234375 0.703125 -0.359375q0.390625 -0.125 0.828125 -0.125q0.78125 0 1.296875 0.25q0.515625 0.25 0.765625 0.765625q0.265625 0.515625 0.265625 1.328125l0 4.1875l-0.953125 0l0 -4.125q0 -0.796875 -0.375 -1.1875q-0.359375 -0.40625 -1.109375 -0.40625q-0.71875 0 -1.140625 0.28125q-0.421875 0.265625 -0.609375 0.796875q-0.1875 0.515625 -0.1875 1.28125l0 3.359375l-0.96875 0l0 -9.125l0.96875 0zm11.8984375 2.59375q1.15625 0 1.703125 0.515625q0.5625 0.515625 0.5625 1.65625l0 4.359375l-0.703125 0l-0.1875 -0.953125l-0.046875 0q-0.265625 0.359375 -0.5625 0.59375q-0.296875 0.234375 -0.6875 0.359375q-0.375 0.125 -0.9375 0.125q-0.578125 0 -1.03125 -0.203125q-0.453125 -0.21875 -0.71875 -0.625q-0.265625 -0.421875 -0.265625 -1.0625q0 -0.953125 0.765625 -1.46875q0.765625 -0.515625 2.328125 -0.5625l1.09375 -0.046875l0 -0.40625q0 -0.828125 -0.359375 -1.15625q-0.34375 -0.34375 -1.0 -0.34375q-0.5 0 -0.96875 0.15625q-0.453125 0.140625 -0.859375 0.34375l-0.296875 -0.734375q0.4375 -0.234375 1.0 -0.390625q0.5625 -0.15625 1.171875 -0.15625zm1.3125 3.359375l-0.984375 0.046875q-1.203125 0.046875 -1.703125 0.390625q-0.484375 0.34375 -0.484375 0.984375q0 0.546875 0.328125 0.8125q0.34375 0.265625 0.890625 0.265625q0.859375 0 1.40625 -0.46875q0.546875 -0.484375 0.546875 -1.4375l0 -0.59375zm8.363281 3.296875q-1.21875 0 -1.9375 -0.828125q-0.703125 -0.84375 -0.703125 -2.484375q0 -1.65625 0.71875 -2.5q0.734375 -0.859375 1.9375 -0.859375q0.515625 0 0.890625 0.140625q0.375 0.140625 0.65625 0.375q0.28125 0.21875 0.46875 0.5l0.0625 0q-0.015625 -0.1875 -0.046875 -0.5q-0.015625 -0.3125 -0.015625 -0.515625l0 -2.578125l0.96875 0l0 9.125l-0.78125 0l-0.15625 -0.921875l-0.03125 0q-0.1875 0.296875 -0.46875 0.53125q-0.28125 0.234375 -0.671875 0.375q-0.375 0.140625 -0.890625 0.140625zm0.15625 -0.8125q1.03125 0 1.453125 -0.578125q0.421875 -0.59375 0.421875 -1.75l0 -0.171875q0 -1.234375 -0.40625 -1.890625q-0.40625 -0.65625 -1.46875 -0.65625q-0.90625 0 -1.359375 0.6875q-0.4375 0.6875 -0.4375 1.875q0 1.1875 0.4375 1.84375q0.453125 0.640625 1.359375 0.640625zm5.873047 -5.734375l0 6.421875l-0.96875 0l0 -6.421875l0.96875 0zm-0.46875 -2.40625q0.234375 0 0.40625 0.15625q0.171875 0.15625 0.171875 0.484375q0 0.328125 -0.171875 0.484375q-0.171875 0.15625 -0.40625 0.15625q-0.265625 0 -0.4375 -0.15625q-0.15625 -0.15625 -0.15625 -0.484375q0 -0.328125 0.15625 -0.484375q0.171875 -0.15625 0.4375 -0.15625zm5.435547 2.28125q0.203125 0 0.40625 0.03125q0.21875 0.015625 0.375 0.046875l-0.125 0.90625q-0.15625 -0.046875 -0.34375 -0.0625q-0.1875 -0.03125 -0.359375 -0.03125q-0.390625 0 -0.734375 0.15625q-0.34375 0.15625 -0.609375 0.453125q-0.25 0.28125 -0.40625 0.703125q-0.140625 0.40625 -0.140625 0.890625l0 3.453125l-0.96875 0l0 -6.421875l0.796875 0l0.109375 1.1875l0.046875 0q0.203125 -0.359375 0.484375 -0.65625q0.28125 -0.296875 0.640625 -0.46875q0.375 -0.1875 0.828125 -0.1875zm4.466797 0q0.8125 0 1.390625 0.375q0.59375 0.359375 0.90625 1.015625q0.3125 0.65625 0.3125 1.515625l0 0.609375l-4.4375 0q0.015625 1.125 0.5625 1.71875q0.546875 0.59375 1.546875 0.59375q0.609375 0 1.078125 -0.109375q0.46875 -0.109375 0.96875 -0.328125l0 0.859375q-0.484375 0.21875 -0.96875 0.3125q-0.46875 0.109375 -1.125 0.109375q-0.921875 0 -1.609375 -0.375q-0.6875 -0.390625 -1.078125 -1.125q-0.375 -0.734375 -0.375 -1.796875q0 -1.03125 0.34375 -1.78125q0.34375 -0.765625 0.984375 -1.171875q0.640625 -0.421875 1.5 -0.421875zm-0.015625 0.796875q-0.78125 0 -1.25 0.515625q-0.453125 0.515625 -0.546875 1.421875l3.40625 0q0 -0.578125 -0.1875 -1.0q-0.171875 -0.4375 -0.53125 -0.6875q-0.34375 -0.25 -0.890625 -0.25zm6.8476562 5.875q-0.859375 0 -1.53125 -0.359375q-0.65625 -0.359375 -1.03125 -1.09375q-0.359375 -0.734375 -0.359375 -1.84375q0 -1.171875 0.390625 -1.90625q0.390625 -0.75 1.0625 -1.109375q0.6875 -0.359375 1.5625 -0.359375q0.484375 0 0.921875 0.109375q0.453125 0.09375 0.75 0.234375l-0.296875 0.8125q-0.296875 -0.109375 -0.6875 -0.203125q-0.375 -0.09375 -0.703125 -0.09375q-0.671875 0 -1.125 0.296875q-0.4375 0.28125 -0.65625 0.84375q-0.21875 0.546875 -0.21875 1.359375q0 0.78125 0.21875 1.328125q0.21875 0.546875 0.640625 0.84375q0.421875 0.28125 1.0625 0.28125q0.515625 0 0.921875 -0.09375q0.40625 -0.109375 0.734375 -0.265625l0 0.875q-0.3125 0.15625 -0.71875 0.25q-0.390625 0.09375 -0.9375 0.09375zm5.248047 -0.8125q0.25 0 0.5 -0.03125q0.25 -0.046875 0.40625 -0.109375l0 0.765625q-0.171875 0.078125 -0.46875 0.125q-0.296875 0.0625 -0.59375 0.0625q-0.5 0 -0.921875 -0.171875q-0.421875 -0.1875 -0.671875 -0.609375q-0.234375 -0.4375 -0.234375 -1.203125l0 -3.796875l-0.921875 0l0 -0.484375l0.921875 -0.375l0.390625 -1.390625l0.578125 0l0 1.484375l1.890625 0l0 0.765625l-1.890625 0l0 3.78125q0 0.59375 0.28125 0.890625q0.28125 0.296875 0.734375 0.296875zm7.8945312 0.8125q-0.859375 0 -1.53125 -0.359375q-0.65625 -0.359375 -1.03125 -1.09375q-0.359375 -0.734375 -0.359375 -1.84375q0 -1.171875 0.390625 -1.90625q0.390625 -0.75 1.0625 -1.109375q0.6875 -0.359375 1.5625 -0.359375q0.484375 0 0.921875 0.109375q0.453125 0.09375 0.75 0.234375l-0.296875 0.8125q-0.296875 -0.109375 -0.6875 -0.203125q-0.375 -0.09375 -0.703125 -0.09375q-0.671875 0 -1.125 0.296875q-0.4375 0.28125 -0.65625 0.84375q-0.21875 0.546875 -0.21875 1.359375q0 0.78125 0.21875 1.328125q0.21875 0.546875 0.640625 0.84375q0.421875 0.28125 1.0625 0.28125q0.515625 0 0.921875 -0.09375q0.40625 -0.109375 0.734375 -0.265625l0 0.875q-0.3125 0.15625 -0.71875 0.25q-0.390625 0.09375 -0.9375 0.09375zm8.716797 -3.34375q0 0.78125 -0.203125 1.40625q-0.203125 0.625 -0.59375 1.0625q-0.390625 0.421875 -0.9375 0.65625q-0.546875 0.21875 -1.234375 0.21875q-0.640625 0 -1.1875 -0.21875q-0.53125 -0.234375 -0.921875 -0.65625q-0.390625 -0.4375 -0.609375 -1.0625q-0.203125 -0.625 -0.203125 -1.40625q0 -1.0625 0.359375 -1.796875q0.359375 -0.75 1.015625 -1.140625q0.671875 -0.390625 1.59375 -0.390625q0.875 0 1.53125 0.40625q0.65625 0.390625 1.015625 1.140625q0.375 0.734375 0.375 1.78125zm-4.890625 0q0 0.765625 0.203125 1.34375q0.21875 0.5625 0.640625 0.875q0.421875 0.3125 1.09375 0.3125q0.671875 0 1.09375 -0.3125q0.4375 -0.3125 0.640625 -0.875q0.21875 -0.578125 0.21875 -1.34375q0 -0.765625 -0.21875 -1.328125q-0.203125 -0.5625 -0.625 -0.859375q-0.421875 -0.3125 -1.109375 -0.3125q-1.0 0 -1.46875 0.671875q-0.46875 0.65625 -0.46875 1.828125zm9.609375 -3.328125q1.140625 0 1.71875 0.5625q0.59375 0.5625 0.59375 1.796875l0 4.1875l-0.953125 0l0 -4.125q0 -0.796875 -0.375 -1.1875q-0.359375 -0.40625 -1.109375 -0.40625q-1.078125 0 -1.515625 0.609375q-0.421875 0.59375 -0.421875 1.75l0 3.359375l-0.96875 0l0 -6.421875l0.78125 0l0.140625 0.921875l0.0625 0q0.203125 -0.34375 0.515625 -0.5625q0.3125 -0.234375 0.703125 -0.359375q0.40625 -0.125 0.828125 -0.125zm7.359375 0q1.140625 0 1.71875 0.5625q0.59375 0.5625 0.59375 1.796875l0 4.1875l-0.953125 0l0 -4.125q0 -0.796875 -0.375 -1.1875q-0.359375 -0.40625 -1.109375 -0.40625q-1.078125 0 -1.515625 0.609375q-0.421875 0.59375 -0.421875 1.75l0 3.359375l-0.96875 0l0 -6.421875l0.78125 0l0.140625 0.921875l0.0625 0q0.203125 -0.34375 0.515625 -0.5625q0.3125 -0.234375 0.703125 -0.359375q0.40625 -0.125 0.828125 -0.125zm6.796875 0q0.8125 0 1.390625 0.375q0.59375 0.359375 0.90625 1.015625q0.3125 0.65625 0.3125 1.515625l0 0.609375l-4.4375 0q0.015625 1.125 0.5625 1.71875q0.546875 0.59375 1.546875 0.59375q0.609375 0 1.078125 -0.109375q0.46875 -0.109375 0.96875 -0.328125l0 0.859375q-0.484375 0.21875 -0.96875 0.3125q-0.46875 0.109375 -1.125 0.109375q-0.921875 0 -1.609375 -0.375q-0.6875 -0.390625 -1.078125 -1.125q-0.375 -0.734375 -0.375 -1.796875q0 -1.03125 0.34375 -1.78125q0.34375 -0.765625 0.984375 -1.171875q0.640625 -0.421875 1.5 -0.421875zm-0.015625 0.796875q-0.78125 0 -1.25 0.515625q-0.453125 0.515625 -0.546875 1.421875l3.40625 0q0 -0.578125 -0.1875 -1.0q-0.171875 -0.4375 -0.53125 -0.6875q-0.34375 -0.25 -0.890625 -0.25zm6.8476562 5.875q-0.859375 0 -1.53125 -0.359375q-0.65625 -0.359375 -1.03125 -1.09375q-0.359375 -0.734375 -0.359375 -1.84375q0 -1.171875 0.390625 -1.90625q0.390625 -0.75 1.0625 -1.109375q0.6875 -0.359375 1.5625 -0.359375q0.484375 0 0.921875 0.109375q0.453125 0.09375 0.75 0.234375l-0.296875 0.8125q-0.296875 -0.109375 -0.6875 -0.203125q-0.375 -0.09375 -0.703125 -0.09375q-0.671875 0 -1.125 0.296875q-0.4375 0.28125 -0.65625 0.84375q-0.21875 0.546875 -0.21875 1.359375q0 0.78125 0.21875 1.328125q0.21875 0.546875 0.640625 0.84375q0.421875 0.28125 1.0625 0.28125q0.515625 0 0.921875 -0.09375q0.40625 -0.109375 0.734375 -0.265625l0 0.875q-0.3125 0.15625 -0.71875 0.25q-0.390625 0.09375 -0.9375 0.09375zm5.248047 -0.8125q0.25 0 0.5 -0.03125q0.25 -0.046875 0.40625 -0.109375l0 0.765625q-0.171875 0.078125 -0.46875 0.125q-0.296875 0.0625 -0.59375 0.0625q-0.5 0 -0.921875 -0.171875q-0.421875 -0.1875 -0.671875 -0.609375q-0.234375 -0.4375 -0.234375 -1.203125l0 -3.796875l-0.921875 0l0 -0.484375l0.921875 -0.375l0.390625 -1.390625l0.578125 0l0 1.484375l1.890625 0l0 0.765625l-1.890625 0l0 3.78125q0 0.59375 0.28125 0.890625q0.28125 0.296875 0.734375 0.296875zm3.1835938 -5.734375l0 6.421875l-0.96875 0l0 -6.421875l0.96875 0zm-0.46875 -2.40625q0.234375 0 0.40625 0.15625q0.171875 0.15625 0.171875 0.484375q0 0.328125 -0.171875 0.484375q-0.171875 0.15625 -0.40625 0.15625q-0.265625 0 -0.4375 -0.15625q-0.15625 -0.15625 -0.15625 -0.484375q0 -0.328125 0.15625 -0.484375q0.171875 -0.15625 0.4375 -0.15625zm8.060547 5.609375q0 0.78125 -0.203125 1.40625q-0.203125 0.625 -0.59375 1.0625q-0.390625 0.421875 -0.9375 0.65625q-0.546875 0.21875 -1.234375 0.21875q-0.640625 0 -1.1875 -0.21875q-0.53125 -0.234375 -0.921875 -0.65625q-0.390625 -0.4375 -0.609375 -1.0625q-0.203125 -0.625 -0.203125 -1.40625q0 -1.0625 0.359375 -1.796875q0.359375 -0.75 1.015625 -1.140625q0.671875 -0.390625 1.59375 -0.390625q0.875 0 1.53125 0.40625q0.65625 0.390625 1.015625 1.140625q0.375 0.734375 0.375 1.78125zm-4.890625 0q0 0.765625 0.203125 1.34375q0.21875 0.5625 0.640625 0.875q0.421875 0.3125 1.09375 0.3125q0.671875 0 1.09375 -0.3125q0.4375 -0.3125 0.640625 -0.875q0.21875 -0.578125 0.21875 -1.34375q0 -0.765625 -0.21875 -1.328125q-0.203125 -0.5625 -0.625 -0.859375q-0.421875 -0.3125 -1.109375 -0.3125q-1.0 0 -1.46875 0.671875q-0.46875 0.65625 -0.46875 1.828125zm9.609375 -3.328125q1.140625 0 1.71875 0.5625q0.59375 0.5625 0.59375 1.796875l0 4.1875l-0.953125 0l0 -4.125q0 -0.796875 -0.375 -1.1875q-0.359375 -0.40625 -1.109375 -0.40625q-1.078125 0 -1.515625 0.609375q-0.421875 0.59375 -0.421875 1.75l0 3.359375l-0.96875 0l0 -6.421875l0.78125 0l0.140625 0.921875l0.0625 0q0.203125 -0.34375 0.515625 -0.5625q0.3125 -0.234375 0.703125 -0.359375q0.40625 -0.125 0.828125 -0.125z" fill-rule="nonzero"/></g></svg>