<svg version="1.1" viewBox="0.0 0.0 895.0419947506562 637.7191601049868" fill="none" stroke="none" stroke-linecap="square" stroke-miterlimit="10" xmlns:xlink="http://www.w3.org/1999/xlink" xmlns="http://www.w3.org/2000/svg"><clipPath id="p.0"><path d="m0 0l895.042 0l0 637.7192l-895.042 0l0 -637.7192z" clip-rule="nonzero"/></clipPath><g clip-path="url(#p.0)"><path fill="#000000" fill-opacity="0.0" d="m0 0l895.042 0l0 637.7192l-895.042 0z" fill-rule="evenodd"/><path fill="#000000" fill-opacity="0.0" d="m418.5 65.93044l0 505.85825" fill-rule="evenodd"/><path stroke="#000000" stroke-width="1.0" stroke-linejoin="round" stroke-linecap="butt" stroke-dasharray="4.0,3.0" d="m418.5 65.93044l0 505.85825" fill-rule="evenodd"/><path fill="#000000" fill-opacity="0.0" d="m481.68634 65.92913l0 505.85828" fill-rule="evenodd"/><path stroke="#000000" stroke-width="1.0" stroke-linejoin="round" stroke-linecap="butt" stroke-dasharray="4.0,3.0" d="m481.68634 65.92913l0 505.85828" fill-rule="evenodd"/><path fill="#000000" fill-opacity="0.0" d="m754.97766 65.92519l0 505.85825" fill-rule="evenodd"/><path stroke="#000000" stroke-width="1.0" stroke-linejoin="round" stroke-linecap="butt" stroke-dasharray="4.0,3.0" d="m754.97766 65.92519l0 505.85825" fill-rule="evenodd"/><path fill="#000000" fill-opacity="0.0" d="m82.19029 23.909449l115.74803 0l0 42.015747l-115.74803 0z" fill-rule="evenodd"/><path fill="#000000" d="m115.70087 43.782574l0.921875 0q1.3125 0 1.953125 -0.515625q0.65625 -0.515625 0.65625 -1.5q0 -1.0 -0.546875 -1.46875q-0.546875 -0.46875 -1.703125 -0.46875l-1.28125 0l0 3.953125zm6.375 -2.125q0 2.15625 -1.34375 3.296875q-1.34375 1.140625 -3.8125 1.140625l-1.21875 0l0 4.734375l-2.828125 0l0 -13.3125l4.265625 0q2.421875 0 3.671875 1.046875q1.265625 1.03125 1.265625 3.09375zm6.511688 0.765625q-0.875 0 -1.375 0.5625q-0.5 0.5625 -0.578125 1.59375l3.890625 0q-0.015625 -1.03125 -0.53125 -1.59375q-0.515625 -0.5625 -1.40625 -0.5625zm0.390625 8.59375q-2.453125 0 -3.84375 -1.359375q-1.375 -1.359375 -1.375 -3.84375q0 -2.5625 1.265625 -3.953125q1.28125 -1.40625 3.546875 -1.40625q2.15625 0 3.359375 1.234375q1.203125 1.21875 1.203125 3.390625l0 1.34375l-6.5625 0q0.046875 1.1875 0.703125 1.859375q0.65625 0.65625 1.828125 0.65625q0.921875 0 1.734375 -0.1875q0.828125 -0.1875 1.71875 -0.609375l0 2.15625q-0.71875 0.359375 -1.546875 0.53125q-0.828125 0.1875 -2.03125 0.1875zm10.631866 -8.59375q-0.875 0 -1.375 0.5625q-0.5 0.5625 -0.578125 1.59375l3.890625 0q-0.015625 -1.03125 -0.53125 -1.59375q-0.515625 -0.5625 -1.40625 -0.5625zm0.390625 8.59375q-2.453125 0 -3.84375 -1.359375q-1.375 -1.359375 -1.375 -3.84375q0 -2.5625 1.265625 -3.953125q1.28125 -1.40625 3.546875 -1.40625q2.15625 0 3.359375 1.234375q1.203125 1.21875 1.203125 3.390625l0 1.34375l-6.5625 0q0.046875 1.1875 0.703125 1.859375q0.65625 0.65625 1.828125 0.65625q0.921875 0 1.734375 -0.1875q0.828125 -0.1875 1.71875 -0.609375l0 2.15625q-0.71875 0.359375 -1.546875 0.53125q-0.828125 0.1875 -2.03125 0.1875zm12.100616 -10.5625q0.5625 0 0.9375 0.078125l-0.203125 2.609375q-0.34375 -0.09375 -0.828125 -0.09375q-1.328125 0 -2.078125 0.6875q-0.734375 0.6875 -0.734375 1.90625l0 5.1875l-2.78125 0l0 -10.1875l2.109375 0l0.40625 1.71875l0.140625 0q0.46875 -0.859375 1.265625 -1.375q0.8125 -0.53125 1.765625 -0.53125zm13.880585 10.375l-2.8125 0l0 -7.703125l0.03125 -1.265625l0.046875 -1.390625q-0.703125 0.703125 -0.984375 0.921875l-1.53125 1.234375l-1.34375 -1.703125l4.28125 -3.40625l2.3125 0l0 13.3125z" fill-rule="nonzero"/><path fill="#000000" fill-opacity="0.0" d="m389.64697 23.909449l115.74805 0l0 42.015747l-115.74805 0z" fill-rule="evenodd"/><path fill="#000000" d="m417.3825 37.51695l4.15625 0q2.828125 0 4.109375 0.8125q1.28125 0.796875 1.28125 2.546875q0 1.203125 -0.5625 1.96875q-0.5625 0.765625 -1.484375 0.921875l0 0.078125q1.265625 0.28125 1.8125 1.0625q0.5625 0.78125 0.5625 2.0625q0 1.8125 -1.3125 2.84375q-1.3125 1.015625 -3.578125 1.015625l-4.984375 0l0 -13.3125zm2.828125 5.265625l1.640625 0q1.140625 0 1.65625 -0.34375q0.515625 -0.359375 0.515625 -1.1875q0 -0.765625 -0.5625 -1.09375q-0.546875 -0.328125 -1.765625 -0.328125l-1.484375 0l0 2.953125zm0 2.25l0 3.46875l1.84375 0q1.15625 0 1.71875 -0.4375q0.5625 -0.453125 0.5625 -1.375q0 -1.65625 -2.375 -1.65625l-1.75 0zm15.175293 -4.578125q0.5625 0 0.9375 0.078125l-0.203125 2.609375q-0.34375 -0.09375 -0.828125 -0.09375q-1.328125 0 -2.078125 0.6875q-0.734375 0.6875 -0.734375 1.90625l0 5.1875l-2.78125 0l0 -10.1875l2.109375 0l0.40625 1.71875l0.140625 0q0.46875 -0.859375 1.265625 -1.375q0.8125 -0.53125 1.765625 -0.53125zm5.0030823 5.265625q0 1.515625 0.5 2.296875q0.5 0.765625 1.609375 0.765625q1.109375 0 1.59375 -0.765625q0.5 -0.78125 0.5 -2.296875q0 -1.515625 -0.5 -2.265625q-0.484375 -0.765625 -1.609375 -0.765625q-1.109375 0 -1.609375 0.765625q-0.484375 0.75 -0.484375 2.265625zm7.046875 0q0 2.484375 -1.3125 3.890625q-1.3125 1.40625 -3.65625 1.40625q-1.46875 0 -2.59375 -0.640625q-1.109375 -0.65625 -1.71875 -1.84375q-0.59375 -1.203125 -0.59375 -2.8125q0 -2.5 1.296875 -3.875q1.296875 -1.390625 3.65625 -1.390625q1.46875 0 2.59375 0.640625q1.125 0.640625 1.71875 1.828125q0.609375 1.1875 0.609375 2.796875zm4.9570923 -0.421875l1.21875 -1.5625l2.84375 -3.09375l3.140625 0l-4.046875 4.421875l4.28125 5.765625l-3.203125 0l-2.9375 -4.125l-1.1875 0.953125l0 3.171875l-2.78125 0l0 -14.171875l2.78125 0l0 6.3125l-0.140625 2.328125l0.03125 0zm13.115936 -2.875q-0.875 0 -1.375 0.5625q-0.5 0.5625 -0.578125 1.59375l3.890625 0q-0.015625 -1.03125 -0.53125 -1.59375q-0.515625 -0.5625 -1.40625 -0.5625zm0.390625 8.59375q-2.453125 0 -3.84375 -1.359375q-1.375 -1.359375 -1.375 -3.84375q0 -2.5625 1.265625 -3.953125q1.28125 -1.40625 3.546875 -1.40625q2.15625 0 3.359375 1.234375q1.203125 1.21875 1.203125 3.390625l0 1.34375l-6.5625 0q0.046875 1.1875 0.703125 1.859375q0.65625 0.65625 1.828125 0.65625q0.921875 0 1.734375 -0.1875q0.828125 -0.1875 1.71875 -0.609375l0 2.15625q-0.71875 0.359375 -1.546875 0.53125q-0.828125 0.1875 -2.03125 0.1875zm12.100616 -10.5625q0.5625 0 0.9375 0.078125l-0.203125 2.609375q-0.34375 -0.09375 -0.828125 -0.09375q-1.328125 0 -2.078125 0.6875q-0.734375 0.6875 -0.734375 1.90625l0 5.1875l-2.78125 0l0 -10.1875l2.109375 0l0.40625 1.71875l0.140625 0q0.46875 -0.859375 1.265625 -1.375q0.8125 -0.53125 1.765625 -0.53125z" fill-rule="nonzero"/><path fill="#000000" fill-opacity="0.0" d="m82.19029 571.79395l115.74803 0l0 42.015747l-115.74803 0z" fill-rule="evenodd"/><path fill="#000000" fill-opacity="0.0" d="m140.0643 65.92519l0 505.85825" fill-rule="evenodd"/><path stroke="#000000" stroke-width="1.0" stroke-linejoin="round" stroke-linecap="butt" stroke-dasharray="4.0,3.0" d="m140.0643 65.92519l0 505.85825" fill-rule="evenodd"/><path fill="#000000" fill-opacity="0.0" d="m389.64697 571.79395l115.74805 0l0 42.015747l-115.74805 0z" fill-rule="evenodd"/><path fill="#d9d9d9" d="m122.63123 102.93319l0 0c0 -3.209404 2.601738 -5.811142 5.8111343 -5.811142l23.243866 0l0 0c1.541214 0 3.0193024 0.61224365 4.1091003 1.7020416c1.089798 1.089798 1.7020416 2.5678864 1.7020416 4.1091003l0 30.39347c0 3.2093964 -2.6017303 5.811142 -5.811142 5.811142l-23.243866 0c-3.2093964 0 -5.8111343 -2.6017456 -5.8111343 -5.811142z" fill-rule="evenodd"/><path fill="#d9d9d9" d="m401.06693 102.93319l0 0c0 -3.209404 2.6017456 -5.811142 5.811157 -5.811142l23.243835 0l0 0c1.5412292 0 3.0193176 0.61224365 4.1091003 1.7020416c1.0898132 1.089798 1.7020569 2.5678864 1.7020569 4.1091003l0 30.39347c0 3.2093964 -2.6017456 5.811142 -5.811157 5.811142l-23.243835 0c-3.2094116 0 -5.811157 -2.6017456 -5.811157 -5.811142z" fill-rule="evenodd"/><path fill="#000000" fill-opacity="0.0" d="m157.49738 118.12992l243.55905 0" fill-rule="evenodd"/><path stroke="#000000" stroke-width="1.0" stroke-linejoin="round" stroke-linecap="butt" d="m157.49738 118.12992l237.55905 0" fill-rule="evenodd"/><path fill="#000000" stroke="#000000" stroke-width="1.0" stroke-linecap="butt" d="m395.05643 119.781654l4.538086 -1.6517334l-4.538086 -1.6517334z" fill-rule="evenodd"/><path fill="#000000" fill-opacity="0.0" d="m199.24211 84.208664l189.10237 0l0 33.921257l-189.10237 0z" fill-rule="evenodd"/><path fill="#000000" d="m250.39388 103.20804q0 1.125 -0.828125 1.765625q-0.8125 0.640625 -2.21875 0.640625q-1.53125 0 -2.34375 -0.40625l0 -0.953125q0.53125 0.21875 1.140625 0.359375q0.625 0.125 1.234375 0.125q1.0 0 1.5 -0.375q0.5 -0.390625 0.5 -1.0625q0 -0.4375 -0.1875 -0.71875q-0.171875 -0.296875 -0.59375 -0.53125q-0.40625 -0.25 -1.265625 -0.546875q-1.1875 -0.421875 -1.703125 -1.0q-0.515625 -0.59375 -0.515625 -1.546875q0 -0.984375 0.734375 -1.5625q0.75 -0.59375 1.984375 -0.59375q1.265625 0 2.34375 0.46875l-0.3125 0.859375q-1.0625 -0.4375 -2.0625 -0.4375q-0.796875 0 -1.25 0.34375q-0.4375 0.328125 -0.4375 0.9375q0 0.4375 0.15625 0.734375q0.171875 0.28125 0.5625 0.515625q0.390625 0.234375 1.203125 0.53125q1.34375 0.46875 1.84375 1.03125q0.515625 0.546875 0.515625 1.421875zm4.3203125 2.40625q-1.421875 0 -2.25 -0.875q-0.828125 -0.875 -0.828125 -2.40625q0 -1.5625 0.765625 -2.46875q0.765625 -0.921875 2.0625 -0.921875q1.203125 0 1.9062653 0.796875q0.703125 0.796875 0.703125 2.09375l0 0.625l-4.4218903 0q0.03125 1.125 0.5625 1.71875q0.546875 0.578125 1.53125 0.578125q1.03125 0 2.0468903 -0.4375l0 0.875q-0.515625 0.21875 -0.98439026 0.3125q-0.453125 0.109375 -1.09375 0.109375zm-0.265625 -5.84375q-0.78125 0 -1.25 0.5q-0.453125 0.5 -0.53125 1.390625l3.3593903 0q0 -0.921875 -0.40626526 -1.40625q-0.40625 -0.484375 -1.171875 -0.484375zm8.669937 5.71875l0 -4.15625q0 -0.78125 -0.359375 -1.171875q-0.34375 -0.390625 -1.109375 -0.390625q-1.015625 0 -1.484375 0.546875q-0.46875 0.546875 -0.46875 1.796875l0 3.375l-0.96875 0l0 -6.421875l0.796875 0l0.15625 0.875l0.046875 0q0.296875 -0.46875 0.828125 -0.734375q0.546875 -0.265625 1.203125 -0.265625q1.171875 0 1.75 0.5625q0.59375 0.5625 0.59375 1.796875l0 4.1875l-0.984375 0zm7.3496094 -0.859375l-0.0625 0q-0.671875 0.984375 -2.015625 0.984375q-1.25 0 -1.953125 -0.859375q-0.703125 -0.875 -0.703125 -2.453125q0 -1.59375 0.703125 -2.46875q0.703125 -0.890625 1.953125 -0.890625q1.3125 0 2.015625 0.953125l0.078125 0l-0.046875 -0.453125l-0.03125 -0.453125l0 -2.625l0.984375 0l0 9.125l-0.796875 0l-0.125 -0.859375zm-1.953125 0.15625q1.0 0 1.4375 -0.53125q0.453125 -0.546875 0.453125 -1.75l0 -0.203125q0 -1.375 -0.453125 -1.953125q-0.453125 -0.578125 -1.4375 -0.578125q-0.859375 0 -1.3125 0.671875q-0.453125 0.65625 -0.453125 1.859375q0 1.234375 0.4375 1.859375q0.453125 0.625 1.328125 0.625zm12.423828 -0.15625l-0.0625 0q-0.671875 0.984375 -2.015625 0.984375q-1.25 0 -1.953125 -0.859375q-0.703125 -0.875 -0.703125 -2.453125q0 -1.59375 0.703125 -2.46875q0.703125 -0.890625 1.953125 -0.890625q1.3125 0 2.015625 0.953125l0.078125 0l-0.046875 -0.453125l-0.03125 -0.453125l0 -2.625l0.984375 0l0 9.125l-0.796875 0l-0.125 -0.859375zm-1.953125 0.15625q1.0 0 1.4375 -0.53125q0.453125 -0.546875 0.453125 -1.75l0 -0.203125q0 -1.375 -0.453125 -1.953125q-0.453125 -0.578125 -1.4375 -0.578125q-0.859375 0 -1.3125 0.671875q-0.453125 0.65625 -0.453125 1.859375q0 1.234375 0.4375 1.859375q0.453125 0.625 1.328125 0.625zm5.9003906 0.703125l-0.96875 0l0 -6.421875l0.96875 0l0 6.421875zm-1.046875 -8.15625q0 -0.34375 0.15625 -0.5q0.171875 -0.15625 0.421875 -0.15625q0.234375 0 0.390625 0.171875q0.171875 0.15625 0.171875 0.484375q0 0.328125 -0.171875 0.484375q-0.15625 0.15625 -0.390625 0.15625q-0.25 0 -0.421875 -0.15625q-0.15625 -0.15625 -0.15625 -0.484375zm7.0664062 8.15625l-0.203125 -0.921875l-0.046875 0q-0.46875 0.609375 -0.953125 0.828125q-0.46875 0.21875 -1.1875 0.21875q-0.953125 0 -1.5 -0.5q-0.546875 -0.5 -0.546875 -1.40625q0 -1.9375 3.109375 -2.03125l1.09375 -0.03125l0 -0.40625q0 -0.75 -0.328125 -1.109375q-0.3125 -0.359375 -1.03125 -0.359375q-0.8125 0 -1.8125 0.484375l-0.3125 -0.75q0.484375 -0.25 1.046875 -0.390625q0.5625 -0.15625 1.140625 -0.15625q1.140625 0 1.6875 0.515625q0.5625 0.5 0.5625 1.625l0 4.390625l-0.71875 0zm-2.203125 -0.6875q0.90625 0 1.421875 -0.5q0.53125 -0.5 0.53125 -1.390625l0 -0.578125l-0.984375 0.03125q-1.15625 0.046875 -1.671875 0.375q-0.5 0.3125 -0.5 0.984375q0 0.53125 0.3125 0.8125q0.3125 0.265625 0.890625 0.265625zm5.892578 0.6875l-0.96875 0l0 -9.125l0.96875 0l0 9.125zm9.136719 0l-0.203125 -0.921875l-0.046875 0q-0.46875 0.609375 -0.953125 0.828125q-0.46875 0.21875 -1.1875 0.21875q-0.953125 0 -1.5 -0.5q-0.546875 -0.5 -0.546875 -1.40625q0 -1.9375 3.109375 -2.03125l1.09375 -0.03125l0 -0.40625q0 -0.75 -0.328125 -1.109375q-0.3125 -0.359375 -1.03125 -0.359375q-0.8125 0 -1.8125 0.484375l-0.3125 -0.75q0.484375 -0.25 1.046875 -0.390625q0.5625 -0.15625 1.140625 -0.15625q1.140625 0 1.6875 0.515625q0.5625 0.5 0.5625 1.625l0 4.390625l-0.71875 0zm-2.203125 -0.6875q0.90625 0 1.421875 -0.5q0.53125 -0.5 0.53125 -1.390625l0 -0.578125l-0.984375 0.03125q-1.15625 0.046875 -1.671875 0.375q-0.5 0.3125 -0.5 0.984375q0 0.53125 0.3125 0.8125q0.3125 0.265625 0.890625 0.265625zm9.298828 -0.171875l-0.0625 0q-0.671875 0.984375 -2.015625 0.984375q-1.25 0 -1.953125 -0.859375q-0.703125 -0.875 -0.703125 -2.453125q0 -1.59375 0.703125 -2.46875q0.703125 -0.890625 1.953125 -0.890625q1.3125 0 2.015625 0.953125l0.078125 0l-0.046875 -0.453125l-0.03125 -0.453125l0 -2.625l0.984375 0l0 9.125l-0.796875 0l-0.125 -0.859375zm-1.953125 0.15625q1.0 0 1.4375 -0.53125q0.453125 -0.546875 0.453125 -1.75l0 -0.203125q0 -1.375 -0.453125 -1.953125q-0.453125 -0.578125 -1.4375 -0.578125q-0.859375 0 -1.3125 0.671875q-0.453125 0.65625 -0.453125 1.859375q0 1.234375 0.4375 1.859375q0.453125 0.625 1.328125 0.625zm9.306641 -0.15625l-0.0625 0q-0.671875 0.984375 -2.015625 0.984375q-1.25 0 -1.953125 -0.859375q-0.703125 -0.875 -0.703125 -2.453125q0 -1.59375 0.703125 -2.46875q0.703125 -0.890625 1.953125 -0.890625q1.3125 0 2.015625 0.953125l0.078125 0l-0.046875 -0.453125l-0.03125 -0.453125l0 -2.625l0.984375 0l0 9.125l-0.796875 0l-0.125 -0.859375zm-1.953125 0.15625q1.0 0 1.4375 -0.53125q0.453125 -0.546875 0.453125 -1.75l0 -0.203125q0 -1.375 -0.453125 -1.953125q-0.453125 -0.578125 -1.4375 -0.578125q-0.859375 0 -1.3125 0.671875q-0.453125 0.65625 -0.453125 1.859375q0 1.234375 0.4375 1.859375q0.453125 0.625 1.328125 0.625zm7.8691406 -5.84375q0.421875 0 0.765625 0.078125l-0.140625 0.90625q-0.390625 -0.09375 -0.703125 -0.09375q-0.78125 0 -1.34375 0.640625q-0.546875 0.625 -0.546875 1.5625l0 3.453125l-0.96875 0l0 -6.421875l0.796875 0l0.125 1.1875l0.046875 0q0.34375 -0.625 0.84375 -0.96875q0.515625 -0.34375 1.125 -0.34375zm4.6796875 6.671875q-1.421875 0 -2.25 -0.875q-0.828125 -0.875 -0.828125 -2.40625q0 -1.5625 0.765625 -2.46875q0.765625 -0.921875 2.0625 -0.921875q1.203125 0 1.90625 0.796875q0.703125 0.796875 0.703125 2.09375l0 0.625l-4.421875 0q0.03125 1.125 0.5625 1.71875q0.546875 0.578125 1.53125 0.578125q1.03125 0 2.046875 -0.4375l0 0.875q-0.515625 0.21875 -0.984375 0.3125q-0.453125 0.109375 -1.09375 0.109375zm-0.265625 -5.84375q-0.78125 0 -1.25 0.5q-0.453125 0.5 -0.53125 1.390625l3.359375 0q0 -0.921875 -0.40625 -1.40625q-0.40625 -0.484375 -1.171875 -0.484375zm8.419922 3.96875q0 0.890625 -0.671875 1.390625q-0.65625 0.484375 -1.875 0.484375q-1.265625 0 -1.984375 -0.40625l0 -0.90625q0.46875 0.234375 0.984375 0.375q0.53125 0.125 1.03125 0.125q0.765625 0 1.171875 -0.234375q0.40625 -0.25 0.40625 -0.75q0 -0.375 -0.328125 -0.640625q-0.3125 -0.265625 -1.265625 -0.625q-0.890625 -0.34375 -1.28125 -0.59375q-0.375 -0.25 -0.5625 -0.5625q-0.171875 -0.3125 -0.171875 -0.75q0 -0.78125 0.640625 -1.234375q0.640625 -0.46875 1.75 -0.46875q1.03125 0 2.03125 0.421875l-0.359375 0.796875q-0.953125 -0.390625 -1.75 -0.390625q-0.6875 0 -1.046875 0.21875q-0.34375 0.203125 -0.34375 0.59375q0 0.25 0.125 0.4375q0.140625 0.171875 0.421875 0.34375q0.296875 0.15625 1.140625 0.46875q1.140625 0.421875 1.53125 0.84375q0.40625 0.421875 0.40625 1.0625zm5.7246094 0q0 0.890625 -0.671875 1.390625q-0.65625 0.484375 -1.875 0.484375q-1.265625 0 -1.984375 -0.40625l0 -0.90625q0.46875 0.234375 0.984375 0.375q0.53125 0.125 1.03125 0.125q0.765625 0 1.171875 -0.234375q0.40625 -0.25 0.40625 -0.75q0 -0.375 -0.328125 -0.640625q-0.3125 -0.265625 -1.265625 -0.625q-0.890625 -0.34375 -1.28125 -0.59375q-0.375 -0.25 -0.5625 -0.5625q-0.171875 -0.3125 -0.171875 -0.75q0 -0.78125 0.640625 -1.234375q0.640625 -0.46875 1.75 -0.46875q1.03125 0 2.03125 0.421875l-0.359375 0.796875q-0.953125 -0.390625 -1.75 -0.390625q-0.6875 0 -1.046875 0.21875q-0.34375 0.203125 -0.34375 0.59375q0 0.25 0.125 0.4375q0.140625 0.171875 0.421875 0.34375q0.296875 0.15625 1.140625 0.46875q1.140625 0.421875 1.53125 0.84375q0.40625 0.421875 0.40625 1.0625z" fill-rule="nonzero"/><path fill="#d9d9d9" d="m737.5446 176.14578l0 0c0 -3.2093964 2.6017456 -5.811142 5.811157 -5.811142l23.243835 0l0 0c1.5411987 0 3.019287 0.61224365 4.109131 1.7020416c1.0897827 1.0898132 1.7020264 2.5678864 1.7020264 4.1091003l0 30.393478c0 3.2093964 -2.6017456 5.8111267 -5.811157 5.8111267l-23.243835 0c-3.2094116 0 -5.811157 -2.6017303 -5.811157 -5.8111267z" fill-rule="evenodd"/><path fill="#000000" fill-opacity="0.0" d="m737.5446 191.34251l-238.4252 0" fill-rule="evenodd"/><path stroke="#000000" stroke-width="1.0" stroke-linejoin="round" stroke-linecap="butt" d="m737.5446 191.34251l-232.4252 0" fill-rule="evenodd"/><path fill="#000000" stroke="#000000" stroke-width="1.0" stroke-linecap="butt" d="m505.11942 189.69078l-4.538086 1.6517334l4.538086 1.6517334z" fill-rule="evenodd"/><path fill="#d9d9d9" d="m464.2533 249.3597l0 0c0 -3.2093964 2.601715 -5.811142 5.8111267 -5.811142l23.243866 0l0 0c1.5411987 0 3.019287 0.61224365 4.1091003 1.7020416c1.0897827 1.089798 1.7020264 2.5678864 1.7020264 4.1091003l0 30.393478c0 3.209381 -2.601715 5.8111267 -5.8111267 5.8111267l-23.243866 0c-3.2094116 0 -5.8111267 -2.6017456 -5.8111267 -5.8111267z" fill-rule="evenodd"/><path fill="#d9d9d9" d="m737.5446 249.35838l0 0c0 -3.2093964 2.6017456 -5.811142 5.811157 -5.811142l23.243835 0l0 0c1.5411987 0 3.019287 0.61224365 4.109131 1.7020416c1.0897827 1.089798 1.7020264 2.5678864 1.7020264 4.1091003l0 30.393478c0 3.209381 -2.6017456 5.8111267 -5.811157 5.8111267l-23.243835 0c-3.2094116 0 -5.811157 -2.6017456 -5.811157 -5.8111267z" fill-rule="evenodd"/><path fill="#000000" fill-opacity="0.0" d="m737.5446 264.5551l-238.4252 0" fill-rule="evenodd"/><path stroke="#000000" stroke-width="1.0" stroke-linejoin="round" stroke-linecap="butt" d="m731.5446 264.5551l-232.4252 0" fill-rule="evenodd"/><path fill="#000000" stroke="#000000" stroke-width="1.0" stroke-linecap="butt" d="m731.5446 266.20685l4.538086 -1.6517334l-4.538086 -1.6517334z" fill-rule="evenodd"/><path fill="#000000" fill-opacity="0.0" d="m563.84906 230.63387l124.81891 0l0 33.92125l-124.81891 0z" fill-rule="evenodd"/><path fill="#000000" d="m595.3484 249.63324q0 1.125 -0.828125 1.765625q-0.8125 0.640625 -2.21875 0.640625q-1.53125 0 -2.34375 -0.40625l0 -0.953125q0.53125 0.21875 1.140625 0.359375q0.625 0.125 1.234375 0.125q1.0 0 1.5 -0.375q0.5 -0.390625 0.5 -1.0625q0 -0.4375 -0.1875 -0.71875q-0.171875 -0.296875 -0.59375 -0.53125q-0.40625 -0.25 -1.265625 -0.546875q-1.1875 -0.421875 -1.703125 -1.0q-0.515625 -0.59375 -0.515625 -1.546875q0 -0.984375 0.734375 -1.5625q0.75 -0.59375 1.984375 -0.59375q1.265625 0 2.34375 0.46875l-0.3125 0.859375q-1.0625 -0.4375 -2.0625 -0.4375q-0.796875 0 -1.25 0.34375q-0.4375 0.328125 -0.4375 0.9375q0 0.4375 0.15625 0.734375q0.171875 0.28125 0.5625 0.515625q0.390625 0.234375 1.203125 0.53125q1.34375 0.46875 1.84375 1.03125q0.515625 0.546875 0.515625 1.421875zm4.3203125 2.40625q-1.421875 0 -2.25 -0.875q-0.828125 -0.875 -0.828125 -2.40625q0 -1.5625 0.765625 -2.46875q0.765625 -0.921875 2.0625 -0.921875q1.203125 0 1.90625 0.796875q0.703125 0.796875 0.703125 2.09375l0 0.625l-4.421875 0q0.03125 1.125 0.5625 1.71875q0.546875 0.578125 1.53125 0.578125q1.03125 0 2.046875 -0.4375l0 0.875q-0.515625 0.21875 -0.984375 0.3125q-0.453125 0.109375 -1.09375 0.109375zm-0.265625 -5.84375q-0.78125 0 -1.25 0.5q-0.453125 0.5 -0.53125 1.390625l3.359375 0q0 -0.921875 -0.40625 -1.40625q-0.40625 -0.484375 -1.171875 -0.484375zm8.669922 5.71875l0 -4.15625q0 -0.78125 -0.359375 -1.171875q-0.34375 -0.390625 -1.109375 -0.390625q-1.015625 0 -1.484375 0.546875q-0.46875 0.546875 -0.46875 1.796875l0 3.375l-0.96875 0l0 -6.421875l0.796875 0l0.15625 0.875l0.046875 0q0.296875 -0.46875 0.828125 -0.734375q0.546875 -0.265625 1.203125 -0.265625q1.171875 0 1.75 0.5625q0.59375 0.5625 0.59375 1.796875l0 4.1875l-0.984375 0zm7.3496094 -0.859375l-0.0625 0q-0.671875 0.984375 -2.015625 0.984375q-1.25 0 -1.953125 -0.859375q-0.703125 -0.875 -0.703125 -2.453125q0 -1.59375 0.703125 -2.46875q0.703125 -0.890625 1.953125 -0.890625q1.3125 0 2.015625 0.953125l0.078125 0l-0.046875 -0.453125l-0.03125 -0.453125l0 -2.625l0.984375 0l0 9.125l-0.796875 0l-0.125 -0.859375zm-1.953125 0.15625q1.0 0 1.4375 -0.53125q0.453125 -0.546875 0.453125 -1.75l0 -0.203125q0 -1.375 -0.453125 -1.953125q-0.453125 -0.578125 -1.4375 -0.578125q-0.859375 0 -1.3125 0.671875q-0.453125 0.65625 -0.453125 1.859375q0 1.234375 0.4375 1.859375q0.453125 0.625 1.328125 0.625zm12.189453 -1.046875q0 0.890625 -0.671875 1.390625q-0.65625 0.484375 -1.875 0.484375q-1.265625 0 -1.984375 -0.40625l0 -0.90625q0.46875 0.234375 0.984375 0.375q0.53125 0.125 1.03125 0.125q0.765625 0 1.171875 -0.234375q0.40625 -0.25 0.40625 -0.75q0 -0.375 -0.328125 -0.640625q-0.3125 -0.265625 -1.265625 -0.625q-0.890625 -0.34375 -1.28125 -0.59375q-0.375 -0.25 -0.5625 -0.5625q-0.171875 -0.3125 -0.171875 -0.75q0 -0.78125 0.640625 -1.234375q0.640625 -0.46875 1.75 -0.46875q1.03125 0 2.03125 0.421875l-0.359375 0.796875q-0.953125 -0.390625 -1.75 -0.390625q-0.6875 0 -1.046875 0.21875q-0.34375 0.203125 -0.34375 0.59375q0 0.25 0.125 0.4375q0.140625 0.171875 0.421875 0.34375q0.296875 0.15625 1.140625 0.46875q1.140625 0.421875 1.53125 0.84375q0.40625 0.421875 0.40625 1.0625zm2.5058594 -4.671875l0 4.171875q0 0.78125 0.34375 1.171875q0.359375 0.375 1.125 0.375q1.015625 0 1.46875 -0.546875q0.46875 -0.546875 0.46875 -1.796875l0 -3.375l0.96875 0l0 6.421875l-0.796875 0l-0.140625 -0.859375l-0.046875 0q-0.296875 0.46875 -0.828125 0.734375q-0.53125 0.25 -1.21875 0.25q-1.171875 0 -1.75 -0.5625q-0.578125 -0.5625 -0.578125 -1.78125l0 -4.203125l0.984375 0zm9.005859 6.546875q-1.390625 0 -2.15625 -0.859375q-0.765625 -0.859375 -0.765625 -2.4375q0 -1.609375 0.78125 -2.484375q0.78125 -0.890625 2.203125 -0.890625q0.46875 0 0.921875 0.109375q0.46875 0.09375 0.734375 0.234375l-0.296875 0.828125q-0.328125 -0.140625 -0.703125 -0.21875q-0.375 -0.078125 -0.671875 -0.078125q-1.953125 0 -1.953125 2.484375q0 1.1875 0.46875 1.828125q0.484375 0.625 1.421875 0.625q0.796875 0 1.640625 -0.34375l0 0.859375q-0.640625 0.34375 -1.625 0.34375zm5.7128906 0q-1.390625 0 -2.15625 -0.859375q-0.765625 -0.859375 -0.765625 -2.4375q0 -1.609375 0.78125 -2.484375q0.78125 -0.890625 2.203125 -0.890625q0.46875 0 0.921875 0.109375q0.46875 0.09375 0.734375 0.234375l-0.296875 0.828125q-0.328125 -0.140625 -0.703125 -0.21875q-0.375 -0.078125 -0.671875 -0.078125q-1.953125 0 -1.953125 2.484375q0 1.1875 0.46875 1.828125q0.484375 0.625 1.421875 0.625q0.796875 0 1.640625 -0.34375l0 0.859375q-0.640625 0.34375 -1.625 0.34375zm5.8691406 0q-1.421875 0 -2.25 -0.875q-0.828125 -0.875 -0.828125 -2.40625q0 -1.5625 0.765625 -2.46875q0.765625 -0.921875 2.0625 -0.921875q1.203125 0 1.90625 0.796875q0.703125 0.796875 0.703125 2.09375l0 0.625l-4.421875 0q0.03125 1.125 0.5625 1.71875q0.546875 0.578125 1.53125 0.578125q1.03125 0 2.046875 -0.4375l0 0.875q-0.515625 0.21875 -0.984375 0.3125q-0.453125 0.109375 -1.09375 0.109375zm-0.265625 -5.84375q-0.78125 0 -1.25 0.5q-0.453125 0.5 -0.53125 1.390625l3.359375 0q0 -0.921875 -0.40625 -1.40625q-0.40625 -0.484375 -1.171875 -0.484375zm8.419922 3.96875q0 0.890625 -0.671875 1.390625q-0.65625 0.484375 -1.875 0.484375q-1.265625 0 -1.984375 -0.40625l0 -0.90625q0.46875 0.234375 0.984375 0.375q0.53125 0.125 1.03125 0.125q0.765625 0 1.171875 -0.234375q0.40625 -0.25 0.40625 -0.75q0 -0.375 -0.328125 -0.640625q-0.3125 -0.265625 -1.265625 -0.625q-0.890625 -0.34375 -1.28125 -0.59375q-0.375 -0.25 -0.5625 -0.5625q-0.171875 -0.3125 -0.171875 -0.75q0 -0.78125 0.640625 -1.234375q0.640625 -0.46875 1.75 -0.46875q1.03125 0 2.03125 0.421875l-0.359375 0.796875q-0.953125 -0.390625 -1.75 -0.390625q-0.6875 0 -1.046875 0.21875q-0.34375 0.203125 -0.34375 0.59375q0 0.25 0.125 0.4375q0.140625 0.171875 0.421875 0.34375q0.296875 0.15625 1.140625 0.46875q1.140625 0.421875 1.53125 0.84375q0.40625 0.421875 0.40625 1.0625zm5.7246094 0q0 0.890625 -0.671875 1.390625q-0.65625 0.484375 -1.875 0.484375q-1.265625 0 -1.984375 -0.40625l0 -0.90625q0.46875 0.234375 0.984375 0.375q0.53125 0.125 1.03125 0.125q0.765625 0 1.171875 -0.234375q0.40625 -0.25 0.40625 -0.75q0 -0.375 -0.328125 -0.640625q-0.3125 -0.265625 -1.265625 -0.625q-0.890625 -0.34375 -1.28125 -0.59375q-0.375 -0.25 -0.5625 -0.5625q-0.171875 -0.3125 -0.171875 -0.75q0 -0.78125 0.640625 -1.234375q0.640625 -0.46875 1.75 -0.46875q1.03125 0 2.03125 0.421875l-0.359375 0.796875q-0.953125 -0.390625 -1.75 -0.390625q-0.6875 0 -1.046875 0.21875q-0.34375 0.203125 -0.34375 0.59375q0 0.25 0.125 0.4375q0.140625 0.171875 0.421875 0.34375q0.296875 0.15625 1.140625 0.46875q1.140625 0.421875 1.53125 0.84375q0.40625 0.421875 0.40625 1.0625z" fill-rule="nonzero"/><path fill="#000000" fill-opacity="0.0" d="m697.1037 23.909449l115.747986 0l0 42.015747l-115.747986 0z" fill-rule="evenodd"/><path fill="#000000" d="m730.61426 43.782574l0.921875 0q1.3125 0 1.953125 -0.515625q0.65625 -0.515625 0.65625 -1.5q0 -1.0 -0.546875 -1.46875q-0.546875 -0.46875 -1.703125 -0.46875l-1.28125 0l0 3.953125zm6.375 -2.125q0 2.15625 -1.34375 3.296875q-1.34375 1.140625 -3.8125 1.140625l-1.21875 0l0 4.734375l-2.828125 0l0 -13.3125l4.265625 0q2.421875 0 3.671875 1.046875q1.265625 1.03125 1.265625 3.09375zm6.5116577 0.765625q-0.875 0 -1.375 0.5625q-0.5 0.5625 -0.578125 1.59375l3.890625 0q-0.015625 -1.03125 -0.53125 -1.59375q-0.515625 -0.5625 -1.40625 -0.5625zm0.390625 8.59375q-2.453125 0 -3.84375 -1.359375q-1.375 -1.359375 -1.375 -3.84375q0 -2.5625 1.265625 -3.953125q1.28125 -1.40625 3.546875 -1.40625q2.15625 0 3.359375 1.234375q1.203125 1.21875 1.203125 3.390625l0 1.34375l-6.5625 0q0.046875 1.1875 0.703125 1.859375q0.65625 0.65625 1.828125 0.65625q0.921875 0 1.734375 -0.1875q0.828125 -0.1875 1.71875 -0.609375l0 2.15625q-0.71875 0.359375 -1.546875 0.53125q-0.828125 0.1875 -2.03125 0.1875zm10.631897 -8.59375q-0.875 0 -1.375 0.5625q-0.5 0.5625 -0.578125 1.59375l3.890625 0q-0.015625 -1.03125 -0.53125 -1.59375q-0.515625 -0.5625 -1.40625 -0.5625zm0.390625 8.59375q-2.453125 0 -3.84375 -1.359375q-1.375 -1.359375 -1.375 -3.84375q0 -2.5625 1.265625 -3.953125q1.28125 -1.40625 3.546875 -1.40625q2.15625 0 3.359375 1.234375q1.203125 1.21875 1.203125 3.390625l0 1.34375l-6.5625 0q0.046875 1.1875 0.703125 1.859375q0.65625 0.65625 1.828125 0.65625q0.921875 0 1.734375 -0.1875q0.828125 -0.1875 1.71875 -0.609375l0 2.15625q-0.71875 0.359375 -1.546875 0.53125q-0.828125 0.1875 -2.03125 0.1875zm12.100586 -10.5625q0.5625 0 0.9375 0.078125l-0.203125 2.609375q-0.34375 -0.09375 -0.828125 -0.09375q-1.328125 0 -2.078125 0.6875q-0.734375 0.6875 -0.734375 1.90625l0 5.1875l-2.78125 0l0 -10.1875l2.109375 0l0.40625 1.71875l0.140625 0q0.46875 -0.859375 1.265625 -1.375q0.8125 -0.53125 1.765625 -0.53125zm16.23999 10.375l-9.3125 0l0 -1.953125l3.34375 -3.390625q1.484375 -1.515625 1.9375 -2.09375q0.453125 -0.59375 0.65625 -1.09375q0.203125 -0.5 0.203125 -1.046875q0 -0.796875 -0.453125 -1.1875q-0.4375 -0.390625 -1.171875 -0.390625q-0.78125 0 -1.515625 0.359375q-0.71875 0.34375 -1.515625 1.0l-1.53125 -1.8125q0.984375 -0.828125 1.625 -1.171875q0.65625 -0.359375 1.421875 -0.546875q0.765625 -0.1875 1.71875 -0.1875q1.25 0 2.203125 0.46875q0.953125 0.453125 1.484375 1.28125q0.53125 0.8125 0.53125 1.859375q0 0.921875 -0.328125 1.734375q-0.328125 0.796875 -1.015625 1.65625q-0.671875 0.84375 -2.375 2.40625l-1.71875 1.609375l0 0.125l5.8125 0l0 2.375z" fill-rule="nonzero"/><path fill="#000000" fill-opacity="0.0" d="m697.1037 571.79395l115.747986 0l0 42.015747l-115.747986 0z" fill-rule="evenodd"/><path fill="#d9d9d9" d="m464.2533 176.14578l0 0c0 -3.2093964 2.601715 -5.811142 5.8111267 -5.811142l23.243866 0l0 0c1.5411987 0 3.019287 0.61224365 4.1091003 1.7020416c1.0897827 1.0898132 1.7020264 2.5678864 1.7020264 4.1091003l0 30.393478c0 3.2093964 -2.601715 5.8111267 -5.8111267 5.8111267l-23.243866 0c-3.2094116 0 -5.8111267 -2.6017303 -5.8111267 -5.8111267z" fill-rule="evenodd"/><path fill="#d9d9d9" d="m402.18372 329.7639l0 0c0 -3.209381 2.6017456 -5.8111267 5.811157 -5.8111267l23.243866 0l0 0c1.5411987 0 3.019287 0.61224365 4.1091003 1.7020264c1.0897827 1.0898132 1.7020264 2.5679016 1.7020264 4.1091003l0 30.393494c0 3.209381 -2.6017456 5.8111267 -5.8111267 5.8111267l-23.243866 0c-3.2094116 0 -5.811157 -2.6017456 -5.811157 -5.8111267z" fill-rule="evenodd"/><path fill="#d9d9d9" d="m737.5446 329.7639l0 0c0 -3.209381 2.6017456 -5.8111267 5.811157 -5.8111267l23.243835 0l0 0c1.5411987 0 3.019287 0.61224365 4.109131 1.7020264c1.0897827 1.0898132 1.7020264 2.5679016 1.7020264 4.1091003l0 30.393494c0 3.209381 -2.6017456 5.8111267 -5.811157 5.8111267l-23.243835 0c-3.2094116 0 -5.811157 -2.6017456 -5.811157 -5.8111267z" fill-rule="evenodd"/><path fill="#d9d9d9" d="m122.63386 329.7639l0 0c0 -3.209381 2.601738 -5.8111267 5.8111343 -5.8111267l23.243866 0l0 0c1.541214 0 3.0193024 0.61224365 4.1091003 1.7020264c1.089798 1.0898132 1.7020416 2.5679016 1.7020416 4.1091003l0 30.393494c0 3.209381 -2.6017303 5.8111267 -5.811142 5.8111267l-23.243866 0c-3.2093964 0 -5.8111343 -2.6017456 -5.8111343 -5.8111267z" fill-rule="evenodd"/><path fill="#000000" fill-opacity="0.0" d="m402.18372 344.96063l-244.6929 0" fill-rule="evenodd"/><path stroke="#000000" stroke-width="1.0" stroke-linejoin="round" stroke-linecap="butt" d="m402.18372 344.96063l-238.6929 0" fill-rule="evenodd"/><path fill="#000000" stroke="#000000" stroke-width="1.0" stroke-linecap="butt" d="m163.49081 343.3089l-4.538101 1.6517334l4.538101 1.6517334z" fill-rule="evenodd"/><path fill="#000000" fill-opacity="0.0" d="m29.28084 100.35171l72.409454 0l0 35.55906l-72.409454 0z" fill-rule="evenodd"/><path fill="#000000" d="m45.093338 119.51108q0 1.28125 -0.9375 2.03125q-0.921875 0.734375 -2.5625 0.734375q-1.53125 0 -2.703125 -0.5625l0 -1.875q0.96875 0.421875 1.625 0.609375q0.671875 0.171875 1.234375 0.171875q0.65625 0 1.0 -0.25q0.359375 -0.265625 0.359375 -0.765625q0 -0.28125 -0.15625 -0.5q-0.15625 -0.21875 -0.453125 -0.40625q-0.296875 -0.203125 -1.234375 -0.65625q-0.875 -0.40625 -1.3125 -0.78125q-0.421875 -0.375 -0.6875 -0.875q-0.265625 -0.515625 -0.265625 -1.171875q0 -1.265625 0.859375 -1.984375q0.859375 -0.734375 2.359375 -0.734375q0.75 0 1.421875 0.1875q0.671875 0.171875 1.40625 0.484375l-0.640625 1.578125q-0.765625 -0.3125 -1.265625 -0.4375q-0.5 -0.125 -0.984375 -0.125q-0.5625 0 -0.875 0.265625q-0.3125 0.265625 -0.3125 0.6875q0 0.28125 0.125 0.484375q0.125 0.1875 0.390625 0.375q0.28125 0.1875 1.28125 0.65625q1.34375 0.640625 1.828125 1.28125q0.5 0.640625 0.5 1.578125zm4.6377563 1.1875q0.515625 0 1.25 -0.21875l0 1.46875q-0.75 0.328125 -1.828125 0.328125q-1.1875 0 -1.734375 -0.59375q-0.546875 -0.609375 -0.546875 -1.8125l0 -3.5l-0.9375 0l0 -0.84375l1.09375 -0.65625l0.5625 -1.546875l1.265625 0l0 1.546875l2.046875 0l0 1.5l-2.046875 0l0 3.5q0 0.421875 0.234375 0.625q0.25 0.203125 0.640625 0.203125zm5.723007 -4.546875q-0.625 0 -0.984375 0.40625q-0.359375 0.390625 -0.40625 1.125l2.78125 0q-0.015625 -0.734375 -0.390625 -1.125q-0.359375 -0.40625 -1.0 -0.40625zm0.28125 6.125q-1.75 0 -2.75 -0.96875q-0.984375 -0.96875 -0.984375 -2.734375q0 -1.84375 0.90625 -2.828125q0.921875 -1.0 2.546875 -1.0q1.53125 0 2.390625 0.875q0.859375 0.875 0.859375 2.421875l0 0.96875l-4.6875 0q0.03125 0.84375 0.5 1.328125q0.46875 0.46875 1.3125 0.46875q0.65625 0 1.234375 -0.140625q0.59375 -0.140625 1.234375 -0.4375l0 1.53125q-0.515625 0.265625 -1.109375 0.390625q-0.59375 0.125 -1.453125 0.125zm8.577652 0q-1.28125 0 -2.0 -0.921875l-0.109375 0q0.109375 0.90625 0.109375 1.046875l0 2.953125l-1.984375 0l0 -10.484375l1.609375 0l0.28125 0.953125l0.09375 0q0.6875 -1.078125 2.0625 -1.078125q1.28125 0 2.0 1.0q0.734375 0.984375 0.734375 2.75q0 1.171875 -0.34375 2.03125q-0.328125 0.859375 -0.96875 1.3125q-0.625 0.4375 -1.484375 0.4375zm-0.578125 -5.953125q-0.734375 0 -1.078125 0.453125q-0.328125 0.453125 -0.34375 1.5l0 0.21875q0 1.15625 0.34375 1.671875q0.34375 0.5 1.109375 0.5q1.328125 0 1.328125 -2.1875q0 -1.078125 -0.328125 -1.609375q-0.328125 -0.546875 -1.03125 -0.546875zm12.943268 5.828125l-2.0 0l0 -5.5l0.015625 -0.90625l0.03125 -1.0q-0.5 0.515625 -0.703125 0.671875l-1.09375 0.875l-0.96875 -1.21875l3.078125 -2.4375l1.640625 0l0 9.515625zm2.8733368 -0.9375q0 -0.546875 0.28125 -0.8125q0.296875 -0.28125 0.859375 -0.28125q0.546875 0 0.84375 0.28125q0.296875 0.28125 0.296875 0.8125q0 0.515625 -0.3125 0.8125q-0.296875 0.296875 -0.828125 0.296875q-0.546875 0 -0.84375 -0.28125q-0.296875 -0.296875 -0.296875 -0.828125zm0 -5.375q0 -0.546875 0.28125 -0.8125q0.296875 -0.28125 0.859375 -0.28125q0.546875 0 0.84375 0.28125q0.296875 0.28125 0.296875 0.8125q0 0.53125 -0.3125 0.828125q-0.296875 0.28125 -0.828125 0.28125q-0.546875 0 -0.84375 -0.28125q-0.296875 -0.28125 -0.296875 -0.828125z" fill-rule="nonzero"/><path fill="#000000" fill-opacity="0.0" d="m29.28084 173.5643l72.409454 0l0 35.55905l-72.409454 0z" fill-rule="evenodd"/><path fill="#000000" d="m45.093338 192.72368q0 1.28125 -0.9375 2.03125q-0.921875 0.734375 -2.5625 0.734375q-1.53125 0 -2.703125 -0.5625l0 -1.875q0.96875 0.421875 1.625 0.609375q0.671875 0.171875 1.234375 0.171875q0.65625 0 1.0 -0.25q0.359375 -0.265625 0.359375 -0.765625q0 -0.28125 -0.15625 -0.5q-0.15625 -0.21875 -0.453125 -0.40625q-0.296875 -0.203125 -1.234375 -0.65625q-0.875 -0.40625 -1.3125 -0.78125q-0.421875 -0.375 -0.6875 -0.875q-0.265625 -0.515625 -0.265625 -1.171875q0 -1.265625 0.859375 -1.984375q0.859375 -0.734375 2.359375 -0.734375q0.75 0 1.421875 0.1875q0.671875 0.171875 1.40625 0.484375l-0.640625 1.578125q-0.765625 -0.3125 -1.265625 -0.4375q-0.5 -0.125 -0.984375 -0.125q-0.5625 0 -0.875 0.265625q-0.3125 0.265625 -0.3125 0.6875q0 0.28125 0.125 0.484375q0.125 0.1875 0.390625 0.375q0.28125 0.1875 1.28125 0.65625q1.34375 0.640625 1.828125 1.28125q0.5 0.640625 0.5 1.578125zm4.6377563 1.1875q0.515625 0 1.25 -0.21875l0 1.46875q-0.75 0.328125 -1.828125 0.328125q-1.1875 0 -1.734375 -0.59375q-0.546875 -0.609375 -0.546875 -1.8125l0 -3.5l-0.9375 0l0 -0.84375l1.09375 -0.65625l0.5625 -1.546875l1.265625 0l0 1.546875l2.046875 0l0 1.5l-2.046875 0l0 3.5q0 0.421875 0.234375 0.625q0.25 0.203125 0.640625 0.203125zm5.723007 -4.546875q-0.625 0 -0.984375 0.40625q-0.359375 0.390625 -0.40625 1.125l2.78125 0q-0.015625 -0.734375 -0.390625 -1.125q-0.359375 -0.40625 -1.0 -0.40625zm0.28125 6.125q-1.75 0 -2.75 -0.96875q-0.984375 -0.96875 -0.984375 -2.734375q0 -1.84375 0.90625 -2.828125q0.921875 -1.0 2.546875 -1.0q1.53125 0 2.390625 0.875q0.859375 0.875 0.859375 2.421875l0 0.96875l-4.6875 0q0.03125 0.84375 0.5 1.328125q0.46875 0.46875 1.3125 0.46875q0.65625 0 1.234375 -0.140625q0.59375 -0.140625 1.234375 -0.4375l0 1.53125q-0.515625 0.265625 -1.109375 0.390625q-0.59375 0.125 -1.453125 0.125zm8.577652 0q-1.28125 0 -2.0 -0.921875l-0.109375 0q0.109375 0.90625 0.109375 1.046875l0 2.953125l-1.984375 0l0 -10.484375l1.609375 0l0.28125 0.953125l0.09375 0q0.6875 -1.078125 2.0625 -1.078125q1.28125 0 2.0 1.0q0.734375 0.984375 0.734375 2.75q0 1.171875 -0.34375 2.03125q-0.328125 0.859375 -0.96875 1.3125q-0.625 0.4375 -1.484375 0.4375zm-0.578125 -5.953125q-0.734375 0 -1.078125 0.453125q-0.328125 0.453125 -0.34375 1.5l0 0.21875q0 1.15625 0.34375 1.671875q0.34375 0.5 1.109375 0.5q1.328125 0 1.328125 -2.1875q0 -1.078125 -0.328125 -1.609375q-0.328125 -0.546875 -1.03125 -0.546875zm14.630768 5.828125l-6.65625 0l0 -1.40625l2.390625 -2.40625q1.0625 -1.09375 1.390625 -1.5q0.328125 -0.421875 0.46875 -0.78125q0.140625 -0.359375 0.140625 -0.75q0 -0.5625 -0.328125 -0.84375q-0.3125 -0.28125 -0.828125 -0.28125q-0.5625 0 -1.078125 0.25q-0.515625 0.25 -1.09375 0.71875l-1.09375 -1.296875q0.703125 -0.59375 1.171875 -0.84375q0.46875 -0.25 1.015625 -0.375q0.546875 -0.140625 1.21875 -0.140625q0.890625 0 1.5625 0.328125q0.6875 0.328125 1.0625 0.921875q0.390625 0.578125 0.390625 1.328125q0 0.65625 -0.234375 1.234375q-0.234375 0.578125 -0.71875 1.1875q-0.484375 0.609375 -1.703125 1.71875l-1.21875 1.15625l0 0.09375l4.140625 0l0 1.6875zm1.1858368 -0.9375q0 -0.546875 0.28125 -0.8125q0.296875 -0.28125 0.859375 -0.28125q0.546875 0 0.84375 0.28125q0.296875 0.28125 0.296875 0.8125q0 0.515625 -0.3125 0.8125q-0.296875 0.296875 -0.828125 0.296875q-0.546875 0 -0.84375 -0.28125q-0.296875 -0.296875 -0.296875 -0.828125zm0 -5.375q0 -0.546875 0.28125 -0.8125q0.296875 -0.28125 0.859375 -0.28125q0.546875 0 0.84375 0.28125q0.296875 0.28125 0.296875 0.8125q0 0.53125 -0.3125 0.828125q-0.296875 0.28125 -0.828125 0.28125q-0.546875 0 -0.84375 -0.28125q-0.296875 -0.28125 -0.296875 -0.828125z" fill-rule="nonzero"/><path fill="#000000" fill-opacity="0.0" d="m29.28084 246.7769l72.409454 0l0 35.559067l-72.409454 0z" fill-rule="evenodd"/><path fill="#000000" d="m45.093338 265.93628q0 1.28125 -0.9375 2.03125q-0.921875 0.734375 -2.5625 0.734375q-1.53125 0 -2.703125 -0.5625l0 -1.875q0.96875 0.421875 1.625 0.609375q0.671875 0.171875 1.234375 0.171875q0.65625 0 1.0 -0.25q0.359375 -0.265625 0.359375 -0.765625q0 -0.28125 -0.15625 -0.5q-0.15625 -0.21875 -0.453125 -0.40625q-0.296875 -0.203125 -1.234375 -0.65625q-0.875 -0.40625 -1.3125 -0.78125q-0.421875 -0.375 -0.6875 -0.875q-0.265625 -0.515625 -0.265625 -1.171875q0 -1.265625 0.859375 -1.984375q0.859375 -0.734375 2.359375 -0.734375q0.75 0 1.421875 0.1875q0.671875 0.171875 1.40625 0.484375l-0.640625 1.578125q-0.765625 -0.3125 -1.265625 -0.4375q-0.5 -0.125 -0.984375 -0.125q-0.5625 0 -0.875 0.265625q-0.3125 0.265625 -0.3125 0.6875q0 0.28125 0.125 0.484375q0.125 0.1875 0.390625 0.375q0.28125 0.1875 1.28125 0.65625q1.34375 0.640625 1.828125 1.28125q0.5 0.640625 0.5 1.578125zm4.6377563 1.1875q0.515625 0 1.25 -0.21875l0 1.46875q-0.75 0.328125 -1.828125 0.328125q-1.1875 0 -1.734375 -0.59375q-0.546875 -0.609375 -0.546875 -1.8125l0 -3.5l-0.9375 0l0 -0.84375l1.09375 -0.65625l0.5625 -1.546875l1.265625 0l0 1.546875l2.046875 0l0 1.5l-2.046875 0l0 3.5q0 0.421875 0.234375 0.625q0.25 0.203125 0.640625 0.203125zm5.723007 -4.546875q-0.625 0 -0.984375 0.40625q-0.359375 0.390625 -0.40625 1.125l2.78125 0q-0.015625 -0.734375 -0.390625 -1.125q-0.359375 -0.40625 -1.0 -0.40625zm0.28125 6.125q-1.75 0 -2.75 -0.96875q-0.984375 -0.96875 -0.984375 -2.734375q0 -1.84375 0.90625 -2.828125q0.921875 -1.0 2.546875 -1.0q1.53125 0 2.390625 0.875q0.859375 0.875 0.859375 2.421875l0 0.96875l-4.6875 0q0.03125 0.84375 0.5 1.328125q0.46875 0.46875 1.3125 0.46875q0.65625 0 1.234375 -0.140625q0.59375 -0.140625 1.234375 -0.4375l0 1.53125q-0.515625 0.265625 -1.109375 0.390625q-0.59375 0.125 -1.453125 0.125zm8.577652 0q-1.28125 0 -2.0 -0.921875l-0.109375 0q0.109375 0.90625 0.109375 1.046875l0 2.953125l-1.984375 0l0 -10.484375l1.609375 0l0.28125 0.953125l0.09375 0q0.6875 -1.078125 2.0625 -1.078125q1.28125 0 2.0 1.0q0.734375 0.984375 0.734375 2.75q0 1.171875 -0.34375 2.03125q-0.328125 0.859375 -0.96875 1.3125q-0.625 0.4375 -1.484375 0.4375zm-0.578125 -5.953125q-0.734375 0 -1.078125 0.453125q-0.328125 0.453125 -0.34375 1.5l0 0.21875q0 1.15625 0.34375 1.671875q0.34375 0.5 1.109375 0.5q1.328125 0 1.328125 -2.1875q0 -1.078125 -0.328125 -1.609375q-0.328125 -0.546875 -1.03125 -0.546875zm14.255768 -1.5625q0 0.890625 -0.546875 1.515625q-0.53125 0.625 -1.515625 0.859375l0 0.046875q1.15625 0.140625 1.75 0.703125q0.59375 0.546875 0.59375 1.5q0 1.359375 -1.0 2.125q-0.984375 0.765625 -2.84375 0.765625q-1.546875 0 -2.75 -0.515625l0 -1.703125q0.5625 0.28125 1.21875 0.453125q0.671875 0.171875 1.328125 0.171875q0.984375 0 1.453125 -0.328125q0.484375 -0.34375 0.484375 -1.09375q0 -0.671875 -0.546875 -0.953125q-0.546875 -0.28125 -1.75 -0.28125l-0.71875 0l0 -1.53125l0.734375 0q1.109375 0 1.609375 -0.28125q0.515625 -0.296875 0.515625 -1.0q0 -1.09375 -1.34375 -1.09375q-0.46875 0 -0.953125 0.15625q-0.484375 0.15625 -1.078125 0.546875l-0.9375 -1.390625q1.3125 -0.9375 3.109375 -0.9375q1.484375 0 2.328125 0.609375q0.859375 0.59375 0.859375 1.65625zm1.5608368 6.453125q0 -0.546875 0.28125 -0.8125q0.296875 -0.28125 0.859375 -0.28125q0.546875 0 0.84375 0.28125q0.296875 0.28125 0.296875 0.8125q0 0.515625 -0.3125 0.8125q-0.296875 0.296875 -0.828125 0.296875q-0.546875 0 -0.84375 -0.28125q-0.296875 -0.296875 -0.296875 -0.828125zm0 -5.375q0 -0.546875 0.28125 -0.8125q0.296875 -0.28125 0.859375 -0.28125q0.546875 0 0.84375 0.28125q0.296875 0.28125 0.296875 0.8125q0 0.53125 -0.3125 0.828125q-0.296875 0.28125 -0.828125 0.28125q-0.546875 0 -0.84375 -0.28125q-0.296875 -0.28125 -0.296875 -0.828125z" fill-rule="nonzero"/><path fill="#000000" fill-opacity="0.0" d="m29.28084 327.1811l72.409454 0l0 35.55905l-72.409454 0z" fill-rule="evenodd"/><path fill="#000000" d="m45.093338 346.34048q0 1.28125 -0.9375 2.03125q-0.921875 0.734375 -2.5625 0.734375q-1.53125 0 -2.703125 -0.5625l0 -1.875q0.96875 0.421875 1.625 0.609375q0.671875 0.171875 1.234375 0.171875q0.65625 0 1.0 -0.25q0.359375 -0.265625 0.359375 -0.765625q0 -0.28125 -0.15625 -0.5q-0.15625 -0.21875 -0.453125 -0.40625q-0.296875 -0.203125 -1.234375 -0.65625q-0.875 -0.40625 -1.3125 -0.78125q-0.421875 -0.375 -0.6875 -0.875q-0.265625 -0.515625 -0.265625 -1.171875q0 -1.265625 0.859375 -1.984375q0.859375 -0.734375 2.359375 -0.734375q0.75 0 1.421875 0.1875q0.671875 0.171875 1.40625 0.484375l-0.640625 1.578125q-0.765625 -0.3125 -1.265625 -0.4375q-0.5 -0.125 -0.984375 -0.125q-0.5625 0 -0.875 0.265625q-0.3125 0.265625 -0.3125 0.6875q0 0.28125 0.125 0.484375q0.125 0.1875 0.390625 0.375q0.28125 0.1875 1.28125 0.65625q1.34375 0.640625 1.828125 1.28125q0.5 0.640625 0.5 1.578125zm4.6377563 1.1875q0.515625 0 1.25 -0.21875l0 1.46875q-0.75 0.328125 -1.828125 0.328125q-1.1875 0 -1.734375 -0.59375q-0.546875 -0.609375 -0.546875 -1.8125l0 -3.5l-0.9375 0l0 -0.84375l1.09375 -0.65625l0.5625 -1.546875l1.265625 0l0 1.546875l2.046875 0l0 1.5l-2.046875 0l0 3.5q0 0.421875 0.234375 0.625q0.25 0.203125 0.640625 0.203125zm5.723007 -4.546875q-0.625 0 -0.984375 0.40625q-0.359375 0.390625 -0.40625 1.125l2.78125 0q-0.015625 -0.734375 -0.390625 -1.125q-0.359375 -0.40625 -1.0 -0.40625zm0.28125 6.125q-1.75 0 -2.75 -0.96875q-0.984375 -0.96875 -0.984375 -2.734375q0 -1.84375 0.90625 -2.828125q0.921875 -1.0 2.546875 -1.0q1.53125 0 2.390625 0.875q0.859375 0.875 0.859375 2.421875l0 0.96875l-4.6875 0q0.03125 0.84375 0.5 1.328125q0.46875 0.46875 1.3125 0.46875q0.65625 0 1.234375 -0.140625q0.59375 -0.140625 1.234375 -0.4375l0 1.53125q-0.515625 0.265625 -1.109375 0.390625q-0.59375 0.125 -1.453125 0.125zm8.577652 0q-1.28125 0 -2.0 -0.921875l-0.109375 0q0.109375 0.90625 0.109375 1.046875l0 2.953125l-1.984375 0l0 -10.484375l1.609375 0l0.28125 0.953125l0.09375 0q0.6875 -1.078125 2.0625 -1.078125q1.28125 0 2.0 1.0q0.734375 0.984375 0.734375 2.75q0 1.171875 -0.34375 2.03125q-0.328125 0.859375 -0.96875 1.3125q-0.625 0.4375 -1.484375 0.4375zm-0.578125 -5.953125q-0.734375 0 -1.078125 0.453125q-0.328125 0.453125 -0.34375 1.5l0 0.21875q0 1.15625 0.34375 1.671875q0.34375 0.5 1.109375 0.5q1.328125 0 1.328125 -2.1875q0 -1.078125 -0.328125 -1.609375q-0.328125 -0.546875 -1.03125 -0.546875zm14.849518 3.859375l-1.15625 0l0 1.96875l-1.96875 0l0 -1.96875l-4.046875 0l0 -1.40625l4.171875 -6.140625l1.84375 0l0 5.984375l1.15625 0l0 1.5625zm-3.125 -1.5625l0 -1.609375q0 -0.40625 0.03125 -1.171875q0.046875 -0.78125 0.0625 -0.890625l-0.046875 0q-0.25 0.53125 -0.59375 1.03125l-1.734375 2.640625l2.28125 0zm4.092087 2.59375q0 -0.546875 0.28125 -0.8125q0.296875 -0.28125 0.859375 -0.28125q0.546875 0 0.84375 0.28125q0.296875 0.28125 0.296875 0.8125q0 0.515625 -0.3125 0.8125q-0.296875 0.296875 -0.828125 0.296875q-0.546875 0 -0.84375 -0.28125q-0.296875 -0.296875 -0.296875 -0.828125zm0 -5.375q0 -0.546875 0.28125 -0.8125q0.296875 -0.28125 0.859375 -0.28125q0.546875 0 0.84375 0.28125q0.296875 0.28125 0.296875 0.8125q0 0.53125 -0.3125 0.828125q-0.296875 0.28125 -0.828125 0.28125q-0.546875 0 -0.84375 -0.28125q-0.296875 -0.28125 -0.296875 -0.828125z" fill-rule="nonzero"/><path fill="#000000" fill-opacity="0.0" d="m531.7828 157.42126l189.10242 0l0 33.92125l-189.10242 0z" fill-rule="evenodd"/><path fill="#000000" d="m582.9346 176.42064q0 1.125 -0.828125 1.765625q-0.8125 0.640625 -2.21875 0.640625q-1.53125 0 -2.34375 -0.40625l0 -0.953125q0.53125 0.21875 1.140625 0.359375q0.625 0.125 1.234375 0.125q1.0 0 1.5 -0.375q0.5 -0.390625 0.5 -1.0625q0 -0.4375 -0.1875 -0.71875q-0.171875 -0.296875 -0.59375 -0.53125q-0.40625 -0.25 -1.265625 -0.546875q-1.1875 -0.421875 -1.703125 -1.0q-0.515625 -0.59375 -0.515625 -1.546875q0 -0.984375 0.734375 -1.5625q0.75 -0.59375 1.984375 -0.59375q1.265625 0 2.34375 0.46875l-0.3125 0.859375q-1.0625 -0.4375 -2.0625 -0.4375q-0.796875 0 -1.25 0.34375q-0.4375 0.328125 -0.4375 0.9375q0 0.4375 0.15625 0.734375q0.171875 0.28125 0.5625 0.515625q0.390625 0.234375 1.203125 0.53125q1.34375 0.46875 1.84375 1.03125q0.515625 0.546875 0.515625 1.421875zm4.3203125 2.40625q-1.421875 0 -2.25 -0.875q-0.828125 -0.875 -0.828125 -2.40625q0 -1.5625 0.765625 -2.46875q0.765625 -0.921875 2.0625 -0.921875q1.203125 0 1.90625 0.796875q0.703125 0.796875 0.703125 2.09375l0 0.625l-4.421875 0q0.03125 1.125 0.5625 1.71875q0.546875 0.578125 1.53125 0.578125q1.03125 0 2.046875 -0.4375l0 0.875q-0.515625 0.21875 -0.984375 0.3125q-0.453125 0.109375 -1.09375 0.109375zm-0.265625 -5.84375q-0.78125 0 -1.25 0.5q-0.453125 0.5 -0.53125 1.390625l3.359375 0q0 -0.921875 -0.40625 -1.40625q-0.40625 -0.484375 -1.171875 -0.484375zm8.669922 5.71875l0 -4.15625q0 -0.78125 -0.359375 -1.171875q-0.34375 -0.390625 -1.109375 -0.390625q-1.015625 0 -1.484375 0.546875q-0.46875 0.546875 -0.46875 1.796875l0 3.375l-0.96875 0l0 -6.421875l0.796875 0l0.15625 0.875l0.046875 0q0.296875 -0.46875 0.828125 -0.734375q0.546875 -0.265625 1.203125 -0.265625q1.171875 0 1.75 0.5625q0.59375 0.5625 0.59375 1.796875l0 4.1875l-0.984375 0zm7.3496094 -0.859375l-0.0625 0q-0.671875 0.984375 -2.015625 0.984375q-1.25 0 -1.953125 -0.859375q-0.703125 -0.875 -0.703125 -2.453125q0 -1.59375 0.703125 -2.46875q0.703125 -0.890625 1.953125 -0.890625q1.3125 0 2.015625 0.953125l0.078125 0l-0.046875 -0.453125l-0.03125 -0.453125l0 -2.625l0.984375 0l0 9.125l-0.796875 0l-0.125 -0.859375zm-1.953125 0.15625q1.0 0 1.4375 -0.53125q0.453125 -0.546875 0.453125 -1.75l0 -0.203125q0 -1.375 -0.453125 -1.953125q-0.453125 -0.578125 -1.4375 -0.578125q-0.859375 0 -1.3125 0.671875q-0.453125 0.65625 -0.453125 1.859375q0 1.234375 0.4375 1.859375q0.453125 0.625 1.328125 0.625zm12.423828 -0.15625l-0.0625 0q-0.671875 0.984375 -2.015625 0.984375q-1.25 0 -1.953125 -0.859375q-0.703125 -0.875 -0.703125 -2.453125q0 -1.59375 0.703125 -2.46875q0.703125 -0.890625 1.953125 -0.890625q1.3125 0 2.015625 0.953125l0.078125 0l-0.046875 -0.453125l-0.03125 -0.453125l0 -2.625l0.984375 0l0 9.125l-0.796875 0l-0.125 -0.859375zm-1.953125 0.15625q1.0 0 1.4375 -0.53125q0.453125 -0.546875 0.453125 -1.75l0 -0.203125q0 -1.375 -0.453125 -1.953125q-0.453125 -0.578125 -1.4375 -0.578125q-0.859375 0 -1.3125 0.671875q-0.453125 0.65625 -0.453125 1.859375q0 1.234375 0.4375 1.859375q0.453125 0.625 1.328125 0.625zm5.9003906 0.703125l-0.96875 0l0 -6.421875l0.96875 0l0 6.421875zm-1.046875 -8.15625q0 -0.34375 0.15625 -0.5q0.171875 -0.15625 0.421875 -0.15625q0.234375 0 0.390625 0.171875q0.171875 0.15625 0.171875 0.484375q0 0.328125 -0.171875 0.484375q-0.15625 0.15625 -0.390625 0.15625q-0.25 0 -0.421875 -0.15625q-0.15625 -0.15625 -0.15625 -0.484375zm7.0664062 8.15625l-0.203125 -0.921875l-0.046875 0q-0.46875 0.609375 -0.953125 0.828125q-0.46875 0.21875 -1.1875 0.21875q-0.953125 0 -1.5 -0.5q-0.546875 -0.5 -0.546875 -1.40625q0 -1.9375 3.109375 -2.03125l1.09375 -0.03125l0 -0.40625q0 -0.75 -0.328125 -1.109375q-0.3125 -0.359375 -1.03125 -0.359375q-0.8125 0 -1.8125 0.484375l-0.3125 -0.75q0.484375 -0.25 1.046875 -0.390625q0.5625 -0.15625 1.140625 -0.15625q1.140625 0 1.6875 0.515625q0.5625 0.5 0.5625 1.625l0 4.390625l-0.71875 0zm-2.203125 -0.6875q0.90625 0 1.421875 -0.5q0.53125 -0.5 0.53125 -1.390625l0 -0.578125l-0.984375 0.03125q-1.15625 0.046875 -1.671875 0.375q-0.5 0.3125 -0.5 0.984375q0 0.53125 0.3125 0.8125q0.3125 0.265625 0.890625 0.265625zm5.892578 0.6875l-0.96875 0l0 -9.125l0.96875 0l0 9.125zm9.136719 0l-0.203125 -0.921875l-0.046875 0q-0.46875 0.609375 -0.953125 0.828125q-0.46875 0.21875 -1.1875 0.21875q-0.953125 0 -1.5 -0.5q-0.546875 -0.5 -0.546875 -1.40625q0 -1.9375 3.109375 -2.03125l1.09375 -0.03125l0 -0.40625q0 -0.75 -0.328125 -1.109375q-0.3125 -0.359375 -1.03125 -0.359375q-0.8125 0 -1.8125 0.484375l-0.3125 -0.75q0.484375 -0.25 1.046875 -0.390625q0.5625 -0.15625 1.140625 -0.15625q1.140625 0 1.6875 0.515625q0.5625 0.5 0.5625 1.625l0 4.390625l-0.71875 0zm-2.203125 -0.6875q0.90625 0 1.421875 -0.5q0.53125 -0.5 0.53125 -1.390625l0 -0.578125l-0.984375 0.03125q-1.15625 0.046875 -1.671875 0.375q-0.5 0.3125 -0.5 0.984375q0 0.53125 0.3125 0.8125q0.3125 0.265625 0.890625 0.265625zm9.298828 -0.171875l-0.0625 0q-0.671875 0.984375 -2.015625 0.984375q-1.25 0 -1.953125 -0.859375q-0.703125 -0.875 -0.703125 -2.453125q0 -1.59375 0.703125 -2.46875q0.703125 -0.890625 1.953125 -0.890625q1.3125 0 2.015625 0.953125l0.078125 0l-0.046875 -0.453125l-0.03125 -0.453125l0 -2.625l0.984375 0l0 9.125l-0.796875 0l-0.125 -0.859375zm-1.953125 0.15625q1.0 0 1.4375 -0.53125q0.453125 -0.546875 0.453125 -1.75l0 -0.203125q0 -1.375 -0.453125 -1.953125q-0.453125 -0.578125 -1.4375 -0.578125q-0.859375 0 -1.3125 0.671875q-0.453125 0.65625 -0.453125 1.859375q0 1.234375 0.4375 1.859375q0.453125 0.625 1.328125 0.625zm9.306641 -0.15625l-0.0625 0q-0.671875 0.984375 -2.015625 0.984375q-1.25 0 -1.953125 -0.859375q-0.703125 -0.875 -0.703125 -2.453125q0 -1.59375 0.703125 -2.46875q0.703125 -0.890625 1.953125 -0.890625q1.3125 0 2.015625 0.953125l0.078125 0l-0.046875 -0.453125l-0.03125 -0.453125l0 -2.625l0.984375 0l0 9.125l-0.796875 0l-0.125 -0.859375zm-1.953125 0.15625q1.0 0 1.4375 -0.53125q0.453125 -0.546875 0.453125 -1.75l0 -0.203125q0 -1.375 -0.453125 -1.953125q-0.453125 -0.578125 -1.4375 -0.578125q-0.859375 0 -1.3125 0.671875q-0.453125 0.65625 -0.453125 1.859375q0 1.234375 0.4375 1.859375q0.453125 0.625 1.328125 0.625zm7.8691406 -5.84375q0.421875 0 0.765625 0.078125l-0.140625 0.90625q-0.390625 -0.09375 -0.703125 -0.09375q-0.78125 0 -1.34375 0.640625q-0.546875 0.625 -0.546875 1.5625l0 3.453125l-0.96875 0l0 -6.421875l0.796875 0l0.125 1.1875l0.046875 0q0.34375 -0.625 0.84375 -0.96875q0.515625 -0.34375 1.125 -0.34375zm4.6796875 6.671875q-1.421875 0 -2.25 -0.875q-0.828125 -0.875 -0.828125 -2.40625q0 -1.5625 0.765625 -2.46875q0.765625 -0.921875 2.0625 -0.921875q1.203125 0 1.90625 0.796875q0.703125 0.796875 0.703125 2.09375l0 0.625l-4.421875 0q0.03125 1.125 0.5625 1.71875q0.546875 0.578125 1.53125 0.578125q1.03125 0 2.046875 -0.4375l0 0.875q-0.515625 0.21875 -0.984375 0.3125q-0.453125 0.109375 -1.09375 0.109375zm-0.265625 -5.84375q-0.78125 0 -1.25 0.5q-0.453125 0.5 -0.53125 1.390625l3.359375 0q0 -0.921875 -0.40625 -1.40625q-0.40625 -0.484375 -1.171875 -0.484375zm8.419922 3.96875q0 0.890625 -0.671875 1.390625q-0.65625 0.484375 -1.875 0.484375q-1.265625 0 -1.984375 -0.40625l0 -0.90625q0.46875 0.234375 0.984375 0.375q0.53125 0.125 1.03125 0.125q0.765625 0 1.171875 -0.234375q0.40625 -0.25 0.40625 -0.75q0 -0.375 -0.328125 -0.640625q-0.3125 -0.265625 -1.265625 -0.625q-0.890625 -0.34375 -1.28125 -0.59375q-0.375 -0.25 -0.5625 -0.5625q-0.171875 -0.3125 -0.171875 -0.75q0 -0.78125 0.640625 -1.234375q0.640625 -0.46875 1.75 -0.46875q1.03125 0 2.03125 0.421875l-0.359375 0.796875q-0.953125 -0.390625 -1.75 -0.390625q-0.6875 0 -1.046875 0.21875q-0.34375 0.203125 -0.34375 0.59375q0 0.25 0.125 0.4375q0.140625 0.171875 0.421875 0.34375q0.296875 0.15625 1.140625 0.46875q1.140625 0.421875 1.53125 0.84375q0.40625 0.421875 0.40625 1.0625zm5.7246094 0q0 0.890625 -0.671875 1.390625q-0.65625 0.484375 -1.875 0.484375q-1.265625 0 -1.984375 -0.40625l0 -0.90625q0.46875 0.234375 0.984375 0.375q0.53125 0.125 1.03125 0.125q0.765625 0 1.171875 -0.234375q0.40625 -0.25 0.40625 -0.75q0 -0.375 -0.328125 -0.640625q-0.3125 -0.265625 -1.265625 -0.625q-0.890625 -0.34375 -1.28125 -0.59375q-0.375 -0.25 -0.5625 -0.5625q-0.171875 -0.3125 -0.171875 -0.75q0 -0.78125 0.640625 -1.234375q0.640625 -0.46875 1.75 -0.46875q1.03125 0 2.03125 0.421875l-0.359375 0.796875q-0.953125 -0.390625 -1.75 -0.390625q-0.6875 0 -1.046875 0.21875q-0.34375 0.203125 -0.34375 0.59375q0 0.25 0.125 0.4375q0.140625 0.171875 0.421875 0.34375q0.296875 0.15625 1.140625 0.46875q1.140625 0.421875 1.53125 0.84375q0.40625 0.421875 0.40625 1.0625z" fill-rule="nonzero"/><path fill="#000000" fill-opacity="0.0" d="m227.63911 311.03806l124.81889 0l0 33.921265l-124.81889 0z" fill-rule="evenodd"/><path fill="#000000" d="m259.1384 330.03745q0 1.125 -0.828125 1.765625q-0.8125 0.640625 -2.21875 0.640625q-1.53125 0 -2.34375 -0.40625l0 -0.953125q0.53125 0.21875 1.140625 0.359375q0.625 0.125 1.234375 0.125q1.0 0 1.5 -0.375q0.5 -0.390625 0.5 -1.0625q0 -0.4375 -0.1875 -0.71875q-0.171875 -0.296875 -0.59375 -0.53125q-0.40625 -0.25 -1.265625 -0.546875q-1.1875 -0.421875 -1.703125 -1.0q-0.515625 -0.59375 -0.515625 -1.546875q0 -0.984375 0.734375 -1.5625q0.75 -0.59375 1.984375 -0.59375q1.265625 0 2.34375 0.46875l-0.3125 0.859375q-1.0625 -0.4375 -2.0625 -0.4375q-0.796875 0 -1.25 0.34375q-0.4375 0.328125 -0.4375 0.9375q0 0.4375 0.15625 0.734375q0.171875 0.28125 0.5625 0.515625q0.390625 0.234375 1.203125 0.53125q1.34375 0.46875 1.84375 1.03125q0.515625 0.546875 0.515625 1.421875zm4.3203125 2.40625q-1.421875 0 -2.25 -0.875q-0.828125 -0.875 -0.828125 -2.40625q0 -1.5625 0.765625 -2.46875q0.765625 -0.921875 2.0625 -0.921875q1.203125 0 1.90625 0.796875q0.703125 0.796875 0.703125 2.09375l0 0.625l-4.421875 0q0.03125 1.125 0.5625 1.71875q0.546875 0.578125 1.53125 0.578125q1.03125 0 2.046875 -0.4375l0 0.875q-0.515625 0.21875 -0.984375 0.3125q-0.453125 0.109375 -1.09375 0.109375zm-0.265625 -5.84375q-0.78125 0 -1.25 0.5q-0.453125 0.5 -0.53125 1.390625l3.359375 0q0 -0.921875 -0.40625 -1.40625q-0.40625 -0.484375 -1.171875 -0.484375zm8.669922 5.71875l0 -4.15625q0 -0.78125 -0.359375 -1.171875q-0.34375 -0.390625 -1.109375 -0.390625q-1.015625 0 -1.484375 0.546875q-0.46875 0.546875 -0.46875 1.796875l0 3.375l-0.96875 0l0 -6.421875l0.796875 0l0.15625 0.875l0.046875 0q0.296875 -0.46875 0.828125 -0.734375q0.546875 -0.265625 1.203125 -0.265625q1.171875 0 1.75 0.5625q0.59375 0.5625 0.59375 1.796875l0 4.1875l-0.984375 0zm7.3496094 -0.859375l-0.0625 0q-0.671875 0.984375 -2.015625 0.984375q-1.25 0 -1.953125 -0.859375q-0.703125 -0.875 -0.703125 -2.453125q0 -1.59375 0.703125 -2.46875q0.703125 -0.890625 1.953125 -0.890625q1.3125 0 2.015625 0.953125l0.078125 0l-0.046875 -0.453125l-0.03125 -0.453125l0 -2.625l0.984375 0l0 9.125l-0.796875 0l-0.125 -0.859375zm-1.953125 0.15625q1.0 0 1.4375 -0.53125q0.453125 -0.546875 0.453125 -1.75l0 -0.203125q0 -1.375 -0.453125 -1.953125q-0.453125 -0.578125 -1.4375 -0.578125q-0.859375 0 -1.3125 0.671875q-0.453125 0.65625 -0.453125 1.859375q0 1.234375 0.4375 1.859375q0.453125 0.625 1.328125 0.625zm12.189453 -1.046875q0 0.890625 -0.671875 1.390625q-0.65625 0.484375 -1.875 0.484375q-1.265625 0 -1.984375 -0.40625l0 -0.90625q0.46875 0.234375 0.984375 0.375q0.53125 0.125 1.03125 0.125q0.765625 0 1.171875 -0.234375q0.40625 -0.25 0.40625 -0.75q0 -0.375 -0.328125 -0.640625q-0.3125 -0.265625 -1.265625 -0.625q-0.890625 -0.34375 -1.28125 -0.59375q-0.375 -0.25 -0.5625 -0.5625q-0.171875 -0.3125 -0.171875 -0.75q0 -0.78125 0.640625 -1.234375q0.640625 -0.46875 1.75 -0.46875q1.03125 0 2.03125 0.421875l-0.359375 0.796875q-0.953125 -0.390625 -1.75 -0.390625q-0.6875 0 -1.046875 0.21875q-0.34375 0.203125 -0.34375 0.59375q0 0.25 0.125 0.4375q0.140625 0.171875 0.421875 0.34375q0.296875 0.15625 1.140625 0.46875q1.140625 0.421875 1.53125 0.84375q0.40625 0.421875 0.40625 1.0625zm2.5058594 -4.671875l0 4.171875q0 0.78125 0.34375 1.171875q0.359375 0.375 1.125 0.375q1.015625 0 1.46875 -0.546875q0.46875 -0.546875 0.46875 -1.796875l0 -3.375l0.96875 0l0 6.421875l-0.796875 0l-0.140625 -0.859375l-0.046875 0q-0.296875 0.46875 -0.828125 0.734375q-0.53125 0.25 -1.21875 0.25q-1.171875 0 -1.75 -0.5625q-0.578125 -0.5625 -0.578125 -1.78125l0 -4.203125l0.984375 0zm9.005859 6.546875q-1.390625 0 -2.15625 -0.859375q-0.765625 -0.859375 -0.765625 -2.4375q0 -1.609375 0.78125 -2.484375q0.78125 -0.890625 2.203125 -0.890625q0.46875 0 0.921875 0.109375q0.46875 0.09375 0.734375 0.234375l-0.296875 0.828125q-0.328125 -0.140625 -0.703125 -0.21875q-0.375 -0.078125 -0.671875 -0.078125q-1.953125 0 -1.953125 2.484375q0 1.1875 0.46875 1.828125q0.484375 0.625 1.421875 0.625q0.796875 0 1.640625 -0.34375l0 0.859375q-0.640625 0.34375 -1.625 0.34375zm5.7128906 0q-1.390625 0 -2.15625 -0.859375q-0.765625 -0.859375 -0.765625 -2.4375q0 -1.609375 0.78125 -2.484375q0.78125 -0.890625 2.203125 -0.890625q0.46875 0 0.921875 0.109375q0.46875 0.09375 0.734375 0.234375l-0.296875 0.828125q-0.328125 -0.140625 -0.703125 -0.21875q-0.375 -0.078125 -0.671875 -0.078125q-1.953125 0 -1.953125 2.484375q0 1.1875 0.46875 1.828125q0.484375 0.625 1.421875 0.625q0.796875 0 1.640625 -0.34375l0 0.859375q-0.640625 0.34375 -1.625 0.34375zm5.8691406 0q-1.421875 0 -2.25 -0.875q-0.828125 -0.875 -0.828125 -2.40625q0 -1.5625 0.765625 -2.46875q0.765625 -0.921875 2.0625 -0.921875q1.203125 0 1.90625 0.796875q0.703125 0.796875 0.703125 2.09375l0 0.625l-4.421875 0q0.03125 1.125 0.5625 1.71875q0.546875 0.578125 1.53125 0.578125q1.03125 0 2.046875 -0.4375l0 0.875q-0.515625 0.21875 -0.984375 0.3125q-0.453125 0.109375 -1.09375 0.109375zm-0.265625 -5.84375q-0.78125 0 -1.25 0.5q-0.453125 0.5 -0.53125 1.390625l3.359375 0q0 -0.921875 -0.40625 -1.40625q-0.40625 -0.484375 -1.171875 -0.484375zm8.419922 3.96875q0 0.890625 -0.671875 1.390625q-0.65625 0.484375 -1.875 0.484375q-1.265625 0 -1.984375 -0.40625l0 -0.90625q0.46875 0.234375 0.984375 0.375q0.53125 0.125 1.03125 0.125q0.765625 0 1.171875 -0.234375q0.40625 -0.25 0.40625 -0.75q0 -0.375 -0.328125 -0.640625q-0.3125 -0.265625 -1.265625 -0.625q-0.890625 -0.34375 -1.28125 -0.59375q-0.375 -0.25 -0.5625 -0.5625q-0.171875 -0.3125 -0.171875 -0.75q0 -0.78125 0.640625 -1.234375q0.640625 -0.46875 1.75 -0.46875q1.03125 0 2.03125 0.421875l-0.359375 0.796875q-0.953125 -0.390625 -1.75 -0.390625q-0.6875 0 -1.046875 0.21875q-0.34375 0.203125 -0.34375 0.59375q0 0.25 0.125 0.4375q0.140625 0.171875 0.421875 0.34375q0.296875 0.15625 1.140625 0.46875q1.140625 0.421875 1.53125 0.84375q0.40625 0.421875 0.40625 1.0625zm5.7246094 0q0 0.890625 -0.671875 1.390625q-0.65625 0.484375 -1.875 0.484375q-1.265625 0 -1.984375 -0.40625l0 -0.90625q0.46875 0.234375 0.984375 0.375q0.53125 0.125 1.03125 0.125q0.765625 0 1.171875 -0.234375q0.40625 -0.25 0.40625 -0.75q0 -0.375 -0.328125 -0.640625q-0.3125 -0.265625 -1.265625 -0.625q-0.890625 -0.34375 -1.28125 -0.59375q-0.375 -0.25 -0.5625 -0.5625q-0.171875 -0.3125 -0.171875 -0.75q0 -0.78125 0.640625 -1.234375q0.640625 -0.46875 1.75 -0.46875q1.03125 0 2.03125 0.421875l-0.359375 0.796875q-0.953125 -0.390625 -1.75 -0.390625q-0.6875 0 -1.046875 0.21875q-0.34375 0.203125 -0.34375 0.59375q0 0.25 0.125 0.4375q0.140625 0.171875 0.421875 0.34375q0.296875 0.15625 1.140625 0.46875q1.140625 0.421875 1.53125 0.84375q0.40625 0.421875 0.40625 1.0625z" fill-rule="nonzero"/><path fill="#d9d9d9" d="m122.63386 403.51718l0 0c0 -3.2094116 2.601738 -5.811157 5.8111343 -5.811157l23.243866 0l0 0c1.541214 0 3.0193024 0.61224365 4.1091003 1.7020569c1.089798 1.0898132 1.7020416 2.567871 1.7020416 4.1091003l0 30.393463c0 3.2094116 -2.6017303 5.8111267 -5.811142 5.8111267l-23.243866 0c-3.2093964 0 -5.8111343 -2.601715 -5.8111343 -5.8111267z" fill-rule="evenodd"/><path fill="#d9d9d9" d="m402.1824 403.51718l0 0c0 -3.2094116 2.6017456 -5.811157 5.811157 -5.811157l23.243866 0l0 0c1.5411987 0 3.019287 0.61224365 4.1091003 1.7020569c1.0897827 1.0898132 1.7020264 2.567871 1.7020264 4.1091003l0 30.393463c0 3.2094116 -2.6017456 5.8111267 -5.8111267 5.8111267l-23.243866 0c-3.2094116 0 -5.811157 -2.601715 -5.811157 -5.8111267z" fill-rule="evenodd"/><path fill="#000000" fill-opacity="0.0" d="m402.1824 418.7139l-244.6929 0" fill-rule="evenodd"/><path stroke="#000000" stroke-width="1.0" stroke-linejoin="round" stroke-linecap="butt" d="m396.1824 418.7139l-232.6929 0" fill-rule="evenodd"/><path fill="#000000" stroke="#000000" stroke-width="1.0" stroke-linecap="butt" d="m396.1824 420.36563l4.5381165 -1.6517334l-4.5381165 -1.6517334z" fill-rule="evenodd"/><path fill="#000000" stroke="#000000" stroke-width="1.0" stroke-linecap="butt" d="m163.4895 417.06216l-4.538101 1.6517334l4.538101 1.6517334z" fill-rule="evenodd"/><path fill="#d9d9d9" d="m464.2533 403.51718l0 0c0 -3.2094116 2.601715 -5.811157 5.8111267 -5.811157l23.243866 0l0 0c1.5411987 0 3.019287 0.61224365 4.1091003 1.7020569c1.0897827 1.0898132 1.7020264 2.567871 1.7020264 4.1091003l0 30.393463c0 3.2094116 -2.601715 5.8111267 -5.8111267 5.8111267l-23.243866 0c-3.2094116 0 -5.8111267 -2.601715 -5.8111267 -5.8111267z" fill-rule="evenodd"/><path fill="#d9d9d9" d="m737.542 405.17596l0 0c0 -3.2094116 2.6017456 -5.8111267 5.811157 -5.8111267l23.243835 0l0 0c1.5411987 0 3.019287 0.61224365 4.109131 1.7020264c1.0897827 1.0898132 1.7020264 2.5679016 1.7020264 4.1091003l0 30.393463c0 3.2094116 -2.6017456 5.811157 -5.811157 5.811157l-23.243835 0c-3.2094116 0 -5.811157 -2.6017456 -5.811157 -5.811157z" fill-rule="evenodd"/><path fill="#000000" fill-opacity="0.0" d="m737.542 420.3727l-238.4252 -1.6693115" fill-rule="evenodd"/><path stroke="#000000" stroke-width="1.0" stroke-linejoin="round" stroke-linecap="butt" d="m731.5422 420.33072l-226.42554 -1.5853271" fill-rule="evenodd"/><path fill="#000000" stroke="#000000" stroke-width="1.0" stroke-linecap="butt" d="m731.5306 421.9824l4.5495605 -1.6199341l-4.526428 -1.6834412z" fill-rule="evenodd"/><path fill="#000000" stroke="#000000" stroke-width="1.0" stroke-linecap="butt" d="m505.1282 417.09372l-4.54953 1.6199341l4.5263977 1.6834717z" fill-rule="evenodd"/><path fill="#000000" fill-opacity="0.0" d="m464.2533 418.7139l-27.212616 0" fill-rule="evenodd"/><path stroke="#000000" stroke-width="1.0" stroke-linejoin="round" stroke-linecap="butt" d="m458.2533 418.7139l-15.212616 0" fill-rule="evenodd"/><path fill="#000000" stroke="#000000" stroke-width="1.0" stroke-linecap="butt" d="m458.2533 420.36563l4.538086 -1.6517334l-4.538086 -1.6517334z" fill-rule="evenodd"/><path fill="#000000" stroke="#000000" stroke-width="1.0" stroke-linecap="butt" d="m443.04068 417.06216l-4.538086 1.6517334l4.538086 1.6517334z" fill-rule="evenodd"/><path fill="#000000" fill-opacity="0.0" d="m29.28084 401.75854l72.409454 0l0 35.55905l-72.409454 0z" fill-rule="evenodd"/><path fill="#000000" d="m45.093338 420.9179q0 1.28125 -0.9375 2.03125q-0.921875 0.734375 -2.5625 0.734375q-1.53125 0 -2.703125 -0.5625l0 -1.875q0.96875 0.421875 1.625 0.609375q0.671875 0.171875 1.234375 0.171875q0.65625 0 1.0 -0.25q0.359375 -0.265625 0.359375 -0.765625q0 -0.28125 -0.15625 -0.5q-0.15625 -0.21875 -0.453125 -0.40625q-0.296875 -0.203125 -1.234375 -0.65625q-0.875 -0.40625 -1.3125 -0.78125q-0.421875 -0.375 -0.6875 -0.875q-0.265625 -0.515625 -0.265625 -1.171875q0 -1.265625 0.859375 -1.984375q0.859375 -0.734375 2.359375 -0.734375q0.75 0 1.421875 0.1875q0.671875 0.171875 1.40625 0.484375l-0.640625 1.578125q-0.765625 -0.3125 -1.265625 -0.4375q-0.5 -0.125 -0.984375 -0.125q-0.5625 0 -0.875 0.265625q-0.3125 0.265625 -0.3125 0.6875q0 0.28125 0.125 0.484375q0.125 0.1875 0.390625 0.375q0.28125 0.1875 1.28125 0.65625q1.34375 0.640625 1.828125 1.28125q0.5 0.640625 0.5 1.578125zm4.6377563 1.1875q0.515625 0 1.25 -0.21875l0 1.46875q-0.75 0.328125 -1.828125 0.328125q-1.1875 0 -1.734375 -0.59375q-0.546875 -0.609375 -0.546875 -1.8125l0 -3.5l-0.9375 0l0 -0.84375l1.09375 -0.65625l0.5625 -1.546875l1.265625 0l0 1.546875l2.046875 0l0 1.5l-2.046875 0l0 3.5q0 0.421875 0.234375 0.625q0.25 0.203125 0.640625 0.203125zm5.723007 -4.546875q-0.625 0 -0.984375 0.40625q-0.359375 0.390625 -0.40625 1.125l2.78125 0q-0.015625 -0.734375 -0.390625 -1.125q-0.359375 -0.40625 -1.0 -0.40625zm0.28125 6.125q-1.75 0 -2.75 -0.96875q-0.984375 -0.96875 -0.984375 -2.734375q0 -1.84375 0.90625 -2.828125q0.921875 -1.0 2.546875 -1.0q1.53125 0 2.390625 0.875q0.859375 0.875 0.859375 2.421875l0 0.96875l-4.6875 0q0.03125 0.84375 0.5 1.328125q0.46875 0.46875 1.3125 0.46875q0.65625 0 1.234375 -0.140625q0.59375 -0.140625 1.234375 -0.4375l0 1.53125q-0.515625 0.265625 -1.109375 0.390625q-0.59375 0.125 -1.453125 0.125zm8.577652 0q-1.28125 0 -2.0 -0.921875l-0.109375 0q0.109375 0.90625 0.109375 1.046875l0 2.953125l-1.984375 0l0 -10.484375l1.609375 0l0.28125 0.953125l0.09375 0q0.6875 -1.078125 2.0625 -1.078125q1.28125 0 2.0 1.0q0.734375 0.984375 0.734375 2.75q0 1.171875 -0.34375 2.03125q-0.328125 0.859375 -0.96875 1.3125q-0.625 0.4375 -1.484375 0.4375zm-0.578125 -5.953125q-0.734375 0 -1.078125 0.453125q-0.328125 0.453125 -0.34375 1.5l0 0.21875q0 1.15625 0.34375 1.671875q0.34375 0.5 1.109375 0.5q1.328125 0 1.328125 -2.1875q0 -1.078125 -0.328125 -1.609375q-0.328125 -0.546875 -1.03125 -0.546875zm11.443268 -0.25q1.375 0 2.1875 0.78125q0.828125 0.765625 0.828125 2.109375q0 1.59375 -0.984375 2.453125q-0.984375 0.859375 -2.8125 0.859375q-1.59375 0 -2.5625 -0.515625l0 -1.734375q0.515625 0.28125 1.1875 0.453125q0.6875 0.171875 1.296875 0.171875q1.84375 0 1.84375 -1.515625q0 -1.4375 -1.90625 -1.4375q-0.34375 0 -0.765625 0.078125q-0.40625 0.0625 -0.671875 0.140625l-0.796875 -0.4375l0.359375 -4.84375l5.15625 0l0 1.703125l-3.390625 0l-0.1875 1.875l0.234375 -0.046875q0.390625 -0.09375 0.984375 -0.09375zm4.373337 5.140625q0 -0.546875 0.28125 -0.8125q0.296875 -0.28125 0.859375 -0.28125q0.546875 0 0.84375 0.28125q0.296875 0.28125 0.296875 0.8125q0 0.515625 -0.3125 0.8125q-0.296875 0.296875 -0.828125 0.296875q-0.546875 0 -0.84375 -0.28125q-0.296875 -0.296875 -0.296875 -0.828125zm0 -5.375q0 -0.546875 0.28125 -0.8125q0.296875 -0.28125 0.859375 -0.28125q0.546875 0 0.84375 0.28125q0.296875 0.28125 0.296875 0.8125q0 0.53125 -0.3125 0.828125q-0.296875 0.28125 -0.828125 0.28125q-0.546875 0 -0.84375 -0.28125q-0.296875 -0.28125 -0.296875 -0.828125z" fill-rule="nonzero"/></g></svg>