<svg version="1.1" viewBox="0.0 0.0 1497.8293963254594 910.7217847769028" fill="none" stroke="none" stroke-linecap="square" stroke-miterlimit="10" xmlns:xlink="http://www.w3.org/1999/xlink" xmlns="http://www.w3.org/2000/svg"><clipPath id="p.0"><path d="m0 0l1497.8293 0l0 910.7218l-1497.8293 0l0 -910.7218z" clip-rule="nonzero"/></clipPath><g clip-path="url(#p.0)"><path fill="#000000" fill-opacity="0.0" d="m0 0l1497.8293 0l0 910.7218l-1497.8293 0z" fill-rule="evenodd"/><path fill="#000000" fill-opacity="0.0" d="m98.88976 411.21783l0 0c0 -0.0028686523 0.0023498535 -0.005218506 0.005241394 -0.005218506l629.0026 0.005218506c0.0014038086 0 0.002746582 5.79834E-4 0.0037231445 0.0015563965c9.765625E-4 9.765625E-4 0.0015258789 0.002319336 0.0015258789 0.003692627l-0.0052490234 372.5617c0 0.0028686523 -0.002380371 0.0052490234 -0.0052490234 0.0052490234l-629.0026 -0.0052490234l0 0c-0.0028915405 0 -0.005241394 -0.002380371 -0.005241394 -0.0052490234z" fill-rule="evenodd"/><path stroke="#000000" stroke-width="1.0" stroke-linejoin="round" stroke-linecap="butt" stroke-dasharray="8.0,3.0" d="m98.88976 411.21783l0 0c0 -0.0028686523 0.0023498535 -0.005218506 0.005241394 -0.005218506l629.0026 0.005218506c0.0014038086 0 0.002746582 5.79834E-4 0.0037231445 0.0015563965c9.765625E-4 9.765625E-4 0.0015258789 0.002319336 0.0015258789 0.003692627l-0.0052490234 372.5617c0 0.0028686523 -0.002380371 0.0052490234 -0.0052490234 0.0052490234l-629.0026 -0.0052490234l0 0c-0.0028915405 0 -0.005241394 -0.002380371 -0.005241394 -0.0052490234z" fill-rule="evenodd"/><path fill="#4a86e8" d="m1104.7625 307.6362l0 0c0 -8.229767 6.671509 -14.901306 14.901367 -14.901306l173.06348 0c3.9521484 0 7.7423096 1.5699768 10.536865 4.364502c2.7945557 2.7945251 4.364502 6.5847473 4.364502 10.536804l0 52.370636c0 8.229767 -6.671631 14.901306 -14.901367 14.901306l-173.06348 0c-8.229858 0 -14.901367 -6.6715393 -14.901367 -14.901306z" fill-rule="evenodd"/><path fill="#ffffff" d="m1172.4612 327.42902q2.578125 0 3.75 1.109375q1.1875 1.09375 1.1875 3.03125q0 0.875 -0.265625 1.671875q-0.265625 0.796875 -0.859375 1.421875q-0.59375 0.625 -1.59375 0.984375q-0.984375 0.359375 -2.4375 0.359375l-1.21875 0l0 4.734375l-2.828125 0l0 -13.3125l4.265625 0zm-0.15625 2.3125l-1.28125 0l0 3.953125l0.921875 0q0.796875 0 1.375 -0.203125q0.59375 -0.21875 0.90625 -0.65625q0.328125 -0.453125 0.328125 -1.15625q0 -0.984375 -0.546875 -1.453125q-0.546875 -0.484375 -1.703125 -0.484375zm13.074219 0.625q0.203125 0 0.484375 0.03125q0.28125 0.015625 0.453125 0.046875l-0.203125 2.609375q-0.140625 -0.046875 -0.390625 -0.0625q-0.25 -0.03125 -0.4375 -0.03125q-0.53125 0 -1.046875 0.140625q-0.5 0.140625 -0.90625 0.453125q-0.390625 0.296875 -0.625 0.796875q-0.234375 0.484375 -0.234375 1.203125l0 5.1875l-2.78125 0l0 -10.1875l2.109375 0l0.40625 1.71875l0.140625 0q0.296875 -0.515625 0.75 -0.953125q0.453125 -0.4375 1.03125 -0.6875q0.578125 -0.265625 1.25 -0.265625zm12.049927 5.265625q0 1.28125 -0.34375 2.265625q-0.34375 0.96875 -1.0 1.65625q-0.640625 0.671875 -1.5625 1.03125q-0.921875 0.34375 -2.0625 0.34375q-1.078125 0 -1.984375 -0.34375q-0.890625 -0.359375 -1.546875 -1.03125q-0.65625 -0.6875 -1.015625 -1.65625q-0.359375 -0.984375 -0.359375 -2.265625q0 -1.703125 0.59375 -2.875q0.609375 -1.171875 1.71875 -1.78125q1.109375 -0.609375 2.640625 -0.609375q1.4375 0 2.546875 0.609375q1.109375 0.609375 1.734375 1.78125q0.640625 1.171875 0.640625 2.875zm-7.046875 0q0 1.0 0.21875 1.6875q0.21875 0.6875 0.671875 1.03125q0.46875 0.34375 1.21875 0.34375q0.734375 0 1.1875 -0.34375q0.46875 -0.34375 0.6875 -1.03125q0.21875 -0.6875 0.21875 -1.6875q0 -1.015625 -0.21875 -1.671875q-0.21875 -0.671875 -0.6875 -1.015625q-0.453125 -0.34375 -1.203125 -0.34375q-1.09375 0 -1.59375 0.765625q-0.5 0.75 -0.5 2.265625zm11.753906 5.109375l-3.875 -10.1875l2.90625 0l1.96875 5.8125q0.15625 0.5 0.25 1.078125q0.109375 0.5625 0.140625 1.0l0.078125 0q0.015625 -0.484375 0.125 -1.03125q0.109375 -0.546875 0.28125 -1.046875l1.953125 -5.8125l2.90625 0l-3.875 10.1875l-2.859375 0zm10.972046 -10.1875l0 10.1875l-2.78125 0l0 -10.1875l2.78125 0zm-1.390625 -3.984375q0.625 0 1.0625 0.296875q0.453125 0.28125 0.453125 1.0625q0 0.765625 -0.453125 1.0625q-0.4375 0.296875 -1.0625 0.296875q-0.625 0 -1.0625 -0.296875q-0.4375 -0.296875 -0.4375 -1.0625q0 -0.78125 0.4375 -1.0625q0.4375 -0.296875 1.0625 -0.296875zm7.5371094 14.359375q-1.703125 0 -2.78125 -1.328125q-1.0625 -1.34375 -1.0625 -3.9375q0 -2.609375 1.078125 -3.953125q1.078125 -1.34375 2.828125 -1.34375q0.734375 0 1.28125 0.203125q0.5625 0.203125 0.96875 0.546875q0.40625 0.328125 0.6875 0.75l0.09375 0q-0.0625 -0.296875 -0.140625 -0.859375q-0.078125 -0.578125 -0.078125 -1.171875l0 -3.265625l2.796875 0l0 14.171875l-2.140625 0l-0.53125 -1.328125l-0.125 0q-0.25 0.421875 -0.65625 0.765625q-0.390625 0.34375 -0.9375 0.546875q-0.546875 0.203125 -1.28125 0.203125zm0.96875 -2.21875q1.140625 0 1.609375 -0.671875q0.46875 -0.6875 0.5 -2.046875l0 -0.3125q0 -1.484375 -0.46875 -2.265625q-0.453125 -0.78125 -1.6875 -0.78125q-0.921875 0 -1.4375 0.796875q-0.515625 0.78125 -0.515625 2.28125q0 1.484375 0.515625 2.25q0.53125 0.75 1.484375 0.75zm11.805908 -8.34375q1.40625 0 2.421875 0.546875q1.03125 0.53125 1.578125 1.5625q0.5625 1.03125 0.5625 2.515625l0 1.34375l-6.5625 0q0.046875 1.1875 0.703125 1.859375q0.65625 0.65625 1.828125 0.65625q0.984375 0 1.796875 -0.1875q0.8125 -0.203125 1.65625 -0.609375l0 2.15625q-0.75 0.375 -1.578125 0.546875q-0.828125 0.171875 -2.0 0.171875q-1.53125 0 -2.71875 -0.5625q-1.171875 -0.578125 -1.84375 -1.734375q-0.65625 -1.15625 -0.65625 -2.90625q0 -1.796875 0.59375 -2.984375q0.609375 -1.1875 1.6875 -1.78125q1.09375 -0.59375 2.53125 -0.59375zm0.015625 1.96875q-0.8125 0 -1.34375 0.53125q-0.53125 0.515625 -0.609375 1.625l3.890625 0q0 -0.625 -0.21875 -1.09375q-0.21875 -0.484375 -0.640625 -0.765625q-0.421875 -0.296875 -1.078125 -0.296875zm12.491211 -1.96875q0.203125 0 0.484375 0.03125q0.28125 0.015625 0.453125 0.046875l-0.203125 2.609375q-0.140625 -0.046875 -0.390625 -0.0625q-0.25 -0.03125 -0.4375 -0.03125q-0.53125 0 -1.046875 0.140625q-0.5 0.140625 -0.90625 0.453125q-0.390625 0.296875 -0.625 0.796875q-0.234375 0.484375 -0.234375 1.203125l0 5.1875l-2.78125 0l0 -10.1875l2.109375 0l0.40625 1.71875l0.140625 0q0.296875 -0.515625 0.75 -0.953125q0.453125 -0.4375 1.03125 -0.6875q0.578125 -0.265625 1.25 -0.265625z" fill-rule="nonzero"/><path fill="#4a86e8" d="m135.56168 571.316l0 0c0 -8.229736 6.6715393 -14.901306 14.901291 -14.901306l173.06355 0c3.9520874 0 7.742279 1.5700073 10.536804 4.364502c2.7945557 2.7945557 4.364502 6.584778 4.364502 10.536804l0 52.370667c0 8.229736 -6.6715393 14.901306 -14.901306 14.901306l-173.06355 0c-8.229752 0 -14.901291 -6.67157 -14.901291 -14.901306z" fill-rule="evenodd"/><path fill="#ffffff" d="m196.79863 593.2651q-0.8125 0 -1.4375 0.3125q-0.609375 0.3125 -1.046875 0.90625q-0.421875 0.59375 -0.640625 1.4375q-0.21875 0.828125 -0.21875 1.875q0 1.421875 0.34375 2.421875q0.359375 0.984375 1.09375 1.515625q0.75 0.515625 1.90625 0.515625q0.8125 0 1.625 -0.171875q0.828125 -0.1875 1.78125 -0.53125l0 2.375q-0.890625 0.359375 -1.75 0.515625q-0.84375 0.171875 -1.921875 0.171875q-2.046875 0 -3.375 -0.84375q-1.328125 -0.859375 -1.96875 -2.390625q-0.640625 -1.546875 -0.640625 -3.59375q0 -1.515625 0.40625 -2.765625q0.421875 -1.265625 1.203125 -2.171875q0.796875 -0.921875 1.96875 -1.421875q1.171875 -0.515625 2.671875 -0.515625q1.0 0 2.0 0.25q1.0 0.25 1.90625 0.6875l-0.90625 2.296875q-0.75 -0.34375 -1.515625 -0.609375q-0.75 -0.265625 -1.484375 -0.265625zm15.278519 6.046875q0 1.28125 -0.34375 2.265625q-0.34375 0.96875 -1.0 1.65625q-0.640625 0.671875 -1.5625 1.03125q-0.921875 0.34375 -2.0625 0.34375q-1.078125 0 -1.984375 -0.34375q-0.890625 -0.359375 -1.546875 -1.03125q-0.65625 -0.6875 -1.015625 -1.65625q-0.359375 -0.984375 -0.359375 -2.265625q0 -1.703125 0.59375 -2.875q0.609375 -1.171875 1.71875 -1.78125q1.109375 -0.609375 2.640625 -0.609375q1.4375 0 2.546875 0.609375q1.109375 0.609375 1.734375 1.78125q0.640625 1.171875 0.640625 2.875zm-7.046875 0q0 1.0 0.21875 1.6875q0.21875 0.6875 0.671875 1.03125q0.46875 0.34375 1.21875 0.34375q0.734375 0 1.1875 -0.34375q0.46875 -0.34375 0.6875 -1.03125q0.21875 -0.6875 0.21875 -1.6875q0 -1.015625 -0.21875 -1.671875q-0.21875 -0.671875 -0.6875 -1.015625q-0.453125 -0.34375 -1.203125 -0.34375q-1.09375 0 -1.59375 0.765625q-0.5 0.75 -0.5 2.265625zm15.113342 -5.265625q1.640625 0 2.625 0.890625q1.0 0.890625 1.0 2.84375l0 6.640625l-2.78125 0l0 -5.953125q0 -1.09375 -0.40625 -1.640625q-0.390625 -0.5625 -1.234375 -0.5625q-1.265625 0 -1.734375 0.875q-0.46875 0.859375 -0.46875 2.484375l0 4.796875l-2.78125 0l0 -10.1875l2.125 0l0.375 1.3125l0.15625 0q0.328125 -0.53125 0.8125 -0.859375q0.484375 -0.328125 1.078125 -0.484375q0.609375 -0.15625 1.234375 -0.15625zm13.589508 7.34375q0 1.046875 -0.484375 1.765625q-0.484375 0.703125 -1.453125 1.078125q-0.96875 0.375 -2.40625 0.375q-1.0625 0 -1.828125 -0.140625q-0.765625 -0.140625 -1.53125 -0.453125l0 -2.296875q0.828125 0.375 1.78125 0.625q0.953125 0.234375 1.671875 0.234375q0.8125 0 1.15625 -0.234375q0.359375 -0.25 0.359375 -0.640625q0 -0.265625 -0.15625 -0.46875q-0.140625 -0.203125 -0.609375 -0.453125q-0.453125 -0.265625 -1.453125 -0.6875q-0.953125 -0.40625 -1.5625 -0.8125q-0.609375 -0.40625 -0.90625 -0.96875q-0.296875 -0.5625 -0.296875 -1.421875q0 -1.421875 1.09375 -2.125q1.09375 -0.71875 2.9375 -0.71875q0.953125 0 1.8125 0.1875q0.859375 0.1875 1.765625 0.609375l-0.84375 2.015625q-0.75 -0.328125 -1.421875 -0.53125q-0.671875 -0.21875 -1.359375 -0.21875q-0.609375 0 -0.921875 0.171875q-0.3125 0.15625 -0.3125 0.484375q0 0.25 0.15625 0.453125q0.171875 0.1875 0.625 0.421875q0.46875 0.21875 1.359375 0.59375q0.859375 0.34375 1.5 0.734375q0.640625 0.390625 0.984375 0.96875q0.34375 0.5625 0.34375 1.453125zm11.507843 -7.15625l0 10.1875l-2.125 0l-0.375 -1.296875l-0.140625 0q-0.328125 0.515625 -0.828125 0.84375q-0.484375 0.328125 -1.078125 0.484375q-0.59375 0.15625 -1.234375 0.15625q-1.09375 0 -1.90625 -0.390625q-0.796875 -0.390625 -1.25 -1.203125q-0.453125 -0.828125 -0.453125 -2.140625l0 -6.640625l2.78125 0l0 5.953125q0 1.09375 0.390625 1.65625q0.390625 0.546875 1.25 0.546875q0.84375 0 1.328125 -0.390625q0.484375 -0.390625 0.671875 -1.140625q0.203125 -0.75 0.203125 -1.828125l0 -4.796875l2.765625 0zm14.886383 -0.1875q1.734375 0 2.609375 0.890625q0.890625 0.890625 0.890625 2.84375l0 6.640625l-2.78125 0l0 -5.953125q0 -1.09375 -0.375 -1.640625q-0.375 -0.5625 -1.15625 -0.5625q-1.109375 0 -1.578125 0.796875q-0.453125 0.78125 -0.453125 2.25l0 5.109375l-2.78125 0l0 -5.953125q0 -0.71875 -0.171875 -1.203125q-0.15625 -0.5 -0.5 -0.75q-0.328125 -0.25 -0.859375 -0.25q-0.765625 0 -1.21875 0.390625q-0.4375 0.390625 -0.625 1.140625q-0.1875 0.75 -0.1875 1.828125l0 4.796875l-2.78125 0l0 -10.1875l2.125 0l0.375 1.3125l0.15625 0q0.3125 -0.53125 0.78125 -0.859375q0.46875 -0.328125 1.03125 -0.484375q0.5625 -0.15625 1.140625 -0.15625q1.125 0 1.90625 0.375q0.78125 0.359375 1.203125 1.125l0.234375 0q0.46875 -0.796875 1.296875 -1.140625q0.828125 -0.359375 1.71875 -0.359375zm10.553589 0q1.40625 0 2.421875 0.546875q1.03125 0.53125 1.578125 1.5625q0.5625 1.03125 0.5625 2.515625l0 1.34375l-6.5625 0q0.046875 1.1875 0.703125 1.859375q0.65625 0.65625 1.828125 0.65625q0.984375 0 1.796875 -0.1875q0.8125 -0.203125 1.65625 -0.609375l0 2.15625q-0.75 0.375 -1.578125 0.546875q-0.828125 0.171875 -2.0 0.171875q-1.53125 0 -2.71875 -0.5625q-1.171875 -0.578125 -1.84375 -1.734375q-0.65625 -1.15625 -0.65625 -2.90625q0 -1.796875 0.59375 -2.984375q0.609375 -1.1875 1.6875 -1.78125q1.09375 -0.59375 2.53125 -0.59375zm0.015625 1.96875q-0.8125 0 -1.34375 0.53125q-0.53125 0.515625 -0.609375 1.625l3.890625 0q0 -0.625 -0.21875 -1.09375q-0.21875 -0.484375 -0.640625 -0.765625q-0.421875 -0.296875 -1.078125 -0.296875zm12.491241 -1.96875q0.203125 0 0.484375 0.03125q0.28125 0.015625 0.453125 0.046875l-0.203125 2.609375q-0.140625 -0.046875 -0.390625 -0.0625q-0.25 -0.03125 -0.4375 -0.03125q-0.53125 0 -1.046875 0.140625q-0.5 0.140625 -0.90625 0.453125q-0.390625 0.296875 -0.625 0.796875q-0.234375 0.484375 -0.234375 1.203125l0 5.1875l-2.78125 0l0 -10.1875l2.109375 0l0.40625 1.71875l0.140625 0q0.296875 -0.515625 0.75 -0.953125q0.453125 -0.4375 1.03125 -0.6875q0.578125 -0.265625 1.25 -0.265625z" fill-rule="nonzero"/><path fill="#4a86e8" d="m580.7861 175.7517l0 0c0 -8.229767 6.67157 -14.901306 14.901306 -14.901306l173.06354 0c3.9520874 0 7.7423096 1.5699615 10.536804 4.3644867c2.7945557 2.7945404 4.364502 6.5847473 4.364502 10.536819l0 52.370636c0 8.229752 -6.671509 14.901291 -14.901306 14.901291l-173.06354 0c-8.229736 0 -14.901306 -6.6715393 -14.901306 -14.901291z" fill-rule="evenodd"/><path fill="#ffffff" d="m652.0807 195.54451l4.15625 0q2.65625 0 4.015625 0.75q1.375 0.734375 1.375 2.609375q0 0.765625 -0.25 1.375q-0.234375 0.609375 -0.703125 1.0q-0.453125 0.390625 -1.09375 0.515625l0 0.078125q0.65625 0.140625 1.1875 0.484375q0.546875 0.328125 0.859375 0.96875q0.328125 0.625 0.328125 1.671875q0 1.203125 -0.59375 2.078125q-0.59375 0.859375 -1.6875 1.328125q-1.09375 0.453125 -2.609375 0.453125l-4.984375 0l0 -13.3125zm2.828125 5.265625l1.640625 0q1.234375 0 1.703125 -0.375q0.46875 -0.390625 0.46875 -1.15625q0 -0.765625 -0.5625 -1.09375q-0.546875 -0.328125 -1.765625 -0.328125l-1.484375 0l0 2.953125zm0 2.25l0 3.46875l1.84375 0q1.265625 0 1.765625 -0.484375q0.515625 -0.5 0.515625 -1.328125q0 -0.5 -0.21875 -0.875q-0.21875 -0.375 -0.734375 -0.578125q-0.515625 -0.203125 -1.421875 -0.203125l-1.75 0zm15.175293 -4.578125q0.203125 0 0.484375 0.03125q0.28125 0.015625 0.453125 0.046875l-0.203125 2.609375q-0.140625 -0.046875 -0.390625 -0.0625q-0.25 -0.03125 -0.4375 -0.03125q-0.53125 0 -1.046875 0.140625q-0.5 0.140625 -0.90625 0.453125q-0.390625 0.296875 -0.625 0.796875q-0.234375 0.484375 -0.234375 1.203125l0 5.1875l-2.78125 0l0 -10.1875l2.109375 0l0.40625 1.71875l0.140625 0q0.296875 -0.515625 0.75 -0.953125q0.453125 -0.4375 1.03125 -0.6875q0.578125 -0.265625 1.25 -0.265625zm12.049927 5.265625q0 1.28125 -0.34375 2.265625q-0.34375 0.96875 -1.0 1.65625q-0.640625 0.671875 -1.5625 1.03125q-0.921875 0.34375 -2.0625 0.34375q-1.078125 0 -1.984375 -0.34375q-0.890625 -0.359375 -1.546875 -1.03125q-0.65625 -0.6875 -1.015625 -1.65625q-0.359375 -0.984375 -0.359375 -2.265625q0 -1.703125 0.59375 -2.875q0.609375 -1.171875 1.71875 -1.78125q1.109375 -0.609375 2.640625 -0.609375q1.4375 0 2.546875 0.609375q1.109375 0.609375 1.734375 1.78125q0.640625 1.171875 0.640625 2.875zm-7.046875 0q0 1.0 0.21875 1.6875q0.21875 0.6875 0.671875 1.03125q0.46875 0.34375 1.21875 0.34375q0.734375 0 1.1875 -0.34375q0.46875 -0.34375 0.6875 -1.03125q0.21875 -0.6875 0.21875 -1.6875q0 -1.015625 -0.21875 -1.671875q-0.21875 -0.671875 -0.6875 -1.015625q-0.453125 -0.34375 -1.203125 -0.34375q-1.09375 0 -1.59375 0.765625q-0.5 0.75 -0.5 2.265625zm12.113342 -9.0625l0 6.34375q0 0.5625 -0.046875 1.140625q-0.046875 0.578125 -0.09375 1.15625l0.03125 0q0.28125 -0.40625 0.578125 -0.796875q0.296875 -0.390625 0.640625 -0.765625l2.84375 -3.09375l3.140625 0l-4.046875 4.421875l4.28125 5.765625l-3.203125 0l-2.9375 -4.125l-1.1875 0.953125l0 3.171875l-2.78125 0l0 -14.171875l2.78125 0zm12.990967 3.796875q1.40625 0 2.421875 0.546875q1.03125 0.53125 1.578125 1.5625q0.5625 1.03125 0.5625 2.515625l0 1.34375l-6.5625 0q0.046875 1.1875 0.703125 1.859375q0.65625 0.65625 1.828125 0.65625q0.984375 0 1.796875 -0.1875q0.8125 -0.203125 1.65625 -0.609375l0 2.15625q-0.75 0.375 -1.578125 0.546875q-0.828125 0.171875 -2.0 0.171875q-1.53125 0 -2.71875 -0.5625q-1.171875 -0.578125 -1.84375 -1.734375q-0.65625 -1.15625 -0.65625 -2.90625q0 -1.796875 0.59375 -2.984375q0.609375 -1.1875 1.6875 -1.78125q1.09375 -0.59375 2.53125 -0.59375zm0.015625 1.96875q-0.8125 0 -1.34375 0.53125q-0.53125 0.515625 -0.609375 1.625l3.890625 0q0 -0.625 -0.21875 -1.09375q-0.21875 -0.484375 -0.640625 -0.765625q-0.421875 -0.296875 -1.078125 -0.296875zm12.491211 -1.96875q0.203125 0 0.484375 0.03125q0.28125 0.015625 0.453125 0.046875l-0.203125 2.609375q-0.140625 -0.046875 -0.390625 -0.0625q-0.25 -0.03125 -0.4375 -0.03125q-0.53125 0 -1.046875 0.140625q-0.5 0.140625 -0.90625 0.453125q-0.390625 0.296875 -0.625 0.796875q-0.234375 0.484375 -0.234375 1.203125l0 5.1875l-2.78125 0l0 -10.1875l2.109375 0l0.40625 1.71875l0.140625 0q0.296875 -0.515625 0.75 -0.953125q0.453125 -0.4375 1.03125 -0.6875q0.578125 -0.265625 1.25 -0.265625z" fill-rule="nonzero"/><path fill="#4a86e8" d="m490.15616 472.4236l0 0c0 -8.229767 6.6715393 -14.901306 14.901306 -14.901306l173.06357 0c3.9520264 0 7.7422485 1.5699463 10.536804 4.364502c2.7944946 2.7945251 4.364502 6.584717 4.364502 10.536804l0 52.370636c0 8.229736 -6.67157 14.901306 -14.901306 14.901306l-173.06357 0c-8.229767 0 -14.901306 -6.67157 -14.901306 -14.901306z" fill-rule="evenodd"/><path fill="#ffffff" d="m557.85486 492.21643q2.578125 0 3.75 1.109375q1.1875 1.09375 1.1875 3.03125q0 0.875 -0.265625 1.671875q-0.265625 0.796875 -0.859375 1.421875q-0.59375 0.625 -1.59375 0.984375q-0.984375 0.359375 -2.4375 0.359375l-1.21875 0l0 4.734375l-2.828125 0l0 -13.3125l4.265625 0zm-0.15625 2.3125l-1.28125 0l0 3.953125l0.921875 0q0.796875 0 1.375 -0.203125q0.59375 -0.21875 0.90625 -0.65625q0.328125 -0.453125 0.328125 -1.15625q0 -0.984375 -0.546875 -1.453125q-0.546875 -0.484375 -1.703125 -0.484375zm13.074219 0.625q0.203125 0 0.484375 0.03125q0.28125 0.015625 0.453125 0.046875l-0.203125 2.609375q-0.140625 -0.046875 -0.390625 -0.0625q-0.25 -0.03125 -0.4375 -0.03125q-0.53125 0 -1.046875 0.140625q-0.5 0.140625 -0.90625 0.453125q-0.390625 0.296875 -0.625 0.796875q-0.234375 0.484375 -0.234375 1.203125l0 5.1875l-2.78125 0l0 -10.1875l2.109375 0l0.40625 1.71875l0.140625 0q0.296875 -0.515625 0.75 -0.953125q0.453125 -0.4375 1.03125 -0.6875q0.578125 -0.265625 1.25 -0.265625zm12.049927 5.265625q0 1.28125 -0.34375 2.265625q-0.34375 0.96875 -1.0 1.65625q-0.640625 0.671875 -1.5625 1.03125q-0.921875 0.34375 -2.0625 0.34375q-1.078125 0 -1.984375 -0.34375q-0.890625 -0.359375 -1.546875 -1.03125q-0.65625 -0.6875 -1.015625 -1.65625q-0.359375 -0.984375 -0.359375 -2.265625q0 -1.703125 0.59375 -2.875q0.609375 -1.171875 1.71875 -1.78125q1.109375 -0.609375 2.640625 -0.609375q1.4375 0 2.546875 0.609375q1.109375 0.609375 1.734375 1.78125q0.640625 1.171875 0.640625 2.875zm-7.046875 0q0 1.0 0.21875 1.6875q0.21875 0.6875 0.671875 1.03125q0.46875 0.34375 1.21875 0.34375q0.734375 0 1.1875 -0.34375q0.46875 -0.34375 0.6875 -1.03125q0.21875 -0.6875 0.21875 -1.6875q0 -1.015625 -0.21875 -1.671875q-0.21875 -0.671875 -0.6875 -1.015625q-0.453125 -0.34375 -1.203125 -0.34375q-1.09375 0 -1.59375 0.765625q-0.5 0.75 -0.5 2.265625zm11.753967 5.109375l-3.875 -10.1875l2.90625 0l1.96875 5.8125q0.15625 0.5 0.25 1.078125q0.109375 0.5625 0.140625 1.0l0.078125 0q0.015625 -0.484375 0.125 -1.03125q0.109375 -0.546875 0.28125 -1.046875l1.953125 -5.8125l2.90625 0l-3.875 10.1875l-2.859375 0zm10.971985 -10.1875l0 10.1875l-2.78125 0l0 -10.1875l2.78125 0zm-1.390625 -3.984375q0.625 0 1.0625 0.296875q0.453125 0.28125 0.453125 1.0625q0 0.765625 -0.453125 1.0625q-0.4375 0.296875 -1.0625 0.296875q-0.625 0 -1.0625 -0.296875q-0.4375 -0.296875 -0.4375 -1.0625q0 -0.78125 0.4375 -1.0625q0.4375 -0.296875 1.0625 -0.296875zm7.5371704 14.359375q-1.703125 0 -2.78125 -1.328125q-1.0625 -1.34375 -1.0625 -3.9375q0 -2.609375 1.078125 -3.953125q1.078125 -1.34375 2.828125 -1.34375q0.734375 0 1.28125 0.203125q0.5625 0.203125 0.96875 0.546875q0.40625 0.328125 0.6875 0.75l0.09375 0q-0.0625 -0.296875 -0.140625 -0.859375q-0.078125 -0.578125 -0.078125 -1.171875l0 -3.265625l2.796875 0l0 14.171875l-2.140625 0l-0.53125 -1.328125l-0.125 0q-0.25 0.421875 -0.65625 0.765625q-0.390625 0.34375 -0.9375 0.546875q-0.546875 0.203125 -1.28125 0.203125zm0.96875 -2.21875q1.140625 0 1.609375 -0.671875q0.46875 -0.6875 0.5 -2.046875l0 -0.3125q0 -1.484375 -0.46875 -2.265625q-0.453125 -0.78125 -1.6875 -0.78125q-0.921875 0 -1.4375 0.796875q-0.515625 0.78125 -0.515625 2.28125q0 1.484375 0.515625 2.25q0.53125 0.75 1.484375 0.75zm11.805908 -8.34375q1.40625 0 2.421875 0.546875q1.03125 0.53125 1.578125 1.5625q0.5625 1.03125 0.5625 2.515625l0 1.34375l-6.5625 0q0.046875 1.1875 0.703125 1.859375q0.65625 0.65625 1.828125 0.65625q0.984375 0 1.796875 -0.1875q0.8125 -0.203125 1.65625 -0.609375l0 2.15625q-0.75 0.375 -1.578125 0.546875q-0.828125 0.171875 -2.0 0.171875q-1.53125 0 -2.71875 -0.5625q-1.171875 -0.578125 -1.84375 -1.734375q-0.65625 -1.15625 -0.65625 -2.90625q0 -1.796875 0.59375 -2.984375q0.609375 -1.1875 1.6875 -1.78125q1.09375 -0.59375 2.53125 -0.59375zm0.015625 1.96875q-0.8125 0 -1.34375 0.53125q-0.53125 0.515625 -0.609375 1.625l3.890625 0q0 -0.625 -0.21875 -1.09375q-0.21875 -0.484375 -0.640625 -0.765625q-0.421875 -0.296875 -1.078125 -0.296875zm12.491211 -1.96875q0.203125 0 0.484375 0.03125q0.28125 0.015625 0.453125 0.046875l-0.203125 2.609375q-0.140625 -0.046875 -0.390625 -0.0625q-0.25 -0.03125 -0.4375 -0.03125q-0.53125 0 -1.046875 0.140625q-0.5 0.140625 -0.90625 0.453125q-0.390625 0.296875 -0.625 0.796875q-0.234375 0.484375 -0.234375 1.203125l0 5.1875l-2.78125 0l0 -10.1875l2.109375 0l0.40625 1.71875l0.140625 0q0.296875 -0.515625 0.75 -0.953125q0.453125 -0.4375 1.03125 -0.6875q0.578125 -0.265625 1.25 -0.265625z" fill-rule="nonzero"/><path fill="#000000" fill-opacity="0.0" d="m1084.1627 606.2966l0 0c0 -0.0014038086 0.0010986328 -0.0025634766 0.0025634766 -0.0025634766l306.73755 0.0025634766c7.324219E-4 0 0.0013427734 3.0517578E-4 0.0018310547 7.9345703E-4c4.8828125E-4 4.272461E-4 7.324219E-4 0.0010986328 7.324219E-4 0.0017700195l-0.0025634766 229.8872c0 0.0014038086 -0.0010986328 0.0025634766 -0.0024414062 0.0025634766l-306.73767 -0.0025634766l0 0c-0.0013427734 0 -0.0025634766 -0.001159668 -0.0025634766 -0.0025634766z" fill-rule="evenodd"/><path stroke="#000000" stroke-width="1.0" stroke-linejoin="round" stroke-linecap="butt" stroke-dasharray="8.0,3.0" d="m1084.1627 606.2966l0 0c0 -0.0014038086 0.0010986328 -0.0025634766 0.0025634766 -0.0025634766l306.73755 0.0025634766c7.324219E-4 0 0.0013427734 3.0517578E-4 0.0018310547 7.9345703E-4c4.8828125E-4 4.272461E-4 7.324219E-4 0.0010986328 7.324219E-4 0.0017700195l-0.0025634766 229.8872c0 0.0014038086 -0.0010986328 0.0025634766 -0.0024414062 0.0025634766l-306.73767 -0.0025634766l0 0c-0.0013427734 0 -0.0025634766 -0.001159668 -0.0025634766 -0.0025634766z" fill-rule="evenodd"/><path fill="#4a86e8" d="m1136.0984 695.05615l0 0c0 -8.229736 6.671631 -14.901306 14.901367 -14.901306l173.06348 0c3.9521484 0 7.7423096 1.5699463 10.536865 4.364502c2.7945557 2.7945557 4.364502 6.584717 4.364502 10.536804l0 52.370667c0 8.229736 -6.671509 14.901245 -14.901367 14.901245l-173.06348 0c-8.229736 0 -14.901367 -6.671509 -14.901367 -14.901245z" fill-rule="evenodd"/><path fill="#ffffff" d="m1203.7971 714.849q2.578125 0 3.75 1.109375q1.1875 1.09375 1.1875 3.03125q0 0.875 -0.265625 1.671875q-0.265625 0.796875 -0.859375 1.421875q-0.59375 0.625 -1.59375 0.984375q-0.984375 0.359375 -2.4375 0.359375l-1.21875 0l0 4.734375l-2.828125 0l0 -13.3125l4.265625 0zm-0.15625 2.3125l-1.28125 0l0 3.953125l0.921875 0q0.796875 0 1.375 -0.203125q0.59375 -0.21875 0.90625 -0.65625q0.328125 -0.453125 0.328125 -1.15625q0 -0.984375 -0.546875 -1.453125q-0.546875 -0.484375 -1.703125 -0.484375zm13.074219 0.625q0.203125 0 0.484375 0.03125q0.28125 0.015625 0.453125 0.046875l-0.203125 2.609375q-0.140625 -0.046875 -0.390625 -0.0625q-0.25 -0.03125 -0.4375 -0.03125q-0.53125 0 -1.046875 0.140625q-0.5 0.140625 -0.90625 0.453125q-0.390625 0.296875 -0.625 0.796875q-0.234375 0.484375 -0.234375 1.203125l0 5.1875l-2.78125 0l0 -10.1875l2.109375 0l0.40625 1.71875l0.140625 0q0.296875 -0.515625 0.75 -0.953125q0.453125 -0.4375 1.03125 -0.6875q0.578125 -0.265625 1.25 -0.265625zm12.049927 5.265625q0 1.28125 -0.34375 2.265625q-0.34375 0.96875 -1.0 1.65625q-0.640625 0.671875 -1.5625 1.03125q-0.921875 0.34375 -2.0625 0.34375q-1.078125 0 -1.984375 -0.34375q-0.890625 -0.359375 -1.546875 -1.03125q-0.65625 -0.6875 -1.015625 -1.65625q-0.359375 -0.984375 -0.359375 -2.265625q0 -1.703125 0.59375 -2.875q0.609375 -1.171875 1.71875 -1.78125q1.109375 -0.609375 2.640625 -0.609375q1.4375 0 2.546875 0.609375q1.109375 0.609375 1.734375 1.78125q0.640625 1.171875 0.640625 2.875zm-7.046875 0q0 1.0 0.21875 1.6875q0.21875 0.6875 0.671875 1.03125q0.46875 0.34375 1.21875 0.34375q0.734375 0 1.1875 -0.34375q0.46875 -0.34375 0.6875 -1.03125q0.21875 -0.6875 0.21875 -1.6875q0 -1.015625 -0.21875 -1.671875q-0.21875 -0.671875 -0.6875 -1.015625q-0.453125 -0.34375 -1.203125 -0.34375q-1.09375 0 -1.59375 0.765625q-0.5 0.75 -0.5 2.265625zm11.754028 5.109375l-3.875 -10.1875l2.90625 0l1.96875 5.8125q0.15625 0.5 0.25 1.078125q0.109375 0.5625 0.140625 1.0l0.078125 0q0.015625 -0.484375 0.125 -1.03125q0.109375 -0.546875 0.28125 -1.046875l1.953125 -5.8125l2.90625 0l-3.875 10.1875l-2.859375 0zm10.971924 -10.1875l0 10.1875l-2.78125 0l0 -10.1875l2.78125 0zm-1.390625 -3.984375q0.625 0 1.0625 0.296875q0.453125 0.28125 0.453125 1.0625q0 0.765625 -0.453125 1.0625q-0.4375 0.296875 -1.0625 0.296875q-0.625 0 -1.0625 -0.296875q-0.4375 -0.296875 -0.4375 -1.0625q0 -0.78125 0.4375 -1.0625q0.4375 -0.296875 1.0625 -0.296875zm7.5371094 14.359375q-1.703125 0 -2.78125 -1.328125q-1.0625 -1.34375 -1.0625 -3.9375q0 -2.609375 1.078125 -3.953125q1.078125 -1.34375 2.828125 -1.34375q0.734375 0 1.28125 0.203125q0.5625 0.203125 0.96875 0.546875q0.40625 0.328125 0.6875 0.75l0.09375 0q-0.0625 -0.296875 -0.140625 -0.859375q-0.078125 -0.578125 -0.078125 -1.171875l0 -3.265625l2.796875 0l0 14.171875l-2.140625 0l-0.53125 -1.328125l-0.125 0q-0.25 0.421875 -0.65625 0.765625q-0.390625 0.34375 -0.9375 0.546875q-0.546875 0.203125 -1.28125 0.203125zm0.96875 -2.21875q1.140625 0 1.609375 -0.671875q0.46875 -0.6875 0.5 -2.046875l0 -0.3125q0 -1.484375 -0.46875 -2.265625q-0.453125 -0.78125 -1.6875 -0.78125q-0.921875 0 -1.4375 0.796875q-0.515625 0.78125 -0.515625 2.28125q0 1.484375 0.515625 2.25q0.53125 0.75 1.484375 0.75zm11.805908 -8.34375q1.40625 0 2.421875 0.546875q1.03125 0.53125 1.578125 1.5625q0.5625 1.03125 0.5625 2.515625l0 1.34375l-6.5625 0q0.046875 1.1875 0.703125 1.859375q0.65625 0.65625 1.828125 0.65625q0.984375 0 1.796875 -0.1875q0.8125 -0.203125 1.65625 -0.609375l0 2.15625q-0.75 0.375 -1.578125 0.546875q-0.828125 0.171875 -2.0 0.171875q-1.53125 0 -2.71875 -0.5625q-1.171875 -0.578125 -1.84375 -1.734375q-0.65625 -1.15625 -0.65625 -2.90625q0 -1.796875 0.59375 -2.984375q0.609375 -1.1875 1.6875 -1.78125q1.09375 -0.59375 2.53125 -0.59375zm0.015625 1.96875q-0.8125 0 -1.34375 0.53125q-0.53125 0.515625 -0.609375 1.625l3.890625 0q0 -0.625 -0.21875 -1.09375q-0.21875 -0.484375 -0.640625 -0.765625q-0.421875 -0.296875 -1.078125 -0.296875zm12.491333 -1.96875q0.203125 0 0.484375 0.03125q0.28125 0.015625 0.453125 0.046875l-0.203125 2.609375q-0.140625 -0.046875 -0.390625 -0.0625q-0.25 -0.03125 -0.4375 -0.03125q-0.53125 0 -1.046875 0.140625q-0.5 0.140625 -0.90625 0.453125q-0.390625 0.296875 -0.625 0.796875q-0.234375 0.484375 -0.234375 1.203125l0 5.1875l-2.78125 0l0 -10.1875l2.109375 0l0.40625 1.71875l0.140625 0q0.296875 -0.515625 0.75 -0.953125q0.453125 -0.4375 1.03125 -0.6875q0.578125 -0.265625 1.25 -0.265625z" fill-rule="nonzero"/><path fill="#000000" fill-opacity="0.0" d="m236.99475 556.4147c0 -177.24408 171.88977 -354.48816 343.77954 -354.48816" fill-rule="evenodd"/><path stroke="#000000" stroke-width="1.0" stroke-linejoin="round" stroke-linecap="butt" d="m236.99475 556.4147c0 -88.62201 42.972443 -177.24408 107.43109 -243.7106c32.22934 -33.233276 69.83023 -60.927658 110.11688 -80.313736c20.143341 -9.693039 40.9581 -17.30899 62.10858 -22.501678c10.575256 -2.5963593 21.234497 -4.586899 31.935608 -5.9283295c5.350586 -0.6707306 10.71167 -1.179184 16.077942 -1.5199585c2.6831665 -0.17037964 5.3676147 -0.29884338 8.052734 -0.38471985c0.67126465 -0.021469116 1.3425903 -0.040267944 2.013977 -0.056411743l0.04309082 -9.460449E-4" fill-rule="evenodd"/><path fill="#000000" stroke="#000000" stroke-width="1.0" stroke-linecap="butt" d="m574.7945 203.6499l4.5180054 -1.7059021l-4.557556 -1.5973206z" fill-rule="evenodd"/><path fill="#000000" fill-opacity="0.0" d="m338.42783 597.50134c37.93216 0 56.89978 -24.724426 75.86432 -49.448853c18.96457 -24.724426 37.926117 -49.448822 75.8522 -49.448822" fill-rule="evenodd"/><path stroke="#000000" stroke-width="1.0" stroke-linejoin="round" stroke-linecap="butt" d="m338.42783 597.50134c37.93216 0 56.89978 -24.724426 75.86432 -49.448853c9.4823 -12.362183 18.963837 -24.724426 30.815552 -33.996033c5.9258423 -4.6358643 12.444275 -8.499054 19.851593 -11.203278c3.7036438 -1.3521118 7.629547 -2.4144897 11.814697 -3.138855c2.0925598 -0.36218262 4.25 -0.639801 6.476837 -0.8269348c0.27838135 -0.023406982 0.5577698 -0.04534912 0.8383179 -0.06591797l0.059020996 -0.0039978027" fill-rule="evenodd"/><path fill="#000000" stroke="#000000" stroke-width="1.0" stroke-linecap="butt" d="m484.20703 500.46814l4.476349 -1.8123779l-4.594055 -1.4889832z" fill-rule="evenodd"/><path fill="#000000" fill-opacity="0.0" d="m338.42783 597.50134c199.41733 0 299.126 30.93695 398.83463 61.873962c99.70868 30.937012 199.41736 61.874023 398.83472 61.874023" fill-rule="evenodd"/><path stroke="#000000" stroke-width="1.0" stroke-linejoin="round" stroke-linecap="butt" d="m338.42783 597.50134c199.41733 0 299.126 30.93695 398.83463 61.873962c49.85437 15.468506 99.70868 30.937012 162.02661 42.53839c31.158936 5.80072 65.43378 10.634644 104.38251 14.018372c19.474365 1.6918945 40.117126 3.0211792 62.123108 3.9274902c11.003052 0.45318604 22.346924 0.8006592 34.055786 1.03479c5.854492 0.11706543 11.800293 0.20581055 17.840332 0.2652588c3.0200195 0.029785156 6.0637207 0.05218506 9.131348 0.06719971l3.2750244 0.011962891" fill-rule="evenodd"/><path fill="#000000" stroke="#000000" stroke-width="1.0" stroke-linecap="butt" d="m1130.0942 722.8905l4.5410156 -1.6437378l-4.5352783 -1.659729z" fill-rule="evenodd"/><path fill="#000000" fill-opacity="0.0" d="m783.6522 201.93701c80.27722 0 120.416626 32.968506 160.55438 65.93701c40.137817 32.968506 80.27399 65.93701 160.54803 65.93701" fill-rule="evenodd"/><path stroke="#000000" stroke-width="1.0" stroke-linejoin="round" stroke-linecap="butt" d="m783.6522 201.93701c80.27722 0 120.416565 32.968506 160.55438 65.93701c20.068909 16.484253 40.13739 32.968506 65.22296 45.331696c12.542725 6.1815796 26.339844 11.332916 42.01819 14.938843c7.8392334 1.8029785 16.148926 3.219574 25.00708 4.1854553c4.4293213 0.48294067 8.995605 0.85321045 13.708984 1.1026917c2.3566895 0.12475586 4.75 0.21936035 7.1815186 0.28274536l1.4095459 0.032073975" fill-rule="evenodd"/><path fill="#000000" stroke="#000000" stroke-width="1.0" stroke-linecap="butt" d="m1098.7374 335.39917l4.555298 -1.6036072l-4.5202637 -1.6996765z" fill-rule="evenodd"/><path fill="#000000" fill-opacity="0.0" d="m287.77954 477.60104l147.18109 0l0 42.015778l-147.18109 0z" fill-rule="evenodd"/><path fill="#000000" d="m302.32855 504.52106l0 -13.3125l1.546875 0l0 11.921875l5.90625 0l0 1.390625l-7.453125 0zm18.113037 -5.015625q0 1.234375 -0.328125 2.203125q-0.3125 0.96875 -0.921875 1.640625q-0.59375 0.65625 -1.453125 1.015625q-0.84375 0.34375 -1.921875 0.34375q-1.0 0 -1.828125 -0.34375q-0.828125 -0.359375 -1.4375 -1.015625q-0.609375 -0.671875 -0.953125 -1.640625q-0.328125 -0.96875 -0.328125 -2.203125q0 -1.640625 0.5625 -2.78125q0.5625 -1.15625 1.59375 -1.765625q1.03125 -0.609375 2.453125 -0.609375q1.375 0 2.390625 0.609375q1.03125 0.609375 1.59375 1.765625q0.578125 1.15625 0.578125 2.78125zm-7.59375 0q0 1.203125 0.3125 2.09375q0.328125 0.875 0.984375 1.359375q0.671875 0.484375 1.71875 0.484375q1.03125 0 1.703125 -0.484375q0.671875 -0.484375 0.984375 -1.359375q0.328125 -0.890625 0.328125 -2.09375q0 -1.1875 -0.328125 -2.046875q-0.3125 -0.875 -0.984375 -1.34375q-0.65625 -0.484375 -1.71875 -0.484375q-1.5625 0 -2.28125 1.03125q-0.71875 1.03125 -0.71875 2.84375zm14.207275 5.203125q-1.34375 0 -2.375 -0.546875q-1.03125 -0.5625 -1.609375 -1.703125q-0.578125 -1.140625 -0.578125 -2.875q0 -1.8125 0.609375 -2.96875q0.609375 -1.15625 1.671875 -1.703125q1.0625 -0.5625 2.421875 -0.5625q0.75 0 1.4375 0.15625q0.703125 0.15625 1.15625 0.375l-0.453125 1.265625q-0.453125 -0.171875 -1.0625 -0.3125q-0.59375 -0.15625 -1.109375 -0.15625q-1.03125 0 -1.734375 0.453125q-0.6875 0.4375 -1.03125 1.3125q-0.328125 0.859375 -0.328125 2.125q0 1.203125 0.328125 2.0625q0.328125 0.859375 0.984375 1.3125q0.671875 0.453125 1.65625 0.453125q0.796875 0 1.4375 -0.171875q0.640625 -0.171875 1.15625 -0.390625l0 1.34375q-0.5 0.25 -1.125 0.390625q-0.609375 0.140625 -1.453125 0.140625zm8.670807 -10.328125q1.78125 0 2.640625 0.796875q0.875 0.796875 0.875 2.5625l0 6.78125l-1.09375 0l-0.296875 -1.46875l-0.078125 0q-0.421875 0.546875 -0.875 0.921875q-0.453125 0.359375 -1.046875 0.546875q-0.59375 0.1875 -1.46875 0.1875q-0.90625 0 -1.609375 -0.3125q-0.703125 -0.328125 -1.109375 -0.96875q-0.40625 -0.65625 -0.40625 -1.640625q0 -1.5 1.171875 -2.296875q1.1875 -0.8125 3.609375 -0.875l1.734375 -0.078125l0 -0.609375q0 -1.296875 -0.5625 -1.8125q-0.546875 -0.515625 -1.5625 -0.515625q-0.78125 0 -1.5 0.234375q-0.703125 0.21875 -1.34375 0.53125l-0.46875 -1.15625q0.671875 -0.34375 1.546875 -0.578125q0.875 -0.25 1.84375 -0.25zm2.015625 5.21875l-1.515625 0.0625q-1.859375 0.078125 -2.625 0.625q-0.765625 0.53125 -0.765625 1.515625q0 0.84375 0.515625 1.265625q0.515625 0.40625 1.375 0.40625q1.328125 0 2.171875 -0.734375q0.84375 -0.734375 0.84375 -2.21875l0 -0.921875zm6.1322327 4.921875l-1.515625 0l0 -14.171875l1.515625 0l0 14.171875zm13.962097 -12.140625q-1.109375 0 -1.984375 0.375q-0.875 0.375 -1.5 1.09375q-0.609375 0.71875 -0.9375 1.734375q-0.328125 1.0 -0.328125 2.265625q0 1.6875 0.515625 2.921875q0.53125 1.234375 1.578125 1.90625q1.046875 0.671875 2.609375 0.671875q0.890625 0 1.671875 -0.140625q0.796875 -0.15625 1.546875 -0.390625l0 1.34375q-0.734375 0.28125 -1.53125 0.40625q-0.796875 0.140625 -1.90625 0.140625q-2.03125 0 -3.390625 -0.84375q-1.359375 -0.84375 -2.046875 -2.375q-0.671875 -1.546875 -0.671875 -3.640625q0 -1.515625 0.421875 -2.765625q0.421875 -1.25 1.234375 -2.15625q0.8125 -0.921875 2.0 -1.421875q1.203125 -0.5 2.734375 -0.5q1.015625 0 1.953125 0.203125q0.9375 0.203125 1.6875 0.578125l-0.609375 1.3125q-0.640625 -0.296875 -1.40625 -0.5q-0.75 -0.21875 -1.640625 -0.21875zm14.438751 7.125q0 1.234375 -0.328125 2.203125q-0.3125 0.96875 -0.921875 1.640625q-0.59375 0.65625 -1.453125 1.015625q-0.84375 0.34375 -1.921875 0.34375q-1.0 0 -1.828125 -0.34375q-0.828125 -0.359375 -1.4375 -1.015625q-0.609375 -0.671875 -0.953125 -1.640625q-0.328125 -0.96875 -0.328125 -2.203125q0 -1.640625 0.5625 -2.78125q0.5625 -1.15625 1.59375 -1.765625q1.03125 -0.609375 2.453125 -0.609375q1.375 0 2.390625 0.609375q1.03125 0.609375 1.59375 1.765625q0.578125 1.15625 0.578125 2.78125zm-7.59375 0q0 1.203125 0.3125 2.09375q0.328125 0.875 0.984375 1.359375q0.671875 0.484375 1.71875 0.484375q1.03125 0 1.703125 -0.484375q0.671875 -0.484375 0.984375 -1.359375q0.328125 -0.890625 0.328125 -2.09375q0 -1.1875 -0.328125 -2.046875q-0.3125 -0.875 -0.984375 -1.34375q-0.65625 -0.484375 -1.71875 -0.484375q-1.5625 0 -2.28125 1.03125q-0.71875 1.03125 -0.71875 2.84375zm14.94165 -5.15625q1.765625 0 2.671875 0.875q0.921875 0.875 0.921875 2.796875l0 6.5l-1.5 0l0 -6.40625q0 -1.25 -0.578125 -1.859375q-0.5625 -0.625 -1.734375 -0.625q-1.65625 0 -2.328125 0.9375q-0.671875 0.9375 -0.671875 2.71875l0 5.234375l-1.515625 0l0 -9.984375l1.21875 0l0.234375 1.4375l0.078125 0q0.3125 -0.53125 0.796875 -0.890625q0.5 -0.359375 1.109375 -0.546875q0.609375 -0.1875 1.296875 -0.1875zm11.441528 0q1.765625 0 2.671875 0.875q0.921875 0.875 0.921875 2.796875l0 6.5l-1.5 0l0 -6.40625q0 -1.25 -0.578125 -1.859375q-0.5625 -0.625 -1.734375 -0.625q-1.65625 0 -2.328125 0.9375q-0.671875 0.9375 -0.671875 2.71875l0 5.234375l-1.515625 0l0 -9.984375l1.21875 0l0.234375 1.4375l0.078125 0q0.3125 -0.53125 0.796875 -0.890625q0.5 -0.359375 1.109375 -0.546875q0.609375 -0.1875 1.296875 -0.1875zm10.550903 0q1.28125 0 2.1875 0.578125q0.90625 0.5625 1.390625 1.578125q0.484375 1.015625 0.484375 2.375l0 0.9375l-6.890625 0q0.015625 1.75 0.859375 2.671875q0.859375 0.921875 2.390625 0.921875q0.953125 0 1.671875 -0.171875q0.734375 -0.171875 1.53125 -0.515625l0 1.328125q-0.765625 0.34375 -1.515625 0.5q-0.734375 0.15625 -1.75 0.15625q-1.4375 0 -2.515625 -0.59375q-1.0625 -0.59375 -1.65625 -1.71875q-0.59375 -1.140625 -0.59375 -2.796875q0 -1.609375 0.546875 -2.78125q0.546875 -1.1875 1.53125 -1.828125q0.984375 -0.640625 2.328125 -0.640625zm-0.015625 1.25q-1.21875 0 -1.9375 0.796875q-0.71875 0.78125 -0.859375 2.203125l5.296875 0q-0.015625 -0.890625 -0.28125 -1.5625q-0.265625 -0.6875 -0.8125 -1.0625q-0.546875 -0.375 -1.40625 -0.375zm10.647797 9.109375q-1.34375 0 -2.375 -0.546875q-1.03125 -0.5625 -1.609375 -1.703125q-0.578125 -1.140625 -0.578125 -2.875q0 -1.8125 0.609375 -2.96875q0.609375 -1.15625 1.671875 -1.703125q1.0625 -0.5625 2.421875 -0.5625q0.75 0 1.4375 0.15625q0.703125 0.15625 1.15625 0.375l-0.453125 1.265625q-0.453125 -0.171875 -1.0625 -0.3125q-0.59375 -0.15625 -1.109375 -0.15625q-1.03125 0 -1.734375 0.453125q-0.6875 0.4375 -1.03125 1.3125q-0.328125 0.859375 -0.328125 2.125q0 1.203125 0.328125 2.0625q0.328125 0.859375 0.984375 1.3125q0.671875 0.453125 1.65625 0.453125q0.796875 0 1.4375 -0.171875q0.640625 -0.171875 1.15625 -0.390625l0 1.34375q-0.5 0.25 -1.125 0.390625q-0.609375 0.140625 -1.453125 0.140625zm8.155182 -1.25q0.375 0 0.765625 -0.0625q0.390625 -0.0625 0.640625 -0.15625l0 1.1875q-0.265625 0.109375 -0.734375 0.1875q-0.46875 0.09375 -0.90625 0.09375q-0.796875 0 -1.453125 -0.28125q-0.640625 -0.28125 -1.03125 -0.9375q-0.375 -0.671875 -0.375 -1.84375l0 -5.921875l-1.421875 0l0 -0.734375l1.421875 -0.59375l0.609375 -2.171875l0.90625 0l0 2.3125l2.921875 0l0 1.1875l-2.921875 0l0 5.875q0 0.9375 0.421875 1.40625q0.4375 0.453125 1.15625 0.453125z" fill-rule="nonzero"/><path fill="#000000" fill-opacity="0.0" d="m832.43964 726.50134l147.18109 0l0 42.015747l-147.18109 0z" fill-rule="evenodd"/><path fill="#000000" d="m856.3877 740.1088q2.578125 0 3.765625 1.0q1.1875 1.0 1.1875 2.890625q0 0.84375 -0.28125 1.609375q-0.265625 0.75 -0.890625 1.328125q-0.609375 0.578125 -1.625 0.921875q-1.0 0.328125 -2.46875 0.328125l-1.609375 0l0 5.234375l-1.546875 0l0 -13.3125l3.46875 0zm-0.140625 1.3125l-1.78125 0l0 5.4375l1.4375 0q1.28125 0 2.125 -0.265625q0.859375 -0.28125 1.28125 -0.890625q0.4375 -0.625 0.4375 -1.640625q0 -1.328125 -0.859375 -1.984375q-0.84375 -0.65625 -2.640625 -0.65625zm15.707275 12.0l-8.71875 0l0 -1.265625l3.5625 -3.609375q0.984375 -1.015625 1.65625 -1.796875q0.6875 -0.78125 1.046875 -1.53125q0.359375 -0.765625 0.359375 -1.6875q0 -1.125 -0.671875 -1.71875q-0.671875 -0.59375 -1.765625 -0.59375q-0.953125 0 -1.703125 0.328125q-0.734375 0.328125 -1.5 0.921875l-0.8125 -1.015625q0.53125 -0.453125 1.15625 -0.796875q0.625 -0.34375 1.328125 -0.546875q0.71875 -0.203125 1.53125 -0.203125q1.234375 0 2.125 0.4375q0.890625 0.421875 1.375 1.21875q0.484375 0.796875 0.484375 1.890625q0 1.046875 -0.421875 1.953125q-0.40625 0.90625 -1.171875 1.796875q-0.75 0.890625 -1.765625 1.875l-2.890625 2.890625l0 0.0625l6.796875 0l0 1.390625zm6.3234863 -13.3125q2.578125 0 3.765625 1.0q1.1875 1.0 1.1875 2.890625q0 0.84375 -0.28125 1.609375q-0.265625 0.75 -0.890625 1.328125q-0.609375 0.578125 -1.625 0.921875q-1.0 0.328125 -2.46875 0.328125l-1.609375 0l0 5.234375l-1.546875 0l0 -13.3125l3.46875 0zm-0.140625 1.3125l-1.78125 0l0 5.4375l1.4375 0q1.28125 0 2.125 -0.265625q0.859375 -0.28125 1.28125 -0.890625q0.4375 -0.625 0.4375 -1.640625q0 -1.328125 -0.859375 -1.984375q-0.84375 -0.65625 -2.640625 -0.65625zm18.428528 -0.140625q-1.109375 0 -1.984375 0.375q-0.875 0.375 -1.5 1.09375q-0.609375 0.71875 -0.9375 1.734375q-0.328125 1.0 -0.328125 2.265625q0 1.6875 0.515625 2.921875q0.53125 1.234375 1.578125 1.90625q1.046875 0.671875 2.609375 0.671875q0.890625 0 1.671875 -0.140625q0.796875 -0.15625 1.546875 -0.390625l0 1.34375q-0.734375 0.28125 -1.53125 0.40625q-0.796875 0.140625 -1.90625 0.140625q-2.03125 0 -3.390625 -0.84375q-1.359375 -0.84375 -2.046875 -2.375q-0.671875 -1.546875 -0.671875 -3.640625q0 -1.515625 0.421875 -2.765625q0.421875 -1.25 1.234375 -2.15625q0.8125 -0.921875 2.0 -1.421875q1.203125 -0.5 2.734375 -0.5q1.015625 0 1.953125 0.203125q0.9375 0.203125 1.6875 0.578125l-0.609375 1.3125q-0.640625 -0.296875 -1.40625 -0.5q-0.75 -0.21875 -1.640625 -0.21875zm14.438721 7.125q0 1.234375 -0.328125 2.203125q-0.3125 0.96875 -0.921875 1.640625q-0.59375 0.65625 -1.453125 1.015625q-0.84375 0.34375 -1.921875 0.34375q-1.0 0 -1.828125 -0.34375q-0.828125 -0.359375 -1.4375 -1.015625q-0.609375 -0.671875 -0.953125 -1.640625q-0.328125 -0.96875 -0.328125 -2.203125q0 -1.640625 0.5625 -2.78125q0.5625 -1.15625 1.59375 -1.765625q1.03125 -0.609375 2.453125 -0.609375q1.375 0 2.390625 0.609375q1.03125 0.609375 1.59375 1.765625q0.578125 1.15625 0.578125 2.78125zm-7.59375 0q0 1.203125 0.3125 2.09375q0.328125 0.875 0.984375 1.359375q0.671875 0.484375 1.71875 0.484375q1.03125 0 1.703125 -0.484375q0.671875 -0.484375 0.984375 -1.359375q0.328125 -0.890625 0.328125 -2.09375q0 -1.1875 -0.328125 -2.046875q-0.3125 -0.875 -0.984375 -1.34375q-0.65625 -0.484375 -1.71875 -0.484375q-1.5625 0 -2.28125 1.03125q-0.71875 1.03125 -0.71875 2.84375zm14.94165 -5.15625q1.765625 0 2.671875 0.875q0.921875 0.875 0.921875 2.796875l0 6.5l-1.5 0l0 -6.40625q0 -1.25 -0.578125 -1.859375q-0.5625 -0.625 -1.734375 -0.625q-1.65625 0 -2.328125 0.9375q-0.671875 0.9375 -0.671875 2.71875l0 5.234375l-1.515625 0l0 -9.984375l1.21875 0l0.234375 1.4375l0.078125 0q0.3125 -0.53125 0.796875 -0.890625q0.5 -0.359375 1.109375 -0.546875q0.609375 -0.1875 1.296875 -0.1875zm11.441528 0q1.765625 0 2.671875 0.875q0.921875 0.875 0.921875 2.796875l0 6.5l-1.5 0l0 -6.40625q0 -1.25 -0.578125 -1.859375q-0.5625 -0.625 -1.734375 -0.625q-1.65625 0 -2.328125 0.9375q-0.671875 0.9375 -0.671875 2.71875l0 5.234375l-1.515625 0l0 -9.984375l1.21875 0l0.234375 1.4375l0.078125 0q0.3125 -0.53125 0.796875 -0.890625q0.5 -0.359375 1.109375 -0.546875q0.609375 -0.1875 1.296875 -0.1875zm10.550903 0q1.28125 0 2.1875 0.578125q0.90625 0.5625 1.390625 1.578125q0.484375 1.015625 0.484375 2.375l0 0.9375l-6.890625 0q0.015625 1.75 0.859375 2.671875q0.859375 0.921875 2.390625 0.921875q0.953125 0 1.671875 -0.171875q0.734375 -0.171875 1.53125 -0.515625l0 1.328125q-0.765625 0.34375 -1.515625 0.5q-0.734375 0.15625 -1.75 0.15625q-1.4375 0 -2.515625 -0.59375q-1.0625 -0.59375 -1.65625 -1.71875q-0.59375 -1.140625 -0.59375 -2.796875q0 -1.609375 0.546875 -2.78125q0.546875 -1.1875 1.53125 -1.828125q0.984375 -0.640625 2.328125 -0.640625zm-0.015625 1.25q-1.21875 0 -1.9375 0.796875q-0.71875 0.78125 -0.859375 2.203125l5.296875 0q-0.015625 -0.890625 -0.28125 -1.5625q-0.265625 -0.6875 -0.8125 -1.0625q-0.546875 -0.375 -1.40625 -0.375zm10.647827 9.109375q-1.34375 0 -2.375 -0.546875q-1.03125 -0.5625 -1.609375 -1.703125q-0.578125 -1.140625 -0.578125 -2.875q0 -1.8125 0.609375 -2.96875q0.609375 -1.15625 1.671875 -1.703125q1.0625 -0.5625 2.421875 -0.5625q0.75 0 1.4375 0.15625q0.703125 0.15625 1.15625 0.375l-0.453125 1.265625q-0.453125 -0.171875 -1.0625 -0.3125q-0.59375 -0.15625 -1.109375 -0.15625q-1.03125 0 -1.734375 0.453125q-0.6875 0.4375 -1.03125 1.3125q-0.328125 0.859375 -0.328125 2.125q0 1.203125 0.328125 2.0625q0.328125 0.859375 0.984375 1.3125q0.671875 0.453125 1.65625 0.453125q0.796875 0 1.4375 -0.171875q0.640625 -0.171875 1.15625 -0.390625l0 1.34375q-0.5 0.25 -1.125 0.390625q-0.609375 0.140625 -1.453125 0.140625zm8.155151 -1.25q0.375 0 0.765625 -0.0625q0.390625 -0.0625 0.640625 -0.15625l0 1.1875q-0.265625 0.109375 -0.734375 0.1875q-0.46875 0.09375 -0.90625 0.09375q-0.796875 0 -1.453125 -0.28125q-0.640625 -0.28125 -1.03125 -0.9375q-0.375 -0.671875 -0.375 -1.84375l0 -5.921875l-1.421875 0l0 -0.734375l1.421875 -0.59375l0.609375 -2.171875l0.90625 0l0 2.3125l2.921875 0l0 1.1875l-2.921875 0l0 5.875q0 0.9375 0.421875 1.40625q0.4375 0.453125 1.15625 0.453125z" fill-rule="nonzero"/><path fill="#000000" fill-opacity="0.0" d="m1052.8268 218.87665l0 0c0 -0.0014190674 0.0010986328 -0.0025634766 0.0025634766 -0.0025634766l306.73755 0.0025634766c7.324219E-4 0 0.0013427734 2.593994E-4 0.0018310547 7.4768066E-4c4.8828125E-4 4.7302246E-4 7.324219E-4 0.0011291504 7.324219E-4 0.0018005371l-0.0025634766 229.88722c0 0.0014038086 -0.0010986328 0.002532959 -0.0025634766 0.002532959l-306.73755 -0.002532959l0 0c-0.0014648438 0 -0.0025634766 -0.001159668 -0.0025634766 -0.0025634766z" fill-rule="evenodd"/><path stroke="#000000" stroke-width="1.0" stroke-linejoin="round" stroke-linecap="butt" stroke-dasharray="8.0,3.0" d="m1052.8268 218.87665l0 0c0 -0.0014190674 0.0010986328 -0.0025634766 0.0025634766 -0.0025634766l306.73755 0.0025634766c7.324219E-4 0 0.0013427734 2.593994E-4 0.0018310547 7.4768066E-4c4.8828125E-4 4.7302246E-4 7.324219E-4 0.0011291504 7.324219E-4 0.0018005371l-0.0025634766 229.88722c0 0.0014038086 -0.0010986328 0.002532959 -0.0025634766 0.002532959l-306.73755 -0.002532959l0 0c-0.0014648438 0 -0.0025634766 -0.001159668 -0.0025634766 -0.0025634766z" fill-rule="evenodd"/><path fill="#000000" fill-opacity="0.0" d="m216.38846 246.86613l147.18109 0l0 42.015762l-147.18109 0z" fill-rule="evenodd"/><path fill="#000000" d="m233.81157 260.47363q1.640625 0 2.703125 0.40625q1.078125 0.40625 1.59375 1.234375q0.53125 0.828125 0.53125 2.109375q0 1.046875 -0.390625 1.765625q-0.375 0.703125 -1.0 1.140625q-0.609375 0.4375 -1.3125 0.671875l3.65625 5.984375l-1.796875 0l-3.265625 -5.5625l-2.765625 0l0 5.5625l-1.546875 0l0 -13.3125l3.59375 0zm-0.09375 1.328125l-1.953125 0l0 5.109375l2.109375 0q1.625 0 2.390625 -0.65625q0.78125 -0.671875 0.78125 -1.953125q0 -1.359375 -0.828125 -1.921875q-0.8125 -0.578125 -2.5 -0.578125zm11.623779 1.8125q1.28125 0 2.1875 0.578125q0.90625 0.5625 1.390625 1.578125q0.484375 1.015625 0.484375 2.375l0 0.9375l-6.890625 0q0.015625 1.75 0.859375 2.671875q0.859375 0.921875 2.390625 0.921875q0.953125 0 1.671875 -0.171875q0.734375 -0.171875 1.53125 -0.515625l0 1.328125q-0.765625 0.34375 -1.515625 0.5q-0.734375 0.15625 -1.75 0.15625q-1.4375 0 -2.515625 -0.59375q-1.0625 -0.59375 -1.65625 -1.71875q-0.59375 -1.140625 -0.59375 -2.796875q0 -1.609375 0.546875 -2.78125q0.546875 -1.1875 1.53125 -1.828125q0.984375 -0.640625 2.328125 -0.640625zm-0.015625 1.25q-1.21875 0 -1.9375 0.796875q-0.71875 0.78125 -0.859375 2.203125l5.296875 0q-0.015625 -0.890625 -0.28125 -1.5625q-0.265625 -0.6875 -0.8125 -1.0625q-0.546875 -0.375 -1.40625 -0.375zm8.163422 8.921875l-1.515625 0l0 -14.171875l1.515625 0l0 14.171875zm6.92836 -10.140625q1.78125 0 2.640625 0.796875q0.875 0.796875 0.875 2.5625l0 6.78125l-1.09375 0l-0.296875 -1.46875l-0.078125 0q-0.421875 0.546875 -0.875 0.921875q-0.453125 0.359375 -1.046875 0.546875q-0.59375 0.1875 -1.46875 0.1875q-0.90625 0 -1.609375 -0.3125q-0.703125 -0.328125 -1.109375 -0.96875q-0.40625 -0.65625 -0.40625 -1.640625q0 -1.5 1.171875 -2.296875q1.1875 -0.8125 3.609375 -0.875l1.734375 -0.078125l0 -0.609375q0 -1.296875 -0.5625 -1.8125q-0.546875 -0.515625 -1.5625 -0.515625q-0.78125 0 -1.5 0.234375q-0.703125 0.21875 -1.34375 0.53125l-0.46875 -1.15625q0.671875 -0.34375 1.546875 -0.578125q0.875 -0.25 1.84375 -0.25zm2.015625 5.21875l-1.515625 0.0625q-1.859375 0.078125 -2.625 0.625q-0.765625 0.53125 -0.765625 1.515625q0 0.84375 0.515625 1.265625q0.515625 0.40625 1.375 0.40625q1.328125 0 2.171875 -0.734375q0.84375 -0.734375 0.84375 -2.21875l0 -0.921875zm3.0384827 -5.0625l1.625 0l2.203125 5.796875q0.1875 0.5 0.34375 0.984375q0.171875 0.46875 0.296875 0.890625q0.140625 0.421875 0.203125 0.828125l0.0625 0q0.125 -0.453125 0.359375 -1.1875q0.25 -0.75 0.515625 -1.53125l2.09375 -5.78125l1.625 0l-4.34375 11.453125q-0.34375 0.921875 -0.8125 1.59375q-0.453125 0.6875 -1.109375 1.046875q-0.65625 0.375 -1.578125 0.375q-0.4375 0 -0.765625 -0.046875q-0.328125 -0.046875 -0.5625 -0.109375l0 -1.21875q0.203125 0.046875 0.484375 0.078125q0.296875 0.046875 0.59375 0.046875q0.578125 0 0.984375 -0.21875q0.421875 -0.203125 0.71875 -0.625q0.296875 -0.40625 0.515625 -0.96875l0.546875 -1.40625l-4.0 -10.0zm21.692596 -2.15625q-1.109375 0 -1.984375 0.375q-0.875 0.375 -1.5 1.09375q-0.609375 0.71875 -0.9375 1.734375q-0.328125 1.0 -0.328125 2.265625q0 1.6875 0.515625 2.921875q0.53125 1.234375 1.578125 1.90625q1.046875 0.671875 2.609375 0.671875q0.890625 0 1.671875 -0.140625q0.796875 -0.15625 1.546875 -0.390625l0 1.34375q-0.734375 0.28125 -1.53125 0.40625q-0.796875 0.140625 -1.90625 0.140625q-2.03125 0 -3.390625 -0.84375q-1.359375 -0.84375 -2.046875 -2.375q-0.671875 -1.546875 -0.671875 -3.640625q0 -1.515625 0.421875 -2.765625q0.421875 -1.25 1.234375 -2.15625q0.8125 -0.921875 2.0 -1.421875q1.203125 -0.5 2.734375 -0.5q1.015625 0 1.953125 0.203125q0.9375 0.203125 1.6875 0.578125l-0.609375 1.3125q-0.640625 -0.296875 -1.40625 -0.5q-0.75 -0.21875 -1.640625 -0.21875zm14.438751 7.125q0 1.234375 -0.328125 2.203125q-0.3125 0.96875 -0.921875 1.640625q-0.59375 0.65625 -1.453125 1.015625q-0.84375 0.34375 -1.921875 0.34375q-1.0 0 -1.828125 -0.34375q-0.828125 -0.359375 -1.4375 -1.015625q-0.609375 -0.671875 -0.953125 -1.640625q-0.328125 -0.96875 -0.328125 -2.203125q0 -1.640625 0.5625 -2.78125q0.5625 -1.15625 1.59375 -1.765625q1.03125 -0.609375 2.453125 -0.609375q1.375 0 2.390625 0.609375q1.03125 0.609375 1.59375 1.765625q0.578125 1.15625 0.578125 2.78125zm-7.59375 0q0 1.203125 0.3125 2.09375q0.328125 0.875 0.984375 1.359375q0.671875 0.484375 1.71875 0.484375q1.03125 0 1.703125 -0.484375q0.671875 -0.484375 0.984375 -1.359375q0.328125 -0.890625 0.328125 -2.09375q0 -1.1875 -0.328125 -2.046875q-0.3125 -0.875 -0.984375 -1.34375q-0.65625 -0.484375 -1.71875 -0.484375q-1.5625 0 -2.28125 1.03125q-0.71875 1.03125 -0.71875 2.84375zm14.94165 -5.15625q1.765625 0 2.671875 0.875q0.921875 0.875 0.921875 2.796875l0 6.5l-1.5 0l0 -6.40625q0 -1.25 -0.578125 -1.859375q-0.5625 -0.625 -1.734375 -0.625q-1.65625 0 -2.328125 0.9375q-0.671875 0.9375 -0.671875 2.71875l0 5.234375l-1.515625 0l0 -9.984375l1.21875 0l0.234375 1.4375l0.078125 0q0.3125 -0.53125 0.796875 -0.890625q0.5 -0.359375 1.109375 -0.546875q0.609375 -0.1875 1.296875 -0.1875zm11.441528 0q1.765625 0 2.671875 0.875q0.921875 0.875 0.921875 2.796875l0 6.5l-1.5 0l0 -6.40625q0 -1.25 -0.578125 -1.859375q-0.5625 -0.625 -1.734375 -0.625q-1.65625 0 -2.328125 0.9375q-0.671875 0.9375 -0.671875 2.71875l0 5.234375l-1.515625 0l0 -9.984375l1.21875 0l0.234375 1.4375l0.078125 0q0.3125 -0.53125 0.796875 -0.890625q0.5 -0.359375 1.109375 -0.546875q0.609375 -0.1875 1.296875 -0.1875zm10.550903 0q1.28125 0 2.1875 0.578125q0.90625 0.5625 1.390625 1.578125q0.484375 1.015625 0.484375 2.375l0 0.9375l-6.890625 0q0.015625 1.75 0.859375 2.671875q0.859375 0.921875 2.390625 0.921875q0.953125 0 1.671875 -0.171875q0.734375 -0.171875 1.53125 -0.515625l0 1.328125q-0.765625 0.34375 -1.515625 0.5q-0.734375 0.15625 -1.75 0.15625q-1.4375 0 -2.515625 -0.59375q-1.0625 -0.59375 -1.65625 -1.71875q-0.59375 -1.140625 -0.59375 -2.796875q0 -1.609375 0.546875 -2.78125q0.546875 -1.1875 1.53125 -1.828125q0.984375 -0.640625 2.328125 -0.640625zm-0.015625 1.25q-1.21875 0 -1.9375 0.796875q-0.71875 0.78125 -0.859375 2.203125l5.296875 0q-0.015625 -0.890625 -0.28125 -1.5625q-0.265625 -0.6875 -0.8125 -1.0625q-0.546875 -0.375 -1.40625 -0.375zm10.647797 9.109375q-1.34375 0 -2.375 -0.546875q-1.03125 -0.5625 -1.609375 -1.703125q-0.578125 -1.140625 -0.578125 -2.875q0 -1.8125 0.609375 -2.96875q0.609375 -1.15625 1.671875 -1.703125q1.0625 -0.5625 2.421875 -0.5625q0.75 0 1.4375 0.15625q0.703125 0.15625 1.15625 0.375l-0.453125 1.265625q-0.453125 -0.171875 -1.0625 -0.3125q-0.59375 -0.15625 -1.109375 -0.15625q-1.03125 0 -1.734375 0.453125q-0.6875 0.4375 -1.03125 1.3125q-0.328125 0.859375 -0.328125 2.125q0 1.203125 0.328125 2.0625q0.328125 0.859375 0.984375 1.3125q0.671875 0.453125 1.65625 0.453125q0.796875 0 1.4375 -0.171875q0.640625 -0.171875 1.15625 -0.390625l0 1.34375q-0.5 0.25 -1.125 0.390625q-0.609375 0.140625 -1.453125 0.140625zm8.155182 -1.25q0.375 0 0.765625 -0.0625q0.390625 -0.0625 0.640625 -0.15625l0 1.1875q-0.265625 0.109375 -0.734375 0.1875q-0.46875 0.09375 -0.90625 0.09375q-0.796875 0 -1.453125 -0.28125q-0.640625 -0.28125 -1.03125 -0.9375q-0.375 -0.671875 -0.375 -1.84375l0 -5.921875l-1.421875 0l0 -0.734375l1.421875 -0.59375l0.609375 -2.171875l0.90625 0l0 2.3125l2.921875 0l0 1.1875l-2.921875 0l0 5.875q0 0.9375 0.421875 1.40625q0.4375 0.453125 1.15625 0.453125z" fill-rule="nonzero"/><path fill="#000000" fill-opacity="0.0" d="m98.88976 411.21783l117.51182 0l0 42.015747l-117.51182 0z" fill-rule="evenodd"/><path fill="#000000" d="m113.96789 438.32535q-1.484375 0 -2.53125 -0.625q-1.046875 -0.625 -1.625 -1.765625q-0.5625 -1.140625 -0.5625 -2.71875q0 -1.234375 0.296875 -2.46875q0.296875 -1.234375 0.875 -2.328125q0.578125 -1.109375 1.4375 -1.953125q0.875 -0.859375 2.015625 -1.34375q1.15625 -0.5 2.59375 -0.5q0.9375 0 1.71875 0.1875q0.796875 0.1875 1.484375 0.5625l-0.609375 1.28125q-0.515625 -0.28125 -1.15625 -0.46875q-0.640625 -0.1875 -1.4375 -0.1875q-1.125 0 -2.015625 0.40625q-0.890625 0.40625 -1.5625 1.109375q-0.671875 0.703125 -1.125 1.625q-0.4375 0.921875 -0.65625 1.953125q-0.21875 1.03125 -0.21875 2.09375q0 1.75 0.875 2.765625q0.890625 1.015625 2.46875 1.015625q0.796875 0 1.53125 -0.15625q0.75 -0.15625 1.453125 -0.390625l0 1.34375q-0.703125 0.25 -1.46875 0.40625q-0.75 0.15625 -1.78125 0.15625zm9.483459 -0.046875q-1.140625 0 -1.96875 -0.46875q-0.828125 -0.46875 -1.28125 -1.328125q-0.4375 -0.859375 -0.4375 -2.03125q0 -0.953125 0.203125 -1.875q0.21875 -0.921875 0.625 -1.75q0.421875 -0.828125 1.015625 -1.453125q0.609375 -0.640625 1.40625 -1.0q0.796875 -0.359375 1.765625 -0.359375q1.171875 0 1.984375 0.46875q0.828125 0.46875 1.2656326 1.34375q0.453125 0.859375 0.453125 2.046875q0 0.921875 -0.21875 1.84375q-0.203125 0.921875 -0.6093826 1.75q-0.390625 0.828125 -1.0 1.46875q-0.609375 0.625 -1.40625 0.984375q-0.796875 0.359375 -1.796875 0.359375zm0.09375 -1.25q0.5625 0 1.078125 -0.234375q0.515625 -0.234375 0.921875 -0.6875q0.421875 -0.453125 0.71875 -1.109375q0.3125 -0.65625 0.484375 -1.484375q0.171875 -0.828125 0.171875 -1.8125q0 -0.59375 -0.21875 -1.140625q-0.203125 -0.5625 -0.671875 -0.921875q-0.453125 -0.359375 -1.234375 -0.359375q-0.640625 0 -1.1875 0.265625q-0.53125 0.265625 -0.96875 0.75q-0.421875 0.46875 -0.71875 1.125q-0.296875 0.65625 -0.453125 1.453125q-0.15625 0.78125 -0.15625 1.640625q0 1.1875 0.578125 1.859375q0.578125 0.65625 1.65625 0.65625zm6.2845078 1.109375l2.140625 -10.03125l1.328125 0l-0.234375 1.921875l0.015625 0q0.359375 -0.46875 0.84375 -0.953125q0.484375 -0.5 1.125 -0.828125q0.65625 -0.328125 1.484375 -0.328125q0.8125 0 1.375 0.296875q0.578125 0.296875 0.890625 0.859375q0.3125 0.546875 0.3125 1.34375q0 0.421875 -0.0625 0.859375q-0.0625 0.421875 -0.140625 0.75l-1.328125 6.109375l-1.609375 0l1.34375 -6.296875q0.078125 -0.421875 0.125 -0.703125q0.0625 -0.296875 0.0625 -0.546875q0 -0.640625 -0.359375 -0.96875q-0.34375 -0.328125 -1.015625 -0.328125q-0.65625 0 -1.40625 0.453125q-0.734375 0.453125 -1.359375 1.4375q-0.625 0.984375 -0.96875 2.546875l-0.9375 4.40625l-1.625 0zm14.811707 0.1875q-1.125 0 -1.9375 -0.453125q-0.8125 -0.453125 -1.25 -1.296875q-0.421875 -0.84375 -0.421875 -2.015625q0 -1.21875 0.34375 -2.375q0.359375 -1.171875 1.015625 -2.125q0.65625 -0.953125 1.578125 -1.515625q0.921875 -0.578125 2.078125 -0.578125q1.375 0 2.078125 0.625q0.71875 0.609375 0.71875 1.6875q0 0.75 -0.359375 1.390625q-0.34375 0.640625 -1.078125 1.109375q-0.71875 0.46875 -1.828125 0.734375q-1.109375 0.25 -2.625 0.25l-0.34375 0q-0.015625 0.171875 -0.03125 0.375q-0.015625 0.1875 -0.015625 0.359375q0 1.203125 0.578125 1.890625q0.59375 0.671875 1.765625 0.671875q0.71875 0 1.359375 -0.203125q0.640625 -0.203125 1.34375 -0.546875l0 1.3125q-0.671875 0.3125 -1.359375 0.515625q-0.6875 0.1875 -1.609375 0.1875zm-1.8125 -5.796875l0.21875 0q1.171875 0 2.140625 -0.203125q0.984375 -0.203125 1.5625 -0.671875q0.59375 -0.46875 0.59375 -1.265625q0 -0.5 -0.34375 -0.828125q-0.34375 -0.328125 -1.046875 -0.328125q-0.640625 0 -1.25 0.390625q-0.609375 0.375 -1.109375 1.125q-0.484375 0.734375 -0.765625 1.78125zm12.184814 5.609375l2.8125 -13.3125l1.625 0l4.21875 11.140625l0.046875 0q0.0625 -0.453125 0.15625 -1.046875q0.109375 -0.609375 0.234375 -1.265625q0.125 -0.671875 0.25 -1.265625l1.625 -7.5625l1.453125 0l-2.8125 13.3125l-1.625 0l-4.234375 -11.171875l-0.046875 0q-0.046875 0.296875 -0.125 0.734375q-0.0625 0.421875 -0.15625 0.921875q-0.078125 0.5 -0.1875 1.03125q-0.09375 0.515625 -0.203125 1.015625l-1.578125 7.46875l-1.453125 0zm11.314285 0l7.296875 -13.3125l1.609375 0l1.6875 13.3125l-1.515625 0l-0.53125 -4.25l-4.609375 0l-2.25 4.25l-1.6875 0zm4.6875 -5.625l3.703125 0l-0.359375 -3.109375q-0.0625 -0.671875 -0.140625 -1.46875q-0.0625 -0.8125 -0.078125 -1.453125l-0.0625 0q-0.296875 0.703125 -0.671875 1.46875q-0.359375 0.75 -0.765625 1.53125l-1.625 3.03125zm9.692078 5.625l2.53125 -11.953125l-3.71875 0l0.296875 -1.359375l8.96875 0l-0.265625 1.359375l-3.71875 0l-2.546875 11.953125l-1.546875 0z" fill-rule="nonzero"/><path fill="#000000" fill-opacity="0.0" d="m1052.8268 218.87665l160.31494 0l0 42.015747l-160.31494 0z" fill-rule="evenodd"/><path fill="#000000" d="m1065.3112 245.98415q-1.0 0 -1.75 -0.15625q-0.734375 -0.140625 -1.375 -0.4375l0 -1.53125q0.5625 0.296875 1.34375 0.546875q0.78125 0.234375 1.796875 0.234375q0.625 0 1.203125 -0.140625q0.578125 -0.15625 1.015625 -0.453125q0.453125 -0.3125 0.71875 -0.796875q0.265625 -0.484375 0.265625 -1.15625q0 -0.53125 -0.234375 -0.9375q-0.234375 -0.421875 -0.734375 -0.8125q-0.5 -0.390625 -1.3125 -0.828125q-0.703125 -0.421875 -1.25 -0.859375q-0.546875 -0.453125 -0.875 -1.0625q-0.3125 -0.609375 -0.3125 -1.46875q0 -0.9375 0.34375 -1.640625q0.34375 -0.71875 0.953125 -1.203125q0.609375 -0.5 1.390625 -0.75q0.796875 -0.25 1.671875 -0.25q1.046875 0 1.828125 0.21875q0.78125 0.203125 1.5 0.5625l-0.59375 1.3125q-0.515625 -0.28125 -1.234375 -0.5q-0.71875 -0.21875 -1.5 -0.21875q-0.5625 0 -1.0625 0.15625q-0.5 0.140625 -0.875 0.453125q-0.375 0.296875 -0.59375 0.734375q-0.203125 0.4375 -0.203125 1.015625q0 0.59375 0.21875 0.984375q0.234375 0.390625 0.65625 0.71875q0.4375 0.3125 1.078125 0.6875q0.8125 0.46875 1.421875 0.953125q0.625 0.46875 0.96875 1.078125q0.359375 0.609375 0.359375 1.546875q0 1.0 -0.359375 1.75q-0.34375 0.75 -1.0 1.25q-0.640625 0.5 -1.53125 0.75q-0.875 0.25 -1.9375 0.25zm5.385376 4.296875q-0.4375 0 -0.71875 -0.0625q-0.28125 -0.046875 -0.546875 -0.125l0 -1.234375q0.25 0.078125 0.546875 0.125q0.296875 0.046875 0.640625 0.046875q0.75 0 1.28125 -0.484375q0.546875 -0.46875 1.046875 -1.390625l0.703125 -1.234375l-1.53125 -10.109375l1.53125 0l0.6875 5.125q0.09375 0.609375 0.140625 1.296875q0.0625 0.6875 0.09375 1.296875q0.03125 0.609375 0.03125 1.0l0.046875 0q0.125 -0.296875 0.375 -0.859375q0.265625 -0.578125 0.546875 -1.1875q0.296875 -0.625 0.53125 -1.046875l3.0 -5.625l1.609375 0l-6.390625 11.71875q-0.484375 0.90625 -1.0 1.515625q-0.515625 0.625 -1.15625 0.921875q-0.625 0.3125 -1.46875 0.3125zm9.65271 -4.484375l2.125 -9.984375l1.234375 0l-0.234375 1.9375l0.09375 0q0.328125 -0.484375 0.78125 -0.96875q0.46875 -0.484375 1.078125 -0.8125q0.625 -0.34375 1.40625 -0.34375q1.0625 0 1.609375 0.609375q0.546875 0.609375 0.625 1.671875l0.0625 0q0.375 -0.546875 0.875 -1.0625q0.515625 -0.53125 1.15625 -0.875q0.65625 -0.34375 1.453125 -0.34375q1.15625 0 1.78125 0.640625q0.625 0.625 0.625 1.8125q0 0.4375 -0.046875 0.828125q-0.046875 0.375 -0.15625 0.765625l-1.296875 6.125l-1.53125 0l1.359375 -6.28125q0.078125 -0.421875 0.109375 -0.71875q0.046875 -0.296875 0.046875 -0.5625q0 -0.625 -0.328125 -0.96875q-0.328125 -0.359375 -1.0 -0.359375q-0.484375 0 -1.015625 0.265625q-0.515625 0.265625 -1.0 0.796875q-0.484375 0.53125 -0.875 1.34375q-0.390625 0.8125 -0.625 1.90625l-0.984375 4.578125l-1.515625 0l1.328125 -6.265625q0.09375 -0.40625 0.125 -0.703125q0.046875 -0.3125 0.046875 -0.53125q0 -0.65625 -0.3125 -1.015625q-0.296875 -0.375 -0.96875 -0.375q-0.484375 0 -1.015625 0.265625q-0.515625 0.25 -1.015625 0.796875q-0.484375 0.546875 -0.90625 1.390625q-0.40625 0.84375 -0.640625 2.03125l-0.9375 4.40625l-1.515625 0zm16.260498 0l2.125 -9.984375l1.234375 0l-0.234375 1.9375l0.09375 0q0.328125 -0.484375 0.78125 -0.96875q0.46875 -0.484375 1.078125 -0.8125q0.625 -0.34375 1.40625 -0.34375q1.0625 0 1.609375 0.609375q0.546875 0.609375 0.625 1.671875l0.0625 0q0.375 -0.546875 0.875 -1.0625q0.515625 -0.53125 1.15625 -0.875q0.65625 -0.34375 1.453125 -0.34375q1.15625 0 1.78125 0.640625q0.625 0.625 0.625 1.8125q0 0.4375 -0.046875 0.828125q-0.046875 0.375 -0.15625 0.765625l-1.296875 6.125l-1.53125 0l1.359375 -6.28125q0.078125 -0.421875 0.109375 -0.71875q0.046875 -0.296875 0.046875 -0.5625q0 -0.625 -0.328125 -0.96875q-0.328125 -0.359375 -1.0 -0.359375q-0.484375 0 -1.015625 0.265625q-0.515625 0.265625 -1.0 0.796875q-0.484375 0.53125 -0.875 1.34375q-0.390625 0.8125 -0.625 1.90625l-0.984375 4.578125l-1.515625 0l1.328125 -6.265625q0.09375 -0.40625 0.125 -0.703125q0.046875 -0.3125 0.046875 -0.53125q0 -0.65625 -0.3125 -1.015625q-0.296875 -0.375 -0.96875 -0.375q-0.484375 0 -1.015625 0.265625q-0.515625 0.25 -1.015625 0.796875q-0.484375 0.546875 -0.90625 1.390625q-0.40625 0.84375 -0.640625 2.03125l-0.9375 4.40625l-1.515625 0zm20.260498 0.1875q-1.125 0 -1.9375 -0.453125q-0.8125 -0.453125 -1.25 -1.296875q-0.421875 -0.84375 -0.421875 -2.015625q0 -1.21875 0.34375 -2.375q0.359375 -1.171875 1.015625 -2.125q0.65625 -0.953125 1.578125 -1.515625q0.921875 -0.578125 2.078125 -0.578125q1.375 0 2.078125 0.625q0.71875 0.609375 0.71875 1.6875q0 0.75 -0.359375 1.390625q-0.34375 0.640625 -1.078125 1.109375q-0.71875 0.46875 -1.828125 0.734375q-1.109375 0.25 -2.625 0.25l-0.34375 0q-0.015625 0.171875 -0.03125 0.375q-0.015625 0.1875 -0.015625 0.359375q0 1.203125 0.578125 1.890625q0.59375 0.671875 1.765625 0.671875q0.71875 0 1.359375 -0.203125q0.640625 -0.203125 1.34375 -0.546875l0 1.3125q-0.671875 0.3125 -1.359375 0.515625q-0.6875 0.1875 -1.609375 0.1875zm-1.8125 -5.796875l0.21875 0q1.171875 0 2.140625 -0.203125q0.984375 -0.203125 1.5625 -0.671875q0.59375 -0.46875 0.59375 -1.265625q0 -0.5 -0.34375 -0.828125q-0.34375 -0.328125 -1.046875 -0.328125q-0.640625 0 -1.25 0.390625q-0.609375 0.375 -1.109375 1.125q-0.484375 0.734375 -0.765625 1.78125zm9.947876 5.796875q-1.0 0 -1.65625 -0.484375q-0.65625 -0.484375 -0.65625 -1.640625q0 -0.28125 0.03125 -0.609375q0.03125 -0.34375 0.125 -0.703125l1.171875 -5.578125l-1.546875 0l0.15625 -0.703125l1.65625 -0.640625l1.09375 -2.109375l0.890625 0l-0.5 2.296875l2.578125 0l-0.234375 1.15625l-2.5625 0l-1.1875 5.609375q-0.0625 0.25 -0.125 0.546875q-0.046875 0.28125 -0.046875 0.546875q0 0.453125 0.234375 0.765625q0.25 0.296875 0.796875 0.296875q0.34375 0 0.65625 -0.0625q0.328125 -0.0625 0.671875 -0.171875l0 1.15625q-0.21875 0.109375 -0.6875 0.21875q-0.453125 0.109375 -0.859375 0.109375zm3.3051758 -0.1875l2.125 -9.984375l1.234375 0l-0.234375 1.9375l0.09375 0q0.375 -0.53125 0.8125 -1.015625q0.4375 -0.484375 1.0 -0.796875q0.5625 -0.3125 1.28125 -0.3125q0.28125 0 0.5625 0.03125q0.28125 0.03125 0.53125 0.109375l-0.328125 1.359375q-0.25 -0.0625 -0.484375 -0.078125q-0.234375 -0.03125 -0.46875 -0.03125q-0.703125 0 -1.296875 0.359375q-0.59375 0.359375 -1.0625 0.96875q-0.46875 0.59375 -0.796875 1.328125q-0.3125 0.734375 -0.46875 1.5l-0.984375 4.625l-1.515625 0zm7.369629 0l2.125 -9.984375l1.515625 0l-2.125 9.984375l-1.515625 0zm3.390625 -11.734375q-0.359375 0 -0.609375 -0.203125q-0.234375 -0.21875 -0.234375 -0.609375q0 -0.3125 0.125 -0.5625q0.125 -0.265625 0.359375 -0.421875q0.234375 -0.171875 0.5625 -0.171875q0.40625 0 0.59375 0.21875q0.203125 0.203125 0.203125 0.578125q0 0.53125 -0.3125 0.859375q-0.296875 0.3125 -0.6875 0.3125zm5.3970947 11.921875q-1.109375 0 -1.953125 -0.421875q-0.828125 -0.4375 -1.296875 -1.265625q-0.453125 -0.828125 -0.453125 -2.046875q0 -1.078125 0.234375 -2.0625q0.234375 -0.984375 0.671875 -1.8125q0.453125 -0.828125 1.09375 -1.4375q0.640625 -0.625 1.453125 -0.96875q0.8125 -0.34375 1.78125 -0.34375q0.640625 0 1.28125 0.125q0.65625 0.125 1.171875 0.359375l-0.4375 1.265625q-0.375 -0.171875 -0.90625 -0.3125q-0.515625 -0.15625 -1.09375 -0.15625q-0.84375 0 -1.515625 0.421875q-0.671875 0.421875 -1.171875 1.171875q-0.484375 0.734375 -0.75 1.6875q-0.265625 0.953125 -0.265625 2.03125q0 0.78125 0.265625 1.34375q0.28125 0.5625 0.796875 0.859375q0.515625 0.296875 1.234375 0.296875q0.671875 0 1.25 -0.171875q0.59375 -0.1875 1.15625 -0.4375l0 1.28125q-0.5 0.265625 -1.140625 0.421875q-0.640625 0.171875 -1.40625 0.171875zm9.456055 -0.1875l2.8125 -13.3125l1.625 0l4.21875 11.140625l0.046875 0q0.0625 -0.453125 0.15625 -1.046875q0.109375 -0.609375 0.234375 -1.265625q0.125 -0.671875 0.25 -1.265625l1.625 -7.5625l1.453125 0l-2.8125 13.3125l-1.625 0l-4.234375 -11.171875l-0.046875 0q-0.046875 0.296875 -0.125 0.734375q-0.0625 0.421875 -0.15625 0.921875q-0.078125 0.5 -0.1875 1.03125q-0.09375 0.515625 -0.203125 1.015625l-1.578125 7.46875l-1.453125 0zm11.314331 0l7.296875 -13.3125l1.609375 0l1.6875 13.3125l-1.515625 0l-0.53125 -4.25l-4.609375 0l-2.25 4.25l-1.6875 0zm4.6875 -5.625l3.703125 0l-0.359375 -3.109375q-0.0625 -0.671875 -0.140625 -1.46875q-0.0625 -0.8125 -0.078125 -1.453125l-0.0625 0q-0.296875 0.703125 -0.671875 1.46875q-0.359375 0.75 -0.765625 1.53125l-1.625 3.03125zm9.692017 5.625l2.53125 -11.953125l-3.71875 0l0.296875 -1.359375l8.96875 0l-0.265625 1.359375l-3.71875 0l-2.546875 11.953125l-1.546875 0z" fill-rule="nonzero"/><path fill="#000000" fill-opacity="0.0" d="m1084.1627 606.2966l117.51184 0l0 42.015747l-117.51184 0z" fill-rule="evenodd"/><path fill="#000000" d="m1099.2408 633.4041q-1.484375 0 -2.53125 -0.625q-1.046875 -0.625 -1.625 -1.765625q-0.5625 -1.140625 -0.5625 -2.71875q0 -1.234375 0.296875 -2.46875q0.296875 -1.234375 0.875 -2.328125q0.578125 -1.109375 1.4375 -1.953125q0.875 -0.859375 2.015625 -1.34375q1.15625 -0.5 2.59375 -0.5q0.9375 0 1.71875 0.1875q0.796875 0.1875 1.484375 0.5625l-0.609375 1.28125q-0.515625 -0.28125 -1.15625 -0.46875q-0.640625 -0.1875 -1.4375 -0.1875q-1.125 0 -2.015625 0.40625q-0.890625 0.40625 -1.5625 1.109375q-0.671875 0.703125 -1.125 1.625q-0.4375 0.921875 -0.65625 1.953125q-0.21875 1.03125 -0.21875 2.09375q0 1.75 0.875 2.765625q0.890625 1.015625 2.46875 1.015625q0.796875 0 1.53125 -0.15625q0.75 -0.15625 1.453125 -0.390625l0 1.34375q-0.703125 0.25 -1.46875 0.40625q-0.75 0.15625 -1.78125 0.15625zm9.4835205 -0.046875q-1.140625 0 -1.96875 -0.46875q-0.828125 -0.46875 -1.28125 -1.328125q-0.4375 -0.859375 -0.4375 -2.03125q0 -0.953125 0.203125 -1.875q0.21875 -0.921875 0.625 -1.75q0.421875 -0.828125 1.015625 -1.453125q0.609375 -0.640625 1.40625 -1.0q0.796875 -0.359375 1.765625 -0.359375q1.171875 0 1.984375 0.46875q0.828125 0.46875 1.265625 1.34375q0.453125 0.859375 0.453125 2.046875q0 0.921875 -0.21875 1.84375q-0.203125 0.921875 -0.609375 1.75q-0.390625 0.828125 -1.0 1.46875q-0.609375 0.625 -1.40625 0.984375q-0.796875 0.359375 -1.796875 0.359375zm0.09375 -1.25q0.5625 0 1.078125 -0.234375q0.515625 -0.234375 0.921875 -0.6875q0.421875 -0.453125 0.71875 -1.109375q0.3125 -0.65625 0.484375 -1.484375q0.171875 -0.828125 0.171875 -1.8125q0 -0.59375 -0.21875 -1.140625q-0.203125 -0.5625 -0.671875 -0.921875q-0.453125 -0.359375 -1.234375 -0.359375q-0.640625 0 -1.1875 0.265625q-0.53125 0.265625 -0.96875 0.75q-0.421875 0.46875 -0.71875 1.125q-0.296875 0.65625 -0.453125 1.453125q-0.15625 0.78125 -0.15625 1.640625q0 1.1875 0.578125 1.859375q0.578125 0.65625 1.65625 0.65625zm6.284424 1.109375l2.140625 -10.03125l1.328125 0l-0.234375 1.921875l0.015625 0q0.359375 -0.46875 0.84375 -0.953125q0.484375 -0.5 1.125 -0.828125q0.65625 -0.328125 1.484375 -0.328125q0.8125 0 1.375 0.296875q0.578125 0.296875 0.890625 0.859375q0.3125 0.546875 0.3125 1.34375q0 0.421875 -0.0625 0.859375q-0.0625 0.421875 -0.140625 0.75l-1.328125 6.109375l-1.609375 0l1.34375 -6.296875q0.078125 -0.421875 0.125 -0.703125q0.0625 -0.296875 0.0625 -0.546875q0 -0.640625 -0.359375 -0.96875q-0.34375 -0.328125 -1.015625 -0.328125q-0.65625 0 -1.40625 0.453125q-0.734375 0.453125 -1.359375 1.4375q-0.625 0.984375 -0.96875 2.546875l-0.9375 4.40625l-1.625 0zm14.811768 0.1875q-1.125 0 -1.9375 -0.453125q-0.8125 -0.453125 -1.25 -1.296875q-0.421875 -0.84375 -0.421875 -2.015625q0 -1.21875 0.34375 -2.375q0.359375 -1.171875 1.015625 -2.125q0.65625 -0.953125 1.578125 -1.515625q0.921875 -0.578125 2.078125 -0.578125q1.375 0 2.078125 0.625q0.71875 0.609375 0.71875 1.6875q0 0.75 -0.359375 1.390625q-0.34375 0.640625 -1.078125 1.109375q-0.71875 0.46875 -1.828125 0.734375q-1.109375 0.25 -2.625 0.25l-0.34375 0q-0.015625 0.171875 -0.03125 0.375q-0.015625 0.1875 -0.015625 0.359375q0 1.203125 0.578125 1.890625q0.59375 0.671875 1.765625 0.671875q0.71875 0 1.359375 -0.203125q0.640625 -0.203125 1.34375 -0.546875l0 1.3125q-0.671875 0.3125 -1.359375 0.515625q-0.6875 0.1875 -1.609375 0.1875zm-1.8125 -5.796875l0.21875 0q1.171875 0 2.140625 -0.203125q0.984375 -0.203125 1.5625 -0.671875q0.59375 -0.46875 0.59375 -1.265625q0 -0.5 -0.34375 -0.828125q-0.34375 -0.328125 -1.046875 -0.328125q-0.640625 0 -1.25 0.390625q-0.609375 0.375 -1.109375 1.125q-0.484375 0.734375 -0.765625 1.78125zm12.184814 5.609375l2.8125 -13.3125l1.625 0l4.21875 11.140625l0.046875 0q0.0625 -0.453125 0.15625 -1.046875q0.109375 -0.609375 0.234375 -1.265625q0.125 -0.671875 0.25 -1.265625l1.625 -7.5625l1.453125 0l-2.8125 13.3125l-1.625 0l-4.234375 -11.171875l-0.046875 0q-0.046875 0.296875 -0.125 0.734375q-0.0625 0.421875 -0.15625 0.921875q-0.078125 0.5 -0.1875 1.03125q-0.09375 0.515625 -0.203125 1.015625l-1.578125 7.46875l-1.453125 0zm11.314209 0l7.296875 -13.3125l1.609375 0l1.6875 13.3125l-1.515625 0l-0.53125 -4.25l-4.609375 0l-2.25 4.25l-1.6875 0zm4.6875 -5.625l3.703125 0l-0.359375 -3.109375q-0.0625 -0.671875 -0.140625 -1.46875q-0.0625 -0.8125 -0.078125 -1.453125l-0.0625 0q-0.296875 0.703125 -0.671875 1.46875q-0.359375 0.75 -0.765625 1.53125l-1.625 3.03125zm9.692139 5.625l2.53125 -11.953125l-3.71875 0l0.296875 -1.359375l8.96875 0l-0.265625 1.359375l-3.71875 0l-2.546875 11.953125l-1.546875 0z" fill-rule="nonzero"/></g></svg>